<?xml version='1.0' encoding='UTF-8'?>
<svg xmlns="http://www.w3.org/2000/svg" version="1.1" viewBox="0 0 187.810398 82.23999923150237" width="187.810398" height="82.23999923150237">
  <path d="M 185.485199,4.219999615751181 A 0.02500000000000568,0.02500000000000568 0.0 1,0 185.535199,4.219999615751181 A 0.02500000000000568,0.02500000000000568 0.0 1,0 185.485199,4.219999615751181" fill="#FFFFFF" stroke="#FFFFFF" fill-opacity="1" stroke-opacity="1"/>
  <path d="M 185.510199,4.19499962 A 2.275199,2.275199 0.0 0,1 187.785398,6.47019862 L 187.735398,6.47019862 A 2.225199,2.225199 0.0 0,0 185.510199,4.24499962 L 185.510199,4.19499962" fill="#FFFFFF" stroke="#FFFFFF" fill-opacity="1" stroke-opacity="1"/>
  <path d="M 187.735398,6.4701986157511815 A 0.02500000000000568,0.02500000000000568 0.0 1,0 187.78539800000001,6.4701986157511815 A 0.02500000000000568,0.02500000000000568 0.0 1,0 187.735398,6.4701986157511815" fill="#FFFFFF" stroke="#FFFFFF" fill-opacity="1" stroke-opacity="1"/>
  <path d="M 126.155199,4.239999615751182 A 0.02500000000000568,0.02500000000000568 0.0 1,0 126.20519900000001,4.239999615751182 A 0.02500000000000568,0.02500000000000568 0.0 1,0 126.155199,4.239999615751182" fill="#FFFFFF" stroke="#FFFFFF" fill-opacity="1" stroke-opacity="1"/>
  <path d="M 126.18018346,4.21499962 L 126.18021454,4.26499961 L 40.93901754,4.31799061 L 40.93898646,4.26799062 L 126.18018346,4.21499962" fill="#FFFFFF" stroke="#FFFFFF" fill-opacity="1" stroke-opacity="1"/>
  <path d="M 40.914002,4.292990615751181 A 0.025,0.025 0.0 1,0 40.964002,4.292990615751181 A 0.025,0.025 0.0 1,0 40.914002,4.292990615751181" fill="#FFFFFF" stroke="#FFFFFF" fill-opacity="1" stroke-opacity="1"/>
  <path d="M 171.335199,78.02999961575118 A 0.02500000000000568,0.02500000000000568 0.0 1,0 171.385199,78.02999961575118 A 0.02500000000000568,0.02500000000000568 0.0 1,0 171.335199,78.02999961575118" fill="#FFFFFF" stroke="#FFFFFF" fill-opacity="1" stroke-opacity="1"/>
  <path d="M 171.36022103,78.00499963 L 171.36017697,78.05499961 L 160.01017697,78.04499961 L 160.01022103,77.99499963 L 171.36022103,78.00499963" fill="#FFFFFF" stroke="#FFFFFF" fill-opacity="1" stroke-opacity="1"/>
  <path d="M 159.985199,78.01999961575117 A 0.02500000000000568,0.02500000000000568 0.0 1,0 160.035199,78.01999961575117 A 0.02500000000000568,0.02500000000000568 0.0 1,0 159.985199,78.01999961575117" fill="#FFFFFF" stroke="#FFFFFF" fill-opacity="1" stroke-opacity="1"/>
  <path d="M 27.985199,77.96700861575118 A 0.025,0.025 0.0 1,0 28.035199,77.96700861575118 A 0.025,0.025 0.0 1,0 27.985199,77.96700861575118" fill="#FFFFFF" stroke="#FFFFFF" fill-opacity="1" stroke-opacity="1"/>
  <path d="M 28.01014932,77.94200867 L 28.01024868,77.99200857 L 16.44024868,78.01499957 L 16.44014932,77.96499967 L 28.01014932,77.94200867" fill="#FFFFFF" stroke="#FFFFFF" fill-opacity="1" stroke-opacity="1"/>
  <path d="M 16.415199,77.98999961575119 A 0.025,0.025 0.0 1,0 16.465199,77.98999961575119 A 0.025,0.025 0.0 1,0 16.415199,77.98999961575119" fill="#FFFFFF" stroke="#FFFFFF" fill-opacity="1" stroke-opacity="1"/>
  <path d="M 151.645421,77.97700861575119 A 0.02500000000000568,0.02500000000000568 0.0 1,0 151.695421,77.97700861575119 A 0.02500000000000568,0.02500000000000568 0.0 1,0 151.645421,77.97700861575119" fill="#FFFFFF" stroke="#FFFFFF" fill-opacity="1" stroke-opacity="1"/>
  <path d="M 151.64542233,77.97675088 A 4.19499962,4.19499962 0.0 0,1 160.035199,78.01999962 L 159.985199,78.01999962 A 4.145,4.145 0.0 0,0 151.69541967,77.97726636 L 151.64542233,77.97675088" fill="#FFFFFF" stroke="#FFFFFF" fill-opacity="1" stroke-opacity="1"/>
  <path d="M 159.985199,78.01999961575117 A 0.02500000000000568,0.02500000000000568 0.0 1,0 160.035199,78.01999961575117 A 0.02500000000000568,0.02500000000000568 0.0 1,0 159.985199,78.01999961575117" fill="#FFFFFF" stroke="#FFFFFF" fill-opacity="1" stroke-opacity="1"/>
  <path d="M 16.415199,77.98999961575119 A 0.025,0.025 0.0 1,0 16.465199,77.98999961575119 A 0.025,0.025 0.0 1,0 16.415199,77.98999961575119" fill="#FFFFFF" stroke="#FFFFFF" fill-opacity="1" stroke-opacity="1"/>
  <path d="M 16.440199,78.01499962 A 2.035,2.035 0.0 0,1 14.405199,75.97999962 L 14.455199,75.97999962 A 1.985,1.985 0.0 0,0 16.440199,77.96499962 L 16.440199,78.01499962" fill="#FFFFFF" stroke="#FFFFFF" fill-opacity="1" stroke-opacity="1"/>
  <path d="M 14.405199,75.97999961575118 A 0.025000000000000352,0.025000000000000352 0.0 1,0 14.455199,75.97999961575118 A 0.025000000000000352,0.025000000000000352 0.0 1,0 14.405199,75.97999961575118" fill="#FFFFFF" stroke="#FFFFFF" fill-opacity="1" stroke-opacity="1"/>
  <path d="M 175.355199,56.969999615751185 A 0.02500000000000568,0.02500000000000568 0.0 1,0 175.405199,56.969999615751185 A 0.02500000000000568,0.02500000000000568 0.0 1,0 175.355199,56.969999615751185" fill="#FFFFFF" stroke="#FFFFFF" fill-opacity="1" stroke-opacity="1"/>
  <path d="M 175.380199,56.99499962 L 175.380199,56.94499962 L 185.740199,56.94499962 L 185.740199,56.99499962 L 175.380199,56.99499962" fill="#FFFFFF" stroke="#FFFFFF" fill-opacity="1" stroke-opacity="1"/>
  <path d="M 185.71519899999998,56.969999615751185 A 0.02500000000000568,0.02500000000000568 0.0 1,0 185.765199,56.969999615751185 A 0.02500000000000568,0.02500000000000568 0.0 1,0 185.71519899999998,56.969999615751185" fill="#FFFFFF" stroke="#FFFFFF" fill-opacity="1" stroke-opacity="1"/>
  <path d="M 187.725199,54.95999961575118 A 0.02500000000000568,0.02500000000000568 0.0 1,0 187.77519900000001,54.95999961575118 A 0.02500000000000568,0.02500000000000568 0.0 1,0 187.725199,54.95999961575118" fill="#FFFFFF" stroke="#FFFFFF" fill-opacity="1" stroke-opacity="1"/>
  <path d="M 187.775199,54.95999962 A 2.035,2.035 0.0 0,1 185.740199,56.99499962 L 185.740199,56.94499962 A 1.985,1.985 0.0 0,0 187.725199,54.95999962 L 187.775199,54.95999962" fill="#FFFFFF" stroke="#FFFFFF" fill-opacity="1" stroke-opacity="1"/>
  <path d="M 185.71519899999998,56.969999615751185 A 0.02500000000000568,0.02500000000000568 0.0 1,0 185.765199,56.969999615751185 A 0.02500000000000568,0.02500000000000568 0.0 1,0 185.71519899999998,56.969999615751185" fill="#FFFFFF" stroke="#FFFFFF" fill-opacity="1" stroke-opacity="1"/>
  <path d="M 173.345199,76.01999961575117 A 0.02500000000000568,0.02500000000000568 0.0 1,0 173.39519900000002,76.01999961575117 A 0.02500000000000568,0.02500000000000568 0.0 1,0 173.345199,76.01999961575117" fill="#FFFFFF" stroke="#FFFFFF" fill-opacity="1" stroke-opacity="1"/>
  <path d="M 173.395199,76.01999962 L 173.345199,76.01999962 L 173.345199,58.97999962 L 173.395199,58.97999962 L 173.395199,76.01999962" fill="#FFFFFF" stroke="#FFFFFF" fill-opacity="1" stroke-opacity="1"/>
  <path d="M 173.345199,58.97999961575118 A 0.02500000000000568,0.02500000000000568 0.0 1,0 173.39519900000002,58.97999961575118 A 0.02500000000000568,0.02500000000000568 0.0 1,0 173.345199,58.97999961575118" fill="#FFFFFF" stroke="#FFFFFF" fill-opacity="1" stroke-opacity="1"/>
  <path d="M 173.345199,58.97999961575118 A 0.02500000000000568,0.02500000000000568 0.0 1,0 173.39519900000002,58.97999961575118 A 0.02500000000000568,0.02500000000000568 0.0 1,0 173.345199,58.97999961575118" fill="#FFFFFF" stroke="#FFFFFF" fill-opacity="1" stroke-opacity="1"/>
  <path d="M 173.345199,58.97999962 A 2.035,2.035 0.0 0,1 175.380199,56.94499962 L 175.380199,56.99499962 A 1.985,1.985 0.0 0,0 173.395199,58.97999962 L 173.345199,58.97999962" fill="#FFFFFF" stroke="#FFFFFF" fill-opacity="1" stroke-opacity="1"/>
  <path d="M 175.355199,56.969999615751185 A 0.02500000000000568,0.02500000000000568 0.0 1,0 175.405199,56.969999615751185 A 0.02500000000000568,0.02500000000000568 0.0 1,0 175.355199,56.969999615751185" fill="#FFFFFF" stroke="#FFFFFF" fill-opacity="1" stroke-opacity="1"/>
  <path d="M 173.345199,76.01999961575117 A 0.02500000000000568,0.02500000000000568 0.0 1,0 173.39519900000002,76.01999961575117 A 0.02500000000000568,0.02500000000000568 0.0 1,0 173.345199,76.01999961575117" fill="#FFFFFF" stroke="#FFFFFF" fill-opacity="1" stroke-opacity="1"/>
  <path d="M 173.395199,76.01999962 A 2.035,2.035 0.0 0,1 171.360199,78.05499962 L 171.360199,78.00499962 A 1.985,1.985 0.0 0,0 173.345199,76.01999962 L 173.395199,76.01999962" fill="#FFFFFF" stroke="#FFFFFF" fill-opacity="1" stroke-opacity="1"/>
  <path d="M 171.335199,78.02999961575118 A 0.02500000000000568,0.02500000000000568 0.0 1,0 171.385199,78.02999961575118 A 0.02500000000000568,0.02500000000000568 0.0 1,0 171.335199,78.02999961575118" fill="#FFFFFF" stroke="#FFFFFF" fill-opacity="1" stroke-opacity="1"/>
  <path d="M 0.025,6.489999615751182 A 0.025,0.025 0.0 1,0 0.07500000000000001,6.489999615751182 A 0.025,0.025 0.0 1,0 0.025,6.489999615751182" fill="#FFFFFF" stroke="#FFFFFF" fill-opacity="1" stroke-opacity="1"/>
  <path d="M 0.025,6.48999962 A 2.275199,2.275199 0.0 0,1 2.300199,4.21480062 L 2.300199,4.26480062 A 2.225199,2.225199 0.0 0,0 0.075,6.48999962 L 0.025,6.48999962" fill="#FFFFFF" stroke="#FFFFFF" fill-opacity="1" stroke-opacity="1"/>
  <path d="M 2.275199,4.239800615751181 A 0.025,0.025 0.0 1,0 2.325199,4.239800615751181 A 0.025,0.025 0.0 1,0 2.275199,4.239800615751181" fill="#FFFFFF" stroke="#FFFFFF" fill-opacity="1" stroke-opacity="1"/>
  <path d="M 0.0001989999999999978,54.95999961575118 A 0.05,0.05 0.0 1,0 0.10019900000000001,54.95999961575118 A 0.05,0.05 0.0 1,0 0.0001989999999999978,54.95999961575118" fill="#FFFFFF" stroke="#FFFFFF" fill-opacity="1" stroke-opacity="1"/>
  <path d="M 0.100199,54.95999941 L 0.000199,54.95999982 L 0.0,6.48999982 L 0.1,6.48999941 L 0.100199,54.95999941" fill="#FFFFFF" stroke="#FFFFFF" fill-opacity="1" stroke-opacity="1"/>
  <path d="M 0.0,6.489999615751182 A 0.05,0.05 0.0 1,0 0.1,6.489999615751182 A 0.05,0.05 0.0 1,0 0.0,6.489999615751182" fill="#FFFFFF" stroke="#FFFFFF" fill-opacity="1" stroke-opacity="1"/>
  <path d="M 12.395199,56.969999615751185 A 0.025000000000000352,0.025000000000000352 0.0 1,0 12.445199,56.969999615751185 A 0.025000000000000352,0.025000000000000352 0.0 1,0 12.395199,56.969999615751185" fill="#FFFFFF" stroke="#FFFFFF" fill-opacity="1" stroke-opacity="1"/>
  <path d="M 12.420199,56.94499962 A 2.035,2.035 0.0 0,1 14.455199,58.97999962 L 14.405199,58.97999962 A 1.985,1.985 0.0 0,0 12.420199,56.99499962 L 12.420199,56.94499962" fill="#FFFFFF" stroke="#FFFFFF" fill-opacity="1" stroke-opacity="1"/>
  <path d="M 14.405199,58.97999961575118 A 0.025000000000000352,0.025000000000000352 0.0 1,0 14.455199,58.97999961575118 A 0.025000000000000352,0.025000000000000352 0.0 1,0 14.405199,58.97999961575118" fill="#FFFFFF" stroke="#FFFFFF" fill-opacity="1" stroke-opacity="1"/>
  <path d="M 155.224977,4.262990615751181 A 0.02500000000000568,0.02500000000000568 0.0 1,0 155.274977,4.262990615751181 A 0.02500000000000568,0.02500000000000568 0.0 1,0 155.224977,4.262990615751181" fill="#FFFFFF" stroke="#FFFFFF" fill-opacity="1" stroke-opacity="1"/>
  <path d="M 155.27497567,4.26324836 A 4.19499962,4.19499962 0.0 0,1 146.885199,4.21999962 L 146.935199,4.21999962 A 4.145,4.145 0.0 0,0 155.22497833,4.26273288 L 155.27497567,4.26324836" fill="#FFFFFF" stroke="#FFFFFF" fill-opacity="1" stroke-opacity="1"/>
  <path d="M 146.885199,4.219999615751181 A 0.02500000000000568,0.02500000000000568 0.0 1,0 146.935199,4.219999615751181 A 0.02500000000000568,0.02500000000000568 0.0 1,0 146.885199,4.219999615751181" fill="#FFFFFF" stroke="#FFFFFF" fill-opacity="1" stroke-opacity="1"/>
  <path d="M 2.275199,4.239800615751181 A 0.025,0.025 0.0 1,0 2.325199,4.239800615751181 A 0.025,0.025 0.0 1,0 2.275199,4.239800615751181" fill="#FFFFFF" stroke="#FFFFFF" fill-opacity="1" stroke-opacity="1"/>
  <path d="M 2.30019058,4.26480061 L 2.30020742,4.21480062 L 32.59923242,4.22499962 L 32.59921558,4.27499961 L 2.30019058,4.26480061" fill="#FFFFFF" stroke="#FFFFFF" fill-opacity="1" stroke-opacity="1"/>
  <path d="M 32.574224,4.2499996157511815 A 0.025,0.025 0.0 1,0 32.624224,4.2499996157511815 A 0.025,0.025 0.0 1,0 32.574224,4.2499996157511815" fill="#FFFFFF" stroke="#FFFFFF" fill-opacity="1" stroke-opacity="1"/>
  <path d="M 27.985199,77.96700861575118 A 0.025,0.025 0.0 1,0 28.035199,77.96700861575118 A 0.025,0.025 0.0 1,0 27.985199,77.96700861575118" fill="#FFFFFF" stroke="#FFFFFF" fill-opacity="1" stroke-opacity="1"/>
  <path d="M 27.98520033,77.96675088 A 4.19499962,4.19499962 0.0 0,1 36.374977,78.00999962 L 36.324977,78.00999962 A 4.145,4.145 0.0 0,0 28.03519767,77.96726636 L 27.98520033,77.96675088" fill="#FFFFFF" stroke="#FFFFFF" fill-opacity="1" stroke-opacity="1"/>
  <path d="M 36.324977000000004,78.00999961575118 A 0.025,0.025 0.0 1,0 36.374977,78.00999961575118 A 0.025,0.025 0.0 1,0 36.324977000000004,78.00999961575118" fill="#FFFFFF" stroke="#FFFFFF" fill-opacity="1" stroke-opacity="1"/>
  <path d="M 187.710398,6.4701986157511815 A 0.05000000000001136,0.05000000000001136 0.0 1,0 187.81039800000002,6.4701986157511815 A 0.05000000000001136,0.05000000000001136 0.0 1,0 187.710398,6.4701986157511815" fill="#FFFFFF" stroke="#FFFFFF" fill-opacity="1" stroke-opacity="1"/>
  <path d="M 187.710398,6.4701881 L 187.810398,6.47020913 L 187.800199,54.96001013 L 187.700199,54.9599891 L 187.710398,6.4701881" fill="#FFFFFF" stroke="#FFFFFF" fill-opacity="1" stroke-opacity="1"/>
  <path d="M 187.700199,54.95999961575118 A 0.05000000000001136,0.05000000000001136 0.0 1,0 187.80019900000002,54.95999961575118 A 0.05000000000001136,0.05000000000001136 0.0 1,0 187.700199,54.95999961575118" fill="#FFFFFF" stroke="#FFFFFF" fill-opacity="1" stroke-opacity="1"/>
  <path d="M 2.035199,56.969999615751185 A 0.025,0.025 0.0 1,0 2.085199,56.969999615751185 A 0.025,0.025 0.0 1,0 2.035199,56.969999615751185" fill="#FFFFFF" stroke="#FFFFFF" fill-opacity="1" stroke-opacity="1"/>
  <path d="M 2.060199,56.99499962 A 2.035,2.035 0.0 0,1 0.025199,54.95999962 L 0.075199,54.95999962 A 1.985,1.985 0.0 0,0 2.060199,56.94499962 L 2.060199,56.99499962" fill="#FFFFFF" stroke="#FFFFFF" fill-opacity="1" stroke-opacity="1"/>
  <path d="M 0.025199,54.95999961575118 A 0.025,0.025 0.0 1,0 0.075199,54.95999961575118 A 0.025,0.025 0.0 1,0 0.025199,54.95999961575118" fill="#FFFFFF" stroke="#FFFFFF" fill-opacity="1" stroke-opacity="1"/>
  <path d="M 126.155199,4.239999615751182 A 0.02500000000000568,0.02500000000000568 0.0 1,0 126.20519900000001,4.239999615751182 A 0.02500000000000568,0.02500000000000568 0.0 1,0 126.155199,4.239999615751182" fill="#FFFFFF" stroke="#FFFFFF" fill-opacity="1" stroke-opacity="1"/>
  <path d="M 126.205199,4.23999962 L 126.155199,4.23999962 L 126.155199,1.57999962 L 126.205199,1.57999962 L 126.205199,4.23999962" fill="#FFFFFF" stroke="#FFFFFF" fill-opacity="1" stroke-opacity="1"/>
  <path d="M 126.155199,1.5799996157511813 A 0.02500000000000568,0.02500000000000568 0.0 1,0 126.20519900000001,1.5799996157511813 A 0.02500000000000568,0.02500000000000568 0.0 1,0 126.155199,1.5799996157511813" fill="#FFFFFF" stroke="#FFFFFF" fill-opacity="1" stroke-opacity="1"/>
  <path d="M 185.485199,4.219999615751181 A 0.02500000000000568,0.02500000000000568 0.0 1,0 185.535199,4.219999615751181 A 0.02500000000000568,0.02500000000000568 0.0 1,0 185.485199,4.219999615751181" fill="#FFFFFF" stroke="#FFFFFF" fill-opacity="1" stroke-opacity="1"/>
  <path d="M 185.51016348,4.19499964 L 185.51023452,4.24499959 L 155.25001252,4.28799059 L 155.24994148,4.23799064 L 185.51016348,4.19499964" fill="#FFFFFF" stroke="#FFFFFF" fill-opacity="1" stroke-opacity="1"/>
  <path d="M 155.224977,4.262990615751181 A 0.02500000000000568,0.02500000000000568 0.0 1,0 155.274977,4.262990615751181 A 0.02500000000000568,0.02500000000000568 0.0 1,0 155.224977,4.262990615751181" fill="#FFFFFF" stroke="#FFFFFF" fill-opacity="1" stroke-opacity="1"/>
  <path d="M 151.620421,77.97700861575119 A 0.05000000000001136,0.05000000000001136 0.0 1,0 151.72042100000002,77.97700861575119 A 0.05000000000001136,0.05000000000001136 0.0 1,0 151.620421,77.97700861575119" fill="#FFFFFF" stroke="#FFFFFF" fill-opacity="1" stroke-opacity="1"/>
  <path d="M 151.6704067,77.92700862 L 151.6704353,78.02700861 L 36.3499913,78.05999961 L 36.3499627,77.95999962 L 151.6704067,77.92700862" fill="#FFFFFF" stroke="#FFFFFF" fill-opacity="1" stroke-opacity="1"/>
  <path d="M 36.299977000000005,78.00999961575118 A 0.05,0.05 0.0 1,0 36.399977,78.00999961575118 A 0.05,0.05 0.0 1,0 36.299977000000005,78.00999961575118" fill="#FFFFFF" stroke="#FFFFFF" fill-opacity="1" stroke-opacity="1"/>
  <path d="M 12.395199,56.969999615751185 A 0.025000000000000352,0.025000000000000352 0.0 1,0 12.445199,56.969999615751185 A 0.025000000000000352,0.025000000000000352 0.0 1,0 12.395199,56.969999615751185" fill="#FFFFFF" stroke="#FFFFFF" fill-opacity="1" stroke-opacity="1"/>
  <path d="M 12.420199,56.94499962 L 12.420199,56.99499962 L 2.060199,56.99499962 L 2.060199,56.94499962 L 12.420199,56.94499962" fill="#FFFFFF" stroke="#FFFFFF" fill-opacity="1" stroke-opacity="1"/>
  <path d="M 2.035199,56.969999615751185 A 0.025,0.025 0.0 1,0 2.085199,56.969999615751185 A 0.025,0.025 0.0 1,0 2.035199,56.969999615751185" fill="#FFFFFF" stroke="#FFFFFF" fill-opacity="1" stroke-opacity="1"/>
  <path d="M 126.155199,1.5799996157511813 A 0.02500000000000568,0.02500000000000568 0.0 1,0 126.20519900000001,1.5799996157511813 A 0.02500000000000568,0.02500000000000568 0.0 1,0 126.155199,1.5799996157511813" fill="#FFFFFF" stroke="#FFFFFF" fill-opacity="1" stroke-opacity="1"/>
  <path d="M 126.180199,1.60499962 L 126.180199,1.55499962 L 137.270199,1.55499962 L 137.270199,1.60499962 L 126.180199,1.60499962" fill="#FFFFFF" stroke="#FFFFFF" fill-opacity="1" stroke-opacity="1"/>
  <path d="M 137.24519899999999,1.5799996157511813 A 0.02500000000000568,0.02500000000000568 0.0 1,0 137.295199,1.5799996157511813 A 0.02500000000000568,0.02500000000000568 0.0 1,0 137.24519899999999,1.5799996157511813" fill="#FFFFFF" stroke="#FFFFFF" fill-opacity="1" stroke-opacity="1"/>
  <path d="M 40.914002,4.292990615751181 A 0.025,0.025 0.0 1,0 40.964002,4.292990615751181 A 0.025,0.025 0.0 1,0 40.914002,4.292990615751181" fill="#FFFFFF" stroke="#FFFFFF" fill-opacity="1" stroke-opacity="1"/>
  <path d="M 40.96400067,4.29324836 A 4.19499962,4.19499962 0.0 0,1 32.574224,4.24999962 L 32.624224,4.24999962 A 4.145,4.145 0.0 0,0 40.91400333,4.29273288 L 40.96400067,4.29324836" fill="#FFFFFF" stroke="#FFFFFF" fill-opacity="1" stroke-opacity="1"/>
  <path d="M 32.574224,4.2499996157511815 A 0.025,0.025 0.0 1,0 32.624224,4.2499996157511815 A 0.025,0.025 0.0 1,0 32.574224,4.2499996157511815" fill="#FFFFFF" stroke="#FFFFFF" fill-opacity="1" stroke-opacity="1"/>
  <path d="M 14.405199,75.97999961575118 A 0.025000000000000352,0.025000000000000352 0.0 1,0 14.455199,75.97999961575118 A 0.025000000000000352,0.025000000000000352 0.0 1,0 14.405199,75.97999961575118" fill="#FFFFFF" stroke="#FFFFFF" fill-opacity="1" stroke-opacity="1"/>
  <path d="M 14.455199,75.97999962 L 14.405199,75.97999962 L 14.405199,58.97999962 L 14.455199,58.97999962 L 14.455199,75.97999962" fill="#FFFFFF" stroke="#FFFFFF" fill-opacity="1" stroke-opacity="1"/>
  <path d="M 14.405199,58.97999961575118 A 0.025000000000000352,0.025000000000000352 0.0 1,0 14.455199,58.97999961575118 A 0.025000000000000352,0.025000000000000352 0.0 1,0 14.405199,58.97999961575118" fill="#FFFFFF" stroke="#FFFFFF" fill-opacity="1" stroke-opacity="1"/>
  <path d="M 137.24519899999999,1.5799996157511813 A 0.02500000000000568,0.02500000000000568 0.0 1,0 137.295199,1.5799996157511813 A 0.02500000000000568,0.02500000000000568 0.0 1,0 137.24519899999999,1.5799996157511813" fill="#FFFFFF" stroke="#FFFFFF" fill-opacity="1" stroke-opacity="1"/>
  <path d="M 137.245199,1.57999962 L 137.295199,1.57999962 L 137.295199,4.23999962 L 137.245199,4.23999962 L 137.245199,1.57999962" fill="#FFFFFF" stroke="#FFFFFF" fill-opacity="1" stroke-opacity="1"/>
  <path d="M 137.24519899999999,4.239999615751182 A 0.02500000000000568,0.02500000000000568 0.0 1,0 137.295199,4.239999615751182 A 0.02500000000000568,0.02500000000000568 0.0 1,0 137.24519899999999,4.239999615751182" fill="#FFFFFF" stroke="#FFFFFF" fill-opacity="1" stroke-opacity="1"/>
  <path d="M 137.24519899999999,4.239999615751182 A 0.02500000000000568,0.02500000000000568 0.0 1,0 137.295199,4.239999615751182 A 0.02500000000000568,0.02500000000000568 0.0 1,0 137.24519899999999,4.239999615751182" fill="#FFFFFF" stroke="#FFFFFF" fill-opacity="1" stroke-opacity="1"/>
  <path d="M 137.27025087,4.26499956 L 137.27014713,4.21499967 L 146.91014713,4.19499967 L 146.91025087,4.24499956 L 137.27025087,4.26499956" fill="#FFFFFF" stroke="#FFFFFF" fill-opacity="1" stroke-opacity="1"/>
  <path d="M 146.885199,4.219999615751181 A 0.02500000000000568,0.02500000000000568 0.0 1,0 146.935199,4.219999615751181 A 0.02500000000000568,0.02500000000000568 0.0 1,0 146.885199,4.219999615751181" fill="#FFFFFF" stroke="#FFFFFF" fill-opacity="1" stroke-opacity="1"/>
  <path d="M 176.185199,13.42374962 L 176.185199,13.93624962 A 0.21875,0.21875 0.0 0,1 175.966449,14.15499962 L 175.528949,14.15499962 A 0.21875,0.21875 0.0 0,1 175.310199,13.93624962 L 175.310199,13.42374962 A 0.21875,0.21875 0.0 0,1 175.528949,13.20499962 L 175.966449,13.20499962 A 0.21875,0.21875 0.0 0,1 176.185199,13.42374962" fill="#FFFFFF" stroke="#FFFFFF" fill-opacity="1" stroke-opacity="1"/>
  <path d="M 174.610199,13.42374962 L 174.610199,13.93624962 A 0.21875,0.21875 0.0 0,1 174.391449,14.15499962 L 173.953949,14.15499962 A 0.21875,0.21875 0.0 0,1 173.735199,13.93624962 L 173.735199,13.42374962 A 0.21875,0.21875 0.0 0,1 173.953949,13.20499962 L 174.391449,13.20499962 A 0.21875,0.21875 0.0 0,1 174.610199,13.42374962" fill="#FFFFFF" stroke="#FFFFFF" fill-opacity="1" stroke-opacity="1"/>
  <path d="M 179.922699,15.33624962 L 179.922699,14.82374962 A 0.21875,0.21875 0.0 0,1 180.141449,14.60499962 L 180.578949,14.60499962 A 0.21875,0.21875 0.0 0,1 180.797699,14.82374962 L 180.797699,15.33624962 A 0.21875,0.21875 0.0 0,1 180.578949,15.55499962 L 180.141449,15.55499962 A 0.21875,0.21875 0.0 0,1 179.922699,15.33624962" fill="#FFFFFF" stroke="#FFFFFF" fill-opacity="1" stroke-opacity="1"/>
  <path d="M 181.497699,15.33624962 L 181.497699,14.82374962 A 0.21875,0.21875 0.0 0,1 181.716449,14.60499962 L 182.153949,14.60499962 A 0.21875,0.21875 0.0 0,1 182.372699,14.82374962 L 182.372699,15.33624962 A 0.21875,0.21875 0.0 0,1 182.153949,15.55499962 L 181.716449,15.55499962 A 0.21875,0.21875 0.0 0,1 181.497699,15.33624962" fill="#FFFFFF" stroke="#FFFFFF" fill-opacity="1" stroke-opacity="1"/>
  <path d="M 172.016449,14.10499962 L 171.503949,14.10499962 A 0.21875,0.21875 0.0 0,1 171.285199,13.88624962 L 171.285199,13.44874962 A 0.21875,0.21875 0.0 0,1 171.503949,13.22999962 L 172.016449,13.22999962 A 0.21875,0.21875 0.0 0,1 172.235199,13.44874962 L 172.235199,13.88624962 A 0.21875,0.21875 0.0 0,1 172.016449,14.10499962" fill="#FFFFFF" stroke="#FFFFFF" fill-opacity="1" stroke-opacity="1"/>
  <path d="M 172.016449,12.52999962 L 171.503949,12.52999962 A 0.21875,0.21875 0.0 0,1 171.285199,12.31124962 L 171.285199,11.87374962 A 0.21875,0.21875 0.0 0,1 171.503949,11.65499962 L 172.016449,11.65499962 A 0.21875,0.21875 0.0 0,1 172.235199,11.87374962 L 172.235199,12.31124962 A 0.21875,0.21875 0.0 0,1 172.016449,12.52999962" fill="#FFFFFF" stroke="#FFFFFF" fill-opacity="1" stroke-opacity="1"/>
  <path d="M 179.722699,21.13624962 L 179.722699,20.62374962 A 0.21875,0.21875 0.0 0,1 179.941449,20.40499962 L 180.378949,20.40499962 A 0.21875,0.21875 0.0 0,1 180.597699,20.62374962 L 180.597699,21.13624962 A 0.21875,0.21875 0.0 0,1 180.378949,21.35499962 L 179.941449,21.35499962 A 0.21875,0.21875 0.0 0,1 179.722699,21.13624962" fill="#FFFFFF" stroke="#FFFFFF" fill-opacity="1" stroke-opacity="1"/>
  <path d="M 181.297699,21.13624962 L 181.297699,20.62374962 A 0.21875,0.21875 0.0 0,1 181.516449,20.40499962 L 181.953949,20.40499962 A 0.21875,0.21875 0.0 0,1 182.172699,20.62374962 L 182.172699,21.13624962 A 0.21875,0.21875 0.0 0,1 181.953949,21.35499962 L 181.516449,21.35499962 A 0.21875,0.21875 0.0 0,1 181.297699,21.13624962" fill="#FFFFFF" stroke="#FFFFFF" fill-opacity="1" stroke-opacity="1"/>
  <path d="M 166.816449,26.30499962 L 166.303949,26.30499962 A 0.21875,0.21875 0.0 0,1 166.085199,26.08624962 L 166.085199,25.64874962 A 0.21875,0.21875 0.0 0,1 166.303949,25.42999962 L 166.816449,25.42999962 A 0.21875,0.21875 0.0 0,1 167.035199,25.64874962 L 167.035199,26.08624962 A 0.21875,0.21875 0.0 0,1 166.816449,26.30499962" fill="#FFFFFF" stroke="#FFFFFF" fill-opacity="1" stroke-opacity="1"/>
  <path d="M 166.816449,24.72999962 L 166.303949,24.72999962 A 0.21875,0.21875 0.0 0,1 166.085199,24.51124962 L 166.085199,24.07374962 A 0.21875,0.21875 0.0 0,1 166.303949,23.85499962 L 166.816449,23.85499962 A 0.21875,0.21875 0.0 0,1 167.035199,24.07374962 L 167.035199,24.51124962 A 0.21875,0.21875 0.0 0,1 166.816449,24.72999962" fill="#FFFFFF" stroke="#FFFFFF" fill-opacity="1" stroke-opacity="1"/>
  <path d="M 168.385199,27.62374962 L 168.385199,28.13624962 A 0.21875,0.21875 0.0 0,1 168.166449,28.35499962 L 167.728949,28.35499962 A 0.21875,0.21875 0.0 0,1 167.510199,28.13624962 L 167.510199,27.62374962 A 0.21875,0.21875 0.0 0,1 167.728949,27.40499962 L 168.166449,27.40499962 A 0.21875,0.21875 0.0 0,1 168.385199,27.62374962" fill="#FFFFFF" stroke="#FFFFFF" fill-opacity="1" stroke-opacity="1"/>
  <path d="M 166.810199,27.62374962 L 166.810199,28.13624962 A 0.21875,0.21875 0.0 0,1 166.591449,28.35499962 L 166.153949,28.35499962 A 0.21875,0.21875 0.0 0,1 165.935199,28.13624962 L 165.935199,27.62374962 A 0.21875,0.21875 0.0 0,1 166.153949,27.40499962 L 166.591449,27.40499962 A 0.21875,0.21875 0.0 0,1 166.810199,27.62374962" fill="#FFFFFF" stroke="#FFFFFF" fill-opacity="1" stroke-opacity="1"/>
  <path d="M 112.510199,33.869999615751176 L 113.71019899999999,33.869999615751176 L 113.71019899999999,34.76999961575118 L 112.510199,34.76999961575118 L 112.510199,33.869999615751176" fill="#FFFFFF" stroke="#FFFFFF" fill-opacity="1" stroke-opacity="1"/>
  <path d="M 112.510199,37.16999961575118 L 113.71019899999999,37.16999961575118 L 113.71019899999999,38.069999615751186 L 112.510199,38.069999615751186 L 112.510199,37.16999961575118" fill="#FFFFFF" stroke="#FFFFFF" fill-opacity="1" stroke-opacity="1"/>
  <path d="M 131.260199,52.80999961575118 L 132.460199,52.80999961575118 L 132.460199,53.70999961575119 L 131.260199,53.70999961575119 L 131.260199,52.80999961575118" fill="#FFFFFF" stroke="#FFFFFF" fill-opacity="1" stroke-opacity="1"/>
  <path d="M 131.260199,56.10999961575118 L 132.460199,56.10999961575118 L 132.460199,57.009999615751184 L 131.260199,57.009999615751184 L 131.260199,56.10999961575118" fill="#FFFFFF" stroke="#FFFFFF" fill-opacity="1" stroke-opacity="1"/>
  <path d="M 93.270199,33.88999961575118 L 94.470199,33.88999961575118 L 94.470199,34.789999615751185 L 93.270199,34.789999615751185 L 93.270199,33.88999961575118" fill="#FFFFFF" stroke="#FFFFFF" fill-opacity="1" stroke-opacity="1"/>
  <path d="M 93.270199,37.18999961575118 L 94.470199,37.18999961575118 L 94.470199,38.08999961575118 L 93.270199,38.08999961575118 L 93.270199,37.18999961575118" fill="#FFFFFF" stroke="#FFFFFF" fill-opacity="1" stroke-opacity="1"/>
  <path d="M 113.160199,12.479999615751183 L 114.360199,12.479999615751183 L 114.360199,13.379999615751181 L 113.160199,13.379999615751181 L 113.160199,12.479999615751183" fill="#FFFFFF" stroke="#FFFFFF" fill-opacity="1" stroke-opacity="1"/>
  <path d="M 113.160199,15.779999615751183 L 114.360199,15.779999615751183 L 114.360199,16.679999615751182 L 113.160199,16.679999615751182 L 113.160199,15.779999615751183" fill="#FFFFFF" stroke="#FFFFFF" fill-opacity="1" stroke-opacity="1"/>
  <path d="M 55.010199,52.979999615751176 L 56.210199,52.979999615751176 L 56.210199,53.87999961575118 L 55.010199,53.87999961575118 L 55.010199,52.979999615751176" fill="#FFFFFF" stroke="#FFFFFF" fill-opacity="1" stroke-opacity="1"/>
  <path d="M 55.010199,56.27999961575118 L 56.210199,56.27999961575118 L 56.210199,57.179999615751186 L 55.010199,57.179999615751186 L 55.010199,56.27999961575118" fill="#FFFFFF" stroke="#FFFFFF" fill-opacity="1" stroke-opacity="1"/>
  <path d="M 156.52019900000002,66.87999961575117 L 157.720199,66.87999961575117 L 157.720199,67.77999961575118 L 156.52019900000002,67.77999961575118 L 156.52019900000002,66.87999961575117" fill="#FFFFFF" stroke="#FFFFFF" fill-opacity="1" stroke-opacity="1"/>
  <path d="M 156.52019900000002,70.17999961575117 L 157.720199,70.17999961575117 L 157.720199,71.07999961575118 L 156.52019900000002,71.07999961575118 L 156.52019900000002,70.17999961575117" fill="#FFFFFF" stroke="#FFFFFF" fill-opacity="1" stroke-opacity="1"/>
  <path d="M 131.24019900000002,33.839999615751175 L 132.440199,33.839999615751175 L 132.440199,34.73999961575118 L 131.24019900000002,34.73999961575118 L 131.24019900000002,33.839999615751175" fill="#FFFFFF" stroke="#FFFFFF" fill-opacity="1" stroke-opacity="1"/>
  <path d="M 131.24019900000002,37.13999961575118 L 132.440199,37.13999961575118 L 132.440199,38.039999615751185 L 131.24019900000002,38.039999615751185 L 131.24019900000002,37.13999961575118" fill="#FFFFFF" stroke="#FFFFFF" fill-opacity="1" stroke-opacity="1"/>
  <path d="M 93.240199,12.479999615751183 L 94.44019899999999,12.479999615751183 L 94.44019899999999,13.379999615751181 L 93.240199,13.379999615751181 L 93.240199,12.479999615751183" fill="#FFFFFF" stroke="#FFFFFF" fill-opacity="1" stroke-opacity="1"/>
  <path d="M 93.240199,15.779999615751183 L 94.44019899999999,15.779999615751183 L 94.44019899999999,16.679999615751182 L 93.240199,16.679999615751182 L 93.240199,15.779999615751183" fill="#FFFFFF" stroke="#FFFFFF" fill-opacity="1" stroke-opacity="1"/>
  <path d="M 95.06019900000001,52.75999961575118 L 96.260199,52.75999961575118 L 96.260199,53.65999961575118 L 95.06019900000001,53.65999961575118 L 95.06019900000001,52.75999961575118" fill="#FFFFFF" stroke="#FFFFFF" fill-opacity="1" stroke-opacity="1"/>
  <path d="M 95.06019900000001,56.05999961575118 L 96.260199,56.05999961575118 L 96.260199,56.95999961575119 L 95.06019900000001,56.95999961575119 L 95.06019900000001,56.05999961575118" fill="#FFFFFF" stroke="#FFFFFF" fill-opacity="1" stroke-opacity="1"/>
  <path d="M 169.280199,33.77999961575118 L 170.480199,33.77999961575118 L 170.480199,34.679999615751186 L 169.280199,34.679999615751186 L 169.280199,33.77999961575118" fill="#FFFFFF" stroke="#FFFFFF" fill-opacity="1" stroke-opacity="1"/>
  <path d="M 169.280199,37.07999961575118 L 170.480199,37.07999961575118 L 170.480199,37.97999961575118 L 169.280199,37.97999961575118 L 169.280199,37.07999961575118" fill="#FFFFFF" stroke="#FFFFFF" fill-opacity="1" stroke-opacity="1"/>
  <path d="M 36.160199,12.479999615751183 L 37.360199,12.479999615751183 L 37.360199,13.379999615751181 L 36.160199,13.379999615751181 L 36.160199,12.479999615751183" fill="#FFFFFF" stroke="#FFFFFF" fill-opacity="1" stroke-opacity="1"/>
  <path d="M 36.160199,15.779999615751183 L 37.360199,15.779999615751183 L 37.360199,16.679999615751182 L 36.160199,16.679999615751182 L 36.160199,15.779999615751183" fill="#FFFFFF" stroke="#FFFFFF" fill-opacity="1" stroke-opacity="1"/>
  <path d="M 169.190199,52.85999961575118 L 170.390199,52.85999961575118 L 170.390199,53.759999615751184 L 169.190199,53.759999615751184 L 169.190199,52.85999961575118" fill="#FFFFFF" stroke="#FFFFFF" fill-opacity="1" stroke-opacity="1"/>
  <path d="M 169.190199,56.159999615751175 L 170.390199,56.159999615751175 L 170.390199,57.05999961575118 L 169.190199,57.05999961575118 L 169.190199,56.159999615751175" fill="#FFFFFF" stroke="#FFFFFF" fill-opacity="1" stroke-opacity="1"/>
  <path d="M 150.440199,33.82999961575118 L 151.640199,33.82999961575118 L 151.640199,34.72999961575118 L 150.440199,34.72999961575118 L 150.440199,33.82999961575118" fill="#FFFFFF" stroke="#FFFFFF" fill-opacity="1" stroke-opacity="1"/>
  <path d="M 150.440199,37.12999961575118 L 151.640199,37.12999961575118 L 151.640199,38.02999961575119 L 150.440199,38.02999961575119 L 150.440199,37.12999961575118" fill="#FFFFFF" stroke="#FFFFFF" fill-opacity="1" stroke-opacity="1"/>
  <path d="M 136.660199,15.979999615751181 L 137.56019899999998,15.979999615751181 L 137.56019899999998,17.179999615751182 L 136.660199,17.179999615751182 L 136.660199,15.979999615751181" fill="#FFFFFF" stroke="#FFFFFF" fill-opacity="1" stroke-opacity="1"/>
  <path d="M 139.96019900000002,15.979999615751181 L 140.860199,15.979999615751181 L 140.860199,17.179999615751182 L 139.96019900000002,17.179999615751182 L 139.96019900000002,15.979999615751181" fill="#FFFFFF" stroke="#FFFFFF" fill-opacity="1" stroke-opacity="1"/>
  <path d="M 18.330199,53.00999961575118 L 19.530199000000003,53.00999961575118 L 19.530199000000003,53.90999961575118 L 18.330199,53.90999961575118 L 18.330199,53.00999961575118" fill="#FFFFFF" stroke="#FFFFFF" fill-opacity="1" stroke-opacity="1"/>
  <path d="M 18.330199,56.30999961575118 L 19.530199000000003,56.30999961575118 L 19.530199000000003,57.20999961575119 L 18.330199,57.20999961575119 L 18.330199,56.30999961575118" fill="#FFFFFF" stroke="#FFFFFF" fill-opacity="1" stroke-opacity="1"/>
  <path d="M 82.86019900000001,66.91999961575118 L 84.060199,66.91999961575118 L 84.060199,67.81999961575119 L 82.86019900000001,67.81999961575119 L 82.86019900000001,66.91999961575118" fill="#FFFFFF" stroke="#FFFFFF" fill-opacity="1" stroke-opacity="1"/>
  <path d="M 82.86019900000001,70.21999961575118 L 84.060199,70.21999961575118 L 84.060199,71.11999961575118 L 82.86019900000001,71.11999961575118 L 82.86019900000001,70.21999961575118" fill="#FFFFFF" stroke="#FFFFFF" fill-opacity="1" stroke-opacity="1"/>
  <path d="M 55.190199,33.81999961575118 L 56.390199,33.81999961575118 L 56.390199,34.719999615751185 L 55.190199,34.719999615751185 L 55.190199,33.81999961575118" fill="#FFFFFF" stroke="#FFFFFF" fill-opacity="1" stroke-opacity="1"/>
  <path d="M 55.190199,37.119999615751176 L 56.390199,37.119999615751176 L 56.390199,38.01999961575118 L 55.190199,38.01999961575118 L 55.190199,37.119999615751176" fill="#FFFFFF" stroke="#FFFFFF" fill-opacity="1" stroke-opacity="1"/>
  <path d="M 74.160199,12.479999615751183 L 75.360199,12.479999615751183 L 75.360199,13.379999615751181 L 74.160199,13.379999615751181 L 74.160199,12.479999615751183" fill="#FFFFFF" stroke="#FFFFFF" fill-opacity="1" stroke-opacity="1"/>
  <path d="M 74.160199,15.779999615751183 L 75.360199,15.779999615751183 L 75.360199,16.679999615751182 L 74.160199,16.679999615751182 L 74.160199,15.779999615751183" fill="#FFFFFF" stroke="#FFFFFF" fill-opacity="1" stroke-opacity="1"/>
  <path d="M 73.42019900000001,52.77999961575118 L 74.620199,52.77999961575118 L 74.620199,53.679999615751186 L 73.42019900000001,53.679999615751186 L 73.42019900000001,52.77999961575118" fill="#FFFFFF" stroke="#FFFFFF" fill-opacity="1" stroke-opacity="1"/>
  <path d="M 73.42019900000001,56.07999961575118 L 74.620199,56.07999961575118 L 74.620199,56.97999961575118 L 73.42019900000001,56.97999961575118 L 73.42019900000001,56.07999961575118" fill="#FFFFFF" stroke="#FFFFFF" fill-opacity="1" stroke-opacity="1"/>
  <path d="M 74.320199,33.85999961575118 L 75.52019899999999,33.85999961575118 L 75.52019899999999,34.759999615751184 L 74.320199,34.759999615751184 L 74.320199,33.85999961575118" fill="#FFFFFF" stroke="#FFFFFF" fill-opacity="1" stroke-opacity="1"/>
  <path d="M 74.320199,37.159999615751175 L 75.52019899999999,37.159999615751175 L 75.52019899999999,38.05999961575118 L 74.320199,38.05999961575118 L 74.320199,37.159999615751175" fill="#FFFFFF" stroke="#FFFFFF" fill-opacity="1" stroke-opacity="1"/>
  <path d="M 162.130199,16.97999961575118 L 163.03019899999998,16.97999961575118 L 163.03019899999998,18.179999615751182 L 162.130199,18.179999615751182 L 162.130199,16.97999961575118" fill="#FFFFFF" stroke="#FFFFFF" fill-opacity="1" stroke-opacity="1"/>
  <path d="M 158.83019900000002,16.97999961575118 L 159.730199,16.97999961575118 L 159.730199,18.179999615751182 L 158.83019900000002,18.179999615751182 L 158.83019900000002,16.97999961575118" fill="#FFFFFF" stroke="#FFFFFF" fill-opacity="1" stroke-opacity="1"/>
  <path d="M 36.250199,52.979999615751176 L 37.450199000000005,52.979999615751176 L 37.450199000000005,53.87999961575118 L 36.250199,53.87999961575118 L 36.250199,52.979999615751176" fill="#FFFFFF" stroke="#FFFFFF" fill-opacity="1" stroke-opacity="1"/>
  <path d="M 36.250199,56.27999961575118 L 37.450199000000005,56.27999961575118 L 37.450199000000005,57.179999615751186 L 36.250199,57.179999615751186 L 36.250199,56.27999961575118" fill="#FFFFFF" stroke="#FFFFFF" fill-opacity="1" stroke-opacity="1"/>
  <path d="M 15.800199000000001,33.909999615751175 L 17.000199000000002,33.909999615751175 L 17.000199000000002,34.80999961575118 L 15.800199000000001,34.80999961575118 L 15.800199000000001,33.909999615751175" fill="#FFFFFF" stroke="#FFFFFF" fill-opacity="1" stroke-opacity="1"/>
  <path d="M 15.800199000000001,37.20999961575118 L 17.000199000000002,37.20999961575118 L 17.000199000000002,38.109999615751185 L 15.800199000000001,38.109999615751185 L 15.800199000000001,37.20999961575118" fill="#FFFFFF" stroke="#FFFFFF" fill-opacity="1" stroke-opacity="1"/>
  <path d="M 55.540199,12.479999615751183 L 56.740199000000004,12.479999615751183 L 56.740199000000004,13.379999615751181 L 55.540199,13.379999615751181 L 55.540199,12.479999615751183" fill="#FFFFFF" stroke="#FFFFFF" fill-opacity="1" stroke-opacity="1"/>
  <path d="M 55.540199,15.779999615751183 L 56.740199000000004,15.779999615751183 L 56.740199000000004,16.679999615751182 L 55.540199,16.679999615751182 L 55.540199,15.779999615751183" fill="#FFFFFF" stroke="#FFFFFF" fill-opacity="1" stroke-opacity="1"/>
  <path d="M 150.40019900000001,52.80999961575118 L 151.600199,52.80999961575118 L 151.600199,53.70999961575119 L 150.40019900000001,53.70999961575119 L 150.40019900000001,52.80999961575118" fill="#FFFFFF" stroke="#FFFFFF" fill-opacity="1" stroke-opacity="1"/>
  <path d="M 150.40019900000001,56.10999961575118 L 151.600199,56.10999961575118 L 151.600199,57.009999615751184 L 150.40019900000001,57.009999615751184 L 150.40019900000001,56.10999961575118" fill="#FFFFFF" stroke="#FFFFFF" fill-opacity="1" stroke-opacity="1"/>
  <path d="M 35.990199,33.81999961575118 L 37.190199,33.81999961575118 L 37.190199,34.719999615751185 L 35.990199,34.719999615751185 L 35.990199,33.81999961575118" fill="#FFFFFF" stroke="#FFFFFF" fill-opacity="1" stroke-opacity="1"/>
  <path d="M 35.990199,37.119999615751176 L 37.190199,37.119999615751176 L 37.190199,38.01999961575118 L 35.990199,38.01999961575118 L 35.990199,37.119999615751176" fill="#FFFFFF" stroke="#FFFFFF" fill-opacity="1" stroke-opacity="1"/>
  <path d="M 15.910199,12.479999615751183 L 17.110199,12.479999615751183 L 17.110199,13.379999615751181 L 15.910199,13.379999615751181 L 15.910199,12.479999615751183" fill="#FFFFFF" stroke="#FFFFFF" fill-opacity="1" stroke-opacity="1"/>
  <path d="M 15.910199,15.779999615751183 L 17.110199,15.779999615751183 L 17.110199,16.679999615751182 L 15.910199,16.679999615751182 L 15.910199,15.779999615751183" fill="#FFFFFF" stroke="#FFFFFF" fill-opacity="1" stroke-opacity="1"/>
  <path d="M 15.850199000000002,53.00999961575118 L 17.050199000000003,53.00999961575118 L 17.050199000000003,53.90999961575118 L 15.850199000000002,53.90999961575118 L 15.850199000000002,53.00999961575118" fill="#FFFFFF" stroke="#FFFFFF" fill-opacity="1" stroke-opacity="1"/>
  <path d="M 15.850199000000002,56.30999961575118 L 17.050199000000003,56.30999961575118 L 17.050199000000003,57.20999961575119 L 15.850199000000002,57.20999961575119 L 15.850199000000002,56.30999961575118" fill="#FFFFFF" stroke="#FFFFFF" fill-opacity="1" stroke-opacity="1"/>
  <path d="M 30.790198999999998,66.72999961575118 L 31.990199,66.72999961575118 L 31.990199,67.62999961575119 L 30.790198999999998,67.62999961575119 L 30.790198999999998,66.72999961575118" fill="#FFFFFF" stroke="#FFFFFF" fill-opacity="1" stroke-opacity="1"/>
  <path d="M 30.790198999999998,70.02999961575118 L 31.990199,70.02999961575118 L 31.990199,70.92999961575119 L 30.790198999999998,70.92999961575119 L 30.790198999999998,70.02999961575118" fill="#FFFFFF" stroke="#FFFFFF" fill-opacity="1" stroke-opacity="1"/>
  <path d="M 18.180198999999998,33.909999615751175 L 19.380199,33.909999615751175 L 19.380199,34.80999961575118 L 18.180198999999998,34.80999961575118 L 18.180198999999998,33.909999615751175" fill="#FFFFFF" stroke="#FFFFFF" fill-opacity="1" stroke-opacity="1"/>
  <path d="M 18.180198999999998,37.20999961575118 L 19.380199,37.20999961575118 L 19.380199,38.109999615751185 L 18.180198999999998,38.109999615751185 L 18.180198999999998,37.20999961575118" fill="#FFFFFF" stroke="#FFFFFF" fill-opacity="1" stroke-opacity="1"/>
  <path d="M 18.540198999999998,12.479999615751183 L 19.740199,12.479999615751183 L 19.740199,13.379999615751181 L 18.540198999999998,13.379999615751181 L 18.540198999999998,12.479999615751183" fill="#FFFFFF" stroke="#FFFFFF" fill-opacity="1" stroke-opacity="1"/>
  <path d="M 18.540198999999998,15.779999615751183 L 19.740199,15.779999615751183 L 19.740199,16.679999615751182 L 18.540198999999998,16.679999615751182 L 18.540198999999998,15.779999615751183" fill="#FFFFFF" stroke="#FFFFFF" fill-opacity="1" stroke-opacity="1"/>
  <path d="M 112.39019900000001,52.88999961575118 L 113.590199,52.88999961575118 L 113.590199,53.789999615751185 L 112.39019900000001,53.789999615751185 L 112.39019900000001,52.88999961575118" fill="#FFFFFF" stroke="#FFFFFF" fill-opacity="1" stroke-opacity="1"/>
  <path d="M 112.39019900000001,56.18999961575118 L 113.590199,56.18999961575118 L 113.590199,57.08999961575118 L 112.39019900000001,57.08999961575118 L 112.39019900000001,56.18999961575118" fill="#FFFFFF" stroke="#FFFFFF" fill-opacity="1" stroke-opacity="1"/>
  <path d="M 128.493949,14.21499962 L 129.006449,14.21499962 A 0.21875,0.21875 0.0 0,1 129.225199,14.43374962 L 129.225199,14.87124962 A 0.21875,0.21875 0.0 0,1 129.006449,15.08999962 L 128.493949,15.08999962 A 0.21875,0.21875 0.0 0,1 128.275199,14.87124962 L 128.275199,14.43374962 A 0.21875,0.21875 0.0 0,1 128.493949,14.21499962" fill="#FFFFFF" stroke="#FFFFFF" fill-opacity="1" stroke-opacity="1"/>
  <path d="M 128.493949,15.78999962 L 129.006449,15.78999962 A 0.21875,0.21875 0.0 0,1 129.225199,16.00874962 L 129.225199,16.44624962 A 0.21875,0.21875 0.0 0,1 129.006449,16.66499962 L 128.493949,16.66499962 A 0.21875,0.21875 0.0 0,1 128.275199,16.44624962 L 128.275199,16.00874962 A 0.21875,0.21875 0.0 0,1 128.493949,15.78999962" fill="#FFFFFF" stroke="#FFFFFF" fill-opacity="1" stroke-opacity="1"/>
  <path d="M 130.846449,16.62499962 L 130.333949,16.62499962 A 0.21875,0.21875 0.0 0,1 130.115199,16.40624962 L 130.115199,15.96874962 A 0.21875,0.21875 0.0 0,1 130.333949,15.74999962 L 130.846449,15.74999962 A 0.21875,0.21875 0.0 0,1 131.065199,15.96874962 L 131.065199,16.40624962 A 0.21875,0.21875 0.0 0,1 130.846449,16.62499962" fill="#FFFFFF" stroke="#FFFFFF" fill-opacity="1" stroke-opacity="1"/>
  <path d="M 130.846449,15.04999962 L 130.333949,15.04999962 A 0.21875,0.21875 0.0 0,1 130.115199,14.83124962 L 130.115199,14.39374962 A 0.21875,0.21875 0.0 0,1 130.333949,14.17499962 L 130.846449,14.17499962 A 0.21875,0.21875 0.0 0,1 131.065199,14.39374962 L 131.065199,14.83124962 A 0.21875,0.21875 0.0 0,1 130.846449,15.04999962" fill="#FFFFFF" stroke="#FFFFFF" fill-opacity="1" stroke-opacity="1"/>
  <path d="M 176.116449,40.40499962 L 175.603949,40.40499962 A 0.21875,0.21875 0.0 0,1 175.385199,40.18624962 L 175.385199,39.74874962 A 0.21875,0.21875 0.0 0,1 175.603949,39.52999962 L 176.116449,39.52999962 A 0.21875,0.21875 0.0 0,1 176.335199,39.74874962 L 176.335199,40.18624962 A 0.21875,0.21875 0.0 0,1 176.116449,40.40499962" fill="#FFFFFF" stroke="#FFFFFF" fill-opacity="1" stroke-opacity="1"/>
  <path d="M 176.116449,38.82999962 L 175.603949,38.82999962 A 0.21875,0.21875 0.0 0,1 175.385199,38.61124962 L 175.385199,38.17374962 A 0.21875,0.21875 0.0 0,1 175.603949,37.95499962 L 176.116449,37.95499962 A 0.21875,0.21875 0.0 0,1 176.335199,38.17374962 L 176.335199,38.61124962 A 0.21875,0.21875 0.0 0,1 176.116449,38.82999962" fill="#FFFFFF" stroke="#FFFFFF" fill-opacity="1" stroke-opacity="1"/>
  <path d="M 141.887699,7.19374962 L 141.887699,7.70624962 A 0.21875,0.21875 0.0 0,1 141.668949,7.92499962 L 141.231449,7.92499962 A 0.21875,0.21875 0.0 0,1 141.012699,7.70624962 L 141.012699,7.19374962 A 0.21875,0.21875 0.0 0,1 141.231449,6.97499962 L 141.668949,6.97499962 A 0.21875,0.21875 0.0 0,1 141.887699,7.19374962" fill="#FFFFFF" stroke="#FFFFFF" fill-opacity="1" stroke-opacity="1"/>
  <path d="M 140.312699,7.19374962 L 140.312699,7.70624962 A 0.21875,0.21875 0.0 0,1 140.093949,7.92499962 L 139.656449,7.92499962 A 0.21875,0.21875 0.0 0,1 139.437699,7.70624962 L 139.437699,7.19374962 A 0.21875,0.21875 0.0 0,1 139.656449,6.97499962 L 140.093949,6.97499962 A 0.21875,0.21875 0.0 0,1 140.312699,7.19374962" fill="#FFFFFF" stroke="#FFFFFF" fill-opacity="1" stroke-opacity="1"/>
  <path d="M 141.847699,5.43374962 L 141.847699,5.94624962 A 0.21875,0.21875 0.0 0,1 141.628949,6.16499962 L 141.191449,6.16499962 A 0.21875,0.21875 0.0 0,1 140.972699,5.94624962 L 140.972699,5.43374962 A 0.21875,0.21875 0.0 0,1 141.191449,5.21499962 L 141.628949,5.21499962 A 0.21875,0.21875 0.0 0,1 141.847699,5.43374962" fill="#FFFFFF" stroke="#FFFFFF" fill-opacity="1" stroke-opacity="1"/>
  <path d="M 140.272699,5.43374962 L 140.272699,5.94624962 A 0.21875,0.21875 0.0 0,1 140.053949,6.16499962 L 139.616449,6.16499962 A 0.21875,0.21875 0.0 0,1 139.397699,5.94624962 L 139.397699,5.43374962 A 0.21875,0.21875 0.0 0,1 139.616449,5.21499962 L 140.053949,5.21499962 A 0.21875,0.21875 0.0 0,1 140.272699,5.43374962" fill="#FFFFFF" stroke="#FFFFFF" fill-opacity="1" stroke-opacity="1"/>
  <path d="M 174.572699,26.22374962 L 174.572699,26.73624962 A 0.21875,0.21875 0.0 0,1 174.353949,26.95499962 L 173.916449,26.95499962 A 0.21875,0.21875 0.0 0,1 173.697699,26.73624962 L 173.697699,26.22374962 A 0.21875,0.21875 0.0 0,1 173.916449,26.00499962 L 174.353949,26.00499962 A 0.21875,0.21875 0.0 0,1 174.572699,26.22374962" fill="#FFFFFF" stroke="#FFFFFF" fill-opacity="1" stroke-opacity="1"/>
  <path d="M 172.997699,26.22374962 L 172.997699,26.73624962 A 0.21875,0.21875 0.0 0,1 172.778949,26.95499962 L 172.341449,26.95499962 A 0.21875,0.21875 0.0 0,1 172.122699,26.73624962 L 172.122699,26.22374962 A 0.21875,0.21875 0.0 0,1 172.341449,26.00499962 L 172.778949,26.00499962 A 0.21875,0.21875 0.0 0,1 172.997699,26.22374962" fill="#FFFFFF" stroke="#FFFFFF" fill-opacity="1" stroke-opacity="1"/>
  <path d="M 183.260199,34.17999961575118 L 184.260199,34.17999961575118 L 184.260199,35.87999961575118 L 183.260199,35.87999961575118 L 183.260199,34.17999961575118" fill="#FFFFFF" stroke="#FFFFFF" fill-opacity="1" stroke-opacity="1"/>
  <path d="M 183.260199,40.47999961575118 L 184.260199,40.47999961575118 L 184.260199,42.179999615751186 L 183.260199,42.179999615751186 L 183.260199,40.47999961575118" fill="#FFFFFF" stroke="#FFFFFF" fill-opacity="1" stroke-opacity="1"/>
  <path d="M 179.460199,34.17999961575118 L 180.460199,34.17999961575118 L 180.460199,35.87999961575118 L 179.460199,35.87999961575118 L 179.460199,34.17999961575118" fill="#FFFFFF" stroke="#FFFFFF" fill-opacity="1" stroke-opacity="1"/>
  <path d="M 179.460199,40.47999961575118 L 180.460199,40.47999961575118 L 180.460199,42.179999615751186 L 179.460199,42.179999615751186 L 179.460199,40.47999961575118" fill="#FFFFFF" stroke="#FFFFFF" fill-opacity="1" stroke-opacity="1"/>
  <path d="M 150.46019900000002,12.779999615751182 L 151.660199,12.779999615751182 L 151.660199,13.67999961575118 L 150.46019900000002,13.67999961575118 L 150.46019900000002,12.779999615751182" fill="#FFFFFF" stroke="#FFFFFF" fill-opacity="1" stroke-opacity="1"/>
  <path d="M 150.46019900000002,16.07999961575118 L 151.660199,16.07999961575118 L 151.660199,16.97999961575118 L 150.46019900000002,16.97999961575118 L 150.46019900000002,16.07999961575118" fill="#FFFFFF" stroke="#FFFFFF" fill-opacity="1" stroke-opacity="1"/>
  <path d="M 179.360199,16.479999615751183 L 182.56019899999998,16.479999615751183 L 182.56019899999998,16.87999961575118 L 179.360199,16.87999961575118 L 179.360199,16.479999615751183" fill="#FFFFFF" stroke="#FFFFFF" fill-opacity="1" stroke-opacity="1"/>
  <path d="M 179.360199,17.679999615751182 L 182.56019899999998,17.679999615751182 L 182.56019899999998,18.07999961575118 L 179.360199,18.07999961575118 L 179.360199,17.679999615751182" fill="#FFFFFF" stroke="#FFFFFF" fill-opacity="1" stroke-opacity="1"/>
  <path d="M 179.360199,18.87999961575118 L 182.56019899999998,18.87999961575118 L 182.56019899999998,19.27999961575118 L 179.360199,19.27999961575118 L 179.360199,18.87999961575118" fill="#FFFFFF" stroke="#FFFFFF" fill-opacity="1" stroke-opacity="1"/>
  <path d="M 133.297699,14.47999962 L 132.822699,14.47999962 A 0.2375,0.2375 0.0 0,1 132.585199,14.24249962 L 132.585199,13.66749962 A 0.2375,0.2375 0.0 0,1 132.822699,13.42999962 L 133.297699,13.42999962 A 0.2375,0.2375 0.0 0,1 133.535199,13.66749962 L 133.535199,14.24249962 A 0.2375,0.2375 0.0 0,1 133.297699,14.47999962" fill="#FFFFFF" stroke="#FFFFFF" fill-opacity="1" stroke-opacity="1"/>
  <path d="M 133.297699,12.72999962 L 132.822699,12.72999962 A 0.2375,0.2375 0.0 0,1 132.585199,12.49249962 L 132.585199,11.91749962 A 0.2375,0.2375 0.0 0,1 132.822699,11.67999962 L 133.297699,11.67999962 A 0.2375,0.2375 0.0 0,1 133.535199,11.91749962 L 133.535199,12.49249962 A 0.2375,0.2375 0.0 0,1 133.297699,12.72999962" fill="#FFFFFF" stroke="#FFFFFF" fill-opacity="1" stroke-opacity="1"/>
  <path d="M 66.350199,66.87999961575117 L 67.55019899999999,66.87999961575117 L 67.55019899999999,67.77999961575118 L 66.350199,67.77999961575118 L 66.350199,66.87999961575117" fill="#FFFFFF" stroke="#FFFFFF" fill-opacity="1" stroke-opacity="1"/>
  <path d="M 66.350199,70.17999961575117 L 67.55019899999999,70.17999961575117 L 67.55019899999999,71.07999961575118 L 66.350199,71.07999961575118 L 66.350199,70.17999961575117" fill="#FFFFFF" stroke="#FFFFFF" fill-opacity="1" stroke-opacity="1"/>
  <path d="M 153.980199,66.87999961575117 L 155.180199,66.87999961575117 L 155.180199,67.77999961575118 L 153.980199,67.77999961575118 L 153.980199,66.87999961575117" fill="#FFFFFF" stroke="#FFFFFF" fill-opacity="1" stroke-opacity="1"/>
  <path d="M 153.980199,70.17999961575117 L 155.180199,70.17999961575117 L 155.180199,71.07999961575118 L 153.980199,71.07999961575118 L 153.980199,70.17999961575117" fill="#FFFFFF" stroke="#FFFFFF" fill-opacity="1" stroke-opacity="1"/>
  <path d="M 128.24519899999999,7.119999615751182 L 128.845199,7.119999615751182 L 128.845199,9.56999961575118 L 128.24519899999999,9.56999961575118 L 128.24519899999999,7.119999615751182" fill="#FFFFFF" stroke="#FFFFFF" fill-opacity="1" stroke-opacity="1"/>
  <path d="M 129.020199,7.119999615751182 L 129.620199,7.119999615751182 L 129.620199,9.56999961575118 L 129.020199,9.56999961575118 L 129.020199,7.119999615751182" fill="#FFFFFF" stroke="#FFFFFF" fill-opacity="1" stroke-opacity="1"/>
  <path d="M 129.87019899999999,7.119999615751182 L 130.170199,7.119999615751182 L 130.170199,9.56999961575118 L 129.87019899999999,9.56999961575118 L 129.87019899999999,7.119999615751182" fill="#FFFFFF" stroke="#FFFFFF" fill-opacity="1" stroke-opacity="1"/>
  <path d="M 130.37019899999999,7.119999615751182 L 130.670199,7.119999615751182 L 130.670199,9.56999961575118 L 130.37019899999999,9.56999961575118 L 130.37019899999999,7.119999615751182" fill="#FFFFFF" stroke="#FFFFFF" fill-opacity="1" stroke-opacity="1"/>
  <path d="M 130.87019899999999,7.119999615751182 L 131.170199,7.119999615751182 L 131.170199,9.56999961575118 L 130.87019899999999,9.56999961575118 L 130.87019899999999,7.119999615751182" fill="#FFFFFF" stroke="#FFFFFF" fill-opacity="1" stroke-opacity="1"/>
  <path d="M 131.37019899999999,7.119999615751182 L 131.670199,7.119999615751182 L 131.670199,9.56999961575118 L 131.37019899999999,9.56999961575118 L 131.37019899999999,7.119999615751182" fill="#FFFFFF" stroke="#FFFFFF" fill-opacity="1" stroke-opacity="1"/>
  <path d="M 131.87019899999999,7.119999615751182 L 132.170199,7.119999615751182 L 132.170199,9.56999961575118 L 131.87019899999999,9.56999961575118 L 131.87019899999999,7.119999615751182" fill="#FFFFFF" stroke="#FFFFFF" fill-opacity="1" stroke-opacity="1"/>
  <path d="M 132.37019899999999,7.119999615751182 L 132.670199,7.119999615751182 L 132.670199,9.56999961575118 L 132.37019899999999,9.56999961575118 L 132.37019899999999,7.119999615751182" fill="#FFFFFF" stroke="#FFFFFF" fill-opacity="1" stroke-opacity="1"/>
  <path d="M 132.87019899999999,7.119999615751182 L 133.170199,7.119999615751182 L 133.170199,9.56999961575118 L 132.87019899999999,9.56999961575118 L 132.87019899999999,7.119999615751182" fill="#FFFFFF" stroke="#FFFFFF" fill-opacity="1" stroke-opacity="1"/>
  <path d="M 133.37019899999999,7.119999615751182 L 133.670199,7.119999615751182 L 133.670199,9.56999961575118 L 133.37019899999999,9.56999961575118 L 133.37019899999999,7.119999615751182" fill="#FFFFFF" stroke="#FFFFFF" fill-opacity="1" stroke-opacity="1"/>
  <path d="M 133.920199,7.119999615751182 L 134.52019900000002,7.119999615751182 L 134.52019900000002,9.56999961575118 L 133.920199,9.56999961575118 L 133.920199,7.119999615751182" fill="#FFFFFF" stroke="#FFFFFF" fill-opacity="1" stroke-opacity="1"/>
  <path d="M 134.695199,7.119999615751182 L 135.29519900000003,7.119999615751182 L 135.29519900000003,9.56999961575118 L 134.695199,9.56999961575118 L 134.695199,7.119999615751182" fill="#FFFFFF" stroke="#FFFFFF" fill-opacity="1" stroke-opacity="1"/>
  <path d="M 51.110199,67.00999961575118 L 52.310199000000004,67.00999961575118 L 52.310199000000004,67.90999961575119 L 51.110199,67.90999961575119 L 51.110199,67.00999961575118" fill="#FFFFFF" stroke="#FFFFFF" fill-opacity="1" stroke-opacity="1"/>
  <path d="M 51.110199,70.30999961575118 L 52.310199000000004,70.30999961575118 L 52.310199000000004,71.20999961575119 L 51.110199,71.20999961575119 L 51.110199,70.30999961575118" fill="#FFFFFF" stroke="#FFFFFF" fill-opacity="1" stroke-opacity="1"/>
  <path d="M 176.41019899999998,17.00499961575118 L 178.010199,17.00499961575118 L 178.010199,17.55499961575118 L 176.41019899999998,17.55499961575118 L 176.41019899999998,17.00499961575118" fill="#FFFFFF" stroke="#FFFFFF" fill-opacity="1" stroke-opacity="1"/>
  <path d="M 176.41019899999998,17.804999615751182 L 178.010199,17.804999615751182 L 178.010199,18.35499961575118 L 176.41019899999998,18.35499961575118 L 176.41019899999998,17.804999615751182" fill="#FFFFFF" stroke="#FFFFFF" fill-opacity="1" stroke-opacity="1"/>
  <path d="M 176.41019899999998,18.604999615751183 L 178.010199,18.604999615751183 L 178.010199,19.15499961575118 L 176.41019899999998,19.15499961575118 L 176.41019899999998,18.604999615751183" fill="#FFFFFF" stroke="#FFFFFF" fill-opacity="1" stroke-opacity="1"/>
  <path d="M 176.41019899999998,19.404999615751183 L 178.010199,19.404999615751183 L 178.010199,19.95499961575118 L 176.41019899999998,19.95499961575118 L 176.41019899999998,19.404999615751183" fill="#FFFFFF" stroke="#FFFFFF" fill-opacity="1" stroke-opacity="1"/>
  <path d="M 176.41019899999998,20.204999615751184 L 178.010199,20.204999615751184 L 178.010199,20.75499961575118 L 176.41019899999998,20.75499961575118 L 176.41019899999998,20.204999615751184" fill="#FFFFFF" stroke="#FFFFFF" fill-opacity="1" stroke-opacity="1"/>
  <path d="M 176.41019899999998,21.00499961575118 L 178.010199,21.00499961575118 L 178.010199,21.55499961575118 L 176.41019899999998,21.55499961575118 L 176.41019899999998,21.00499961575118" fill="#FFFFFF" stroke="#FFFFFF" fill-opacity="1" stroke-opacity="1"/>
  <path d="M 176.41019899999998,21.804999615751182 L 178.010199,21.804999615751182 L 178.010199,22.35499961575118 L 176.41019899999998,22.35499961575118 L 176.41019899999998,21.804999615751182" fill="#FFFFFF" stroke="#FFFFFF" fill-opacity="1" stroke-opacity="1"/>
  <path d="M 176.41019899999998,22.604999615751183 L 178.010199,22.604999615751183 L 178.010199,23.15499961575118 L 176.41019899999998,23.15499961575118 L 176.41019899999998,22.604999615751183" fill="#FFFFFF" stroke="#FFFFFF" fill-opacity="1" stroke-opacity="1"/>
  <path d="M 175.485199,23.52999961575118 L 176.035199,23.52999961575118 L 176.035199,25.12999961575118 L 175.485199,25.12999961575118 L 175.485199,23.52999961575118" fill="#FFFFFF" stroke="#FFFFFF" fill-opacity="1" stroke-opacity="1"/>
  <path d="M 174.68519899999998,23.52999961575118 L 175.235199,23.52999961575118 L 175.235199,25.12999961575118 L 174.68519899999998,25.12999961575118 L 174.68519899999998,23.52999961575118" fill="#FFFFFF" stroke="#FFFFFF" fill-opacity="1" stroke-opacity="1"/>
  <path d="M 173.885199,23.52999961575118 L 174.435199,23.52999961575118 L 174.435199,25.12999961575118 L 173.885199,25.12999961575118 L 173.885199,23.52999961575118" fill="#FFFFFF" stroke="#FFFFFF" fill-opacity="1" stroke-opacity="1"/>
  <path d="M 173.085199,23.52999961575118 L 173.635199,23.52999961575118 L 173.635199,25.12999961575118 L 173.085199,25.12999961575118 L 173.085199,23.52999961575118" fill="#FFFFFF" stroke="#FFFFFF" fill-opacity="1" stroke-opacity="1"/>
  <path d="M 172.285199,23.52999961575118 L 172.83519900000002,23.52999961575118 L 172.83519900000002,25.12999961575118 L 172.285199,25.12999961575118 L 172.285199,23.52999961575118" fill="#FFFFFF" stroke="#FFFFFF" fill-opacity="1" stroke-opacity="1"/>
  <path d="M 171.485199,23.52999961575118 L 172.035199,23.52999961575118 L 172.035199,25.12999961575118 L 171.485199,25.12999961575118 L 171.485199,23.52999961575118" fill="#FFFFFF" stroke="#FFFFFF" fill-opacity="1" stroke-opacity="1"/>
  <path d="M 170.68519899999998,23.52999961575118 L 171.235199,23.52999961575118 L 171.235199,25.12999961575118 L 170.68519899999998,25.12999961575118 L 170.68519899999998,23.52999961575118" fill="#FFFFFF" stroke="#FFFFFF" fill-opacity="1" stroke-opacity="1"/>
  <path d="M 169.885199,23.52999961575118 L 170.435199,23.52999961575118 L 170.435199,25.12999961575118 L 169.885199,25.12999961575118 L 169.885199,23.52999961575118" fill="#FFFFFF" stroke="#FFFFFF" fill-opacity="1" stroke-opacity="1"/>
  <path d="M 167.91019899999998,22.604999615751183 L 169.510199,22.604999615751183 L 169.510199,23.15499961575118 L 167.91019899999998,23.15499961575118 L 167.91019899999998,22.604999615751183" fill="#FFFFFF" stroke="#FFFFFF" fill-opacity="1" stroke-opacity="1"/>
  <path d="M 167.91019899999998,21.804999615751182 L 169.510199,21.804999615751182 L 169.510199,22.35499961575118 L 167.91019899999998,22.35499961575118 L 167.91019899999998,21.804999615751182" fill="#FFFFFF" stroke="#FFFFFF" fill-opacity="1" stroke-opacity="1"/>
  <path d="M 167.91019899999998,21.00499961575118 L 169.510199,21.00499961575118 L 169.510199,21.55499961575118 L 167.91019899999998,21.55499961575118 L 167.91019899999998,21.00499961575118" fill="#FFFFFF" stroke="#FFFFFF" fill-opacity="1" stroke-opacity="1"/>
  <path d="M 167.91019899999998,20.204999615751184 L 169.510199,20.204999615751184 L 169.510199,20.75499961575118 L 167.91019899999998,20.75499961575118 L 167.91019899999998,20.204999615751184" fill="#FFFFFF" stroke="#FFFFFF" fill-opacity="1" stroke-opacity="1"/>
  <path d="M 167.91019899999998,19.404999615751183 L 169.510199,19.404999615751183 L 169.510199,19.95499961575118 L 167.91019899999998,19.95499961575118 L 167.91019899999998,19.404999615751183" fill="#FFFFFF" stroke="#FFFFFF" fill-opacity="1" stroke-opacity="1"/>
  <path d="M 167.91019899999998,18.604999615751183 L 169.510199,18.604999615751183 L 169.510199,19.15499961575118 L 167.91019899999998,19.15499961575118 L 167.91019899999998,18.604999615751183" fill="#FFFFFF" stroke="#FFFFFF" fill-opacity="1" stroke-opacity="1"/>
  <path d="M 167.91019899999998,17.804999615751182 L 169.510199,17.804999615751182 L 169.510199,18.35499961575118 L 167.91019899999998,18.35499961575118 L 167.91019899999998,17.804999615751182" fill="#FFFFFF" stroke="#FFFFFF" fill-opacity="1" stroke-opacity="1"/>
  <path d="M 167.91019899999998,17.00499961575118 L 169.510199,17.00499961575118 L 169.510199,17.55499961575118 L 167.91019899999998,17.55499961575118 L 167.91019899999998,17.00499961575118" fill="#FFFFFF" stroke="#FFFFFF" fill-opacity="1" stroke-opacity="1"/>
  <path d="M 169.885199,15.02999961575118 L 170.435199,15.02999961575118 L 170.435199,16.62999961575118 L 169.885199,16.62999961575118 L 169.885199,15.02999961575118" fill="#FFFFFF" stroke="#FFFFFF" fill-opacity="1" stroke-opacity="1"/>
  <path d="M 170.68519899999998,15.02999961575118 L 171.235199,15.02999961575118 L 171.235199,16.62999961575118 L 170.68519899999998,16.62999961575118 L 170.68519899999998,15.02999961575118" fill="#FFFFFF" stroke="#FFFFFF" fill-opacity="1" stroke-opacity="1"/>
  <path d="M 171.485199,15.02999961575118 L 172.035199,15.02999961575118 L 172.035199,16.62999961575118 L 171.485199,16.62999961575118 L 171.485199,15.02999961575118" fill="#FFFFFF" stroke="#FFFFFF" fill-opacity="1" stroke-opacity="1"/>
  <path d="M 172.285199,15.02999961575118 L 172.83519900000002,15.02999961575118 L 172.83519900000002,16.62999961575118 L 172.285199,16.62999961575118 L 172.285199,15.02999961575118" fill="#FFFFFF" stroke="#FFFFFF" fill-opacity="1" stroke-opacity="1"/>
  <path d="M 173.085199,15.02999961575118 L 173.635199,15.02999961575118 L 173.635199,16.62999961575118 L 173.085199,16.62999961575118 L 173.085199,15.02999961575118" fill="#FFFFFF" stroke="#FFFFFF" fill-opacity="1" stroke-opacity="1"/>
  <path d="M 173.885199,15.02999961575118 L 174.435199,15.02999961575118 L 174.435199,16.62999961575118 L 173.885199,16.62999961575118 L 173.885199,15.02999961575118" fill="#FFFFFF" stroke="#FFFFFF" fill-opacity="1" stroke-opacity="1"/>
  <path d="M 174.68519899999998,15.02999961575118 L 175.235199,15.02999961575118 L 175.235199,16.62999961575118 L 174.68519899999998,16.62999961575118 L 174.68519899999998,15.02999961575118" fill="#FFFFFF" stroke="#FFFFFF" fill-opacity="1" stroke-opacity="1"/>
  <path d="M 175.485199,15.02999961575118 L 176.035199,15.02999961575118 L 176.035199,16.62999961575118 L 175.485199,16.62999961575118 L 175.485199,15.02999961575118" fill="#FFFFFF" stroke="#FFFFFF" fill-opacity="1" stroke-opacity="1"/>
  <path d="M 107.003405,66.86130761575117 L 108.20340499999999,66.86130761575117 L 108.20340499999999,67.76130761575118 L 107.003405,67.76130761575118 L 107.003405,66.86130761575117" fill="#FFFFFF" stroke="#FFFFFF" fill-opacity="1" stroke-opacity="1"/>
  <path d="M 107.003405,70.16130761575118 L 108.20340499999999,70.16130761575118 L 108.20340499999999,71.06130761575119 L 107.003405,71.06130761575119 L 107.003405,70.16130761575118" fill="#FFFFFF" stroke="#FFFFFF" fill-opacity="1" stroke-opacity="1"/>
</svg>
