<svg xmlns="http://www.w3.org/2000/svg" version="1.1" viewBox="0 0 187.810398 82.23999923150237" width="187.810398" height="82.23999923150237" style="shape-rendering:crispEdges;vector-effect:non-scaling-stroke">
  <rect width="100%" height="100%" fill="#000000"/>
<g id="layer_0" transform="translate(0.0,0.0)"><svg width="187.810398" height="82.2399992315023626745432509107161662137198979688791106282744" viewBox="0 0 187.810398 82.2399992315023626745432509107161662137198979688791106282744">
<defs>
<mask id="ly0_b6589fc6__d0">
<rect x="-93.905199" y="-41.1199996157511813372716254553580831068599489844395553141372" width="375.620796" height="164.479998463004725349086501821432332427439795937758221256549" fill="#FFFFFF" stroke="#FFFFFF" />
</mask>
<g id="ly0_b6589fc6__d1" stroke="#FFFFFF" fill="#FFFFFF">
<circle cx="0" cy="0" r="0.02500" fill="#FFFFFF" stroke="#FFFFFF" />
</g>
<g id="ly0_b6589fc6__d2" stroke="#FFFFFF" fill="#FFFFFF">
<circle cx="0" cy="0" r="0.05000" fill="#FFFFFF" stroke="#FFFFFF" />
</g>
<g id="ly0_b6589fc6__d3" stroke="#FFFFFF" fill="#FFFFFF">
<rect x="-0.6000000" y="-0.4500000" width="1.2000000" height="0.9000000" fill="#FFFFFF" transform="rotate(-0.0)" stroke="#FFFFFF" />
</g>
<g id="ly0_b6589fc6__d4" stroke="#FFFFFF" fill="#FFFFFF">
<rect x="-0.4500000" y="-0.6000000" width="0.9000000" height="1.2000000" fill="#FFFFFF" transform="rotate(-0.0)" stroke="#FFFFFF" />
</g>
<g id="ly0_b6589fc6__d5" stroke="#FFFFFF" fill="#FFFFFF">
<rect x="-0.5000000" y="-0.8500000" width="1.0000000" height="1.7000000" fill="#FFFFFF" transform="rotate(-0.0)" stroke="#FFFFFF" />
</g>
<g id="ly0_b6589fc6__d6" stroke="#FFFFFF" fill="#FFFFFF">
<rect x="-1.6000000" y="-0.2000000" width="3.2000000" height="0.4000000" fill="#FFFFFF" transform="rotate(-0.0)" stroke="#FFFFFF" />
</g>
<g id="ly0_b6589fc6__d7" stroke="#FFFFFF" fill="#FFFFFF">
<rect x="-0.3000000" y="-1.2250000" width="0.6000000" height="2.4500000" fill="#FFFFFF" transform="rotate(-0.0)" stroke="#FFFFFF" />
</g>
<g id="ly0_b6589fc6__d8" stroke="#FFFFFF" fill="#FFFFFF">
<rect x="-0.1500000" y="-1.2250000" width="0.3000000" height="2.4500000" fill="#FFFFFF" transform="rotate(-0.0)" stroke="#FFFFFF" />
</g>
<g id="ly0_b6589fc6__d9" stroke="#FFFFFF" fill="#FFFFFF">
<rect x="-0.8000000" y="-0.2750000" width="1.6000000" height="0.5500000" fill="#FFFFFF" transform="rotate(-0.0)" stroke="#FFFFFF" />
</g>
<g id="ly0_b6589fc6__d10" stroke="#FFFFFF" fill="#FFFFFF">
<rect x="-0.2750000" y="-0.8000000" width="0.5500000" height="1.6000000" fill="#FFFFFF" transform="rotate(-0.0)" stroke="#FFFFFF" />
</g>
</defs>
<g mask="url(#ly0_b6589fc6__d0)" stroke="#FFFFFF" fill="#FFFFFF">
<g stroke="#FFFFFF" fill="#FFFFFF" />
<g stroke="#FFFFFF" fill="#FFFFFF" transform="translate(185.510199,4.2199996157511813372716254553580831068599489844395553141374)">
<circle cx="0" cy="0" r="0.02500" fill="#FFFFFF" stroke="#FFFFFF" />
</g>
<path d="M185.51019900,4.19499962 A2.27519900,2.27519900,0,0,1,187.78539800,6.47019862 L187.73539800,6.47019862 A2.22519900,2.22519900,0,0,0,185.51019900,4.24499962 Z" fill="#FFFFFF" stroke="#FFFFFF" />
<g stroke="#FFFFFF" fill="#FFFFFF" transform="translate(187.760398,6.4701986157511813372716254553580831068599489844395553141374)">
<circle cx="0" cy="0" r="0.02500" fill="#FFFFFF" stroke="#FFFFFF" />
</g>
<g stroke="#FFFFFF" fill="#FFFFFF" transform="translate(126.180199,4.2399996157511813372716254553580831068599489844395553141374)">
<circle cx="0" cy="0" r="0.02500" fill="#FFFFFF" stroke="#FFFFFF" />
</g>
<path d="M126.18018346,4.21499962 L126.18021454,4.26499961 L40.93901754,4.31799061 L40.93898646,4.26799062 Z" fill="#FFFFFF" stroke="#FFFFFF" />
<g stroke="#FFFFFF" fill="#FFFFFF" transform="translate(40.939002,4.2929906157511813372716254553580831068599489844395553141374)">
<circle cx="0" cy="0" r="0.02500" fill="#FFFFFF" stroke="#FFFFFF" />
</g>
<g stroke="#FFFFFF" fill="#FFFFFF" transform="translate(171.360199,78.0299996157511813372716254553580831068599489844395553141374)">
<circle cx="0" cy="0" r="0.02500" fill="#FFFFFF" stroke="#FFFFFF" />
</g>
<path d="M171.36022103,78.00499963 L171.36017697,78.05499961 L160.01017697,78.04499961 L160.01022103,77.99499963 Z" fill="#FFFFFF" stroke="#FFFFFF" />
<g stroke="#FFFFFF" fill="#FFFFFF" transform="translate(160.010199,78.0199996157511813372716254553580831068599489844395553141374)">
<circle cx="0" cy="0" r="0.02500" fill="#FFFFFF" stroke="#FFFFFF" />
</g>
<g stroke="#FFFFFF" fill="#FFFFFF" transform="translate(28.010199,77.9670086157511813372716254553580831068599489844395553141374)">
<circle cx="0" cy="0" r="0.02500" fill="#FFFFFF" stroke="#FFFFFF" />
</g>
<path d="M28.01014932,77.94200867 L28.01024868,77.99200857 L16.44024868,78.01499957 L16.44014932,77.96499967 Z" fill="#FFFFFF" stroke="#FFFFFF" />
<g stroke="#FFFFFF" fill="#FFFFFF" transform="translate(16.440199,77.9899996157511813372716254553580831068599489844395553141374)">
<circle cx="0" cy="0" r="0.02500" fill="#FFFFFF" stroke="#FFFFFF" />
</g>
<g stroke="#FFFFFF" fill="#FFFFFF" transform="translate(151.670421,77.9770086157511813372716254553580831068599489844395553141374)">
<circle cx="0" cy="0" r="0.02500" fill="#FFFFFF" stroke="#FFFFFF" />
</g>
<path d="M151.64542233,77.97675088 A4.19499962,4.19499962,0,0,1,160.03519900,78.01999962 L159.98519900,78.01999962 A4.14500000,4.14500000,0,0,0,151.69541967,77.97726636 Z" fill="#FFFFFF" stroke="#FFFFFF" />
<g stroke="#FFFFFF" fill="#FFFFFF" transform="translate(160.010199,78.0199996157511813372716254553580831068599489844395553141374)">
<circle cx="0" cy="0" r="0.02500" fill="#FFFFFF" stroke="#FFFFFF" />
</g>
<g stroke="#FFFFFF" fill="#FFFFFF" transform="translate(16.440199,77.9899996157511813372716254553580831068599489844395553141374)">
<circle cx="0" cy="0" r="0.02500" fill="#FFFFFF" stroke="#FFFFFF" />
</g>
<path d="M16.44019900,78.01499962 A2.03500000,2.03500000,0,0,1,14.40519900,75.97999962 L14.45519900,75.97999962 A1.98500000,1.98500000,0,0,0,16.44019900,77.96499962 Z" fill="#FFFFFF" stroke="#FFFFFF" />
<g stroke="#FFFFFF" fill="#FFFFFF" transform="translate(14.430199,75.9799996157511813372716254553580831068599489844395553141374)">
<circle cx="0" cy="0" r="0.02500" fill="#FFFFFF" stroke="#FFFFFF" />
</g>
<g stroke="#FFFFFF" fill="#FFFFFF" transform="translate(175.380199,56.9699996157511813372716254553580831068599489844395553141374)">
<circle cx="0" cy="0" r="0.02500" fill="#FFFFFF" stroke="#FFFFFF" />
</g>
<path d="M175.38019900,56.99499962 L175.38019900,56.94499962 L185.74019900,56.94499962 L185.74019900,56.99499962 Z" fill="#FFFFFF" stroke="#FFFFFF" />
<g stroke="#FFFFFF" fill="#FFFFFF" transform="translate(185.740199,56.9699996157511813372716254553580831068599489844395553141374)">
<circle cx="0" cy="0" r="0.02500" fill="#FFFFFF" stroke="#FFFFFF" />
</g>
<g stroke="#FFFFFF" fill="#FFFFFF" transform="translate(187.750199,54.9599996157511813372716254553580831068599489844395553141374)">
<circle cx="0" cy="0" r="0.02500" fill="#FFFFFF" stroke="#FFFFFF" />
</g>
<path d="M187.77519900,54.95999962 A2.03500000,2.03500000,0,0,1,185.74019900,56.99499962 L185.74019900,56.94499962 A1.98500000,1.98500000,0,0,0,187.72519900,54.95999962 Z" fill="#FFFFFF" stroke="#FFFFFF" />
<g stroke="#FFFFFF" fill="#FFFFFF" transform="translate(185.740199,56.9699996157511813372716254553580831068599489844395553141374)">
<circle cx="0" cy="0" r="0.02500" fill="#FFFFFF" stroke="#FFFFFF" />
</g>
<g stroke="#FFFFFF" fill="#FFFFFF" transform="translate(173.370199,76.0199996157511813372716254553580831068599489844395553141374)">
<circle cx="0" cy="0" r="0.02500" fill="#FFFFFF" stroke="#FFFFFF" />
</g>
<path d="M173.39519900,76.01999962 L173.34519900,76.01999962 L173.34519900,58.97999962 L173.39519900,58.97999962 Z" fill="#FFFFFF" stroke="#FFFFFF" />
<g stroke="#FFFFFF" fill="#FFFFFF" transform="translate(173.370199,58.9799996157511813372716254553580831068599489844395553141374)">
<circle cx="0" cy="0" r="0.02500" fill="#FFFFFF" stroke="#FFFFFF" />
</g>
<g stroke="#FFFFFF" fill="#FFFFFF" transform="translate(173.370199,58.9799996157511813372716254553580831068599489844395553141374)">
<circle cx="0" cy="0" r="0.02500" fill="#FFFFFF" stroke="#FFFFFF" />
</g>
<path d="M173.34519900,58.97999962 A2.03500000,2.03500000,0,0,1,175.38019900,56.94499962 L175.38019900,56.99499962 A1.98500000,1.98500000,0,0,0,173.39519900,58.97999962 Z" fill="#FFFFFF" stroke="#FFFFFF" />
<g stroke="#FFFFFF" fill="#FFFFFF" transform="translate(175.380199,56.9699996157511813372716254553580831068599489844395553141374)">
<circle cx="0" cy="0" r="0.02500" fill="#FFFFFF" stroke="#FFFFFF" />
</g>
<g stroke="#FFFFFF" fill="#FFFFFF" transform="translate(173.370199,76.0199996157511813372716254553580831068599489844395553141374)">
<circle cx="0" cy="0" r="0.02500" fill="#FFFFFF" stroke="#FFFFFF" />
</g>
<path d="M173.39519900,76.01999962 A2.03500000,2.03500000,0,0,1,171.36019900,78.05499962 L171.36019900,78.00499962 A1.98500000,1.98500000,0,0,0,173.34519900,76.01999962 Z" fill="#FFFFFF" stroke="#FFFFFF" />
<g stroke="#FFFFFF" fill="#FFFFFF" transform="translate(171.360199,78.0299996157511813372716254553580831068599489844395553141374)">
<circle cx="0" cy="0" r="0.02500" fill="#FFFFFF" stroke="#FFFFFF" />
</g>
<g stroke="#FFFFFF" fill="#FFFFFF" transform="translate(0.050000,6.4899996157511813372716254553580831068599489844395553141374)">
<circle cx="0" cy="0" r="0.02500" fill="#FFFFFF" stroke="#FFFFFF" />
</g>
<path d="M0.02500000,6.48999962 A2.27519900,2.27519900,0,0,1,2.30019900,4.21480062 L2.30019900,4.26480062 A2.22519900,2.22519900,0,0,0,0.07500000,6.48999962 Z" fill="#FFFFFF" stroke="#FFFFFF" />
<g stroke="#FFFFFF" fill="#FFFFFF" transform="translate(2.300199,4.2398006157511813372716254553580831068599489844395553141374)">
<circle cx="0" cy="0" r="0.02500" fill="#FFFFFF" stroke="#FFFFFF" />
</g>
<g stroke="#FFFFFF" fill="#FFFFFF" transform="translate(0.050199,54.9599996157511813372716254553580831068599489844395553141374)">
<circle cx="0" cy="0" r="0.05000" fill="#FFFFFF" stroke="#FFFFFF" />
</g>
<path d="M0.10019900,54.95999941 L0.00019900,54.95999982 L0.00000000,6.48999982 L0.10000000,6.48999941 Z" fill="#FFFFFF" stroke="#FFFFFF" />
<g stroke="#FFFFFF" fill="#FFFFFF" transform="translate(0.050000,6.4899996157511813372716254553580831068599489844395553141374)">
<circle cx="0" cy="0" r="0.05000" fill="#FFFFFF" stroke="#FFFFFF" />
</g>
<g stroke="#FFFFFF" fill="#FFFFFF" transform="translate(12.420199,56.9699996157511813372716254553580831068599489844395553141374)">
<circle cx="0" cy="0" r="0.02500" fill="#FFFFFF" stroke="#FFFFFF" />
</g>
<path d="M12.42019900,56.94499962 A2.03500000,2.03500000,0,0,1,14.45519900,58.97999962 L14.40519900,58.97999962 A1.98500000,1.98500000,0,0,0,12.42019900,56.99499962 Z" fill="#FFFFFF" stroke="#FFFFFF" />
<g stroke="#FFFFFF" fill="#FFFFFF" transform="translate(14.430199,58.9799996157511813372716254553580831068599489844395553141374)">
<circle cx="0" cy="0" r="0.02500" fill="#FFFFFF" stroke="#FFFFFF" />
</g>
<g stroke="#FFFFFF" fill="#FFFFFF" transform="translate(155.249977,4.2629906157511813372716254553580831068599489844395553141374)">
<circle cx="0" cy="0" r="0.02500" fill="#FFFFFF" stroke="#FFFFFF" />
</g>
<path d="M155.27497567,4.26324836 A4.19499962,4.19499962,0,0,1,146.88519900,4.21999962 L146.93519900,4.21999962 A4.14500000,4.14500000,0,0,0,155.22497833,4.26273288 Z" fill="#FFFFFF" stroke="#FFFFFF" />
<g stroke="#FFFFFF" fill="#FFFFFF" transform="translate(146.910199,4.2199996157511813372716254553580831068599489844395553141374)">
<circle cx="0" cy="0" r="0.02500" fill="#FFFFFF" stroke="#FFFFFF" />
</g>
<g stroke="#FFFFFF" fill="#FFFFFF" transform="translate(2.300199,4.2398006157511813372716254553580831068599489844395553141374)">
<circle cx="0" cy="0" r="0.02500" fill="#FFFFFF" stroke="#FFFFFF" />
</g>
<path d="M2.30019058,4.26480061 L2.30020742,4.21480062 L32.59923242,4.22499962 L32.59921558,4.27499961 Z" fill="#FFFFFF" stroke="#FFFFFF" />
<g stroke="#FFFFFF" fill="#FFFFFF" transform="translate(32.599224,4.2499996157511813372716254553580831068599489844395553141374)">
<circle cx="0" cy="0" r="0.02500" fill="#FFFFFF" stroke="#FFFFFF" />
</g>
<g stroke="#FFFFFF" fill="#FFFFFF" transform="translate(28.010199,77.9670086157511813372716254553580831068599489844395553141374)">
<circle cx="0" cy="0" r="0.02500" fill="#FFFFFF" stroke="#FFFFFF" />
</g>
<path d="M27.98520033,77.96675088 A4.19499962,4.19499962,0,0,1,36.37497700,78.00999962 L36.32497700,78.00999962 A4.14500000,4.14500000,0,0,0,28.03519767,77.96726636 Z" fill="#FFFFFF" stroke="#FFFFFF" />
<g stroke="#FFFFFF" fill="#FFFFFF" transform="translate(36.349977,78.0099996157511813372716254553580831068599489844395553141374)">
<circle cx="0" cy="0" r="0.02500" fill="#FFFFFF" stroke="#FFFFFF" />
</g>
<g stroke="#FFFFFF" fill="#FFFFFF" transform="translate(187.760398,6.4701986157511813372716254553580831068599489844395553141374)">
<circle cx="0" cy="0" r="0.05000" fill="#FFFFFF" stroke="#FFFFFF" />
</g>
<path d="M187.71039800,6.47018810 L187.81039800,6.47020913 L187.80019900,54.96001013 L187.70019900,54.95998910 Z" fill="#FFFFFF" stroke="#FFFFFF" />
<g stroke="#FFFFFF" fill="#FFFFFF" transform="translate(187.750199,54.9599996157511813372716254553580831068599489844395553141374)">
<circle cx="0" cy="0" r="0.05000" fill="#FFFFFF" stroke="#FFFFFF" />
</g>
<g stroke="#FFFFFF" fill="#FFFFFF" transform="translate(2.060199,56.9699996157511813372716254553580831068599489844395553141374)">
<circle cx="0" cy="0" r="0.02500" fill="#FFFFFF" stroke="#FFFFFF" />
</g>
<path d="M2.06019900,56.99499962 A2.03500000,2.03500000,0,0,1,0.02519900,54.95999962 L0.07519900,54.95999962 A1.98500000,1.98500000,0,0,0,2.06019900,56.94499962 Z" fill="#FFFFFF" stroke="#FFFFFF" />
<g stroke="#FFFFFF" fill="#FFFFFF" transform="translate(0.050199,54.9599996157511813372716254553580831068599489844395553141374)">
<circle cx="0" cy="0" r="0.02500" fill="#FFFFFF" stroke="#FFFFFF" />
</g>
<g stroke="#FFFFFF" fill="#FFFFFF" transform="translate(126.180199,4.2399996157511813372716254553580831068599489844395553141374)">
<circle cx="0" cy="0" r="0.02500" fill="#FFFFFF" stroke="#FFFFFF" />
</g>
<path d="M126.20519900,4.23999962 L126.15519900,4.23999962 L126.15519900,1.57999962 L126.20519900,1.57999962 Z" fill="#FFFFFF" stroke="#FFFFFF" />
<g stroke="#FFFFFF" fill="#FFFFFF" transform="translate(126.180199,1.5799996157511813372716254553580831068599489844395553141374)">
<circle cx="0" cy="0" r="0.02500" fill="#FFFFFF" stroke="#FFFFFF" />
</g>
<g stroke="#FFFFFF" fill="#FFFFFF" transform="translate(185.510199,4.2199996157511813372716254553580831068599489844395553141374)">
<circle cx="0" cy="0" r="0.02500" fill="#FFFFFF" stroke="#FFFFFF" />
</g>
<path d="M185.51016348,4.19499964 L185.51023452,4.24499959 L155.25001252,4.28799059 L155.24994148,4.23799064 Z" fill="#FFFFFF" stroke="#FFFFFF" />
<g stroke="#FFFFFF" fill="#FFFFFF" transform="translate(155.249977,4.2629906157511813372716254553580831068599489844395553141374)">
<circle cx="0" cy="0" r="0.02500" fill="#FFFFFF" stroke="#FFFFFF" />
</g>
<g stroke="#FFFFFF" fill="#FFFFFF" transform="translate(151.670421,77.9770086157511813372716254553580831068599489844395553141374)">
<circle cx="0" cy="0" r="0.05000" fill="#FFFFFF" stroke="#FFFFFF" />
</g>
<path d="M151.67040670,77.92700862 L151.67043530,78.02700861 L36.34999130,78.05999961 L36.34996270,77.95999962 Z" fill="#FFFFFF" stroke="#FFFFFF" />
<g stroke="#FFFFFF" fill="#FFFFFF" transform="translate(36.349977,78.0099996157511813372716254553580831068599489844395553141374)">
<circle cx="0" cy="0" r="0.05000" fill="#FFFFFF" stroke="#FFFFFF" />
</g>
<g stroke="#FFFFFF" fill="#FFFFFF" transform="translate(12.420199,56.9699996157511813372716254553580831068599489844395553141374)">
<circle cx="0" cy="0" r="0.02500" fill="#FFFFFF" stroke="#FFFFFF" />
</g>
<path d="M12.42019900,56.94499962 L12.42019900,56.99499962 L2.06019900,56.99499962 L2.06019900,56.94499962 Z" fill="#FFFFFF" stroke="#FFFFFF" />
<g stroke="#FFFFFF" fill="#FFFFFF" transform="translate(2.060199,56.9699996157511813372716254553580831068599489844395553141374)">
<circle cx="0" cy="0" r="0.02500" fill="#FFFFFF" stroke="#FFFFFF" />
</g>
<g stroke="#FFFFFF" fill="#FFFFFF" transform="translate(126.180199,1.5799996157511813372716254553580831068599489844395553141374)">
<circle cx="0" cy="0" r="0.02500" fill="#FFFFFF" stroke="#FFFFFF" />
</g>
<path d="M126.18019900,1.60499962 L126.18019900,1.55499962 L137.27019900,1.55499962 L137.27019900,1.60499962 Z" fill="#FFFFFF" stroke="#FFFFFF" />
<g stroke="#FFFFFF" fill="#FFFFFF" transform="translate(137.270199,1.5799996157511813372716254553580831068599489844395553141374)">
<circle cx="0" cy="0" r="0.02500" fill="#FFFFFF" stroke="#FFFFFF" />
</g>
<g stroke="#FFFFFF" fill="#FFFFFF" transform="translate(40.939002,4.2929906157511813372716254553580831068599489844395553141374)">
<circle cx="0" cy="0" r="0.02500" fill="#FFFFFF" stroke="#FFFFFF" />
</g>
<path d="M40.96400067,4.29324836 A4.19499962,4.19499962,0,0,1,32.57422400,4.24999962 L32.62422400,4.24999962 A4.14500000,4.14500000,0,0,0,40.91400333,4.29273288 Z" fill="#FFFFFF" stroke="#FFFFFF" />
<g stroke="#FFFFFF" fill="#FFFFFF" transform="translate(32.599224,4.2499996157511813372716254553580831068599489844395553141374)">
<circle cx="0" cy="0" r="0.02500" fill="#FFFFFF" stroke="#FFFFFF" />
</g>
<g stroke="#FFFFFF" fill="#FFFFFF" transform="translate(14.430199,75.9799996157511813372716254553580831068599489844395553141374)">
<circle cx="0" cy="0" r="0.02500" fill="#FFFFFF" stroke="#FFFFFF" />
</g>
<path d="M14.45519900,75.97999962 L14.40519900,75.97999962 L14.40519900,58.97999962 L14.45519900,58.97999962 Z" fill="#FFFFFF" stroke="#FFFFFF" />
<g stroke="#FFFFFF" fill="#FFFFFF" transform="translate(14.430199,58.9799996157511813372716254553580831068599489844395553141374)">
<circle cx="0" cy="0" r="0.02500" fill="#FFFFFF" stroke="#FFFFFF" />
</g>
<g stroke="#FFFFFF" fill="#FFFFFF" transform="translate(137.270199,1.5799996157511813372716254553580831068599489844395553141374)">
<circle cx="0" cy="0" r="0.02500" fill="#FFFFFF" stroke="#FFFFFF" />
</g>
<path d="M137.24519900,1.57999962 L137.29519900,1.57999962 L137.29519900,4.23999962 L137.24519900,4.23999962 Z" fill="#FFFFFF" stroke="#FFFFFF" />
<g stroke="#FFFFFF" fill="#FFFFFF" transform="translate(137.270199,4.2399996157511813372716254553580831068599489844395553141374)">
<circle cx="0" cy="0" r="0.02500" fill="#FFFFFF" stroke="#FFFFFF" />
</g>
<g stroke="#FFFFFF" fill="#FFFFFF" transform="translate(137.270199,4.2399996157511813372716254553580831068599489844395553141374)">
<circle cx="0" cy="0" r="0.02500" fill="#FFFFFF" stroke="#FFFFFF" />
</g>
<path d="M137.27025087,4.26499956 L137.27014713,4.21499967 L146.91014713,4.19499967 L146.91025087,4.24499956 Z" fill="#FFFFFF" stroke="#FFFFFF" />
<g stroke="#FFFFFF" fill="#FFFFFF" transform="translate(146.910199,4.2199996157511813372716254553580831068599489844395553141374)">
<circle cx="0" cy="0" r="0.02500" fill="#FFFFFF" stroke="#FFFFFF" />
</g>
<path d="M176.18519900,13.42374962 L176.18519900,13.93624962 A0.21875000,0.21875000,0,0,1,175.96644900,14.15499962 L175.52894900,14.15499962 A0.21875000,0.21875000,0,0,1,175.31019900,13.93624962 L175.31019900,13.42374962 A0.21875000,0.21875000,0,0,1,175.52894900,13.20499962 L175.96644900,13.20499962 A0.21875000,0.21875000,0,0,1,176.18519900,13.42374962 Z" fill="#FFFFFF" stroke="#FFFFFF" />
<path d="M174.61019900,13.42374962 L174.61019900,13.93624962 A0.21875000,0.21875000,0,0,1,174.39144900,14.15499962 L173.95394900,14.15499962 A0.21875000,0.21875000,0,0,1,173.73519900,13.93624962 L173.73519900,13.42374962 A0.21875000,0.21875000,0,0,1,173.95394900,13.20499962 L174.39144900,13.20499962 A0.21875000,0.21875000,0,0,1,174.61019900,13.42374962 Z" fill="#FFFFFF" stroke="#FFFFFF" />
<path d="M179.92269900,15.33624962 L179.92269900,14.82374962 A0.21875000,0.21875000,0,0,1,180.14144900,14.60499962 L180.57894900,14.60499962 A0.21875000,0.21875000,0,0,1,180.79769900,14.82374962 L180.79769900,15.33624962 A0.21875000,0.21875000,0,0,1,180.57894900,15.55499962 L180.14144900,15.55499962 A0.21875000,0.21875000,0,0,1,179.92269900,15.33624962 Z" fill="#FFFFFF" stroke="#FFFFFF" />
<path d="M181.49769900,15.33624962 L181.49769900,14.82374962 A0.21875000,0.21875000,0,0,1,181.71644900,14.60499962 L182.15394900,14.60499962 A0.21875000,0.21875000,0,0,1,182.37269900,14.82374962 L182.37269900,15.33624962 A0.21875000,0.21875000,0,0,1,182.15394900,15.55499962 L181.71644900,15.55499962 A0.21875000,0.21875000,0,0,1,181.49769900,15.33624962 Z" fill="#FFFFFF" stroke="#FFFFFF" />
<path d="M172.01644900,14.10499962 L171.50394900,14.10499962 A0.21875000,0.21875000,0,0,1,171.28519900,13.88624962 L171.28519900,13.44874962 A0.21875000,0.21875000,0,0,1,171.50394900,13.22999962 L172.01644900,13.22999962 A0.21875000,0.21875000,0,0,1,172.23519900,13.44874962 L172.23519900,13.88624962 A0.21875000,0.21875000,0,0,1,172.01644900,14.10499962 Z" fill="#FFFFFF" stroke="#FFFFFF" />
<path d="M172.01644900,12.52999962 L171.50394900,12.52999962 A0.21875000,0.21875000,0,0,1,171.28519900,12.31124962 L171.28519900,11.87374962 A0.21875000,0.21875000,0,0,1,171.50394900,11.65499962 L172.01644900,11.65499962 A0.21875000,0.21875000,0,0,1,172.23519900,11.87374962 L172.23519900,12.31124962 A0.21875000,0.21875000,0,0,1,172.01644900,12.52999962 Z" fill="#FFFFFF" stroke="#FFFFFF" />
<path d="M179.72269900,21.13624962 L179.72269900,20.62374962 A0.21875000,0.21875000,0,0,1,179.94144900,20.40499962 L180.37894900,20.40499962 A0.21875000,0.21875000,0,0,1,180.59769900,20.62374962 L180.59769900,21.13624962 A0.21875000,0.21875000,0,0,1,180.37894900,21.35499962 L179.94144900,21.35499962 A0.21875000,0.21875000,0,0,1,179.72269900,21.13624962 Z" fill="#FFFFFF" stroke="#FFFFFF" />
<path d="M181.29769900,21.13624962 L181.29769900,20.62374962 A0.21875000,0.21875000,0,0,1,181.51644900,20.40499962 L181.95394900,20.40499962 A0.21875000,0.21875000,0,0,1,182.17269900,20.62374962 L182.17269900,21.13624962 A0.21875000,0.21875000,0,0,1,181.95394900,21.35499962 L181.51644900,21.35499962 A0.21875000,0.21875000,0,0,1,181.29769900,21.13624962 Z" fill="#FFFFFF" stroke="#FFFFFF" />
<path d="M166.81644900,26.30499962 L166.30394900,26.30499962 A0.21875000,0.21875000,0,0,1,166.08519900,26.08624962 L166.08519900,25.64874962 A0.21875000,0.21875000,0,0,1,166.30394900,25.42999962 L166.81644900,25.42999962 A0.21875000,0.21875000,0,0,1,167.03519900,25.64874962 L167.03519900,26.08624962 A0.21875000,0.21875000,0,0,1,166.81644900,26.30499962 Z" fill="#FFFFFF" stroke="#FFFFFF" />
<path d="M166.81644900,24.72999962 L166.30394900,24.72999962 A0.21875000,0.21875000,0,0,1,166.08519900,24.51124962 L166.08519900,24.07374962 A0.21875000,0.21875000,0,0,1,166.30394900,23.85499962 L166.81644900,23.85499962 A0.21875000,0.21875000,0,0,1,167.03519900,24.07374962 L167.03519900,24.51124962 A0.21875000,0.21875000,0,0,1,166.81644900,24.72999962 Z" fill="#FFFFFF" stroke="#FFFFFF" />
<path d="M168.38519900,27.62374962 L168.38519900,28.13624962 A0.21875000,0.21875000,0,0,1,168.16644900,28.35499962 L167.72894900,28.35499962 A0.21875000,0.21875000,0,0,1,167.51019900,28.13624962 L167.51019900,27.62374962 A0.21875000,0.21875000,0,0,1,167.72894900,27.40499962 L168.16644900,27.40499962 A0.21875000,0.21875000,0,0,1,168.38519900,27.62374962 Z" fill="#FFFFFF" stroke="#FFFFFF" />
<path d="M166.81019900,27.62374962 L166.81019900,28.13624962 A0.21875000,0.21875000,0,0,1,166.59144900,28.35499962 L166.15394900,28.35499962 A0.21875000,0.21875000,0,0,1,165.93519900,28.13624962 L165.93519900,27.62374962 A0.21875000,0.21875000,0,0,1,166.15394900,27.40499962 L166.59144900,27.40499962 A0.21875000,0.21875000,0,0,1,166.81019900,27.62374962 Z" fill="#FFFFFF" stroke="#FFFFFF" />
<g stroke="#FFFFFF" fill="#FFFFFF" transform="translate(113.110199,34.3199996157511813372716254553580831068599489844395553141374)">
<rect x="-0.6000000" y="-0.4500000" width="1.2000000" height="0.9000000" fill="#FFFFFF" transform="rotate(-0.0)" stroke="#FFFFFF" />
</g>
<g stroke="#FFFFFF" fill="#FFFFFF" transform="translate(113.110199,37.6199996157511813372716254553580831068599489844395553141374)">
<rect x="-0.6000000" y="-0.4500000" width="1.2000000" height="0.9000000" fill="#FFFFFF" transform="rotate(-0.0)" stroke="#FFFFFF" />
</g>
<g stroke="#FFFFFF" fill="#FFFFFF" transform="translate(131.860199,53.2599996157511813372716254553580831068599489844395553141374)">
<rect x="-0.6000000" y="-0.4500000" width="1.2000000" height="0.9000000" fill="#FFFFFF" transform="rotate(-0.0)" stroke="#FFFFFF" />
</g>
<g stroke="#FFFFFF" fill="#FFFFFF" transform="translate(131.860199,56.5599996157511813372716254553580831068599489844395553141374)">
<rect x="-0.6000000" y="-0.4500000" width="1.2000000" height="0.9000000" fill="#FFFFFF" transform="rotate(-0.0)" stroke="#FFFFFF" />
</g>
<g stroke="#FFFFFF" fill="#FFFFFF" transform="translate(93.870199,34.3399996157511813372716254553580831068599489844395553141374)">
<rect x="-0.6000000" y="-0.4500000" width="1.2000000" height="0.9000000" fill="#FFFFFF" transform="rotate(-0.0)" stroke="#FFFFFF" />
</g>
<g stroke="#FFFFFF" fill="#FFFFFF" transform="translate(93.870199,37.6399996157511813372716254553580831068599489844395553141374)">
<rect x="-0.6000000" y="-0.4500000" width="1.2000000" height="0.9000000" fill="#FFFFFF" transform="rotate(-0.0)" stroke="#FFFFFF" />
</g>
<g stroke="#FFFFFF" fill="#FFFFFF" transform="translate(113.760199,12.9299996157511813372716254553580831068599489844395553141374)">
<rect x="-0.6000000" y="-0.4500000" width="1.2000000" height="0.9000000" fill="#FFFFFF" transform="rotate(-0.0)" stroke="#FFFFFF" />
</g>
<g stroke="#FFFFFF" fill="#FFFFFF" transform="translate(113.760199,16.2299996157511813372716254553580831068599489844395553141374)">
<rect x="-0.6000000" y="-0.4500000" width="1.2000000" height="0.9000000" fill="#FFFFFF" transform="rotate(-0.0)" stroke="#FFFFFF" />
</g>
<g stroke="#FFFFFF" fill="#FFFFFF" transform="translate(55.610199,53.4299996157511813372716254553580831068599489844395553141374)">
<rect x="-0.6000000" y="-0.4500000" width="1.2000000" height="0.9000000" fill="#FFFFFF" transform="rotate(-0.0)" stroke="#FFFFFF" />
</g>
<g stroke="#FFFFFF" fill="#FFFFFF" transform="translate(55.610199,56.7299996157511813372716254553580831068599489844395553141374)">
<rect x="-0.6000000" y="-0.4500000" width="1.2000000" height="0.9000000" fill="#FFFFFF" transform="rotate(-0.0)" stroke="#FFFFFF" />
</g>
<g stroke="#FFFFFF" fill="#FFFFFF" transform="translate(157.120199,67.3299996157511813372716254553580831068599489844395553141374)">
<rect x="-0.6000000" y="-0.4500000" width="1.2000000" height="0.9000000" fill="#FFFFFF" transform="rotate(-0.0)" stroke="#FFFFFF" />
</g>
<g stroke="#FFFFFF" fill="#FFFFFF" transform="translate(157.120199,70.6299996157511813372716254553580831068599489844395553141374)">
<rect x="-0.6000000" y="-0.4500000" width="1.2000000" height="0.9000000" fill="#FFFFFF" transform="rotate(-0.0)" stroke="#FFFFFF" />
</g>
<g stroke="#FFFFFF" fill="#FFFFFF" transform="translate(131.840199,34.2899996157511813372716254553580831068599489844395553141374)">
<rect x="-0.6000000" y="-0.4500000" width="1.2000000" height="0.9000000" fill="#FFFFFF" transform="rotate(-0.0)" stroke="#FFFFFF" />
</g>
<g stroke="#FFFFFF" fill="#FFFFFF" transform="translate(131.840199,37.5899996157511813372716254553580831068599489844395553141374)">
<rect x="-0.6000000" y="-0.4500000" width="1.2000000" height="0.9000000" fill="#FFFFFF" transform="rotate(-0.0)" stroke="#FFFFFF" />
</g>
<g stroke="#FFFFFF" fill="#FFFFFF" transform="translate(93.840199,12.9299996157511813372716254553580831068599489844395553141374)">
<rect x="-0.6000000" y="-0.4500000" width="1.2000000" height="0.9000000" fill="#FFFFFF" transform="rotate(-0.0)" stroke="#FFFFFF" />
</g>
<g stroke="#FFFFFF" fill="#FFFFFF" transform="translate(93.840199,16.2299996157511813372716254553580831068599489844395553141374)">
<rect x="-0.6000000" y="-0.4500000" width="1.2000000" height="0.9000000" fill="#FFFFFF" transform="rotate(-0.0)" stroke="#FFFFFF" />
</g>
<g stroke="#FFFFFF" fill="#FFFFFF" transform="translate(95.660199,53.2099996157511813372716254553580831068599489844395553141374)">
<rect x="-0.6000000" y="-0.4500000" width="1.2000000" height="0.9000000" fill="#FFFFFF" transform="rotate(-0.0)" stroke="#FFFFFF" />
</g>
<g stroke="#FFFFFF" fill="#FFFFFF" transform="translate(95.660199,56.5099996157511813372716254553580831068599489844395553141374)">
<rect x="-0.6000000" y="-0.4500000" width="1.2000000" height="0.9000000" fill="#FFFFFF" transform="rotate(-0.0)" stroke="#FFFFFF" />
</g>
<g stroke="#FFFFFF" fill="#FFFFFF" transform="translate(169.880199,34.2299996157511813372716254553580831068599489844395553141374)">
<rect x="-0.6000000" y="-0.4500000" width="1.2000000" height="0.9000000" fill="#FFFFFF" transform="rotate(-0.0)" stroke="#FFFFFF" />
</g>
<g stroke="#FFFFFF" fill="#FFFFFF" transform="translate(169.880199,37.5299996157511813372716254553580831068599489844395553141374)">
<rect x="-0.6000000" y="-0.4500000" width="1.2000000" height="0.9000000" fill="#FFFFFF" transform="rotate(-0.0)" stroke="#FFFFFF" />
</g>
<g stroke="#FFFFFF" fill="#FFFFFF" transform="translate(36.760199,12.9299996157511813372716254553580831068599489844395553141374)">
<rect x="-0.6000000" y="-0.4500000" width="1.2000000" height="0.9000000" fill="#FFFFFF" transform="rotate(-0.0)" stroke="#FFFFFF" />
</g>
<g stroke="#FFFFFF" fill="#FFFFFF" transform="translate(36.760199,16.2299996157511813372716254553580831068599489844395553141374)">
<rect x="-0.6000000" y="-0.4500000" width="1.2000000" height="0.9000000" fill="#FFFFFF" transform="rotate(-0.0)" stroke="#FFFFFF" />
</g>
<g stroke="#FFFFFF" fill="#FFFFFF" transform="translate(169.790199,53.3099996157511813372716254553580831068599489844395553141374)">
<rect x="-0.6000000" y="-0.4500000" width="1.2000000" height="0.9000000" fill="#FFFFFF" transform="rotate(-0.0)" stroke="#FFFFFF" />
</g>
<g stroke="#FFFFFF" fill="#FFFFFF" transform="translate(169.790199,56.6099996157511813372716254553580831068599489844395553141374)">
<rect x="-0.6000000" y="-0.4500000" width="1.2000000" height="0.9000000" fill="#FFFFFF" transform="rotate(-0.0)" stroke="#FFFFFF" />
</g>
<g stroke="#FFFFFF" fill="#FFFFFF" transform="translate(151.040199,34.2799996157511813372716254553580831068599489844395553141374)">
<rect x="-0.6000000" y="-0.4500000" width="1.2000000" height="0.9000000" fill="#FFFFFF" transform="rotate(-0.0)" stroke="#FFFFFF" />
</g>
<g stroke="#FFFFFF" fill="#FFFFFF" transform="translate(151.040199,37.5799996157511813372716254553580831068599489844395553141374)">
<rect x="-0.6000000" y="-0.4500000" width="1.2000000" height="0.9000000" fill="#FFFFFF" transform="rotate(-0.0)" stroke="#FFFFFF" />
</g>
<g stroke="#FFFFFF" fill="#FFFFFF" transform="translate(137.110199,16.5799996157511813372716254553580831068599489844395553141374)">
<rect x="-0.4500000" y="-0.6000000" width="0.9000000" height="1.2000000" fill="#FFFFFF" transform="rotate(-0.0)" stroke="#FFFFFF" />
</g>
<g stroke="#FFFFFF" fill="#FFFFFF" transform="translate(140.410199,16.5799996157511813372716254553580831068599489844395553141374)">
<rect x="-0.4500000" y="-0.6000000" width="0.9000000" height="1.2000000" fill="#FFFFFF" transform="rotate(-0.0)" stroke="#FFFFFF" />
</g>
<g stroke="#FFFFFF" fill="#FFFFFF" transform="translate(18.930199,53.4599996157511813372716254553580831068599489844395553141374)">
<rect x="-0.6000000" y="-0.4500000" width="1.2000000" height="0.9000000" fill="#FFFFFF" transform="rotate(-0.0)" stroke="#FFFFFF" />
</g>
<g stroke="#FFFFFF" fill="#FFFFFF" transform="translate(18.930199,56.7599996157511813372716254553580831068599489844395553141374)">
<rect x="-0.6000000" y="-0.4500000" width="1.2000000" height="0.9000000" fill="#FFFFFF" transform="rotate(-0.0)" stroke="#FFFFFF" />
</g>
<g stroke="#FFFFFF" fill="#FFFFFF" transform="translate(83.460199,67.3699996157511813372716254553580831068599489844395553141374)">
<rect x="-0.6000000" y="-0.4500000" width="1.2000000" height="0.9000000" fill="#FFFFFF" transform="rotate(-0.0)" stroke="#FFFFFF" />
</g>
<g stroke="#FFFFFF" fill="#FFFFFF" transform="translate(83.460199,70.6699996157511813372716254553580831068599489844395553141374)">
<rect x="-0.6000000" y="-0.4500000" width="1.2000000" height="0.9000000" fill="#FFFFFF" transform="rotate(-0.0)" stroke="#FFFFFF" />
</g>
<g stroke="#FFFFFF" fill="#FFFFFF" transform="translate(55.790199,34.2699996157511813372716254553580831068599489844395553141374)">
<rect x="-0.6000000" y="-0.4500000" width="1.2000000" height="0.9000000" fill="#FFFFFF" transform="rotate(-0.0)" stroke="#FFFFFF" />
</g>
<g stroke="#FFFFFF" fill="#FFFFFF" transform="translate(55.790199,37.5699996157511813372716254553580831068599489844395553141374)">
<rect x="-0.6000000" y="-0.4500000" width="1.2000000" height="0.9000000" fill="#FFFFFF" transform="rotate(-0.0)" stroke="#FFFFFF" />
</g>
<g stroke="#FFFFFF" fill="#FFFFFF" transform="translate(74.760199,12.9299996157511813372716254553580831068599489844395553141374)">
<rect x="-0.6000000" y="-0.4500000" width="1.2000000" height="0.9000000" fill="#FFFFFF" transform="rotate(-0.0)" stroke="#FFFFFF" />
</g>
<g stroke="#FFFFFF" fill="#FFFFFF" transform="translate(74.760199,16.2299996157511813372716254553580831068599489844395553141374)">
<rect x="-0.6000000" y="-0.4500000" width="1.2000000" height="0.9000000" fill="#FFFFFF" transform="rotate(-0.0)" stroke="#FFFFFF" />
</g>
<g stroke="#FFFFFF" fill="#FFFFFF" transform="translate(74.020199,53.2299996157511813372716254553580831068599489844395553141374)">
<rect x="-0.6000000" y="-0.4500000" width="1.2000000" height="0.9000000" fill="#FFFFFF" transform="rotate(-0.0)" stroke="#FFFFFF" />
</g>
<g stroke="#FFFFFF" fill="#FFFFFF" transform="translate(74.020199,56.5299996157511813372716254553580831068599489844395553141374)">
<rect x="-0.6000000" y="-0.4500000" width="1.2000000" height="0.9000000" fill="#FFFFFF" transform="rotate(-0.0)" stroke="#FFFFFF" />
</g>
<g stroke="#FFFFFF" fill="#FFFFFF" transform="translate(74.920199,34.3099996157511813372716254553580831068599489844395553141374)">
<rect x="-0.6000000" y="-0.4500000" width="1.2000000" height="0.9000000" fill="#FFFFFF" transform="rotate(-0.0)" stroke="#FFFFFF" />
</g>
<g stroke="#FFFFFF" fill="#FFFFFF" transform="translate(74.920199,37.6099996157511813372716254553580831068599489844395553141374)">
<rect x="-0.6000000" y="-0.4500000" width="1.2000000" height="0.9000000" fill="#FFFFFF" transform="rotate(-0.0)" stroke="#FFFFFF" />
</g>
<g stroke="#FFFFFF" fill="#FFFFFF" transform="translate(162.580199,17.5799996157511813372716254553580831068599489844395553141374)">
<rect x="-0.4500000" y="-0.6000000" width="0.9000000" height="1.2000000" fill="#FFFFFF" transform="rotate(-0.0)" stroke="#FFFFFF" />
</g>
<g stroke="#FFFFFF" fill="#FFFFFF" transform="translate(159.280199,17.5799996157511813372716254553580831068599489844395553141374)">
<rect x="-0.4500000" y="-0.6000000" width="0.9000000" height="1.2000000" fill="#FFFFFF" transform="rotate(-0.0)" stroke="#FFFFFF" />
</g>
<g stroke="#FFFFFF" fill="#FFFFFF" transform="translate(36.850199,53.4299996157511813372716254553580831068599489844395553141374)">
<rect x="-0.6000000" y="-0.4500000" width="1.2000000" height="0.9000000" fill="#FFFFFF" transform="rotate(-0.0)" stroke="#FFFFFF" />
</g>
<g stroke="#FFFFFF" fill="#FFFFFF" transform="translate(36.850199,56.7299996157511813372716254553580831068599489844395553141374)">
<rect x="-0.6000000" y="-0.4500000" width="1.2000000" height="0.9000000" fill="#FFFFFF" transform="rotate(-0.0)" stroke="#FFFFFF" />
</g>
<g stroke="#FFFFFF" fill="#FFFFFF" transform="translate(16.400199,34.3599996157511813372716254553580831068599489844395553141374)">
<rect x="-0.6000000" y="-0.4500000" width="1.2000000" height="0.9000000" fill="#FFFFFF" transform="rotate(-0.0)" stroke="#FFFFFF" />
</g>
<g stroke="#FFFFFF" fill="#FFFFFF" transform="translate(16.400199,37.6599996157511813372716254553580831068599489844395553141374)">
<rect x="-0.6000000" y="-0.4500000" width="1.2000000" height="0.9000000" fill="#FFFFFF" transform="rotate(-0.0)" stroke="#FFFFFF" />
</g>
<g stroke="#FFFFFF" fill="#FFFFFF" transform="translate(56.140199,12.9299996157511813372716254553580831068599489844395553141374)">
<rect x="-0.6000000" y="-0.4500000" width="1.2000000" height="0.9000000" fill="#FFFFFF" transform="rotate(-0.0)" stroke="#FFFFFF" />
</g>
<g stroke="#FFFFFF" fill="#FFFFFF" transform="translate(56.140199,16.2299996157511813372716254553580831068599489844395553141374)">
<rect x="-0.6000000" y="-0.4500000" width="1.2000000" height="0.9000000" fill="#FFFFFF" transform="rotate(-0.0)" stroke="#FFFFFF" />
</g>
<g stroke="#FFFFFF" fill="#FFFFFF" transform="translate(151.000199,53.2599996157511813372716254553580831068599489844395553141374)">
<rect x="-0.6000000" y="-0.4500000" width="1.2000000" height="0.9000000" fill="#FFFFFF" transform="rotate(-0.0)" stroke="#FFFFFF" />
</g>
<g stroke="#FFFFFF" fill="#FFFFFF" transform="translate(151.000199,56.5599996157511813372716254553580831068599489844395553141374)">
<rect x="-0.6000000" y="-0.4500000" width="1.2000000" height="0.9000000" fill="#FFFFFF" transform="rotate(-0.0)" stroke="#FFFFFF" />
</g>
<g stroke="#FFFFFF" fill="#FFFFFF" transform="translate(36.590199,34.2699996157511813372716254553580831068599489844395553141374)">
<rect x="-0.6000000" y="-0.4500000" width="1.2000000" height="0.9000000" fill="#FFFFFF" transform="rotate(-0.0)" stroke="#FFFFFF" />
</g>
<g stroke="#FFFFFF" fill="#FFFFFF" transform="translate(36.590199,37.5699996157511813372716254553580831068599489844395553141374)">
<rect x="-0.6000000" y="-0.4500000" width="1.2000000" height="0.9000000" fill="#FFFFFF" transform="rotate(-0.0)" stroke="#FFFFFF" />
</g>
<g stroke="#FFFFFF" fill="#FFFFFF" transform="translate(16.510199,12.9299996157511813372716254553580831068599489844395553141374)">
<rect x="-0.6000000" y="-0.4500000" width="1.2000000" height="0.9000000" fill="#FFFFFF" transform="rotate(-0.0)" stroke="#FFFFFF" />
</g>
<g stroke="#FFFFFF" fill="#FFFFFF" transform="translate(16.510199,16.2299996157511813372716254553580831068599489844395553141374)">
<rect x="-0.6000000" y="-0.4500000" width="1.2000000" height="0.9000000" fill="#FFFFFF" transform="rotate(-0.0)" stroke="#FFFFFF" />
</g>
<g stroke="#FFFFFF" fill="#FFFFFF" transform="translate(16.450199,53.4599996157511813372716254553580831068599489844395553141374)">
<rect x="-0.6000000" y="-0.4500000" width="1.2000000" height="0.9000000" fill="#FFFFFF" transform="rotate(-0.0)" stroke="#FFFFFF" />
</g>
<g stroke="#FFFFFF" fill="#FFFFFF" transform="translate(16.450199,56.7599996157511813372716254553580831068599489844395553141374)">
<rect x="-0.6000000" y="-0.4500000" width="1.2000000" height="0.9000000" fill="#FFFFFF" transform="rotate(-0.0)" stroke="#FFFFFF" />
</g>
<g stroke="#FFFFFF" fill="#FFFFFF" transform="translate(31.390199,67.1799996157511813372716254553580831068599489844395553141374)">
<rect x="-0.6000000" y="-0.4500000" width="1.2000000" height="0.9000000" fill="#FFFFFF" transform="rotate(-0.0)" stroke="#FFFFFF" />
</g>
<g stroke="#FFFFFF" fill="#FFFFFF" transform="translate(31.390199,70.4799996157511813372716254553580831068599489844395553141374)">
<rect x="-0.6000000" y="-0.4500000" width="1.2000000" height="0.9000000" fill="#FFFFFF" transform="rotate(-0.0)" stroke="#FFFFFF" />
</g>
<g stroke="#FFFFFF" fill="#FFFFFF" transform="translate(18.780199,34.3599996157511813372716254553580831068599489844395553141374)">
<rect x="-0.6000000" y="-0.4500000" width="1.2000000" height="0.9000000" fill="#FFFFFF" transform="rotate(-0.0)" stroke="#FFFFFF" />
</g>
<g stroke="#FFFFFF" fill="#FFFFFF" transform="translate(18.780199,37.6599996157511813372716254553580831068599489844395553141374)">
<rect x="-0.6000000" y="-0.4500000" width="1.2000000" height="0.9000000" fill="#FFFFFF" transform="rotate(-0.0)" stroke="#FFFFFF" />
</g>
<g stroke="#FFFFFF" fill="#FFFFFF" transform="translate(19.140199,12.9299996157511813372716254553580831068599489844395553141374)">
<rect x="-0.6000000" y="-0.4500000" width="1.2000000" height="0.9000000" fill="#FFFFFF" transform="rotate(-0.0)" stroke="#FFFFFF" />
</g>
<g stroke="#FFFFFF" fill="#FFFFFF" transform="translate(19.140199,16.2299996157511813372716254553580831068599489844395553141374)">
<rect x="-0.6000000" y="-0.4500000" width="1.2000000" height="0.9000000" fill="#FFFFFF" transform="rotate(-0.0)" stroke="#FFFFFF" />
</g>
<g stroke="#FFFFFF" fill="#FFFFFF" transform="translate(112.990199,53.3399996157511813372716254553580831068599489844395553141374)">
<rect x="-0.6000000" y="-0.4500000" width="1.2000000" height="0.9000000" fill="#FFFFFF" transform="rotate(-0.0)" stroke="#FFFFFF" />
</g>
<g stroke="#FFFFFF" fill="#FFFFFF" transform="translate(112.990199,56.6399996157511813372716254553580831068599489844395553141374)">
<rect x="-0.6000000" y="-0.4500000" width="1.2000000" height="0.9000000" fill="#FFFFFF" transform="rotate(-0.0)" stroke="#FFFFFF" />
</g>
<path d="M128.49394900,14.21499962 L129.00644900,14.21499962 A0.21875000,0.21875000,0,0,1,129.22519900,14.43374962 L129.22519900,14.87124962 A0.21875000,0.21875000,0,0,1,129.00644900,15.08999962 L128.49394900,15.08999962 A0.21875000,0.21875000,0,0,1,128.27519900,14.87124962 L128.27519900,14.43374962 A0.21875000,0.21875000,0,0,1,128.49394900,14.21499962 Z" fill="#FFFFFF" stroke="#FFFFFF" />
<path d="M128.49394900,15.78999962 L129.00644900,15.78999962 A0.21875000,0.21875000,0,0,1,129.22519900,16.00874962 L129.22519900,16.44624962 A0.21875000,0.21875000,0,0,1,129.00644900,16.66499962 L128.49394900,16.66499962 A0.21875000,0.21875000,0,0,1,128.27519900,16.44624962 L128.27519900,16.00874962 A0.21875000,0.21875000,0,0,1,128.49394900,15.78999962 Z" fill="#FFFFFF" stroke="#FFFFFF" />
<path d="M130.84644900,16.62499962 L130.33394900,16.62499962 A0.21875000,0.21875000,0,0,1,130.11519900,16.40624962 L130.11519900,15.96874962 A0.21875000,0.21875000,0,0,1,130.33394900,15.74999962 L130.84644900,15.74999962 A0.21875000,0.21875000,0,0,1,131.06519900,15.96874962 L131.06519900,16.40624962 A0.21875000,0.21875000,0,0,1,130.84644900,16.62499962 Z" fill="#FFFFFF" stroke="#FFFFFF" />
<path d="M130.84644900,15.04999962 L130.33394900,15.04999962 A0.21875000,0.21875000,0,0,1,130.11519900,14.83124962 L130.11519900,14.39374962 A0.21875000,0.21875000,0,0,1,130.33394900,14.17499962 L130.84644900,14.17499962 A0.21875000,0.21875000,0,0,1,131.06519900,14.39374962 L131.06519900,14.83124962 A0.21875000,0.21875000,0,0,1,130.84644900,15.04999962 Z" fill="#FFFFFF" stroke="#FFFFFF" />
<path d="M176.11644900,40.40499962 L175.60394900,40.40499962 A0.21875000,0.21875000,0,0,1,175.38519900,40.18624962 L175.38519900,39.74874962 A0.21875000,0.21875000,0,0,1,175.60394900,39.52999962 L176.11644900,39.52999962 A0.21875000,0.21875000,0,0,1,176.33519900,39.74874962 L176.33519900,40.18624962 A0.21875000,0.21875000,0,0,1,176.11644900,40.40499962 Z" fill="#FFFFFF" stroke="#FFFFFF" />
<path d="M176.11644900,38.82999962 L175.60394900,38.82999962 A0.21875000,0.21875000,0,0,1,175.38519900,38.61124962 L175.38519900,38.17374962 A0.21875000,0.21875000,0,0,1,175.60394900,37.95499962 L176.11644900,37.95499962 A0.21875000,0.21875000,0,0,1,176.33519900,38.17374962 L176.33519900,38.61124962 A0.21875000,0.21875000,0,0,1,176.11644900,38.82999962 Z" fill="#FFFFFF" stroke="#FFFFFF" />
<path d="M141.88769900,7.19374962 L141.88769900,7.70624962 A0.21875000,0.21875000,0,0,1,141.66894900,7.92499962 L141.23144900,7.92499962 A0.21875000,0.21875000,0,0,1,141.01269900,7.70624962 L141.01269900,7.19374962 A0.21875000,0.21875000,0,0,1,141.23144900,6.97499962 L141.66894900,6.97499962 A0.21875000,0.21875000,0,0,1,141.88769900,7.19374962 Z" fill="#FFFFFF" stroke="#FFFFFF" />
<path d="M140.31269900,7.19374962 L140.31269900,7.70624962 A0.21875000,0.21875000,0,0,1,140.09394900,7.92499962 L139.65644900,7.92499962 A0.21875000,0.21875000,0,0,1,139.43769900,7.70624962 L139.43769900,7.19374962 A0.21875000,0.21875000,0,0,1,139.65644900,6.97499962 L140.09394900,6.97499962 A0.21875000,0.21875000,0,0,1,140.31269900,7.19374962 Z" fill="#FFFFFF" stroke="#FFFFFF" />
<path d="M141.84769900,5.43374962 L141.84769900,5.94624962 A0.21875000,0.21875000,0,0,1,141.62894900,6.16499962 L141.19144900,6.16499962 A0.21875000,0.21875000,0,0,1,140.97269900,5.94624962 L140.97269900,5.43374962 A0.21875000,0.21875000,0,0,1,141.19144900,5.21499962 L141.62894900,5.21499962 A0.21875000,0.21875000,0,0,1,141.84769900,5.43374962 Z" fill="#FFFFFF" stroke="#FFFFFF" />
<path d="M140.27269900,5.43374962 L140.27269900,5.94624962 A0.21875000,0.21875000,0,0,1,140.05394900,6.16499962 L139.61644900,6.16499962 A0.21875000,0.21875000,0,0,1,139.39769900,5.94624962 L139.39769900,5.43374962 A0.21875000,0.21875000,0,0,1,139.61644900,5.21499962 L140.05394900,5.21499962 A0.21875000,0.21875000,0,0,1,140.27269900,5.43374962 Z" fill="#FFFFFF" stroke="#FFFFFF" />
<path d="M174.57269900,26.22374962 L174.57269900,26.73624962 A0.21875000,0.21875000,0,0,1,174.35394900,26.95499962 L173.91644900,26.95499962 A0.21875000,0.21875000,0,0,1,173.69769900,26.73624962 L173.69769900,26.22374962 A0.21875000,0.21875000,0,0,1,173.91644900,26.00499962 L174.35394900,26.00499962 A0.21875000,0.21875000,0,0,1,174.57269900,26.22374962 Z" fill="#FFFFFF" stroke="#FFFFFF" />
<path d="M172.99769900,26.22374962 L172.99769900,26.73624962 A0.21875000,0.21875000,0,0,1,172.77894900,26.95499962 L172.34144900,26.95499962 A0.21875000,0.21875000,0,0,1,172.12269900,26.73624962 L172.12269900,26.22374962 A0.21875000,0.21875000,0,0,1,172.34144900,26.00499962 L172.77894900,26.00499962 A0.21875000,0.21875000,0,0,1,172.99769900,26.22374962 Z" fill="#FFFFFF" stroke="#FFFFFF" />
<g stroke="#FFFFFF" fill="#FFFFFF" transform="translate(183.760199,35.0299996157511813372716254553580831068599489844395553141374)">
<rect x="-0.5000000" y="-0.8500000" width="1.0000000" height="1.7000000" fill="#FFFFFF" transform="rotate(-0.0)" stroke="#FFFFFF" />
</g>
<g stroke="#FFFFFF" fill="#FFFFFF" transform="translate(183.760199,41.3299996157511813372716254553580831068599489844395553141374)">
<rect x="-0.5000000" y="-0.8500000" width="1.0000000" height="1.7000000" fill="#FFFFFF" transform="rotate(-0.0)" stroke="#FFFFFF" />
</g>
<g stroke="#FFFFFF" fill="#FFFFFF" transform="translate(179.960199,35.0299996157511813372716254553580831068599489844395553141374)">
<rect x="-0.5000000" y="-0.8500000" width="1.0000000" height="1.7000000" fill="#FFFFFF" transform="rotate(-0.0)" stroke="#FFFFFF" />
</g>
<g stroke="#FFFFFF" fill="#FFFFFF" transform="translate(179.960199,41.3299996157511813372716254553580831068599489844395553141374)">
<rect x="-0.5000000" y="-0.8500000" width="1.0000000" height="1.7000000" fill="#FFFFFF" transform="rotate(-0.0)" stroke="#FFFFFF" />
</g>
<g stroke="#FFFFFF" fill="#FFFFFF" transform="translate(151.060199,13.2299996157511813372716254553580831068599489844395553141374)">
<rect x="-0.6000000" y="-0.4500000" width="1.2000000" height="0.9000000" fill="#FFFFFF" transform="rotate(-0.0)" stroke="#FFFFFF" />
</g>
<g stroke="#FFFFFF" fill="#FFFFFF" transform="translate(151.060199,16.5299996157511813372716254553580831068599489844395553141374)">
<rect x="-0.6000000" y="-0.4500000" width="1.2000000" height="0.9000000" fill="#FFFFFF" transform="rotate(-0.0)" stroke="#FFFFFF" />
</g>
<g stroke="#FFFFFF" fill="#FFFFFF" transform="translate(180.960199,16.6799996157511813372716254553580831068599489844395553141374)">
<rect x="-1.6000000" y="-0.2000000" width="3.2000000" height="0.4000000" fill="#FFFFFF" transform="rotate(-0.0)" stroke="#FFFFFF" />
</g>
<g stroke="#FFFFFF" fill="#FFFFFF" transform="translate(180.960199,17.8799996157511813372716254553580831068599489844395553141374)">
<rect x="-1.6000000" y="-0.2000000" width="3.2000000" height="0.4000000" fill="#FFFFFF" transform="rotate(-0.0)" stroke="#FFFFFF" />
</g>
<g stroke="#FFFFFF" fill="#FFFFFF" transform="translate(180.960199,19.0799996157511813372716254553580831068599489844395553141374)">
<rect x="-1.6000000" y="-0.2000000" width="3.2000000" height="0.4000000" fill="#FFFFFF" transform="rotate(-0.0)" stroke="#FFFFFF" />
</g>
<path d="M133.29769900,14.47999962 L132.82269900,14.47999962 A0.23750000,0.23750000,0,0,1,132.58519900,14.24249962 L132.58519900,13.66749962 A0.23750000,0.23750000,0,0,1,132.82269900,13.42999962 L133.29769900,13.42999962 A0.23750000,0.23750000,0,0,1,133.53519900,13.66749962 L133.53519900,14.24249962 A0.23750000,0.23750000,0,0,1,133.29769900,14.47999962 Z" fill="#FFFFFF" stroke="#FFFFFF" />
<path d="M133.29769900,12.72999962 L132.82269900,12.72999962 A0.23750000,0.23750000,0,0,1,132.58519900,12.49249962 L132.58519900,11.91749962 A0.23750000,0.23750000,0,0,1,132.82269900,11.67999962 L133.29769900,11.67999962 A0.23750000,0.23750000,0,0,1,133.53519900,11.91749962 L133.53519900,12.49249962 A0.23750000,0.23750000,0,0,1,133.29769900,12.72999962 Z" fill="#FFFFFF" stroke="#FFFFFF" />
<g stroke="#FFFFFF" fill="#FFFFFF" transform="translate(66.950199,67.3299996157511813372716254553580831068599489844395553141374)">
<rect x="-0.6000000" y="-0.4500000" width="1.2000000" height="0.9000000" fill="#FFFFFF" transform="rotate(-0.0)" stroke="#FFFFFF" />
</g>
<g stroke="#FFFFFF" fill="#FFFFFF" transform="translate(66.950199,70.6299996157511813372716254553580831068599489844395553141374)">
<rect x="-0.6000000" y="-0.4500000" width="1.2000000" height="0.9000000" fill="#FFFFFF" transform="rotate(-0.0)" stroke="#FFFFFF" />
</g>
<g stroke="#FFFFFF" fill="#FFFFFF" transform="translate(154.580199,67.3299996157511813372716254553580831068599489844395553141374)">
<rect x="-0.6000000" y="-0.4500000" width="1.2000000" height="0.9000000" fill="#FFFFFF" transform="rotate(-0.0)" stroke="#FFFFFF" />
</g>
<g stroke="#FFFFFF" fill="#FFFFFF" transform="translate(154.580199,70.6299996157511813372716254553580831068599489844395553141374)">
<rect x="-0.6000000" y="-0.4500000" width="1.2000000" height="0.9000000" fill="#FFFFFF" transform="rotate(-0.0)" stroke="#FFFFFF" />
</g>
<g stroke="#FFFFFF" fill="#FFFFFF" transform="translate(128.545199,8.3449996157511813372716254553580831068599489844395553141374)">
<rect x="-0.3000000" y="-1.2250000" width="0.6000000" height="2.4500000" fill="#FFFFFF" transform="rotate(-0.0)" stroke="#FFFFFF" />
</g>
<g stroke="#FFFFFF" fill="#FFFFFF" transform="translate(129.320199,8.3449996157511813372716254553580831068599489844395553141374)">
<rect x="-0.3000000" y="-1.2250000" width="0.6000000" height="2.4500000" fill="#FFFFFF" transform="rotate(-0.0)" stroke="#FFFFFF" />
</g>
<g stroke="#FFFFFF" fill="#FFFFFF" transform="translate(130.020199,8.3449996157511813372716254553580831068599489844395553141374)">
<rect x="-0.1500000" y="-1.2250000" width="0.3000000" height="2.4500000" fill="#FFFFFF" transform="rotate(-0.0)" stroke="#FFFFFF" />
</g>
<g stroke="#FFFFFF" fill="#FFFFFF" transform="translate(130.520199,8.3449996157511813372716254553580831068599489844395553141374)">
<rect x="-0.1500000" y="-1.2250000" width="0.3000000" height="2.4500000" fill="#FFFFFF" transform="rotate(-0.0)" stroke="#FFFFFF" />
</g>
<g stroke="#FFFFFF" fill="#FFFFFF" transform="translate(131.020199,8.3449996157511813372716254553580831068599489844395553141374)">
<rect x="-0.1500000" y="-1.2250000" width="0.3000000" height="2.4500000" fill="#FFFFFF" transform="rotate(-0.0)" stroke="#FFFFFF" />
</g>
<g stroke="#FFFFFF" fill="#FFFFFF" transform="translate(131.520199,8.3449996157511813372716254553580831068599489844395553141374)">
<rect x="-0.1500000" y="-1.2250000" width="0.3000000" height="2.4500000" fill="#FFFFFF" transform="rotate(-0.0)" stroke="#FFFFFF" />
</g>
<g stroke="#FFFFFF" fill="#FFFFFF" transform="translate(132.020199,8.3449996157511813372716254553580831068599489844395553141374)">
<rect x="-0.1500000" y="-1.2250000" width="0.3000000" height="2.4500000" fill="#FFFFFF" transform="rotate(-0.0)" stroke="#FFFFFF" />
</g>
<g stroke="#FFFFFF" fill="#FFFFFF" transform="translate(132.520199,8.3449996157511813372716254553580831068599489844395553141374)">
<rect x="-0.1500000" y="-1.2250000" width="0.3000000" height="2.4500000" fill="#FFFFFF" transform="rotate(-0.0)" stroke="#FFFFFF" />
</g>
<g stroke="#FFFFFF" fill="#FFFFFF" transform="translate(133.020199,8.3449996157511813372716254553580831068599489844395553141374)">
<rect x="-0.1500000" y="-1.2250000" width="0.3000000" height="2.4500000" fill="#FFFFFF" transform="rotate(-0.0)" stroke="#FFFFFF" />
</g>
<g stroke="#FFFFFF" fill="#FFFFFF" transform="translate(133.520199,8.3449996157511813372716254553580831068599489844395553141374)">
<rect x="-0.1500000" y="-1.2250000" width="0.3000000" height="2.4500000" fill="#FFFFFF" transform="rotate(-0.0)" stroke="#FFFFFF" />
</g>
<g stroke="#FFFFFF" fill="#FFFFFF" transform="translate(134.220199,8.3449996157511813372716254553580831068599489844395553141374)">
<rect x="-0.3000000" y="-1.2250000" width="0.6000000" height="2.4500000" fill="#FFFFFF" transform="rotate(-0.0)" stroke="#FFFFFF" />
</g>
<g stroke="#FFFFFF" fill="#FFFFFF" transform="translate(134.995199,8.3449996157511813372716254553580831068599489844395553141374)">
<rect x="-0.3000000" y="-1.2250000" width="0.6000000" height="2.4500000" fill="#FFFFFF" transform="rotate(-0.0)" stroke="#FFFFFF" />
</g>
<g stroke="#FFFFFF" fill="#FFFFFF" transform="translate(51.710199,67.4599996157511813372716254553580831068599489844395553141374)">
<rect x="-0.6000000" y="-0.4500000" width="1.2000000" height="0.9000000" fill="#FFFFFF" transform="rotate(-0.0)" stroke="#FFFFFF" />
</g>
<g stroke="#FFFFFF" fill="#FFFFFF" transform="translate(51.710199,70.7599996157511813372716254553580831068599489844395553141374)">
<rect x="-0.6000000" y="-0.4500000" width="1.2000000" height="0.9000000" fill="#FFFFFF" transform="rotate(-0.0)" stroke="#FFFFFF" />
</g>
<g stroke="#FFFFFF" fill="#FFFFFF" transform="translate(177.210199,17.2799996157511813372716254553580831068599489844395553141374)">
<rect x="-0.8000000" y="-0.2750000" width="1.6000000" height="0.5500000" fill="#FFFFFF" transform="rotate(-0.0)" stroke="#FFFFFF" />
</g>
<g stroke="#FFFFFF" fill="#FFFFFF" transform="translate(177.210199,18.0799996157511813372716254553580831068599489844395553141374)">
<rect x="-0.8000000" y="-0.2750000" width="1.6000000" height="0.5500000" fill="#FFFFFF" transform="rotate(-0.0)" stroke="#FFFFFF" />
</g>
<g stroke="#FFFFFF" fill="#FFFFFF" transform="translate(177.210199,18.8799996157511813372716254553580831068599489844395553141374)">
<rect x="-0.8000000" y="-0.2750000" width="1.6000000" height="0.5500000" fill="#FFFFFF" transform="rotate(-0.0)" stroke="#FFFFFF" />
</g>
<g stroke="#FFFFFF" fill="#FFFFFF" transform="translate(177.210199,19.6799996157511813372716254553580831068599489844395553141374)">
<rect x="-0.8000000" y="-0.2750000" width="1.6000000" height="0.5500000" fill="#FFFFFF" transform="rotate(-0.0)" stroke="#FFFFFF" />
</g>
<g stroke="#FFFFFF" fill="#FFFFFF" transform="translate(177.210199,20.4799996157511813372716254553580831068599489844395553141374)">
<rect x="-0.8000000" y="-0.2750000" width="1.6000000" height="0.5500000" fill="#FFFFFF" transform="rotate(-0.0)" stroke="#FFFFFF" />
</g>
<g stroke="#FFFFFF" fill="#FFFFFF" transform="translate(177.210199,21.2799996157511813372716254553580831068599489844395553141374)">
<rect x="-0.8000000" y="-0.2750000" width="1.6000000" height="0.5500000" fill="#FFFFFF" transform="rotate(-0.0)" stroke="#FFFFFF" />
</g>
<g stroke="#FFFFFF" fill="#FFFFFF" transform="translate(177.210199,22.0799996157511813372716254553580831068599489844395553141374)">
<rect x="-0.8000000" y="-0.2750000" width="1.6000000" height="0.5500000" fill="#FFFFFF" transform="rotate(-0.0)" stroke="#FFFFFF" />
</g>
<g stroke="#FFFFFF" fill="#FFFFFF" transform="translate(177.210199,22.8799996157511813372716254553580831068599489844395553141374)">
<rect x="-0.8000000" y="-0.2750000" width="1.6000000" height="0.5500000" fill="#FFFFFF" transform="rotate(-0.0)" stroke="#FFFFFF" />
</g>
<g stroke="#FFFFFF" fill="#FFFFFF" transform="translate(175.760199,24.3299996157511813372716254553580831068599489844395553141374)">
<rect x="-0.2750000" y="-0.8000000" width="0.5500000" height="1.6000000" fill="#FFFFFF" transform="rotate(-0.0)" stroke="#FFFFFF" />
</g>
<g stroke="#FFFFFF" fill="#FFFFFF" transform="translate(174.960199,24.3299996157511813372716254553580831068599489844395553141374)">
<rect x="-0.2750000" y="-0.8000000" width="0.5500000" height="1.6000000" fill="#FFFFFF" transform="rotate(-0.0)" stroke="#FFFFFF" />
</g>
<g stroke="#FFFFFF" fill="#FFFFFF" transform="translate(174.160199,24.3299996157511813372716254553580831068599489844395553141374)">
<rect x="-0.2750000" y="-0.8000000" width="0.5500000" height="1.6000000" fill="#FFFFFF" transform="rotate(-0.0)" stroke="#FFFFFF" />
</g>
<g stroke="#FFFFFF" fill="#FFFFFF" transform="translate(173.360199,24.3299996157511813372716254553580831068599489844395553141374)">
<rect x="-0.2750000" y="-0.8000000" width="0.5500000" height="1.6000000" fill="#FFFFFF" transform="rotate(-0.0)" stroke="#FFFFFF" />
</g>
<g stroke="#FFFFFF" fill="#FFFFFF" transform="translate(172.560199,24.3299996157511813372716254553580831068599489844395553141374)">
<rect x="-0.2750000" y="-0.8000000" width="0.5500000" height="1.6000000" fill="#FFFFFF" transform="rotate(-0.0)" stroke="#FFFFFF" />
</g>
<g stroke="#FFFFFF" fill="#FFFFFF" transform="translate(171.760199,24.3299996157511813372716254553580831068599489844395553141374)">
<rect x="-0.2750000" y="-0.8000000" width="0.5500000" height="1.6000000" fill="#FFFFFF" transform="rotate(-0.0)" stroke="#FFFFFF" />
</g>
<g stroke="#FFFFFF" fill="#FFFFFF" transform="translate(170.960199,24.3299996157511813372716254553580831068599489844395553141374)">
<rect x="-0.2750000" y="-0.8000000" width="0.5500000" height="1.6000000" fill="#FFFFFF" transform="rotate(-0.0)" stroke="#FFFFFF" />
</g>
<g stroke="#FFFFFF" fill="#FFFFFF" transform="translate(170.160199,24.3299996157511813372716254553580831068599489844395553141374)">
<rect x="-0.2750000" y="-0.8000000" width="0.5500000" height="1.6000000" fill="#FFFFFF" transform="rotate(-0.0)" stroke="#FFFFFF" />
</g>
<g stroke="#FFFFFF" fill="#FFFFFF" transform="translate(168.710199,22.8799996157511813372716254553580831068599489844395553141374)">
<rect x="-0.8000000" y="-0.2750000" width="1.6000000" height="0.5500000" fill="#FFFFFF" transform="rotate(-0.0)" stroke="#FFFFFF" />
</g>
<g stroke="#FFFFFF" fill="#FFFFFF" transform="translate(168.710199,22.0799996157511813372716254553580831068599489844395553141374)">
<rect x="-0.8000000" y="-0.2750000" width="1.6000000" height="0.5500000" fill="#FFFFFF" transform="rotate(-0.0)" stroke="#FFFFFF" />
</g>
<g stroke="#FFFFFF" fill="#FFFFFF" transform="translate(168.710199,21.2799996157511813372716254553580831068599489844395553141374)">
<rect x="-0.8000000" y="-0.2750000" width="1.6000000" height="0.5500000" fill="#FFFFFF" transform="rotate(-0.0)" stroke="#FFFFFF" />
</g>
<g stroke="#FFFFFF" fill="#FFFFFF" transform="translate(168.710199,20.4799996157511813372716254553580831068599489844395553141374)">
<rect x="-0.8000000" y="-0.2750000" width="1.6000000" height="0.5500000" fill="#FFFFFF" transform="rotate(-0.0)" stroke="#FFFFFF" />
</g>
<g stroke="#FFFFFF" fill="#FFFFFF" transform="translate(168.710199,19.6799996157511813372716254553580831068599489844395553141374)">
<rect x="-0.8000000" y="-0.2750000" width="1.6000000" height="0.5500000" fill="#FFFFFF" transform="rotate(-0.0)" stroke="#FFFFFF" />
</g>
<g stroke="#FFFFFF" fill="#FFFFFF" transform="translate(168.710199,18.8799996157511813372716254553580831068599489844395553141374)">
<rect x="-0.8000000" y="-0.2750000" width="1.6000000" height="0.5500000" fill="#FFFFFF" transform="rotate(-0.0)" stroke="#FFFFFF" />
</g>
<g stroke="#FFFFFF" fill="#FFFFFF" transform="translate(168.710199,18.0799996157511813372716254553580831068599489844395553141374)">
<rect x="-0.8000000" y="-0.2750000" width="1.6000000" height="0.5500000" fill="#FFFFFF" transform="rotate(-0.0)" stroke="#FFFFFF" />
</g>
<g stroke="#FFFFFF" fill="#FFFFFF" transform="translate(168.710199,17.2799996157511813372716254553580831068599489844395553141374)">
<rect x="-0.8000000" y="-0.2750000" width="1.6000000" height="0.5500000" fill="#FFFFFF" transform="rotate(-0.0)" stroke="#FFFFFF" />
</g>
<g stroke="#FFFFFF" fill="#FFFFFF" transform="translate(170.160199,15.8299996157511813372716254553580831068599489844395553141374)">
<rect x="-0.2750000" y="-0.8000000" width="0.5500000" height="1.6000000" fill="#FFFFFF" transform="rotate(-0.0)" stroke="#FFFFFF" />
</g>
<g stroke="#FFFFFF" fill="#FFFFFF" transform="translate(170.960199,15.8299996157511813372716254553580831068599489844395553141374)">
<rect x="-0.2750000" y="-0.8000000" width="0.5500000" height="1.6000000" fill="#FFFFFF" transform="rotate(-0.0)" stroke="#FFFFFF" />
</g>
<g stroke="#FFFFFF" fill="#FFFFFF" transform="translate(171.760199,15.8299996157511813372716254553580831068599489844395553141374)">
<rect x="-0.2750000" y="-0.8000000" width="0.5500000" height="1.6000000" fill="#FFFFFF" transform="rotate(-0.0)" stroke="#FFFFFF" />
</g>
<g stroke="#FFFFFF" fill="#FFFFFF" transform="translate(172.560199,15.8299996157511813372716254553580831068599489844395553141374)">
<rect x="-0.2750000" y="-0.8000000" width="0.5500000" height="1.6000000" fill="#FFFFFF" transform="rotate(-0.0)" stroke="#FFFFFF" />
</g>
<g stroke="#FFFFFF" fill="#FFFFFF" transform="translate(173.360199,15.8299996157511813372716254553580831068599489844395553141374)">
<rect x="-0.2750000" y="-0.8000000" width="0.5500000" height="1.6000000" fill="#FFFFFF" transform="rotate(-0.0)" stroke="#FFFFFF" />
</g>
<g stroke="#FFFFFF" fill="#FFFFFF" transform="translate(174.160199,15.8299996157511813372716254553580831068599489844395553141374)">
<rect x="-0.2750000" y="-0.8000000" width="0.5500000" height="1.6000000" fill="#FFFFFF" transform="rotate(-0.0)" stroke="#FFFFFF" />
</g>
<g stroke="#FFFFFF" fill="#FFFFFF" transform="translate(174.960199,15.8299996157511813372716254553580831068599489844395553141374)">
<rect x="-0.2750000" y="-0.8000000" width="0.5500000" height="1.6000000" fill="#FFFFFF" transform="rotate(-0.0)" stroke="#FFFFFF" />
</g>
<g stroke="#FFFFFF" fill="#FFFFFF" transform="translate(175.760199,15.8299996157511813372716254553580831068599489844395553141374)">
<rect x="-0.2750000" y="-0.8000000" width="0.5500000" height="1.6000000" fill="#FFFFFF" transform="rotate(-0.0)" stroke="#FFFFFF" />
</g>
<g stroke="#FFFFFF" fill="#FFFFFF" transform="translate(107.603405,67.3113076157511813372716254553580831068599489844395553141374)">
<rect x="-0.6000000" y="-0.4500000" width="1.2000000" height="0.9000000" fill="#FFFFFF" transform="rotate(-0.0)" stroke="#FFFFFF" />
</g>
<g stroke="#FFFFFF" fill="#FFFFFF" transform="translate(107.603405,70.6113076157511813372716254553580831068599489844395553141374)">
<rect x="-0.6000000" y="-0.4500000" width="1.2000000" height="0.9000000" fill="#FFFFFF" transform="rotate(-0.0)" stroke="#FFFFFF" />
</g>
</g>
</svg></g></svg>