<?xml version="1.0" encoding="UTF-8" standalone="no"?>
<svg
   version="1.1"
   viewBox="0 0 187.810398 76.55"
   width="187.810398"
   height="76.55"
   style="shape-rendering:crispEdges;vector-effect:non-scaling-stroke"
   id="svg4"
   sodipodi:docname="bot_glue.svg"
   inkscape:version="1.4.2 (f4327f4, 2025-05-13)"
   xmlns:inkscape="http://www.inkscape.org/namespaces/inkscape"
   xmlns:sodipodi="http://sodipodi.sourceforge.net/DTD/sodipodi-0.dtd"
   xmlns="http://www.w3.org/2000/svg"
   xmlns:svg="http://www.w3.org/2000/svg">
  <defs
     id="defs4" />
  <sodipodi:namedview
     id="namedview4"
     pagecolor="#ffffff"
     bordercolor="#000000"
     borderopacity="0.25"
     inkscape:showpageshadow="2"
     inkscape:pageopacity="0.0"
     inkscape:pagecheckerboard="0"
     inkscape:deskcolor="#d1d1d1"
     inkscape:zoom="3.3376756"
     inkscape:cx="11.534974"
     inkscape:cy="36.40258"
     inkscape:window-width="1920"
     inkscape:window-height="991"
     inkscape:window-x="-9"
     inkscape:window-y="-9"
     inkscape:window-maximized="1"
     inkscape:current-layer="svg4" />
  <g
     id="layer_0"
     transform="translate(0.0,0.0)"
     style="stroke:#000000;stroke-opacity:1">
    <svg
       width="187.810398"
       height="76.550000"
       viewBox="0 0 187.810398 76.550000"
       version="1.1"
       id="svg3"
       style="stroke:#000000;stroke-opacity:1">
      <defs
         id="defs2">
        <mask
           id="ly0_b6589fc6__d0">
          <rect
             x="-93.905199"
             y="-38.275000"
             width="375.620796"
             height="153.100000"
             fill="#FFFFFF"
             stroke="#FFFFFF"
             id="rect2" />
        </mask>
      </defs>
      <g
         mask="url(#ly0_b6589fc6__d0)"
         stroke="#FFFFFF"
         fill="#FFFFFF"
         id="g3"
         style="stroke:#000000;stroke-opacity:1">
        <g
           stroke="#FFFFFF"
           fill="#FFFFFF"
           id="g2"
           style="stroke:#000000;stroke-opacity:1" />
        <path
           d="M32.59922400,2.72000000 L32.60041500,2.81966600 L32.60398800,2.91927400 L32.60994100,3.01876900 L32.61827000,3.11809400 L32.62897000,3.21719000 L32.64203600,3.31600300 L32.65746000,3.41447500 L32.67523300,3.51255100 L32.69534500,3.61017300 L32.71778400,3.70728700 L32.74253900,3.80383700 L32.76959300,3.89976800 L32.79893300,3.99502500 L32.83054100,4.08955300 L32.86439900,4.18329900 L32.90048900,4.27620900 L32.93878800,4.36823000 L32.97927600,4.45930900 L33.02192900,4.54939400 L33.06672400,4.63843400 L33.11363300,4.72637800 L33.16263100,4.81317600 L33.21369000,4.89877800 L33.26678000,4.98313500 L33.32187000,5.06619900 L33.37893100,5.14792300 L33.43792800,5.22826000 L33.49882900,5.30716300 L33.56159800,5.38458900 L33.62620000,5.46049200 L33.69259700,5.53483000 L33.76075200,5.60755900 L33.83062600,5.67863800 L33.90217900,5.74802800 L33.97537000,5.81568700 L34.05015700,5.88157700 L34.12649700,5.94566200 L34.20434800,6.00790300 L34.28366300,6.06826600 L34.36439900,6.12671600 L34.44650900,6.18322000 L34.52994500,6.23774500 L34.61466200,6.29026000 L34.70060900,6.34073600 L34.78773700,6.38914300 L34.87599800,6.43545400 L34.96534100,6.47964100 L35.05571400,6.52168100 L35.14706600,6.56154900 L35.23934500,6.59922300 L35.33249800,6.63468000 L35.42647200,6.66790000 L35.52121300,6.69886500 L35.61666700,6.72755700 L35.71277900,6.75395900 L35.80949500,6.77805600 L35.90675900,6.79983500 L36.00451700,6.81928300 L36.10271100,6.83638900 L36.20128500,6.85114300 L36.30018400,6.86353700 L36.39935200,6.87356400 L36.49873000,6.88121800 L36.59826300,6.88649400 L36.69789400,6.88939000 L36.79756500,6.88990300 L36.89722100,6.88803500 L36.99680300,6.88378500 L37.09625500,6.87715600 L37.19552000,6.86815300 L37.29454200,6.85677900 L37.39326400,6.84304200 L37.49162900,6.82694900 L37.58958100,6.80851000 L37.68706500,6.78773500 L37.78402400,6.76463600 L37.88040400,6.73922600 L37.97614800,6.71152000 L38.07120400,6.68153300 L38.16551500,6.64928400 L38.25902800,6.61478900 L38.35169100,6.57806900 L38.44344900,6.53914500 L38.53425100,6.49803900 L38.62404400,6.45477400 L38.71277800,6.40937600 L38.80040100,6.36187000 L38.88686400,6.31228300 L38.97211700,6.26064400 L39.05611100,6.20698200 L39.13879900,6.15132800 L39.22013300,6.09371300 L39.30006700,6.03417100 L39.37855500,5.97273600 L39.45555200,5.90944200 L39.53101400,5.84432600 L39.60489900,5.77742500 L39.67716300,5.70877700 L39.74776600,5.63842200 L39.81666800,5.56639900 L39.88382800,5.49275000 L39.94920900,5.41751700 L40.01277300,5.34074200 L40.07448400,5.26247100 L40.13430600,5.18274700 L40.19220600,5.10161600 L40.24815000,5.01912400 L40.30210700,4.93531800 L40.35404500,4.85024700 L40.40393600,4.76395900 L40.45174900,4.67650300 L40.49745900,4.58793000 L40.54103900,4.49828900 L40.58246400,4.40763200 L40.62171000,4.31601100 L40.65875500,4.22347800 L40.69357800,4.13008700 L40.72615900,4.03588900 L40.75647900,3.94094000 L40.78452100,3.84529300 L40.81027000,3.74900400 L40.83370900,3.65212600 L40.85482600,3.55471600 L40.87361000,3.45682900 L40.89004800,3.35852100 L40.90413200,3.25984800 L40.91585300,3.16086700 L40.92520600,3.06163400 L40.93218400,2.96220600 L40.93678400,2.86263900 L40.93900200,2.76299100 L126.18019900,2.71000000 L126.18019900,0.05000000 L137.27019900,0.05000000 L137.27019900,2.71000000 L146.91019900,2.69000000 L146.91139000,2.78966600 L146.91496300,2.88927400 L146.92091600,2.98876900 L146.92924500,3.08809400 L146.93994500,3.18719000 L146.95301100,3.28600300 L146.96843500,3.38447500 L146.98620800,3.48255100 L147.00632000,3.58017300 L147.02875900,3.67728700 L147.05351400,3.77383700 L147.08056800,3.86976800 L147.10990800,3.96502500 L147.14151600,4.05955300 L147.17537400,4.15329900 L147.21146400,4.24620900 L147.24976300,4.33823000 L147.29025100,4.42930900 L147.33290400,4.51939400 L147.37769900,4.60843400 L147.42460800,4.69637800 L147.47360600,4.78317600 L147.52466500,4.86877800 L147.57775500,4.95313500 L147.63284500,5.03619900 L147.68990600,5.11792300 L147.74890300,5.19826000 L147.80980400,5.27716300 L147.87257300,5.35458900 L147.93717500,5.43049200 L148.00357200,5.50483000 L148.07172700,5.57755900 L148.14160100,5.64863800 L148.21315400,5.71802800 L148.28634500,5.78568700 L148.36113200,5.85157700 L148.43747200,5.91566200 L148.51532300,5.97790300 L148.59463800,6.03826600 L148.67537400,6.09671600 L148.75748400,6.15322000 L148.84092000,6.20774500 L148.92563700,6.26026000 L149.01158400,6.31073600 L149.09871200,6.35914300 L149.18697300,6.40545400 L149.27631600,6.44964100 L149.36668900,6.49168100 L149.45804100,6.53154900 L149.55032000,6.56922300 L149.64347300,6.60468000 L149.73744700,6.63790000 L149.83218800,6.66886500 L149.92764200,6.69755700 L150.02375400,6.72395900 L150.12047000,6.74805600 L150.21773400,6.76983500 L150.31549200,6.78928300 L150.41368600,6.80638900 L150.51226000,6.82114300 L150.61115900,6.83353700 L150.71032700,6.84356400 L150.80970500,6.85121800 L150.90923800,6.85649400 L151.00886900,6.85939000 L151.10854000,6.85990300 L151.20819600,6.85803500 L151.30777800,6.85378500 L151.40723000,6.84715600 L151.50649500,6.83815300 L151.60551700,6.82677900 L151.70423900,6.81304200 L151.80260400,6.79694900 L151.90055600,6.77851000 L151.99804000,6.75773500 L152.09499900,6.73463600 L152.19137900,6.70922600 L152.28712300,6.68152000 L152.38217900,6.65153300 L152.47649000,6.61928400 L152.57000300,6.58478900 L152.66266600,6.54806900 L152.75442400,6.50914500 L152.84522600,6.46803900 L152.93501900,6.42477400 L153.02375300,6.37937600 L153.11137600,6.33187000 L153.19783900,6.28228300 L153.28309200,6.23064400 L153.36708600,6.17698200 L153.44977400,6.12132800 L153.53110800,6.06371300 L153.61104200,6.00417100 L153.68953000,5.94273600 L153.76652700,5.87944200 L153.84198900,5.81432600 L153.91587400,5.74742500 L153.98813800,5.67877700 L154.05874100,5.60842200 L154.12764300,5.53639900 L154.19480300,5.46275000 L154.26018400,5.38751700 L154.32374800,5.31074200 L154.38545900,5.23247100 L154.44528100,5.15274700 L154.50318100,5.07161600 L154.55912500,4.98912400 L154.61308200,4.90531800 L154.66502000,4.82024700 L154.71491100,4.73395900 L154.76272400,4.64650300 L154.80843400,4.55793000 L154.85201400,4.46828900 L154.89343900,4.37763200 L154.93268500,4.28601100 L154.96973000,4.19347800 L155.00455300,4.10008700 L155.03713400,4.00588900 L155.06745400,3.91094000 L155.09549600,3.81529300 L155.12124500,3.71900400 L155.14468400,3.62212600 L155.16580100,3.52471600 L155.18458500,3.42682900 L155.20102300,3.32852100 L155.21510700,3.22984800 L155.22682800,3.13086700 L155.23618100,3.03163400 L155.24315900,2.93220600 L155.24775900,2.83263900 L155.24997700,2.73299100 L185.51019900,2.69000000 L185.61115400,2.69226600 L185.71190500,2.69905900 L185.81225100,2.71036500 L185.91198800,2.72616200 L186.01091500,2.74641700 L186.10883500,2.77109100 L186.20554900,2.80013300 L186.30086200,2.83348400 L186.39458400,2.87107900 L186.48652400,2.91284000 L186.57649800,2.95868400 L186.66432400,3.00851800 L186.74982700,3.06224300 L186.83283300,3.11975000 L186.91317500,3.18092300 L186.99069200,3.24563800 L187.06522700,3.31376700 L187.13663100,3.38517100 L187.20476000,3.45970600 L187.26947500,3.53722300 L187.33064800,3.61756500 L187.38815500,3.70057100 L187.44188000,3.78607400 L187.49171400,3.87390000 L187.53755800,3.96387400 L187.57931900,4.05581400 L187.61691400,4.14953600 L187.65026500,4.24484900 L187.67930700,4.34156300 L187.70398100,4.43948300 L187.72423600,4.53841000 L187.74003300,4.63814700 L187.75133900,4.73849300 L187.75813200,4.83924400 L187.76039800,4.94019900 L187.75019900,53.43000000 L187.74777800,53.52862600 L187.74052000,53.62701400 L187.72844400,53.72492800 L187.71157700,53.82213200 L187.68996200,53.91839000 L187.66364900,54.01347200 L187.63270300,54.10714900 L187.59719700,54.19919400 L187.55721700,54.28938600 L187.51286100,54.37750700 L187.46423400,54.46334700 L187.41145300,54.54669600 L187.35464600,54.62735600 L187.29395000,54.70513100 L187.22951100,54.77983300 L187.16148400,54.85128500 L187.09003200,54.91931200 L187.01533000,54.98375100 L186.93755500,55.04444700 L186.85689500,55.10125400 L186.77354600,55.15403500 L186.68770600,55.20266200 L186.59958500,55.24701800 L186.50939300,55.28699800 L186.41734800,55.32250400 L186.32367100,55.35345000 L186.22858900,55.37976300 L186.13233100,55.40137800 L186.03512700,55.41824500 L185.93721300,55.43032100 L185.83882500,55.43757900 L185.74019900,55.44000000 L175.38019900,55.44000000 L175.28157300,55.44242100 L175.18318500,55.44967900 L175.08527100,55.46175500 L174.98806700,55.47862200 L174.89180900,55.50023700 L174.79672700,55.52655000 L174.70305000,55.55749600 L174.61100500,55.59300200 L174.52081300,55.63298200 L174.43269200,55.67733800 L174.34685200,55.72596500 L174.26350300,55.77874600 L174.18284300,55.83555300 L174.10506800,55.89624900 L174.03036600,55.96068800 L173.95891400,56.02871500 L173.89088700,56.10016700 L173.82644800,56.17486900 L173.76575200,56.25264400 L173.70894500,56.33330400 L173.65616400,56.41665300 L173.60753700,56.50249300 L173.56318100,56.59061400 L173.52320100,56.68080600 L173.48769500,56.77285100 L173.45674900,56.86652800 L173.43043600,56.96161000 L173.40882100,57.05786800 L173.39195400,57.15507200 L173.37987800,57.25298600 L173.37262000,57.35137400 L173.37019900,57.45000000 L173.37019900,74.49000000 L173.36777800,74.58862600 L173.36052000,74.68701400 L173.34844400,74.78492800 L173.33157700,74.88213200 L173.30996200,74.97839000 L173.28364900,75.07347200 L173.25270300,75.16714900 L173.21719700,75.25919400 L173.17721700,75.34938600 L173.13286100,75.43750700 L173.08423400,75.52334700 L173.03145300,75.60669600 L172.97464600,75.68735600 L172.91395000,75.76513100 L172.84951100,75.83983300 L172.78148400,75.91128500 L172.71003200,75.97931200 L172.63533000,76.04375100 L172.55755500,76.10444700 L172.47689500,76.16125400 L172.39354600,76.21403500 L172.30770600,76.26266200 L172.21958500,76.30701800 L172.12939300,76.34699800 L172.03734800,76.38250400 L171.94367100,76.41345000 L171.84858900,76.43976300 L171.75233100,76.46137800 L171.65512700,76.47824500 L171.55721300,76.49032100 L171.45882500,76.49757900 L171.36019900,76.50000000 L160.01019900,76.49000000 L160.00900800,76.39033400 L160.00543500,76.29072600 L159.99948200,76.19123100 L159.99115300,76.09190600 L159.98045300,75.99281000 L159.96738700,75.89399700 L159.95196300,75.79552500 L159.93419000,75.69744900 L159.91407800,75.59982700 L159.89163900,75.50271300 L159.86688400,75.40616300 L159.83983000,75.31023200 L159.81049000,75.21497500 L159.77888200,75.12044700 L159.74502400,75.02670100 L159.70893400,74.93379100 L159.67063500,74.84177000 L159.63014700,74.75069100 L159.58749400,74.66060600 L159.54269900,74.57156600 L159.49579000,74.48362200 L159.44679200,74.39682400 L159.39573300,74.31122200 L159.34264300,74.22686500 L159.28755300,74.14380100 L159.23049200,74.06207700 L159.17149500,73.98174000 L159.11059400,73.90283700 L159.04782500,73.82541100 L158.98322300,73.74950800 L158.91682600,73.67517000 L158.84867100,73.60244100 L158.77879700,73.53136200 L158.70724400,73.46197200 L158.63405300,73.39431300 L158.55926600,73.32842300 L158.48292600,73.26433800 L158.40507500,73.20209700 L158.32576000,73.14173400 L158.24502400,73.08328400 L158.16291400,73.02678000 L158.07947800,72.97225500 L157.99476100,72.91974000 L157.90881400,72.86926400 L157.82168600,72.82085700 L157.73342500,72.77454600 L157.64408200,72.73035900 L157.55370900,72.68831900 L157.46235700,72.64845100 L157.37007800,72.61077700 L157.27692500,72.57532000 L157.18295100,72.54210000 L157.08821000,72.51113500 L156.99275600,72.48244300 L156.89664400,72.45604100 L156.79992800,72.43194400 L156.70266400,72.41016500 L156.60490600,72.39071700 L156.50671200,72.37361100 L156.40813800,72.35885700 L156.30923900,72.34646300 L156.21007100,72.33643600 L156.11069300,72.32878200 L156.01116000,72.32350600 L155.91152900,72.32061000 L155.81185800,72.32009700 L155.71220200,72.32196500 L155.61262000,72.32621500 L155.51316800,72.33284400 L155.41390300,72.34184700 L155.31488100,72.35322100 L155.21615900,72.36695800 L155.11779400,72.38305100 L155.01984200,72.40149000 L154.92235800,72.42226500 L154.82539900,72.44536400 L154.72901900,72.47077400 L154.63327500,72.49848000 L154.53821900,72.52846700 L154.44390800,72.56071600 L154.35039500,72.59521100 L154.25773200,72.63193100 L154.16597400,72.67085500 L154.07517200,72.71196100 L153.98537900,72.75522600 L153.89664500,72.80062400 L153.80902200,72.84813000 L153.72255900,72.89771700 L153.63730600,72.94935600 L153.55331200,73.00301800 L153.47062400,73.05867200 L153.38929000,73.11628700 L153.30935600,73.17582900 L153.23086800,73.23726400 L153.15387100,73.30055800 L153.07840900,73.36567400 L153.00452400,73.43257500 L152.93226000,73.50122300 L152.86165700,73.57157800 L152.79275500,73.64360100 L152.72559500,73.71725000 L152.66021400,73.79248300 L152.59665000,73.86925800 L152.53493900,73.94752900 L152.47511700,74.02725300 L152.41721700,74.10838400 L152.36127300,74.19087600 L152.30731600,74.27468200 L152.25537800,74.35975300 L152.20548700,74.44604100 L152.15767400,74.53349700 L152.11196400,74.62207000 L152.06838400,74.71171100 L152.02695900,74.80236800 L151.98771300,74.89398900 L151.95066800,74.98652200 L151.91584500,75.07991300 L151.88326400,75.17411100 L151.85294400,75.26906000 L151.82490200,75.36470700 L151.79915300,75.46099600 L151.77571400,75.55787400 L151.75459700,75.65528400 L151.73581300,75.75317100 L151.71937500,75.85147900 L151.70529100,75.95015200 L151.69357000,76.04913300 L151.68421700,76.14836600 L151.67723900,76.24779400 L151.67263900,76.34736100 L151.67042100,76.44700900 L36.34997700,76.48000000 L36.34878600,76.38033400 L36.34521300,76.28072600 L36.33926000,76.18123100 L36.33093100,76.08190600 L36.32023100,75.98281000 L36.30716500,75.88399700 L36.29174100,75.78552500 L36.27396800,75.68744900 L36.25385600,75.58982700 L36.23141700,75.49271300 L36.20666200,75.39616300 L36.17960800,75.30023200 L36.15026800,75.20497500 L36.11866000,75.11044700 L36.08480200,75.01670100 L36.04871200,74.92379100 L36.01041300,74.83177000 L35.96992500,74.74069100 L35.92727200,74.65060600 L35.88247700,74.56156600 L35.83556800,74.47362200 L35.78657000,74.38682400 L35.73551100,74.30122200 L35.68242100,74.21686500 L35.62733100,74.13380100 L35.57027000,74.05207700 L35.51127300,73.97174000 L35.45037200,73.89283700 L35.38760300,73.81541100 L35.32300100,73.73950800 L35.25660400,73.66517000 L35.18844900,73.59244100 L35.11857500,73.52136200 L35.04702200,73.45197200 L34.97383100,73.38431300 L34.89904400,73.31842300 L34.82270400,73.25433800 L34.74485300,73.19209700 L34.66553800,73.13173400 L34.58480200,73.07328400 L34.50269200,73.01678000 L34.41925600,72.96225500 L34.33453900,72.90974000 L34.24859200,72.85926400 L34.16146400,72.81085700 L34.07320300,72.76454600 L33.98386000,72.72035900 L33.89348700,72.67831900 L33.80213500,72.63845100 L33.70985600,72.60077700 L33.61670300,72.56532000 L33.52272900,72.53210000 L33.42798800,72.50113500 L33.33253400,72.47244300 L33.23642200,72.44604100 L33.13970600,72.42194400 L33.04244200,72.40016500 L32.94468400,72.38071700 L32.84649000,72.36361100 L32.74791600,72.34885700 L32.64901700,72.33646300 L32.54984900,72.32643600 L32.45047100,72.31878200 L32.35093800,72.31350600 L32.25130700,72.31061000 L32.15163600,72.31009700 L32.05198000,72.31196500 L31.95239800,72.31621500 L31.85294600,72.32284400 L31.75368100,72.33184700 L31.65465900,72.34322100 L31.55593700,72.35695800 L31.45757200,72.37305100 L31.35962000,72.39149000 L31.26213600,72.41226500 L31.16517700,72.43536400 L31.06879700,72.46077400 L30.97305300,72.48848000 L30.87799700,72.51846700 L30.78368600,72.55071600 L30.69017300,72.58521100 L30.59751000,72.62193100 L30.50575200,72.66085500 L30.41495000,72.70196100 L30.32515700,72.74522600 L30.23642300,72.79062400 L30.14880000,72.83813000 L30.06233700,72.88771700 L29.97708400,72.93935600 L29.89309000,72.99301800 L29.81040200,73.04867200 L29.72906800,73.10628700 L29.64913400,73.16582900 L29.57064600,73.22726400 L29.49364900,73.29055800 L29.41818700,73.35567400 L29.34430200,73.42257500 L29.27203800,73.49122300 L29.20143500,73.56157800 L29.13253300,73.63360100 L29.06537300,73.70725000 L28.99999200,73.78248300 L28.93642800,73.85925800 L28.87471700,73.93752900 L28.81489500,74.01725300 L28.75699500,74.09838400 L28.70105100,74.18087600 L28.64709400,74.26468200 L28.59515600,74.34975300 L28.54526500,74.43604100 L28.49745200,74.52349700 L28.45174200,74.61207000 L28.40816200,74.70171100 L28.36673700,74.79236800 L28.32749100,74.88398900 L28.29044600,74.97652200 L28.25562300,75.06991300 L28.22304200,75.16411100 L28.19272200,75.25906000 L28.16468000,75.35470700 L28.13893100,75.45099600 L28.11549200,75.54787400 L28.09437500,75.64528400 L28.07559100,75.74317100 L28.05915300,75.84147900 L28.04506900,75.94015200 L28.03334800,76.03913300 L28.02399500,76.13836600 L28.01701700,76.23779400 L28.01241700,76.33736100 L28.01019900,76.43700900 L16.44019900,76.46000000 L16.34157300,76.45757900 L16.24318500,76.45032100 L16.14527100,76.43824500 L16.04806700,76.42137800 L15.95180900,76.39976300 L15.85672700,76.37345000 L15.76305000,76.34250400 L15.67100500,76.30699800 L15.58081300,76.26701800 L15.49269200,76.22266200 L15.40685200,76.17403500 L15.32350300,76.12125400 L15.24284300,76.06444700 L15.16506800,76.00375100 L15.09036600,75.93931200 L15.01891400,75.87128500 L14.95088700,75.79983300 L14.88644800,75.72513100 L14.82575200,75.64735600 L14.76894500,75.56669600 L14.71616400,75.48334700 L14.66753700,75.39750700 L14.62318100,75.30938600 L14.58320100,75.21919400 L14.54769500,75.12714900 L14.51674900,75.03347200 L14.49043600,74.93839000 L14.46882100,74.84213200 L14.45195400,74.74492800 L14.43987800,74.64701400 L14.43262000,74.54862600 L14.43019900,74.45000000 L14.43019900,57.45000000 L14.42777800,57.35137400 L14.42052000,57.25298600 L14.40844400,57.15507200 L14.39157700,57.05786800 L14.36996200,56.96161000 L14.34364900,56.86652800 L14.31270300,56.77285100 L14.27719700,56.68080600 L14.23721700,56.59061400 L14.19286100,56.50249300 L14.14423400,56.41665300 L14.09145300,56.33330400 L14.03464600,56.25264400 L13.97395000,56.17486900 L13.90951100,56.10016700 L13.84148400,56.02871500 L13.77003200,55.96068800 L13.69533000,55.89624900 L13.61755500,55.83555300 L13.53689500,55.77874600 L13.45354600,55.72596500 L13.36770600,55.67733800 L13.27958500,55.63298200 L13.18939300,55.59300200 L13.09734800,55.55749600 L13.00367100,55.52655000 L12.90858900,55.50023700 L12.81233100,55.47862200 L12.71512700,55.46175500 L12.61721300,55.44967900 L12.51882500,55.44242100 L12.42019900,55.44000000 L2.06019900,55.44000000 L1.96157300,55.43757900 L1.86318500,55.43032100 L1.76527100,55.41824500 L1.66806700,55.40137800 L1.57180900,55.37976300 L1.47672700,55.35345000 L1.38305000,55.32250400 L1.29100500,55.28699800 L1.20081300,55.24701800 L1.11269200,55.20266200 L1.02685200,55.15403500 L0.94350300,55.10125400 L0.86284300,55.04444700 L0.78506800,54.98375100 L0.71036600,54.91931200 L0.63891400,54.85128500 L0.57088700,54.77983300 L0.50644800,54.70513100 L0.44575200,54.62735600 L0.38894500,54.54669600 L0.33616400,54.46334700 L0.28753700,54.37750700 L0.24318100,54.28938600 L0.20320100,54.19919400 L0.16769500,54.10714900 L0.13674900,54.01347200 L0.11043600,53.91839000 L0.08882100,53.82213200 L0.07195400,53.72492800 L0.05987800,53.62701400 L0.05262000,53.52862600 L0.05019900,53.43000000 L0.05000000,4.96000000 L0.05226600,4.85904500 L0.05905900,4.75829400 L0.07036500,4.65794800 L0.08616200,4.55821100 L0.10641700,4.45928400 L0.13109100,4.36136400 L0.16013300,4.26465000 L0.19348400,4.16933700 L0.23107900,4.07561500 L0.27284000,3.98367500 L0.31868400,3.89370100 L0.36851800,3.80587500 L0.42224300,3.72037200 L0.47975000,3.63736600 L0.54092300,3.55702400 L0.60563800,3.47950700 L0.67376700,3.40497200 L0.74517100,3.33356800 L0.81970600,3.26543900 L0.89722300,3.20072400 L0.97756500,3.13955100 L1.06057100,3.08204400 L1.14607400,3.02831900 L1.23390000,2.97848500 L1.32387400,2.93264100 L1.41581400,2.89088000 L1.50953600,2.85328500 L1.60484900,2.81993400 L1.70156300,2.79089200 L1.79948300,2.76621800 L1.89841000,2.74596300 L1.99814700,2.73016600 L2.09849300,2.71886000 L2.19924400,2.71206700 L2.30019900,2.70980100 L32.59922400,2.72000000 Z"
           fill="#FFFFFF"
           stroke="#FFFFFF"
           id="path2"
           style="stroke:#000000;stroke-opacity:1" />
      </g>
    </svg>
  </g>
</svg>
