<svg xmlns="http://www.w3.org/2000/svg" version="1.1" viewBox="0 0 187.810398 82.23999923150237" width="187.810398" height="82.23999923150237" style="shape-rendering:crispEdges;vector-effect:non-scaling-stroke">
  <rect width="100%" height="100%" fill="#000000"/>
<g id="layer_0" transform="translate(0.0,0.0)"><svg width="187.810398" height="82.2399992315023626745432509107161662137198979688791106282744" viewBox="0 0 187.810398 82.2399992315023626745432509107161662137198979688791106282744">
<defs>
<mask id="ly0_b6589fc6__d0">
<rect x="-93.905199" y="-41.1199996157511813372716254553580831068599489844395553141372" width="375.620796" height="164.479998463004725349086501821432332427439795937758221256549" fill="#FFFFFF" stroke="#FFFFFF" />
</mask>
<g id="ly0_b6589fc6__d1" stroke="#FFFFFF" fill="#FFFFFF">
<circle cx="0" cy="0" r="0.02500" fill="#FFFFFF" stroke="#FFFFFF" />
</g>
<g id="ly0_b6589fc6__d2" stroke="#FFFFFF" fill="#FFFFFF">
<circle cx="0" cy="0" r="0.05000" fill="#FFFFFF" stroke="#FFFFFF" />
</g>
</defs>
<g mask="url(#ly0_b6589fc6__d0)" stroke="#FFFFFF" fill="#FFFFFF">
<g stroke="#FFFFFF" fill="#FFFFFF" />
<g stroke="#FFFFFF" fill="#FFFFFF" transform="translate(185.510199,4.2199996157511813372716254553580831068599489844395553141374)">
<circle cx="0" cy="0" r="0.02500" fill="#FFFFFF" stroke="#FFFFFF" />
</g>
<path d="M185.51019900,4.19499962 A2.27519900,2.27519900,0,0,1,187.78539800,6.47019862 L187.73539800,6.47019862 A2.22519900,2.22519900,0,0,0,185.51019900,4.24499962 Z" fill="#FFFFFF" stroke="#FFFFFF" />
<g stroke="#FFFFFF" fill="#FFFFFF" transform="translate(187.760398,6.4701986157511813372716254553580831068599489844395553141374)">
<circle cx="0" cy="0" r="0.02500" fill="#FFFFFF" stroke="#FFFFFF" />
</g>
<g stroke="#FFFFFF" fill="#FFFFFF" transform="translate(126.180199,4.2399996157511813372716254553580831068599489844395553141374)">
<circle cx="0" cy="0" r="0.02500" fill="#FFFFFF" stroke="#FFFFFF" />
</g>
<path d="M126.18018346,4.21499962 L126.18021454,4.26499961 L40.93901754,4.31799061 L40.93898646,4.26799062 Z" fill="#FFFFFF" stroke="#FFFFFF" />
<g stroke="#FFFFFF" fill="#FFFFFF" transform="translate(40.939002,4.2929906157511813372716254553580831068599489844395553141374)">
<circle cx="0" cy="0" r="0.02500" fill="#FFFFFF" stroke="#FFFFFF" />
</g>
<g stroke="#FFFFFF" fill="#FFFFFF" transform="translate(171.360199,78.0299996157511813372716254553580831068599489844395553141374)">
<circle cx="0" cy="0" r="0.02500" fill="#FFFFFF" stroke="#FFFFFF" />
</g>
<path d="M171.36022103,78.00499963 L171.36017697,78.05499961 L160.01017697,78.04499961 L160.01022103,77.99499963 Z" fill="#FFFFFF" stroke="#FFFFFF" />
<g stroke="#FFFFFF" fill="#FFFFFF" transform="translate(160.010199,78.0199996157511813372716254553580831068599489844395553141374)">
<circle cx="0" cy="0" r="0.02500" fill="#FFFFFF" stroke="#FFFFFF" />
</g>
<g stroke="#FFFFFF" fill="#FFFFFF" transform="translate(28.010199,77.9670086157511813372716254553580831068599489844395553141374)">
<circle cx="0" cy="0" r="0.02500" fill="#FFFFFF" stroke="#FFFFFF" />
</g>
<path d="M28.01014932,77.94200867 L28.01024868,77.99200857 L16.44024868,78.01499957 L16.44014932,77.96499967 Z" fill="#FFFFFF" stroke="#FFFFFF" />
<g stroke="#FFFFFF" fill="#FFFFFF" transform="translate(16.440199,77.9899996157511813372716254553580831068599489844395553141374)">
<circle cx="0" cy="0" r="0.02500" fill="#FFFFFF" stroke="#FFFFFF" />
</g>
<g stroke="#FFFFFF" fill="#FFFFFF" transform="translate(151.670421,77.9770086157511813372716254553580831068599489844395553141374)">
<circle cx="0" cy="0" r="0.02500" fill="#FFFFFF" stroke="#FFFFFF" />
</g>
<path d="M151.64542233,77.97675088 A4.19499962,4.19499962,0,0,1,160.03519900,78.01999962 L159.98519900,78.01999962 A4.14500000,4.14500000,0,0,0,151.69541967,77.97726636 Z" fill="#FFFFFF" stroke="#FFFFFF" />
<g stroke="#FFFFFF" fill="#FFFFFF" transform="translate(160.010199,78.0199996157511813372716254553580831068599489844395553141374)">
<circle cx="0" cy="0" r="0.02500" fill="#FFFFFF" stroke="#FFFFFF" />
</g>
<g stroke="#FFFFFF" fill="#FFFFFF" transform="translate(16.440199,77.9899996157511813372716254553580831068599489844395553141374)">
<circle cx="0" cy="0" r="0.02500" fill="#FFFFFF" stroke="#FFFFFF" />
</g>
<path d="M16.44019900,78.01499962 A2.03500000,2.03500000,0,0,1,14.40519900,75.97999962 L14.45519900,75.97999962 A1.98500000,1.98500000,0,0,0,16.44019900,77.96499962 Z" fill="#FFFFFF" stroke="#FFFFFF" />
<g stroke="#FFFFFF" fill="#FFFFFF" transform="translate(14.430199,75.9799996157511813372716254553580831068599489844395553141374)">
<circle cx="0" cy="0" r="0.02500" fill="#FFFFFF" stroke="#FFFFFF" />
</g>
<g stroke="#FFFFFF" fill="#FFFFFF" transform="translate(175.380199,56.9699996157511813372716254553580831068599489844395553141374)">
<circle cx="0" cy="0" r="0.02500" fill="#FFFFFF" stroke="#FFFFFF" />
</g>
<path d="M175.38019900,56.99499962 L175.38019900,56.94499962 L185.74019900,56.94499962 L185.74019900,56.99499962 Z" fill="#FFFFFF" stroke="#FFFFFF" />
<g stroke="#FFFFFF" fill="#FFFFFF" transform="translate(185.740199,56.9699996157511813372716254553580831068599489844395553141374)">
<circle cx="0" cy="0" r="0.02500" fill="#FFFFFF" stroke="#FFFFFF" />
</g>
<g stroke="#FFFFFF" fill="#FFFFFF" transform="translate(187.750199,54.9599996157511813372716254553580831068599489844395553141374)">
<circle cx="0" cy="0" r="0.02500" fill="#FFFFFF" stroke="#FFFFFF" />
</g>
<path d="M187.77519900,54.95999962 A2.03500000,2.03500000,0,0,1,185.74019900,56.99499962 L185.74019900,56.94499962 A1.98500000,1.98500000,0,0,0,187.72519900,54.95999962 Z" fill="#FFFFFF" stroke="#FFFFFF" />
<g stroke="#FFFFFF" fill="#FFFFFF" transform="translate(185.740199,56.9699996157511813372716254553580831068599489844395553141374)">
<circle cx="0" cy="0" r="0.02500" fill="#FFFFFF" stroke="#FFFFFF" />
</g>
<g stroke="#FFFFFF" fill="#FFFFFF" transform="translate(173.370199,76.0199996157511813372716254553580831068599489844395553141374)">
<circle cx="0" cy="0" r="0.02500" fill="#FFFFFF" stroke="#FFFFFF" />
</g>
<path d="M173.39519900,76.01999962 L173.34519900,76.01999962 L173.34519900,58.97999962 L173.39519900,58.97999962 Z" fill="#FFFFFF" stroke="#FFFFFF" />
<g stroke="#FFFFFF" fill="#FFFFFF" transform="translate(173.370199,58.9799996157511813372716254553580831068599489844395553141374)">
<circle cx="0" cy="0" r="0.02500" fill="#FFFFFF" stroke="#FFFFFF" />
</g>
<g stroke="#FFFFFF" fill="#FFFFFF" transform="translate(173.370199,58.9799996157511813372716254553580831068599489844395553141374)">
<circle cx="0" cy="0" r="0.02500" fill="#FFFFFF" stroke="#FFFFFF" />
</g>
<path d="M173.34519900,58.97999962 A2.03500000,2.03500000,0,0,1,175.38019900,56.94499962 L175.38019900,56.99499962 A1.98500000,1.98500000,0,0,0,173.39519900,58.97999962 Z" fill="#FFFFFF" stroke="#FFFFFF" />
<g stroke="#FFFFFF" fill="#FFFFFF" transform="translate(175.380199,56.9699996157511813372716254553580831068599489844395553141374)">
<circle cx="0" cy="0" r="0.02500" fill="#FFFFFF" stroke="#FFFFFF" />
</g>
<g stroke="#FFFFFF" fill="#FFFFFF" transform="translate(173.370199,76.0199996157511813372716254553580831068599489844395553141374)">
<circle cx="0" cy="0" r="0.02500" fill="#FFFFFF" stroke="#FFFFFF" />
</g>
<path d="M173.39519900,76.01999962 A2.03500000,2.03500000,0,0,1,171.36019900,78.05499962 L171.36019900,78.00499962 A1.98500000,1.98500000,0,0,0,173.34519900,76.01999962 Z" fill="#FFFFFF" stroke="#FFFFFF" />
<g stroke="#FFFFFF" fill="#FFFFFF" transform="translate(171.360199,78.0299996157511813372716254553580831068599489844395553141374)">
<circle cx="0" cy="0" r="0.02500" fill="#FFFFFF" stroke="#FFFFFF" />
</g>
<g stroke="#FFFFFF" fill="#FFFFFF" transform="translate(0.050000,6.4899996157511813372716254553580831068599489844395553141374)">
<circle cx="0" cy="0" r="0.02500" fill="#FFFFFF" stroke="#FFFFFF" />
</g>
<path d="M0.02500000,6.48999962 A2.27519900,2.27519900,0,0,1,2.30019900,4.21480062 L2.30019900,4.26480062 A2.22519900,2.22519900,0,0,0,0.07500000,6.48999962 Z" fill="#FFFFFF" stroke="#FFFFFF" />
<g stroke="#FFFFFF" fill="#FFFFFF" transform="translate(2.300199,4.2398006157511813372716254553580831068599489844395553141374)">
<circle cx="0" cy="0" r="0.02500" fill="#FFFFFF" stroke="#FFFFFF" />
</g>
<g stroke="#FFFFFF" fill="#FFFFFF" transform="translate(0.050199,54.9599996157511813372716254553580831068599489844395553141374)">
<circle cx="0" cy="0" r="0.05000" fill="#FFFFFF" stroke="#FFFFFF" />
</g>
<path d="M0.10019900,54.95999941 L0.00019900,54.95999982 L0.00000000,6.48999982 L0.10000000,6.48999941 Z" fill="#FFFFFF" stroke="#FFFFFF" />
<g stroke="#FFFFFF" fill="#FFFFFF" transform="translate(0.050000,6.4899996157511813372716254553580831068599489844395553141374)">
<circle cx="0" cy="0" r="0.05000" fill="#FFFFFF" stroke="#FFFFFF" />
</g>
<g stroke="#FFFFFF" fill="#FFFFFF" transform="translate(12.420199,56.9699996157511813372716254553580831068599489844395553141374)">
<circle cx="0" cy="0" r="0.02500" fill="#FFFFFF" stroke="#FFFFFF" />
</g>
<path d="M12.42019900,56.94499962 A2.03500000,2.03500000,0,0,1,14.45519900,58.97999962 L14.40519900,58.97999962 A1.98500000,1.98500000,0,0,0,12.42019900,56.99499962 Z" fill="#FFFFFF" stroke="#FFFFFF" />
<g stroke="#FFFFFF" fill="#FFFFFF" transform="translate(14.430199,58.9799996157511813372716254553580831068599489844395553141374)">
<circle cx="0" cy="0" r="0.02500" fill="#FFFFFF" stroke="#FFFFFF" />
</g>
<g stroke="#FFFFFF" fill="#FFFFFF" transform="translate(155.249977,4.2629906157511813372716254553580831068599489844395553141374)">
<circle cx="0" cy="0" r="0.02500" fill="#FFFFFF" stroke="#FFFFFF" />
</g>
<path d="M155.27497567,4.26324836 A4.19499962,4.19499962,0,0,1,146.88519900,4.21999962 L146.93519900,4.21999962 A4.14500000,4.14500000,0,0,0,155.22497833,4.26273288 Z" fill="#FFFFFF" stroke="#FFFFFF" />
<g stroke="#FFFFFF" fill="#FFFFFF" transform="translate(146.910199,4.2199996157511813372716254553580831068599489844395553141374)">
<circle cx="0" cy="0" r="0.02500" fill="#FFFFFF" stroke="#FFFFFF" />
</g>
<g stroke="#FFFFFF" fill="#FFFFFF" transform="translate(2.300199,4.2398006157511813372716254553580831068599489844395553141374)">
<circle cx="0" cy="0" r="0.02500" fill="#FFFFFF" stroke="#FFFFFF" />
</g>
<path d="M2.30019058,4.26480061 L2.30020742,4.21480062 L32.59923242,4.22499962 L32.59921558,4.27499961 Z" fill="#FFFFFF" stroke="#FFFFFF" />
<g stroke="#FFFFFF" fill="#FFFFFF" transform="translate(32.599224,4.2499996157511813372716254553580831068599489844395553141374)">
<circle cx="0" cy="0" r="0.02500" fill="#FFFFFF" stroke="#FFFFFF" />
</g>
<g stroke="#FFFFFF" fill="#FFFFFF" transform="translate(28.010199,77.9670086157511813372716254553580831068599489844395553141374)">
<circle cx="0" cy="0" r="0.02500" fill="#FFFFFF" stroke="#FFFFFF" />
</g>
<path d="M27.98520033,77.96675088 A4.19499962,4.19499962,0,0,1,36.37497700,78.00999962 L36.32497700,78.00999962 A4.14500000,4.14500000,0,0,0,28.03519767,77.96726636 Z" fill="#FFFFFF" stroke="#FFFFFF" />
<g stroke="#FFFFFF" fill="#FFFFFF" transform="translate(36.349977,78.0099996157511813372716254553580831068599489844395553141374)">
<circle cx="0" cy="0" r="0.02500" fill="#FFFFFF" stroke="#FFFFFF" />
</g>
<g stroke="#FFFFFF" fill="#FFFFFF" transform="translate(187.760398,6.4701986157511813372716254553580831068599489844395553141374)">
<circle cx="0" cy="0" r="0.05000" fill="#FFFFFF" stroke="#FFFFFF" />
</g>
<path d="M187.71039800,6.47018810 L187.81039800,6.47020913 L187.80019900,54.96001013 L187.70019900,54.95998910 Z" fill="#FFFFFF" stroke="#FFFFFF" />
<g stroke="#FFFFFF" fill="#FFFFFF" transform="translate(187.750199,54.9599996157511813372716254553580831068599489844395553141374)">
<circle cx="0" cy="0" r="0.05000" fill="#FFFFFF" stroke="#FFFFFF" />
</g>
<g stroke="#FFFFFF" fill="#FFFFFF" transform="translate(2.060199,56.9699996157511813372716254553580831068599489844395553141374)">
<circle cx="0" cy="0" r="0.02500" fill="#FFFFFF" stroke="#FFFFFF" />
</g>
<path d="M2.06019900,56.99499962 A2.03500000,2.03500000,0,0,1,0.02519900,54.95999962 L0.07519900,54.95999962 A1.98500000,1.98500000,0,0,0,2.06019900,56.94499962 Z" fill="#FFFFFF" stroke="#FFFFFF" />
<g stroke="#FFFFFF" fill="#FFFFFF" transform="translate(0.050199,54.9599996157511813372716254553580831068599489844395553141374)">
<circle cx="0" cy="0" r="0.02500" fill="#FFFFFF" stroke="#FFFFFF" />
</g>
<g stroke="#FFFFFF" fill="#FFFFFF" transform="translate(126.180199,4.2399996157511813372716254553580831068599489844395553141374)">
<circle cx="0" cy="0" r="0.02500" fill="#FFFFFF" stroke="#FFFFFF" />
</g>
<path d="M126.20519900,4.23999962 L126.15519900,4.23999962 L126.15519900,1.57999962 L126.20519900,1.57999962 Z" fill="#FFFFFF" stroke="#FFFFFF" />
<g stroke="#FFFFFF" fill="#FFFFFF" transform="translate(126.180199,1.5799996157511813372716254553580831068599489844395553141374)">
<circle cx="0" cy="0" r="0.02500" fill="#FFFFFF" stroke="#FFFFFF" />
</g>
<g stroke="#FFFFFF" fill="#FFFFFF" transform="translate(185.510199,4.2199996157511813372716254553580831068599489844395553141374)">
<circle cx="0" cy="0" r="0.02500" fill="#FFFFFF" stroke="#FFFFFF" />
</g>
<path d="M185.51016348,4.19499964 L185.51023452,4.24499959 L155.25001252,4.28799059 L155.24994148,4.23799064 Z" fill="#FFFFFF" stroke="#FFFFFF" />
<g stroke="#FFFFFF" fill="#FFFFFF" transform="translate(155.249977,4.2629906157511813372716254553580831068599489844395553141374)">
<circle cx="0" cy="0" r="0.02500" fill="#FFFFFF" stroke="#FFFFFF" />
</g>
<g stroke="#FFFFFF" fill="#FFFFFF" transform="translate(151.670421,77.9770086157511813372716254553580831068599489844395553141374)">
<circle cx="0" cy="0" r="0.05000" fill="#FFFFFF" stroke="#FFFFFF" />
</g>
<path d="M151.67040670,77.92700862 L151.67043530,78.02700861 L36.34999130,78.05999961 L36.34996270,77.95999962 Z" fill="#FFFFFF" stroke="#FFFFFF" />
<g stroke="#FFFFFF" fill="#FFFFFF" transform="translate(36.349977,78.0099996157511813372716254553580831068599489844395553141374)">
<circle cx="0" cy="0" r="0.05000" fill="#FFFFFF" stroke="#FFFFFF" />
</g>
<g stroke="#FFFFFF" fill="#FFFFFF" transform="translate(12.420199,56.9699996157511813372716254553580831068599489844395553141374)">
<circle cx="0" cy="0" r="0.02500" fill="#FFFFFF" stroke="#FFFFFF" />
</g>
<path d="M12.42019900,56.94499962 L12.42019900,56.99499962 L2.06019900,56.99499962 L2.06019900,56.94499962 Z" fill="#FFFFFF" stroke="#FFFFFF" />
<g stroke="#FFFFFF" fill="#FFFFFF" transform="translate(2.060199,56.9699996157511813372716254553580831068599489844395553141374)">
<circle cx="0" cy="0" r="0.02500" fill="#FFFFFF" stroke="#FFFFFF" />
</g>
<g stroke="#FFFFFF" fill="#FFFFFF" transform="translate(126.180199,1.5799996157511813372716254553580831068599489844395553141374)">
<circle cx="0" cy="0" r="0.02500" fill="#FFFFFF" stroke="#FFFFFF" />
</g>
<path d="M126.18019900,1.60499962 L126.18019900,1.55499962 L137.27019900,1.55499962 L137.27019900,1.60499962 Z" fill="#FFFFFF" stroke="#FFFFFF" />
<g stroke="#FFFFFF" fill="#FFFFFF" transform="translate(137.270199,1.5799996157511813372716254553580831068599489844395553141374)">
<circle cx="0" cy="0" r="0.02500" fill="#FFFFFF" stroke="#FFFFFF" />
</g>
<g stroke="#FFFFFF" fill="#FFFFFF" transform="translate(40.939002,4.2929906157511813372716254553580831068599489844395553141374)">
<circle cx="0" cy="0" r="0.02500" fill="#FFFFFF" stroke="#FFFFFF" />
</g>
<path d="M40.96400067,4.29324836 A4.19499962,4.19499962,0,0,1,32.57422400,4.24999962 L32.62422400,4.24999962 A4.14500000,4.14500000,0,0,0,40.91400333,4.29273288 Z" fill="#FFFFFF" stroke="#FFFFFF" />
<g stroke="#FFFFFF" fill="#FFFFFF" transform="translate(32.599224,4.2499996157511813372716254553580831068599489844395553141374)">
<circle cx="0" cy="0" r="0.02500" fill="#FFFFFF" stroke="#FFFFFF" />
</g>
<g stroke="#FFFFFF" fill="#FFFFFF" transform="translate(14.430199,75.9799996157511813372716254553580831068599489844395553141374)">
<circle cx="0" cy="0" r="0.02500" fill="#FFFFFF" stroke="#FFFFFF" />
</g>
<path d="M14.45519900,75.97999962 L14.40519900,75.97999962 L14.40519900,58.97999962 L14.45519900,58.97999962 Z" fill="#FFFFFF" stroke="#FFFFFF" />
<g stroke="#FFFFFF" fill="#FFFFFF" transform="translate(14.430199,58.9799996157511813372716254553580831068599489844395553141374)">
<circle cx="0" cy="0" r="0.02500" fill="#FFFFFF" stroke="#FFFFFF" />
</g>
<g stroke="#FFFFFF" fill="#FFFFFF" transform="translate(137.270199,1.5799996157511813372716254553580831068599489844395553141374)">
<circle cx="0" cy="0" r="0.02500" fill="#FFFFFF" stroke="#FFFFFF" />
</g>
<path d="M137.24519900,1.57999962 L137.29519900,1.57999962 L137.29519900,4.23999962 L137.24519900,4.23999962 Z" fill="#FFFFFF" stroke="#FFFFFF" />
<g stroke="#FFFFFF" fill="#FFFFFF" transform="translate(137.270199,4.2399996157511813372716254553580831068599489844395553141374)">
<circle cx="0" cy="0" r="0.02500" fill="#FFFFFF" stroke="#FFFFFF" />
</g>
<g stroke="#FFFFFF" fill="#FFFFFF" transform="translate(137.270199,4.2399996157511813372716254553580831068599489844395553141374)">
<circle cx="0" cy="0" r="0.02500" fill="#FFFFFF" stroke="#FFFFFF" />
</g>
<path d="M137.27025087,4.26499956 L137.27014713,4.21499967 L146.91014713,4.19499967 L146.91025087,4.24499956 Z" fill="#FFFFFF" stroke="#FFFFFF" />
<g stroke="#FFFFFF" fill="#FFFFFF" transform="translate(146.910199,4.2199996157511813372716254553580831068599489844395553141374)">
<circle cx="0" cy="0" r="0.02500" fill="#FFFFFF" stroke="#FFFFFF" />
</g>
</g>
</svg></g></svg>