<svg xmlns="http://www.w3.org/2000/svg" version="1.1" viewBox="0 0 187.810398 82.23999923150237" width="187.810398" height="82.23999923150237" style="shape-rendering:crispEdges;vector-effect:non-scaling-stroke">
  <rect width="100%" height="100%" fill="#000000"/>
<g id="layer_0" transform="translate(0.0,0.0)"><svg width="187.810398" height="82.2399992315023626745432509107161662137198979688791106282744" viewBox="0 0 187.810398 82.2399992315023626745432509107161662137198979688791106282744">
<defs>
<mask id="ly0_b6589fc6__d0">
<rect x="-93.905199" y="-41.1199996157511813372716254553580831068599489844395553141372" width="375.620796" height="164.479998463004725349086501821432332427439795937758221256549" fill="#FFFFFF" stroke="#FFFFFF" />
</mask>
<g id="ly0_b6589fc6__d1" stroke="#FFFFFF" fill="#FFFFFF">
<circle cx="0" cy="0" r="0.02500" fill="#FFFFFF" stroke="#FFFFFF" />
</g>
<g id="ly0_b6589fc6__d2" stroke="#FFFFFF" fill="#FFFFFF">
<circle cx="0" cy="0" r="0.05000" fill="#FFFFFF" stroke="#FFFFFF" />
</g>
<g id="ly0_b6589fc6__d3" stroke="#FFFFFF" fill="#FFFFFF">
<circle cx="0" cy="0" r="0.92600" fill="#FFFFFF" stroke="#FFFFFF" />
</g>
<g id="ly0_b6589fc6__d4" stroke="#FFFFFF" fill="#FFFFFF">
<circle cx="0" cy="0" r="2.04490" fill="#FFFFFF" stroke="#FFFFFF" />
</g>
<g id="ly0_b6589fc6__d5" stroke="#FFFFFF" fill="#FFFFFF">
<circle cx="0" cy="0" r="1.57500" fill="#FFFFFF" stroke="#FFFFFF" />
</g>
<g id="ly0_b6589fc6__d6" stroke="#FFFFFF" fill="#FFFFFF">
<circle cx="0" cy="0" r="0.37600" fill="#FFFFFF" stroke="#FFFFFF" />
</g>
<g id="ly0_b6589fc6__d7" stroke="#FFFFFF" fill="#FFFFFF">
<rect x="-0.5510000" y="-1.1010000" width="1.1020000" height="2.2020000" fill="#FFFFFF" rx="0.551000" ry="0.551000" transform="rotate(-0.0)" stroke="#FFFFFF" />
</g>
<g id="ly0_b6589fc6__d8" stroke="#FFFFFF" fill="#FFFFFF">
<rect x="-0.5510000" y="-0.8510000" width="1.1020000" height="1.7020000" fill="#FFFFFF" rx="0.551000" ry="0.551000" transform="rotate(-0.0)" stroke="#FFFFFF" />
</g>
<g id="ly0_b6589fc6__d9" stroke="#FFFFFF" fill="#FFFFFF">
<rect x="-0.9010000" y="-0.9010000" width="1.8020000" height="1.8020000" fill="#FFFFFF" rx="0.901000" ry="0.901000" transform="rotate(-0.0)" stroke="#FFFFFF" />
</g>
</defs>
<g mask="url(#ly0_b6589fc6__d0)" stroke="#FFFFFF" fill="#FFFFFF">
<g stroke="#FFFFFF" fill="#FFFFFF" />
<g stroke="#FFFFFF" fill="#FFFFFF" transform="translate(185.510199,4.2199996157511813372716254553580831068599489844395553141374)">
<circle cx="0" cy="0" r="0.02500" fill="#FFFFFF" stroke="#FFFFFF" />
</g>
<path d="M185.51019900,4.19499962 A2.27519900,2.27519900,0,0,1,187.78539800,6.47019862 L187.73539800,6.47019862 A2.22519900,2.22519900,0,0,0,185.51019900,4.24499962 Z" fill="#FFFFFF" stroke="#FFFFFF" />
<g stroke="#FFFFFF" fill="#FFFFFF" transform="translate(187.760398,6.4701986157511813372716254553580831068599489844395553141374)">
<circle cx="0" cy="0" r="0.02500" fill="#FFFFFF" stroke="#FFFFFF" />
</g>
<g stroke="#FFFFFF" fill="#FFFFFF" transform="translate(126.180199,4.2399996157511813372716254553580831068599489844395553141374)">
<circle cx="0" cy="0" r="0.02500" fill="#FFFFFF" stroke="#FFFFFF" />
</g>
<path d="M126.18018346,4.21499962 L126.18021454,4.26499961 L40.93901754,4.31799061 L40.93898646,4.26799062 Z" fill="#FFFFFF" stroke="#FFFFFF" />
<g stroke="#FFFFFF" fill="#FFFFFF" transform="translate(40.939002,4.2929906157511813372716254553580831068599489844395553141374)">
<circle cx="0" cy="0" r="0.02500" fill="#FFFFFF" stroke="#FFFFFF" />
</g>
<g stroke="#FFFFFF" fill="#FFFFFF" transform="translate(171.360199,78.0299996157511813372716254553580831068599489844395553141374)">
<circle cx="0" cy="0" r="0.02500" fill="#FFFFFF" stroke="#FFFFFF" />
</g>
<path d="M171.36022103,78.00499963 L171.36017697,78.05499961 L160.01017697,78.04499961 L160.01022103,77.99499963 Z" fill="#FFFFFF" stroke="#FFFFFF" />
<g stroke="#FFFFFF" fill="#FFFFFF" transform="translate(160.010199,78.0199996157511813372716254553580831068599489844395553141374)">
<circle cx="0" cy="0" r="0.02500" fill="#FFFFFF" stroke="#FFFFFF" />
</g>
<g stroke="#FFFFFF" fill="#FFFFFF" transform="translate(28.010199,77.9670086157511813372716254553580831068599489844395553141374)">
<circle cx="0" cy="0" r="0.02500" fill="#FFFFFF" stroke="#FFFFFF" />
</g>
<path d="M28.01014932,77.94200867 L28.01024868,77.99200857 L16.44024868,78.01499957 L16.44014932,77.96499967 Z" fill="#FFFFFF" stroke="#FFFFFF" />
<g stroke="#FFFFFF" fill="#FFFFFF" transform="translate(16.440199,77.9899996157511813372716254553580831068599489844395553141374)">
<circle cx="0" cy="0" r="0.02500" fill="#FFFFFF" stroke="#FFFFFF" />
</g>
<g stroke="#FFFFFF" fill="#FFFFFF" transform="translate(151.670421,77.9770086157511813372716254553580831068599489844395553141374)">
<circle cx="0" cy="0" r="0.02500" fill="#FFFFFF" stroke="#FFFFFF" />
</g>
<path d="M151.64542233,77.97675088 A4.19499962,4.19499962,0,0,1,160.03519900,78.01999962 L159.98519900,78.01999962 A4.14500000,4.14500000,0,0,0,151.69541967,77.97726636 Z" fill="#FFFFFF" stroke="#FFFFFF" />
<g stroke="#FFFFFF" fill="#FFFFFF" transform="translate(160.010199,78.0199996157511813372716254553580831068599489844395553141374)">
<circle cx="0" cy="0" r="0.02500" fill="#FFFFFF" stroke="#FFFFFF" />
</g>
<g stroke="#FFFFFF" fill="#FFFFFF" transform="translate(16.440199,77.9899996157511813372716254553580831068599489844395553141374)">
<circle cx="0" cy="0" r="0.02500" fill="#FFFFFF" stroke="#FFFFFF" />
</g>
<path d="M16.44019900,78.01499962 A2.03500000,2.03500000,0,0,1,14.40519900,75.97999962 L14.45519900,75.97999962 A1.98500000,1.98500000,0,0,0,16.44019900,77.96499962 Z" fill="#FFFFFF" stroke="#FFFFFF" />
<g stroke="#FFFFFF" fill="#FFFFFF" transform="translate(14.430199,75.9799996157511813372716254553580831068599489844395553141374)">
<circle cx="0" cy="0" r="0.02500" fill="#FFFFFF" stroke="#FFFFFF" />
</g>
<g stroke="#FFFFFF" fill="#FFFFFF" transform="translate(175.380199,56.9699996157511813372716254553580831068599489844395553141374)">
<circle cx="0" cy="0" r="0.02500" fill="#FFFFFF" stroke="#FFFFFF" />
</g>
<path d="M175.38019900,56.99499962 L175.38019900,56.94499962 L185.74019900,56.94499962 L185.74019900,56.99499962 Z" fill="#FFFFFF" stroke="#FFFFFF" />
<g stroke="#FFFFFF" fill="#FFFFFF" transform="translate(185.740199,56.9699996157511813372716254553580831068599489844395553141374)">
<circle cx="0" cy="0" r="0.02500" fill="#FFFFFF" stroke="#FFFFFF" />
</g>
<g stroke="#FFFFFF" fill="#FFFFFF" transform="translate(187.750199,54.9599996157511813372716254553580831068599489844395553141374)">
<circle cx="0" cy="0" r="0.02500" fill="#FFFFFF" stroke="#FFFFFF" />
</g>
<path d="M187.77519900,54.95999962 A2.03500000,2.03500000,0,0,1,185.74019900,56.99499962 L185.74019900,56.94499962 A1.98500000,1.98500000,0,0,0,187.72519900,54.95999962 Z" fill="#FFFFFF" stroke="#FFFFFF" />
<g stroke="#FFFFFF" fill="#FFFFFF" transform="translate(185.740199,56.9699996157511813372716254553580831068599489844395553141374)">
<circle cx="0" cy="0" r="0.02500" fill="#FFFFFF" stroke="#FFFFFF" />
</g>
<g stroke="#FFFFFF" fill="#FFFFFF" transform="translate(173.370199,76.0199996157511813372716254553580831068599489844395553141374)">
<circle cx="0" cy="0" r="0.02500" fill="#FFFFFF" stroke="#FFFFFF" />
</g>
<path d="M173.39519900,76.01999962 L173.34519900,76.01999962 L173.34519900,58.97999962 L173.39519900,58.97999962 Z" fill="#FFFFFF" stroke="#FFFFFF" />
<g stroke="#FFFFFF" fill="#FFFFFF" transform="translate(173.370199,58.9799996157511813372716254553580831068599489844395553141374)">
<circle cx="0" cy="0" r="0.02500" fill="#FFFFFF" stroke="#FFFFFF" />
</g>
<g stroke="#FFFFFF" fill="#FFFFFF" transform="translate(173.370199,58.9799996157511813372716254553580831068599489844395553141374)">
<circle cx="0" cy="0" r="0.02500" fill="#FFFFFF" stroke="#FFFFFF" />
</g>
<path d="M173.34519900,58.97999962 A2.03500000,2.03500000,0,0,1,175.38019900,56.94499962 L175.38019900,56.99499962 A1.98500000,1.98500000,0,0,0,173.39519900,58.97999962 Z" fill="#FFFFFF" stroke="#FFFFFF" />
<g stroke="#FFFFFF" fill="#FFFFFF" transform="translate(175.380199,56.9699996157511813372716254553580831068599489844395553141374)">
<circle cx="0" cy="0" r="0.02500" fill="#FFFFFF" stroke="#FFFFFF" />
</g>
<g stroke="#FFFFFF" fill="#FFFFFF" transform="translate(173.370199,76.0199996157511813372716254553580831068599489844395553141374)">
<circle cx="0" cy="0" r="0.02500" fill="#FFFFFF" stroke="#FFFFFF" />
</g>
<path d="M173.39519900,76.01999962 A2.03500000,2.03500000,0,0,1,171.36019900,78.05499962 L171.36019900,78.00499962 A1.98500000,1.98500000,0,0,0,173.34519900,76.01999962 Z" fill="#FFFFFF" stroke="#FFFFFF" />
<g stroke="#FFFFFF" fill="#FFFFFF" transform="translate(171.360199,78.0299996157511813372716254553580831068599489844395553141374)">
<circle cx="0" cy="0" r="0.02500" fill="#FFFFFF" stroke="#FFFFFF" />
</g>
<g stroke="#FFFFFF" fill="#FFFFFF" transform="translate(0.050000,6.4899996157511813372716254553580831068599489844395553141374)">
<circle cx="0" cy="0" r="0.02500" fill="#FFFFFF" stroke="#FFFFFF" />
</g>
<path d="M0.02500000,6.48999962 A2.27519900,2.27519900,0,0,1,2.30019900,4.21480062 L2.30019900,4.26480062 A2.22519900,2.22519900,0,0,0,0.07500000,6.48999962 Z" fill="#FFFFFF" stroke="#FFFFFF" />
<g stroke="#FFFFFF" fill="#FFFFFF" transform="translate(2.300199,4.2398006157511813372716254553580831068599489844395553141374)">
<circle cx="0" cy="0" r="0.02500" fill="#FFFFFF" stroke="#FFFFFF" />
</g>
<g stroke="#FFFFFF" fill="#FFFFFF" transform="translate(0.050199,54.9599996157511813372716254553580831068599489844395553141374)">
<circle cx="0" cy="0" r="0.05000" fill="#FFFFFF" stroke="#FFFFFF" />
</g>
<path d="M0.10019900,54.95999941 L0.00019900,54.95999982 L0.00000000,6.48999982 L0.10000000,6.48999941 Z" fill="#FFFFFF" stroke="#FFFFFF" />
<g stroke="#FFFFFF" fill="#FFFFFF" transform="translate(0.050000,6.4899996157511813372716254553580831068599489844395553141374)">
<circle cx="0" cy="0" r="0.05000" fill="#FFFFFF" stroke="#FFFFFF" />
</g>
<g stroke="#FFFFFF" fill="#FFFFFF" transform="translate(12.420199,56.9699996157511813372716254553580831068599489844395553141374)">
<circle cx="0" cy="0" r="0.02500" fill="#FFFFFF" stroke="#FFFFFF" />
</g>
<path d="M12.42019900,56.94499962 A2.03500000,2.03500000,0,0,1,14.45519900,58.97999962 L14.40519900,58.97999962 A1.98500000,1.98500000,0,0,0,12.42019900,56.99499962 Z" fill="#FFFFFF" stroke="#FFFFFF" />
<g stroke="#FFFFFF" fill="#FFFFFF" transform="translate(14.430199,58.9799996157511813372716254553580831068599489844395553141374)">
<circle cx="0" cy="0" r="0.02500" fill="#FFFFFF" stroke="#FFFFFF" />
</g>
<g stroke="#FFFFFF" fill="#FFFFFF" transform="translate(155.249977,4.2629906157511813372716254553580831068599489844395553141374)">
<circle cx="0" cy="0" r="0.02500" fill="#FFFFFF" stroke="#FFFFFF" />
</g>
<path d="M155.27497567,4.26324836 A4.19499962,4.19499962,0,0,1,146.88519900,4.21999962 L146.93519900,4.21999962 A4.14500000,4.14500000,0,0,0,155.22497833,4.26273288 Z" fill="#FFFFFF" stroke="#FFFFFF" />
<g stroke="#FFFFFF" fill="#FFFFFF" transform="translate(146.910199,4.2199996157511813372716254553580831068599489844395553141374)">
<circle cx="0" cy="0" r="0.02500" fill="#FFFFFF" stroke="#FFFFFF" />
</g>
<g stroke="#FFFFFF" fill="#FFFFFF" transform="translate(2.300199,4.2398006157511813372716254553580831068599489844395553141374)">
<circle cx="0" cy="0" r="0.02500" fill="#FFFFFF" stroke="#FFFFFF" />
</g>
<path d="M2.30019058,4.26480061 L2.30020742,4.21480062 L32.59923242,4.22499962 L32.59921558,4.27499961 Z" fill="#FFFFFF" stroke="#FFFFFF" />
<g stroke="#FFFFFF" fill="#FFFFFF" transform="translate(32.599224,4.2499996157511813372716254553580831068599489844395553141374)">
<circle cx="0" cy="0" r="0.02500" fill="#FFFFFF" stroke="#FFFFFF" />
</g>
<g stroke="#FFFFFF" fill="#FFFFFF" transform="translate(28.010199,77.9670086157511813372716254553580831068599489844395553141374)">
<circle cx="0" cy="0" r="0.02500" fill="#FFFFFF" stroke="#FFFFFF" />
</g>
<path d="M27.98520033,77.96675088 A4.19499962,4.19499962,0,0,1,36.37497700,78.00999962 L36.32497700,78.00999962 A4.14500000,4.14500000,0,0,0,28.03519767,77.96726636 Z" fill="#FFFFFF" stroke="#FFFFFF" />
<g stroke="#FFFFFF" fill="#FFFFFF" transform="translate(36.349977,78.0099996157511813372716254553580831068599489844395553141374)">
<circle cx="0" cy="0" r="0.02500" fill="#FFFFFF" stroke="#FFFFFF" />
</g>
<g stroke="#FFFFFF" fill="#FFFFFF" transform="translate(187.760398,6.4701986157511813372716254553580831068599489844395553141374)">
<circle cx="0" cy="0" r="0.05000" fill="#FFFFFF" stroke="#FFFFFF" />
</g>
<path d="M187.71039800,6.47018810 L187.81039800,6.47020913 L187.80019900,54.96001013 L187.70019900,54.95998910 Z" fill="#FFFFFF" stroke="#FFFFFF" />
<g stroke="#FFFFFF" fill="#FFFFFF" transform="translate(187.750199,54.9599996157511813372716254553580831068599489844395553141374)">
<circle cx="0" cy="0" r="0.05000" fill="#FFFFFF" stroke="#FFFFFF" />
</g>
<g stroke="#FFFFFF" fill="#FFFFFF" transform="translate(2.060199,56.9699996157511813372716254553580831068599489844395553141374)">
<circle cx="0" cy="0" r="0.02500" fill="#FFFFFF" stroke="#FFFFFF" />
</g>
<path d="M2.06019900,56.99499962 A2.03500000,2.03500000,0,0,1,0.02519900,54.95999962 L0.07519900,54.95999962 A1.98500000,1.98500000,0,0,0,2.06019900,56.94499962 Z" fill="#FFFFFF" stroke="#FFFFFF" />
<g stroke="#FFFFFF" fill="#FFFFFF" transform="translate(0.050199,54.9599996157511813372716254553580831068599489844395553141374)">
<circle cx="0" cy="0" r="0.02500" fill="#FFFFFF" stroke="#FFFFFF" />
</g>
<g stroke="#FFFFFF" fill="#FFFFFF" transform="translate(126.180199,4.2399996157511813372716254553580831068599489844395553141374)">
<circle cx="0" cy="0" r="0.02500" fill="#FFFFFF" stroke="#FFFFFF" />
</g>
<path d="M126.20519900,4.23999962 L126.15519900,4.23999962 L126.15519900,1.57999962 L126.20519900,1.57999962 Z" fill="#FFFFFF" stroke="#FFFFFF" />
<g stroke="#FFFFFF" fill="#FFFFFF" transform="translate(126.180199,1.5799996157511813372716254553580831068599489844395553141374)">
<circle cx="0" cy="0" r="0.02500" fill="#FFFFFF" stroke="#FFFFFF" />
</g>
<g stroke="#FFFFFF" fill="#FFFFFF" transform="translate(185.510199,4.2199996157511813372716254553580831068599489844395553141374)">
<circle cx="0" cy="0" r="0.02500" fill="#FFFFFF" stroke="#FFFFFF" />
</g>
<path d="M185.51016348,4.19499964 L185.51023452,4.24499959 L155.25001252,4.28799059 L155.24994148,4.23799064 Z" fill="#FFFFFF" stroke="#FFFFFF" />
<g stroke="#FFFFFF" fill="#FFFFFF" transform="translate(155.249977,4.2629906157511813372716254553580831068599489844395553141374)">
<circle cx="0" cy="0" r="0.02500" fill="#FFFFFF" stroke="#FFFFFF" />
</g>
<g stroke="#FFFFFF" fill="#FFFFFF" transform="translate(151.670421,77.9770086157511813372716254553580831068599489844395553141374)">
<circle cx="0" cy="0" r="0.05000" fill="#FFFFFF" stroke="#FFFFFF" />
</g>
<path d="M151.67040670,77.92700862 L151.67043530,78.02700861 L36.34999130,78.05999961 L36.34996270,77.95999962 Z" fill="#FFFFFF" stroke="#FFFFFF" />
<g stroke="#FFFFFF" fill="#FFFFFF" transform="translate(36.349977,78.0099996157511813372716254553580831068599489844395553141374)">
<circle cx="0" cy="0" r="0.05000" fill="#FFFFFF" stroke="#FFFFFF" />
</g>
<g stroke="#FFFFFF" fill="#FFFFFF" transform="translate(12.420199,56.9699996157511813372716254553580831068599489844395553141374)">
<circle cx="0" cy="0" r="0.02500" fill="#FFFFFF" stroke="#FFFFFF" />
</g>
<path d="M12.42019900,56.94499962 L12.42019900,56.99499962 L2.06019900,56.99499962 L2.06019900,56.94499962 Z" fill="#FFFFFF" stroke="#FFFFFF" />
<g stroke="#FFFFFF" fill="#FFFFFF" transform="translate(2.060199,56.9699996157511813372716254553580831068599489844395553141374)">
<circle cx="0" cy="0" r="0.02500" fill="#FFFFFF" stroke="#FFFFFF" />
</g>
<g stroke="#FFFFFF" fill="#FFFFFF" transform="translate(126.180199,1.5799996157511813372716254553580831068599489844395553141374)">
<circle cx="0" cy="0" r="0.02500" fill="#FFFFFF" stroke="#FFFFFF" />
</g>
<path d="M126.18019900,1.60499962 L126.18019900,1.55499962 L137.27019900,1.55499962 L137.27019900,1.60499962 Z" fill="#FFFFFF" stroke="#FFFFFF" />
<g stroke="#FFFFFF" fill="#FFFFFF" transform="translate(137.270199,1.5799996157511813372716254553580831068599489844395553141374)">
<circle cx="0" cy="0" r="0.02500" fill="#FFFFFF" stroke="#FFFFFF" />
</g>
<g stroke="#FFFFFF" fill="#FFFFFF" transform="translate(40.939002,4.2929906157511813372716254553580831068599489844395553141374)">
<circle cx="0" cy="0" r="0.02500" fill="#FFFFFF" stroke="#FFFFFF" />
</g>
<path d="M40.96400067,4.29324836 A4.19499962,4.19499962,0,0,1,32.57422400,4.24999962 L32.62422400,4.24999962 A4.14500000,4.14500000,0,0,0,40.91400333,4.29273288 Z" fill="#FFFFFF" stroke="#FFFFFF" />
<g stroke="#FFFFFF" fill="#FFFFFF" transform="translate(32.599224,4.2499996157511813372716254553580831068599489844395553141374)">
<circle cx="0" cy="0" r="0.02500" fill="#FFFFFF" stroke="#FFFFFF" />
</g>
<g stroke="#FFFFFF" fill="#FFFFFF" transform="translate(14.430199,75.9799996157511813372716254553580831068599489844395553141374)">
<circle cx="0" cy="0" r="0.02500" fill="#FFFFFF" stroke="#FFFFFF" />
</g>
<path d="M14.45519900,75.97999962 L14.40519900,75.97999962 L14.40519900,58.97999962 L14.45519900,58.97999962 Z" fill="#FFFFFF" stroke="#FFFFFF" />
<g stroke="#FFFFFF" fill="#FFFFFF" transform="translate(14.430199,58.9799996157511813372716254553580831068599489844395553141374)">
<circle cx="0" cy="0" r="0.02500" fill="#FFFFFF" stroke="#FFFFFF" />
</g>
<g stroke="#FFFFFF" fill="#FFFFFF" transform="translate(137.270199,1.5799996157511813372716254553580831068599489844395553141374)">
<circle cx="0" cy="0" r="0.02500" fill="#FFFFFF" stroke="#FFFFFF" />
</g>
<path d="M137.24519900,1.57999962 L137.29519900,1.57999962 L137.29519900,4.23999962 L137.24519900,4.23999962 Z" fill="#FFFFFF" stroke="#FFFFFF" />
<g stroke="#FFFFFF" fill="#FFFFFF" transform="translate(137.270199,4.2399996157511813372716254553580831068599489844395553141374)">
<circle cx="0" cy="0" r="0.02500" fill="#FFFFFF" stroke="#FFFFFF" />
</g>
<g stroke="#FFFFFF" fill="#FFFFFF" transform="translate(137.270199,4.2399996157511813372716254553580831068599489844395553141374)">
<circle cx="0" cy="0" r="0.02500" fill="#FFFFFF" stroke="#FFFFFF" />
</g>
<path d="M137.27025087,4.26499956 L137.27014713,4.21499967 L146.91014713,4.19499967 L146.91025087,4.24499956 Z" fill="#FFFFFF" stroke="#FFFFFF" />
<g stroke="#FFFFFF" fill="#FFFFFF" transform="translate(146.910199,4.2199996157511813372716254553580831068599489844395553141374)">
<circle cx="0" cy="0" r="0.02500" fill="#FFFFFF" stroke="#FFFFFF" />
</g>
<g stroke="#FFFFFF" fill="#FFFFFF" transform="translate(185.510199,4.2199996157511813372716254553580831068599489844395553141374)">
<circle cx="0" cy="0" r="0.02500" fill="#FFFFFF" stroke="#FFFFFF" />
</g>
<path d="M185.51019900,4.19499962 A2.27519900,2.27519900,0,0,1,187.78539800,6.47019862 L187.73539800,6.47019862 A2.22519900,2.22519900,0,0,0,185.51019900,4.24499962 Z" fill="#FFFFFF" stroke="#FFFFFF" />
<g stroke="#FFFFFF" fill="#FFFFFF" transform="translate(187.760398,6.4701986157511813372716254553580831068599489844395553141374)">
<circle cx="0" cy="0" r="0.02500" fill="#FFFFFF" stroke="#FFFFFF" />
</g>
<g stroke="#FFFFFF" fill="#FFFFFF" transform="translate(126.180199,4.2399996157511813372716254553580831068599489844395553141374)">
<circle cx="0" cy="0" r="0.02500" fill="#FFFFFF" stroke="#FFFFFF" />
</g>
<path d="M126.18018346,4.21499962 L126.18021454,4.26499961 L40.93901754,4.31799061 L40.93898646,4.26799062 Z" fill="#FFFFFF" stroke="#FFFFFF" />
<g stroke="#FFFFFF" fill="#FFFFFF" transform="translate(40.939002,4.2929906157511813372716254553580831068599489844395553141374)">
<circle cx="0" cy="0" r="0.02500" fill="#FFFFFF" stroke="#FFFFFF" />
</g>
<g stroke="#FFFFFF" fill="#FFFFFF" transform="translate(171.360199,78.0299996157511813372716254553580831068599489844395553141374)">
<circle cx="0" cy="0" r="0.02500" fill="#FFFFFF" stroke="#FFFFFF" />
</g>
<path d="M171.36022103,78.00499963 L171.36017697,78.05499961 L160.01017697,78.04499961 L160.01022103,77.99499963 Z" fill="#FFFFFF" stroke="#FFFFFF" />
<g stroke="#FFFFFF" fill="#FFFFFF" transform="translate(160.010199,78.0199996157511813372716254553580831068599489844395553141374)">
<circle cx="0" cy="0" r="0.02500" fill="#FFFFFF" stroke="#FFFFFF" />
</g>
<g stroke="#FFFFFF" fill="#FFFFFF" transform="translate(28.010199,77.9670086157511813372716254553580831068599489844395553141374)">
<circle cx="0" cy="0" r="0.02500" fill="#FFFFFF" stroke="#FFFFFF" />
</g>
<path d="M28.01014932,77.94200867 L28.01024868,77.99200857 L16.44024868,78.01499957 L16.44014932,77.96499967 Z" fill="#FFFFFF" stroke="#FFFFFF" />
<g stroke="#FFFFFF" fill="#FFFFFF" transform="translate(16.440199,77.9899996157511813372716254553580831068599489844395553141374)">
<circle cx="0" cy="0" r="0.02500" fill="#FFFFFF" stroke="#FFFFFF" />
</g>
<g stroke="#FFFFFF" fill="#FFFFFF" transform="translate(151.670421,77.9770086157511813372716254553580831068599489844395553141374)">
<circle cx="0" cy="0" r="0.02500" fill="#FFFFFF" stroke="#FFFFFF" />
</g>
<path d="M151.64542233,77.97675088 A4.19499962,4.19499962,0,0,1,160.03519900,78.01999962 L159.98519900,78.01999962 A4.14500000,4.14500000,0,0,0,151.69541967,77.97726636 Z" fill="#FFFFFF" stroke="#FFFFFF" />
<g stroke="#FFFFFF" fill="#FFFFFF" transform="translate(160.010199,78.0199996157511813372716254553580831068599489844395553141374)">
<circle cx="0" cy="0" r="0.02500" fill="#FFFFFF" stroke="#FFFFFF" />
</g>
<g stroke="#FFFFFF" fill="#FFFFFF" transform="translate(16.440199,77.9899996157511813372716254553580831068599489844395553141374)">
<circle cx="0" cy="0" r="0.02500" fill="#FFFFFF" stroke="#FFFFFF" />
</g>
<path d="M16.44019900,78.01499962 A2.03500000,2.03500000,0,0,1,14.40519900,75.97999962 L14.45519900,75.97999962 A1.98500000,1.98500000,0,0,0,16.44019900,77.96499962 Z" fill="#FFFFFF" stroke="#FFFFFF" />
<g stroke="#FFFFFF" fill="#FFFFFF" transform="translate(14.430199,75.9799996157511813372716254553580831068599489844395553141374)">
<circle cx="0" cy="0" r="0.02500" fill="#FFFFFF" stroke="#FFFFFF" />
</g>
<g stroke="#FFFFFF" fill="#FFFFFF" transform="translate(175.380199,56.9699996157511813372716254553580831068599489844395553141374)">
<circle cx="0" cy="0" r="0.02500" fill="#FFFFFF" stroke="#FFFFFF" />
</g>
<path d="M175.38019900,56.99499962 L175.38019900,56.94499962 L185.74019900,56.94499962 L185.74019900,56.99499962 Z" fill="#FFFFFF" stroke="#FFFFFF" />
<g stroke="#FFFFFF" fill="#FFFFFF" transform="translate(185.740199,56.9699996157511813372716254553580831068599489844395553141374)">
<circle cx="0" cy="0" r="0.02500" fill="#FFFFFF" stroke="#FFFFFF" />
</g>
<g stroke="#FFFFFF" fill="#FFFFFF" transform="translate(187.750199,54.9599996157511813372716254553580831068599489844395553141374)">
<circle cx="0" cy="0" r="0.02500" fill="#FFFFFF" stroke="#FFFFFF" />
</g>
<path d="M187.77519900,54.95999962 A2.03500000,2.03500000,0,0,1,185.74019900,56.99499962 L185.74019900,56.94499962 A1.98500000,1.98500000,0,0,0,187.72519900,54.95999962 Z" fill="#FFFFFF" stroke="#FFFFFF" />
<g stroke="#FFFFFF" fill="#FFFFFF" transform="translate(185.740199,56.9699996157511813372716254553580831068599489844395553141374)">
<circle cx="0" cy="0" r="0.02500" fill="#FFFFFF" stroke="#FFFFFF" />
</g>
<g stroke="#FFFFFF" fill="#FFFFFF" transform="translate(173.370199,76.0199996157511813372716254553580831068599489844395553141374)">
<circle cx="0" cy="0" r="0.02500" fill="#FFFFFF" stroke="#FFFFFF" />
</g>
<path d="M173.39519900,76.01999962 L173.34519900,76.01999962 L173.34519900,58.97999962 L173.39519900,58.97999962 Z" fill="#FFFFFF" stroke="#FFFFFF" />
<g stroke="#FFFFFF" fill="#FFFFFF" transform="translate(173.370199,58.9799996157511813372716254553580831068599489844395553141374)">
<circle cx="0" cy="0" r="0.02500" fill="#FFFFFF" stroke="#FFFFFF" />
</g>
<g stroke="#FFFFFF" fill="#FFFFFF" transform="translate(173.370199,58.9799996157511813372716254553580831068599489844395553141374)">
<circle cx="0" cy="0" r="0.02500" fill="#FFFFFF" stroke="#FFFFFF" />
</g>
<path d="M173.34519900,58.97999962 A2.03500000,2.03500000,0,0,1,175.38019900,56.94499962 L175.38019900,56.99499962 A1.98500000,1.98500000,0,0,0,173.39519900,58.97999962 Z" fill="#FFFFFF" stroke="#FFFFFF" />
<g stroke="#FFFFFF" fill="#FFFFFF" transform="translate(175.380199,56.9699996157511813372716254553580831068599489844395553141374)">
<circle cx="0" cy="0" r="0.02500" fill="#FFFFFF" stroke="#FFFFFF" />
</g>
<g stroke="#FFFFFF" fill="#FFFFFF" transform="translate(173.370199,76.0199996157511813372716254553580831068599489844395553141374)">
<circle cx="0" cy="0" r="0.02500" fill="#FFFFFF" stroke="#FFFFFF" />
</g>
<path d="M173.39519900,76.01999962 A2.03500000,2.03500000,0,0,1,171.36019900,78.05499962 L171.36019900,78.00499962 A1.98500000,1.98500000,0,0,0,173.34519900,76.01999962 Z" fill="#FFFFFF" stroke="#FFFFFF" />
<g stroke="#FFFFFF" fill="#FFFFFF" transform="translate(171.360199,78.0299996157511813372716254553580831068599489844395553141374)">
<circle cx="0" cy="0" r="0.02500" fill="#FFFFFF" stroke="#FFFFFF" />
</g>
<g stroke="#FFFFFF" fill="#FFFFFF" transform="translate(0.050000,6.4899996157511813372716254553580831068599489844395553141374)">
<circle cx="0" cy="0" r="0.02500" fill="#FFFFFF" stroke="#FFFFFF" />
</g>
<path d="M0.02500000,6.48999962 A2.27519900,2.27519900,0,0,1,2.30019900,4.21480062 L2.30019900,4.26480062 A2.22519900,2.22519900,0,0,0,0.07500000,6.48999962 Z" fill="#FFFFFF" stroke="#FFFFFF" />
<g stroke="#FFFFFF" fill="#FFFFFF" transform="translate(2.300199,4.2398006157511813372716254553580831068599489844395553141374)">
<circle cx="0" cy="0" r="0.02500" fill="#FFFFFF" stroke="#FFFFFF" />
</g>
<g stroke="#FFFFFF" fill="#FFFFFF" transform="translate(0.050199,54.9599996157511813372716254553580831068599489844395553141374)">
<circle cx="0" cy="0" r="0.05000" fill="#FFFFFF" stroke="#FFFFFF" />
</g>
<path d="M0.10019900,54.95999941 L0.00019900,54.95999982 L0.00000000,6.48999982 L0.10000000,6.48999941 Z" fill="#FFFFFF" stroke="#FFFFFF" />
<g stroke="#FFFFFF" fill="#FFFFFF" transform="translate(0.050000,6.4899996157511813372716254553580831068599489844395553141374)">
<circle cx="0" cy="0" r="0.05000" fill="#FFFFFF" stroke="#FFFFFF" />
</g>
<g stroke="#FFFFFF" fill="#FFFFFF" transform="translate(12.420199,56.9699996157511813372716254553580831068599489844395553141374)">
<circle cx="0" cy="0" r="0.02500" fill="#FFFFFF" stroke="#FFFFFF" />
</g>
<path d="M12.42019900,56.94499962 A2.03500000,2.03500000,0,0,1,14.45519900,58.97999962 L14.40519900,58.97999962 A1.98500000,1.98500000,0,0,0,12.42019900,56.99499962 Z" fill="#FFFFFF" stroke="#FFFFFF" />
<g stroke="#FFFFFF" fill="#FFFFFF" transform="translate(14.430199,58.9799996157511813372716254553580831068599489844395553141374)">
<circle cx="0" cy="0" r="0.02500" fill="#FFFFFF" stroke="#FFFFFF" />
</g>
<g stroke="#FFFFFF" fill="#FFFFFF" transform="translate(155.249977,4.2629906157511813372716254553580831068599489844395553141374)">
<circle cx="0" cy="0" r="0.02500" fill="#FFFFFF" stroke="#FFFFFF" />
</g>
<path d="M155.27497567,4.26324836 A4.19499962,4.19499962,0,0,1,146.88519900,4.21999962 L146.93519900,4.21999962 A4.14500000,4.14500000,0,0,0,155.22497833,4.26273288 Z" fill="#FFFFFF" stroke="#FFFFFF" />
<g stroke="#FFFFFF" fill="#FFFFFF" transform="translate(146.910199,4.2199996157511813372716254553580831068599489844395553141374)">
<circle cx="0" cy="0" r="0.02500" fill="#FFFFFF" stroke="#FFFFFF" />
</g>
<g stroke="#FFFFFF" fill="#FFFFFF" transform="translate(2.300199,4.2398006157511813372716254553580831068599489844395553141374)">
<circle cx="0" cy="0" r="0.02500" fill="#FFFFFF" stroke="#FFFFFF" />
</g>
<path d="M2.30019058,4.26480061 L2.30020742,4.21480062 L32.59923242,4.22499962 L32.59921558,4.27499961 Z" fill="#FFFFFF" stroke="#FFFFFF" />
<g stroke="#FFFFFF" fill="#FFFFFF" transform="translate(32.599224,4.2499996157511813372716254553580831068599489844395553141374)">
<circle cx="0" cy="0" r="0.02500" fill="#FFFFFF" stroke="#FFFFFF" />
</g>
<g stroke="#FFFFFF" fill="#FFFFFF" transform="translate(28.010199,77.9670086157511813372716254553580831068599489844395553141374)">
<circle cx="0" cy="0" r="0.02500" fill="#FFFFFF" stroke="#FFFFFF" />
</g>
<path d="M27.98520033,77.96675088 A4.19499962,4.19499962,0,0,1,36.37497700,78.00999962 L36.32497700,78.00999962 A4.14500000,4.14500000,0,0,0,28.03519767,77.96726636 Z" fill="#FFFFFF" stroke="#FFFFFF" />
<g stroke="#FFFFFF" fill="#FFFFFF" transform="translate(36.349977,78.0099996157511813372716254553580831068599489844395553141374)">
<circle cx="0" cy="0" r="0.02500" fill="#FFFFFF" stroke="#FFFFFF" />
</g>
<g stroke="#FFFFFF" fill="#FFFFFF" transform="translate(187.760398,6.4701986157511813372716254553580831068599489844395553141374)">
<circle cx="0" cy="0" r="0.05000" fill="#FFFFFF" stroke="#FFFFFF" />
</g>
<path d="M187.71039800,6.47018810 L187.81039800,6.47020913 L187.80019900,54.96001013 L187.70019900,54.95998910 Z" fill="#FFFFFF" stroke="#FFFFFF" />
<g stroke="#FFFFFF" fill="#FFFFFF" transform="translate(187.750199,54.9599996157511813372716254553580831068599489844395553141374)">
<circle cx="0" cy="0" r="0.05000" fill="#FFFFFF" stroke="#FFFFFF" />
</g>
<g stroke="#FFFFFF" fill="#FFFFFF" transform="translate(2.060199,56.9699996157511813372716254553580831068599489844395553141374)">
<circle cx="0" cy="0" r="0.02500" fill="#FFFFFF" stroke="#FFFFFF" />
</g>
<path d="M2.06019900,56.99499962 A2.03500000,2.03500000,0,0,1,0.02519900,54.95999962 L0.07519900,54.95999962 A1.98500000,1.98500000,0,0,0,2.06019900,56.94499962 Z" fill="#FFFFFF" stroke="#FFFFFF" />
<g stroke="#FFFFFF" fill="#FFFFFF" transform="translate(0.050199,54.9599996157511813372716254553580831068599489844395553141374)">
<circle cx="0" cy="0" r="0.02500" fill="#FFFFFF" stroke="#FFFFFF" />
</g>
<g stroke="#FFFFFF" fill="#FFFFFF" transform="translate(126.180199,4.2399996157511813372716254553580831068599489844395553141374)">
<circle cx="0" cy="0" r="0.02500" fill="#FFFFFF" stroke="#FFFFFF" />
</g>
<path d="M126.20519900,4.23999962 L126.15519900,4.23999962 L126.15519900,1.57999962 L126.20519900,1.57999962 Z" fill="#FFFFFF" stroke="#FFFFFF" />
<g stroke="#FFFFFF" fill="#FFFFFF" transform="translate(126.180199,1.5799996157511813372716254553580831068599489844395553141374)">
<circle cx="0" cy="0" r="0.02500" fill="#FFFFFF" stroke="#FFFFFF" />
</g>
<g stroke="#FFFFFF" fill="#FFFFFF" transform="translate(185.510199,4.2199996157511813372716254553580831068599489844395553141374)">
<circle cx="0" cy="0" r="0.02500" fill="#FFFFFF" stroke="#FFFFFF" />
</g>
<path d="M185.51016348,4.19499964 L185.51023452,4.24499959 L155.25001252,4.28799059 L155.24994148,4.23799064 Z" fill="#FFFFFF" stroke="#FFFFFF" />
<g stroke="#FFFFFF" fill="#FFFFFF" transform="translate(155.249977,4.2629906157511813372716254553580831068599489844395553141374)">
<circle cx="0" cy="0" r="0.02500" fill="#FFFFFF" stroke="#FFFFFF" />
</g>
<g stroke="#FFFFFF" fill="#FFFFFF" transform="translate(151.670421,77.9770086157511813372716254553580831068599489844395553141374)">
<circle cx="0" cy="0" r="0.05000" fill="#FFFFFF" stroke="#FFFFFF" />
</g>
<path d="M151.67040670,77.92700862 L151.67043530,78.02700861 L36.34999130,78.05999961 L36.34996270,77.95999962 Z" fill="#FFFFFF" stroke="#FFFFFF" />
<g stroke="#FFFFFF" fill="#FFFFFF" transform="translate(36.349977,78.0099996157511813372716254553580831068599489844395553141374)">
<circle cx="0" cy="0" r="0.05000" fill="#FFFFFF" stroke="#FFFFFF" />
</g>
<g stroke="#FFFFFF" fill="#FFFFFF" transform="translate(12.420199,56.9699996157511813372716254553580831068599489844395553141374)">
<circle cx="0" cy="0" r="0.02500" fill="#FFFFFF" stroke="#FFFFFF" />
</g>
<path d="M12.42019900,56.94499962 L12.42019900,56.99499962 L2.06019900,56.99499962 L2.06019900,56.94499962 Z" fill="#FFFFFF" stroke="#FFFFFF" />
<g stroke="#FFFFFF" fill="#FFFFFF" transform="translate(2.060199,56.9699996157511813372716254553580831068599489844395553141374)">
<circle cx="0" cy="0" r="0.02500" fill="#FFFFFF" stroke="#FFFFFF" />
</g>
<g stroke="#FFFFFF" fill="#FFFFFF" transform="translate(126.180199,1.5799996157511813372716254553580831068599489844395553141374)">
<circle cx="0" cy="0" r="0.02500" fill="#FFFFFF" stroke="#FFFFFF" />
</g>
<path d="M126.18019900,1.60499962 L126.18019900,1.55499962 L137.27019900,1.55499962 L137.27019900,1.60499962 Z" fill="#FFFFFF" stroke="#FFFFFF" />
<g stroke="#FFFFFF" fill="#FFFFFF" transform="translate(137.270199,1.5799996157511813372716254553580831068599489844395553141374)">
<circle cx="0" cy="0" r="0.02500" fill="#FFFFFF" stroke="#FFFFFF" />
</g>
<g stroke="#FFFFFF" fill="#FFFFFF" transform="translate(40.939002,4.2929906157511813372716254553580831068599489844395553141374)">
<circle cx="0" cy="0" r="0.02500" fill="#FFFFFF" stroke="#FFFFFF" />
</g>
<path d="M40.96400067,4.29324836 A4.19499962,4.19499962,0,0,1,32.57422400,4.24999962 L32.62422400,4.24999962 A4.14500000,4.14500000,0,0,0,40.91400333,4.29273288 Z" fill="#FFFFFF" stroke="#FFFFFF" />
<g stroke="#FFFFFF" fill="#FFFFFF" transform="translate(32.599224,4.2499996157511813372716254553580831068599489844395553141374)">
<circle cx="0" cy="0" r="0.02500" fill="#FFFFFF" stroke="#FFFFFF" />
</g>
<g stroke="#FFFFFF" fill="#FFFFFF" transform="translate(14.430199,75.9799996157511813372716254553580831068599489844395553141374)">
<circle cx="0" cy="0" r="0.02500" fill="#FFFFFF" stroke="#FFFFFF" />
</g>
<path d="M14.45519900,75.97999962 L14.40519900,75.97999962 L14.40519900,58.97999962 L14.45519900,58.97999962 Z" fill="#FFFFFF" stroke="#FFFFFF" />
<g stroke="#FFFFFF" fill="#FFFFFF" transform="translate(14.430199,58.9799996157511813372716254553580831068599489844395553141374)">
<circle cx="0" cy="0" r="0.02500" fill="#FFFFFF" stroke="#FFFFFF" />
</g>
<g stroke="#FFFFFF" fill="#FFFFFF" transform="translate(137.270199,1.5799996157511813372716254553580831068599489844395553141374)">
<circle cx="0" cy="0" r="0.02500" fill="#FFFFFF" stroke="#FFFFFF" />
</g>
<path d="M137.24519900,1.57999962 L137.29519900,1.57999962 L137.29519900,4.23999962 L137.24519900,4.23999962 Z" fill="#FFFFFF" stroke="#FFFFFF" />
<g stroke="#FFFFFF" fill="#FFFFFF" transform="translate(137.270199,4.2399996157511813372716254553580831068599489844395553141374)">
<circle cx="0" cy="0" r="0.02500" fill="#FFFFFF" stroke="#FFFFFF" />
</g>
<g stroke="#FFFFFF" fill="#FFFFFF" transform="translate(137.270199,4.2399996157511813372716254553580831068599489844395553141374)">
<circle cx="0" cy="0" r="0.02500" fill="#FFFFFF" stroke="#FFFFFF" />
</g>
<path d="M137.27025087,4.26499956 L137.27014713,4.21499967 L146.91014713,4.19499967 L146.91025087,4.24499956 Z" fill="#FFFFFF" stroke="#FFFFFF" />
<g stroke="#FFFFFF" fill="#FFFFFF" transform="translate(146.910199,4.2199996157511813372716254553580831068599489844395553141374)">
<circle cx="0" cy="0" r="0.02500" fill="#FFFFFF" stroke="#FFFFFF" />
</g>
<g stroke="#FFFFFF" fill="#FFFFFF" transform="translate(117.420199,30.8699996157511813372716254553580831068599489844395553141374)">
<circle cx="0" cy="0" r="0.92600" fill="#FFFFFF" stroke="#FFFFFF" />
</g>
<g stroke="#FFFFFF" fill="#FFFFFF" transform="translate(127.580199,30.8699996157511813372716254553580831068599489844395553141374)">
<circle cx="0" cy="0" r="0.92600" fill="#FFFFFF" stroke="#FFFFFF" />
</g>
<g stroke="#FFFFFF" fill="#FFFFFF" transform="translate(122.500199,30.8699996157511813372716254553580831068599489844395553141374)">
<circle cx="0" cy="0" r="2.04490" fill="#FFFFFF" stroke="#FFFFFF" />
</g>
<g stroke="#FFFFFF" fill="#FFFFFF" transform="translate(160.600199,11.8199996157511813372716254553580831068599489844395553141374)">
<circle cx="0" cy="0" r="2.04490" fill="#FFFFFF" stroke="#FFFFFF" />
</g>
<g stroke="#FFFFFF" fill="#FFFFFF" transform="translate(155.520199,11.8199996157511813372716254553580831068599489844395553141374)">
<circle cx="0" cy="0" r="0.92600" fill="#FFFFFF" stroke="#FFFFFF" />
</g>
<g stroke="#FFFFFF" fill="#FFFFFF" transform="translate(165.680199,11.8199996157511813372716254553580831068599489844395553141374)">
<circle cx="0" cy="0" r="0.92600" fill="#FFFFFF" stroke="#FFFFFF" />
</g>
<g stroke="#FFFFFF" fill="#FFFFFF" transform="translate(136.470199,49.9199996157511813372716254553580831068599489844395553141374)">
<circle cx="0" cy="0" r="0.92600" fill="#FFFFFF" stroke="#FFFFFF" />
</g>
<g stroke="#FFFFFF" fill="#FFFFFF" transform="translate(141.550199,49.9199996157511813372716254553580831068599489844395553141374)">
<circle cx="0" cy="0" r="2.04490" fill="#FFFFFF" stroke="#FFFFFF" />
</g>
<g stroke="#FFFFFF" fill="#FFFFFF" transform="translate(146.630199,49.9199996157511813372716254553580831068599489844395553141374)">
<circle cx="0" cy="0" r="0.92600" fill="#FFFFFF" stroke="#FFFFFF" />
</g>
<g stroke="#FFFFFF" fill="#FFFFFF" transform="translate(108.530199,30.8699996157511813372716254553580831068599489844395553141374)">
<circle cx="0" cy="0" r="0.92600" fill="#FFFFFF" stroke="#FFFFFF" />
</g>
<g stroke="#FFFFFF" fill="#FFFFFF" transform="translate(103.450199,30.8699996157511813372716254553580831068599489844395553141374)">
<circle cx="0" cy="0" r="2.04490" fill="#FFFFFF" stroke="#FFFFFF" />
</g>
<g stroke="#FFFFFF" fill="#FFFFFF" transform="translate(98.370199,30.8699996157511813372716254553580831068599489844395553141374)">
<circle cx="0" cy="0" r="0.92600" fill="#FFFFFF" stroke="#FFFFFF" />
</g>
<g stroke="#FFFFFF" fill="#FFFFFF" transform="translate(122.500199,11.8199996157511813372716254553580831068599489844395553141374)">
<circle cx="0" cy="0" r="2.04490" fill="#FFFFFF" stroke="#FFFFFF" />
</g>
<g stroke="#FFFFFF" fill="#FFFFFF" transform="translate(117.420199,11.8199996157511813372716254553580831068599489844395553141374)">
<circle cx="0" cy="0" r="0.92600" fill="#FFFFFF" stroke="#FFFFFF" />
</g>
<g stroke="#FFFFFF" fill="#FFFFFF" transform="translate(127.580199,11.8199996157511813372716254553580831068599489844395553141374)">
<circle cx="0" cy="0" r="0.92600" fill="#FFFFFF" stroke="#FFFFFF" />
</g>
<g stroke="#FFFFFF" fill="#FFFFFF" transform="translate(70.430199,49.9199996157511813372716254553580831068599489844395553141374)">
<circle cx="0" cy="0" r="0.92600" fill="#FFFFFF" stroke="#FFFFFF" />
</g>
<g stroke="#FFFFFF" fill="#FFFFFF" transform="translate(65.350199,49.9199996157511813372716254553580831068599489844395553141374)">
<circle cx="0" cy="0" r="2.04490" fill="#FFFFFF" stroke="#FFFFFF" />
</g>
<g stroke="#FFFFFF" fill="#FFFFFF" transform="translate(60.270199,49.9199996157511813372716254553580831068599489844395553141374)">
<circle cx="0" cy="0" r="0.92600" fill="#FFFFFF" stroke="#FFFFFF" />
</g>
<g stroke="#FFFFFF" fill="#FFFFFF" transform="translate(165.372224,68.9699996157511813372716254553580831068599489844395553141374)">
<circle cx="0" cy="0" r="2.04490" fill="#FFFFFF" stroke="#FFFFFF" />
</g>
<g stroke="#FFFFFF" fill="#FFFFFF" transform="translate(170.452224,68.9699996157511813372716254553580831068599489844395553141374)">
<circle cx="0" cy="0" r="0.92600" fill="#FFFFFF" stroke="#FFFFFF" />
</g>
<g stroke="#FFFFFF" fill="#FFFFFF" transform="translate(160.292224,68.9699996157511813372716254553580831068599489844395553141374)">
<circle cx="0" cy="0" r="0.92600" fill="#FFFFFF" stroke="#FFFFFF" />
</g>
<g stroke="#FFFFFF" fill="#FFFFFF" transform="translate(146.630199,30.8699996157511813372716254553580831068599489844395553141374)">
<circle cx="0" cy="0" r="0.92600" fill="#FFFFFF" stroke="#FFFFFF" />
</g>
<g stroke="#FFFFFF" fill="#FFFFFF" transform="translate(136.470199,30.8699996157511813372716254553580831068599489844395553141374)">
<circle cx="0" cy="0" r="0.92600" fill="#FFFFFF" stroke="#FFFFFF" />
</g>
<g stroke="#FFFFFF" fill="#FFFFFF" transform="translate(141.550199,30.8699996157511813372716254553580831068599489844395553141374)">
<circle cx="0" cy="0" r="2.04490" fill="#FFFFFF" stroke="#FFFFFF" />
</g>
<g stroke="#FFFFFF" fill="#FFFFFF" transform="translate(98.370199,11.8199996157511813372716254553580831068599489844395553141374)">
<circle cx="0" cy="0" r="0.92600" fill="#FFFFFF" stroke="#FFFFFF" />
</g>
<g stroke="#FFFFFF" fill="#FFFFFF" transform="translate(108.530199,11.8199996157511813372716254553580831068599489844395553141374)">
<circle cx="0" cy="0" r="0.92600" fill="#FFFFFF" stroke="#FFFFFF" />
</g>
<g stroke="#FFFFFF" fill="#FFFFFF" transform="translate(103.450199,11.8199996157511813372716254553580831068599489844395553141374)">
<circle cx="0" cy="0" r="2.04490" fill="#FFFFFF" stroke="#FFFFFF" />
</g>
<g stroke="#FFFFFF" fill="#FFFFFF" transform="translate(108.530199,49.9199996157511813372716254553580831068599489844395553141374)">
<circle cx="0" cy="0" r="0.92600" fill="#FFFFFF" stroke="#FFFFFF" />
</g>
<g stroke="#FFFFFF" fill="#FFFFFF" transform="translate(98.370199,49.9199996157511813372716254553580831068599489844395553141374)">
<circle cx="0" cy="0" r="0.92600" fill="#FFFFFF" stroke="#FFFFFF" />
</g>
<g stroke="#FFFFFF" fill="#FFFFFF" transform="translate(103.450199,49.9199996157511813372716254553580831068599489844395553141374)">
<circle cx="0" cy="0" r="2.04490" fill="#FFFFFF" stroke="#FFFFFF" />
</g>
<g stroke="#FFFFFF" fill="#FFFFFF" transform="translate(174.570199,30.8699996157511813372716254553580831068599489844395553141374)">
<circle cx="0" cy="0" r="0.92600" fill="#FFFFFF" stroke="#FFFFFF" />
</g>
<g stroke="#FFFFFF" fill="#FFFFFF" transform="translate(184.730199,30.8699996157511813372716254553580831068599489844395553141374)">
<circle cx="0" cy="0" r="0.92600" fill="#FFFFFF" stroke="#FFFFFF" />
</g>
<g stroke="#FFFFFF" fill="#FFFFFF" transform="translate(179.650199,30.8699996157511813372716254553580831068599489844395553141374)">
<circle cx="0" cy="0" r="2.04490" fill="#FFFFFF" stroke="#FFFFFF" />
</g>
<g stroke="#FFFFFF" fill="#FFFFFF" transform="translate(51.380199,11.8199996157511813372716254553580831068599489844395553141374)">
<circle cx="0" cy="0" r="0.92600" fill="#FFFFFF" stroke="#FFFFFF" />
</g>
<g stroke="#FFFFFF" fill="#FFFFFF" transform="translate(46.300199,11.8199996157511813372716254553580831068599489844395553141374)">
<circle cx="0" cy="0" r="2.04490" fill="#FFFFFF" stroke="#FFFFFF" />
</g>
<g stroke="#FFFFFF" fill="#FFFFFF" transform="translate(41.220199,11.8199996157511813372716254553580831068599489844395553141374)">
<circle cx="0" cy="0" r="0.92600" fill="#FFFFFF" stroke="#FFFFFF" />
</g>
<g stroke="#FFFFFF" fill="#FFFFFF" transform="translate(179.650199,49.9199996157511813372716254553580831068599489844395553141374)">
<circle cx="0" cy="0" r="2.04490" fill="#FFFFFF" stroke="#FFFFFF" />
</g>
<g stroke="#FFFFFF" fill="#FFFFFF" transform="translate(174.570199,49.9199996157511813372716254553580831068599489844395553141374)">
<circle cx="0" cy="0" r="0.92600" fill="#FFFFFF" stroke="#FFFFFF" />
</g>
<g stroke="#FFFFFF" fill="#FFFFFF" transform="translate(184.730199,49.9199996157511813372716254553580831068599489844395553141374)">
<circle cx="0" cy="0" r="0.92600" fill="#FFFFFF" stroke="#FFFFFF" />
</g>
<g stroke="#FFFFFF" fill="#FFFFFF" transform="translate(160.600199,30.8699996157511813372716254553580831068599489844395553141374)">
<circle cx="0" cy="0" r="2.04490" fill="#FFFFFF" stroke="#FFFFFF" />
</g>
<g stroke="#FFFFFF" fill="#FFFFFF" transform="translate(155.520199,30.8699996157511813372716254553580831068599489844395553141374)">
<circle cx="0" cy="0" r="0.92600" fill="#FFFFFF" stroke="#FFFFFF" />
</g>
<g stroke="#FFFFFF" fill="#FFFFFF" transform="translate(165.680199,30.8699996157511813372716254553580831068599489844395553141374)">
<circle cx="0" cy="0" r="0.92600" fill="#FFFFFF" stroke="#FFFFFF" />
</g>
<g stroke="#FFFFFF" fill="#FFFFFF" transform="translate(146.630199,11.8199996157511813372716254553580831068599489844395553141374)">
<circle cx="0" cy="0" r="0.92600" fill="#FFFFFF" stroke="#FFFFFF" />
</g>
<g stroke="#FFFFFF" fill="#FFFFFF" transform="translate(141.550199,11.8199996157511813372716254553580831068599489844395553141374)">
<circle cx="0" cy="0" r="2.04490" fill="#FFFFFF" stroke="#FFFFFF" />
</g>
<g stroke="#FFFFFF" fill="#FFFFFF" transform="translate(136.470199,11.8199996157511813372716254553580831068599489844395553141374)">
<circle cx="0" cy="0" r="0.92600" fill="#FFFFFF" stroke="#FFFFFF" />
</g>
<g stroke="#FFFFFF" fill="#FFFFFF" transform="translate(32.330199,49.9199996157511813372716254553580831068599489844395553141374)">
<circle cx="0" cy="0" r="0.92600" fill="#FFFFFF" stroke="#FFFFFF" />
</g>
<g stroke="#FFFFFF" fill="#FFFFFF" transform="translate(22.170199,49.9199996157511813372716254553580831068599489844395553141374)">
<circle cx="0" cy="0" r="0.92600" fill="#FFFFFF" stroke="#FFFFFF" />
</g>
<g stroke="#FFFFFF" fill="#FFFFFF" transform="translate(27.250199,49.9199996157511813372716254553580831068599489844395553141374)">
<circle cx="0" cy="0" r="2.04490" fill="#FFFFFF" stroke="#FFFFFF" />
</g>
<g stroke="#FFFFFF" fill="#FFFFFF" transform="translate(65.350199,30.8699996157511813372716254553580831068599489844395553141374)">
<circle cx="0" cy="0" r="2.04490" fill="#FFFFFF" stroke="#FFFFFF" />
</g>
<g stroke="#FFFFFF" fill="#FFFFFF" transform="translate(70.430199,30.8699996157511813372716254553580831068599489844395553141374)">
<circle cx="0" cy="0" r="0.92600" fill="#FFFFFF" stroke="#FFFFFF" />
</g>
<g stroke="#FFFFFF" fill="#FFFFFF" transform="translate(60.270199,30.8699996157511813372716254553580831068599489844395553141374)">
<circle cx="0" cy="0" r="0.92600" fill="#FFFFFF" stroke="#FFFFFF" />
</g>
<g stroke="#FFFFFF" fill="#FFFFFF" transform="translate(84.400199,11.8199996157511813372716254553580831068599489844395553141374)">
<circle cx="0" cy="0" r="2.04490" fill="#FFFFFF" stroke="#FFFFFF" />
</g>
<g stroke="#FFFFFF" fill="#FFFFFF" transform="translate(79.320199,11.8199996157511813372716254553580831068599489844395553141374)">
<circle cx="0" cy="0" r="0.92600" fill="#FFFFFF" stroke="#FFFFFF" />
</g>
<g stroke="#FFFFFF" fill="#FFFFFF" transform="translate(89.480199,11.8199996157511813372716254553580831068599489844395553141374)">
<circle cx="0" cy="0" r="0.92600" fill="#FFFFFF" stroke="#FFFFFF" />
</g>
<g stroke="#FFFFFF" fill="#FFFFFF" transform="translate(84.400199,49.9199996157511813372716254553580831068599489844395553141374)">
<circle cx="0" cy="0" r="2.04490" fill="#FFFFFF" stroke="#FFFFFF" />
</g>
<g stroke="#FFFFFF" fill="#FFFFFF" transform="translate(89.480199,49.9199996157511813372716254553580831068599489844395553141374)">
<circle cx="0" cy="0" r="0.92600" fill="#FFFFFF" stroke="#FFFFFF" />
</g>
<g stroke="#FFFFFF" fill="#FFFFFF" transform="translate(79.320199,49.9199996157511813372716254553580831068599489844395553141374)">
<circle cx="0" cy="0" r="0.92600" fill="#FFFFFF" stroke="#FFFFFF" />
</g>
<g stroke="#FFFFFF" fill="#FFFFFF" transform="translate(84.400199,30.8699996157511813372716254553580831068599489844395553141374)">
<circle cx="0" cy="0" r="2.04490" fill="#FFFFFF" stroke="#FFFFFF" />
</g>
<g stroke="#FFFFFF" fill="#FFFFFF" transform="translate(89.480199,30.8699996157511813372716254553580831068599489844395553141374)">
<circle cx="0" cy="0" r="0.92600" fill="#FFFFFF" stroke="#FFFFFF" />
</g>
<g stroke="#FFFFFF" fill="#FFFFFF" transform="translate(79.320199,30.8699996157511813372716254553580831068599489844395553141374)">
<circle cx="0" cy="0" r="0.92600" fill="#FFFFFF" stroke="#FFFFFF" />
</g>
<g stroke="#FFFFFF" fill="#FFFFFF" transform="translate(184.730199,11.8199996157511813372716254553580831068599489844395553141374)">
<circle cx="0" cy="0" r="0.92600" fill="#FFFFFF" stroke="#FFFFFF" />
</g>
<g stroke="#FFFFFF" fill="#FFFFFF" transform="translate(179.650199,11.8199996157511813372716254553580831068599489844395553141374)">
<circle cx="0" cy="0" r="2.04490" fill="#FFFFFF" stroke="#FFFFFF" />
</g>
<g stroke="#FFFFFF" fill="#FFFFFF" transform="translate(174.570199,11.8199996157511813372716254553580831068599489844395553141374)">
<circle cx="0" cy="0" r="0.92600" fill="#FFFFFF" stroke="#FFFFFF" />
</g>
<g stroke="#FFFFFF" fill="#FFFFFF" transform="translate(41.220199,49.9199996157511813372716254553580831068599489844395553141374)">
<circle cx="0" cy="0" r="0.92600" fill="#FFFFFF" stroke="#FFFFFF" />
</g>
<g stroke="#FFFFFF" fill="#FFFFFF" transform="translate(51.380199,49.9199996157511813372716254553580831068599489844395553141374)">
<circle cx="0" cy="0" r="0.92600" fill="#FFFFFF" stroke="#FFFFFF" />
</g>
<g stroke="#FFFFFF" fill="#FFFFFF" transform="translate(46.300199,49.9199996157511813372716254553580831068599489844395553141374)">
<circle cx="0" cy="0" r="2.04490" fill="#FFFFFF" stroke="#FFFFFF" />
</g>
<g stroke="#FFFFFF" fill="#FFFFFF" transform="translate(13.280199,30.8699996157511813372716254553580831068599489844395553141374)">
<circle cx="0" cy="0" r="0.92600" fill="#FFFFFF" stroke="#FFFFFF" />
</g>
<g stroke="#FFFFFF" fill="#FFFFFF" transform="translate(8.200199,30.8699996157511813372716254553580831068599489844395553141374)">
<circle cx="0" cy="0" r="2.04490" fill="#FFFFFF" stroke="#FFFFFF" />
</g>
<g stroke="#FFFFFF" fill="#FFFFFF" transform="translate(3.120199,30.8699996157511813372716254553580831068599489844395553141374)">
<circle cx="0" cy="0" r="0.92600" fill="#FFFFFF" stroke="#FFFFFF" />
</g>
<g stroke="#FFFFFF" fill="#FFFFFF" transform="translate(70.430199,11.8199996157511813372716254553580831068599489844395553141374)">
<circle cx="0" cy="0" r="0.92600" fill="#FFFFFF" stroke="#FFFFFF" />
</g>
<g stroke="#FFFFFF" fill="#FFFFFF" transform="translate(65.350199,11.8199996157511813372716254553580831068599489844395553141374)">
<circle cx="0" cy="0" r="2.04490" fill="#FFFFFF" stroke="#FFFFFF" />
</g>
<g stroke="#FFFFFF" fill="#FFFFFF" transform="translate(60.270199,11.8199996157511813372716254553580831068599489844395553141374)">
<circle cx="0" cy="0" r="0.92600" fill="#FFFFFF" stroke="#FFFFFF" />
</g>
<g stroke="#FFFFFF" fill="#FFFFFF" transform="translate(155.520199,49.9199996157511813372716254553580831068599489844395553141374)">
<circle cx="0" cy="0" r="0.92600" fill="#FFFFFF" stroke="#FFFFFF" />
</g>
<g stroke="#FFFFFF" fill="#FFFFFF" transform="translate(160.600199,49.9199996157511813372716254553580831068599489844395553141374)">
<circle cx="0" cy="0" r="2.04490" fill="#FFFFFF" stroke="#FFFFFF" />
</g>
<g stroke="#FFFFFF" fill="#FFFFFF" transform="translate(165.680199,49.9199996157511813372716254553580831068599489844395553141374)">
<circle cx="0" cy="0" r="0.92600" fill="#FFFFFF" stroke="#FFFFFF" />
</g>
<g stroke="#FFFFFF" fill="#FFFFFF" transform="translate(41.220199,30.8699996157511813372716254553580831068599489844395553141374)">
<circle cx="0" cy="0" r="0.92600" fill="#FFFFFF" stroke="#FFFFFF" />
</g>
<g stroke="#FFFFFF" fill="#FFFFFF" transform="translate(51.380199,30.8699996157511813372716254553580831068599489844395553141374)">
<circle cx="0" cy="0" r="0.92600" fill="#FFFFFF" stroke="#FFFFFF" />
</g>
<g stroke="#FFFFFF" fill="#FFFFFF" transform="translate(46.300199,30.8699996157511813372716254553580831068599489844395553141374)">
<circle cx="0" cy="0" r="2.04490" fill="#FFFFFF" stroke="#FFFFFF" />
</g>
<g stroke="#FFFFFF" fill="#FFFFFF" transform="translate(3.120199,11.8199996157511813372716254553580831068599489844395553141374)">
<circle cx="0" cy="0" r="0.92600" fill="#FFFFFF" stroke="#FFFFFF" />
</g>
<g stroke="#FFFFFF" fill="#FFFFFF" transform="translate(13.280199,11.8199996157511813372716254553580831068599489844395553141374)">
<circle cx="0" cy="0" r="0.92600" fill="#FFFFFF" stroke="#FFFFFF" />
</g>
<g stroke="#FFFFFF" fill="#FFFFFF" transform="translate(8.200199,11.8199996157511813372716254553580831068599489844395553141374)">
<circle cx="0" cy="0" r="2.04490" fill="#FFFFFF" stroke="#FFFFFF" />
</g>
<g stroke="#FFFFFF" fill="#FFFFFF" transform="translate(8.200199,49.9199996157511813372716254553580831068599489844395553141374)">
<circle cx="0" cy="0" r="2.04490" fill="#FFFFFF" stroke="#FFFFFF" />
</g>
<g stroke="#FFFFFF" fill="#FFFFFF" transform="translate(3.120199,49.9199996157511813372716254553580831068599489844395553141374)">
<circle cx="0" cy="0" r="0.92600" fill="#FFFFFF" stroke="#FFFFFF" />
</g>
<g stroke="#FFFFFF" fill="#FFFFFF" transform="translate(13.280199,49.9199996157511813372716254553580831068599489844395553141374)">
<circle cx="0" cy="0" r="0.92600" fill="#FFFFFF" stroke="#FFFFFF" />
</g>
<g stroke="#FFFFFF" fill="#FFFFFF" transform="translate(17.480199,68.9699996157511813372716254553580831068599489844395553141374)">
<circle cx="0" cy="0" r="0.92600" fill="#FFFFFF" stroke="#FFFFFF" />
</g>
<g stroke="#FFFFFF" fill="#FFFFFF" transform="translate(27.640199,68.9699996157511813372716254553580831068599489844395553141374)">
<circle cx="0" cy="0" r="0.92600" fill="#FFFFFF" stroke="#FFFFFF" />
</g>
<g stroke="#FFFFFF" fill="#FFFFFF" transform="translate(22.560199,68.9699996157511813372716254553580831068599489844395553141374)">
<circle cx="0" cy="0" r="2.04490" fill="#FFFFFF" stroke="#FFFFFF" />
</g>
<g stroke="#FFFFFF" fill="#FFFFFF" transform="translate(27.250199,30.8699996157511813372716254553580831068599489844395553141374)">
<circle cx="0" cy="0" r="2.04490" fill="#FFFFFF" stroke="#FFFFFF" />
</g>
<g stroke="#FFFFFF" fill="#FFFFFF" transform="translate(22.170199,30.8699996157511813372716254553580831068599489844395553141374)">
<circle cx="0" cy="0" r="0.92600" fill="#FFFFFF" stroke="#FFFFFF" />
</g>
<g stroke="#FFFFFF" fill="#FFFFFF" transform="translate(32.330199,30.8699996157511813372716254553580831068599489844395553141374)">
<circle cx="0" cy="0" r="0.92600" fill="#FFFFFF" stroke="#FFFFFF" />
</g>
<g stroke="#FFFFFF" fill="#FFFFFF" transform="translate(27.250199,11.8199996157511813372716254553580831068599489844395553141374)">
<circle cx="0" cy="0" r="2.04490" fill="#FFFFFF" stroke="#FFFFFF" />
</g>
<g stroke="#FFFFFF" fill="#FFFFFF" transform="translate(32.330199,11.8199996157511813372716254553580831068599489844395553141374)">
<circle cx="0" cy="0" r="0.92600" fill="#FFFFFF" stroke="#FFFFFF" />
</g>
<g stroke="#FFFFFF" fill="#FFFFFF" transform="translate(22.170199,11.8199996157511813372716254553580831068599489844395553141374)">
<circle cx="0" cy="0" r="0.92600" fill="#FFFFFF" stroke="#FFFFFF" />
</g>
<g stroke="#FFFFFF" fill="#FFFFFF" transform="translate(117.420199,49.9199996157511813372716254553580831068599489844395553141374)">
<circle cx="0" cy="0" r="0.92600" fill="#FFFFFF" stroke="#FFFFFF" />
</g>
<g stroke="#FFFFFF" fill="#FFFFFF" transform="translate(122.500199,49.9199996157511813372716254553580831068599489844395553141374)">
<circle cx="0" cy="0" r="2.04490" fill="#FFFFFF" stroke="#FFFFFF" />
</g>
<g stroke="#FFFFFF" fill="#FFFFFF" transform="translate(127.580199,49.9199996157511813372716254553580831068599489844395553141374)">
<circle cx="0" cy="0" r="0.92600" fill="#FFFFFF" stroke="#FFFFFF" />
</g>
<g stroke="#FFFFFF" fill="#FFFFFF" transform="translate(143.925099,60.7149996157511813372716254553580831068599489844395553141374)">
<circle cx="0" cy="0" r="2.04490" fill="#FFFFFF" stroke="#FFFFFF" />
</g>
<g stroke="#FFFFFF" fill="#FFFFFF" transform="translate(88.845199,68.9699996157511813372716254553580831068599489844395553141374)">
<circle cx="0" cy="0" r="0.92600" fill="#FFFFFF" stroke="#FFFFFF" />
</g>
<g stroke="#FFFFFF" fill="#FFFFFF" transform="translate(43.925299,75.9549996157511813372716254553580831068599489844395553141374)">
<circle cx="0" cy="0" r="1.57500" fill="#FFFFFF" stroke="#FFFFFF" />
</g>
<g stroke="#FFFFFF" fill="#FFFFFF" transform="translate(93.925199,68.9699996157511813372716254553580831068599489844395553141374)">
<circle cx="0" cy="0" r="2.04490" fill="#FFFFFF" stroke="#FFFFFF" />
</g>
<g stroke="#FFFFFF" fill="#FFFFFF" transform="translate(143.925099,75.9549996157511813372716254553580831068599489844395553141374)">
<circle cx="0" cy="0" r="1.57500" fill="#FFFFFF" stroke="#FFFFFF" />
</g>
<g stroke="#FFFFFF" fill="#FFFFFF" transform="translate(43.925299,60.7149996157511813372716254553580831068599489844395553141374)">
<circle cx="0" cy="0" r="2.04490" fill="#FFFFFF" stroke="#FFFFFF" />
</g>
<g stroke="#FFFFFF" fill="#FFFFFF" transform="translate(99.005199,68.9699996157511813372716254553580831068599489844395553141374)">
<circle cx="0" cy="0" r="0.92600" fill="#FFFFFF" stroke="#FFFFFF" />
</g>
<g stroke="#FFFFFF" fill="#FFFFFF" transform="translate(80.027699,68.9699996157511813372716254553580831068599489844395553141374)">
<circle cx="0" cy="0" r="0.92600" fill="#FFFFFF" stroke="#FFFFFF" />
</g>
<g stroke="#FFFFFF" fill="#FFFFFF" transform="translate(86.853949,75.9549996157511813372716254553580831068599489844395553141374)">
<circle cx="0" cy="0" r="1.57500" fill="#FFFFFF" stroke="#FFFFFF" />
</g>
<g stroke="#FFFFFF" fill="#FFFFFF" transform="translate(86.853949,60.7149996157511813372716254553580831068599489844395553141374)">
<circle cx="0" cy="0" r="2.04490" fill="#FFFFFF" stroke="#FFFFFF" />
</g>
<g stroke="#FFFFFF" fill="#FFFFFF" transform="translate(63.041449,75.9549996157511813372716254553580831068599489844395553141374)">
<circle cx="0" cy="0" r="1.57500" fill="#FFFFFF" stroke="#FFFFFF" />
</g>
<g stroke="#FFFFFF" fill="#FFFFFF" transform="translate(63.041449,60.7149996157511813372716254553580831068599489844395553141374)">
<circle cx="0" cy="0" r="2.04490" fill="#FFFFFF" stroke="#FFFFFF" />
</g>
<g stroke="#FFFFFF" fill="#FFFFFF" transform="translate(74.947699,68.9699996157511813372716254553580831068599489844395553141374)">
<circle cx="0" cy="0" r="2.04490" fill="#FFFFFF" stroke="#FFFFFF" />
</g>
<g stroke="#FFFFFF" fill="#FFFFFF" transform="translate(69.867699,68.9699996157511813372716254553580831068599489844395553141374)">
<circle cx="0" cy="0" r="0.92600" fill="#FFFFFF" stroke="#FFFFFF" />
</g>
<g stroke="#FFFFFF" fill="#FFFFFF" transform="translate(141.305199,68.9699996157511813372716254553580831068599489844395553141374)">
<circle cx="0" cy="0" r="0.92600" fill="#FFFFFF" stroke="#FFFFFF" />
</g>
<g stroke="#FFFFFF" fill="#FFFFFF" transform="translate(151.465199,68.9699996157511813372716254553580831068599489844395553141374)">
<circle cx="0" cy="0" r="0.92600" fill="#FFFFFF" stroke="#FFFFFF" />
</g>
<g stroke="#FFFFFF" fill="#FFFFFF" transform="translate(146.385199,68.9699996157511813372716254553580831068599489844395553141374)">
<circle cx="0" cy="0" r="2.04490" fill="#FFFFFF" stroke="#FFFFFF" />
</g>
<g stroke="#FFFFFF" fill="#FFFFFF" transform="translate(36.530199,68.9699996157511813372716254553580831068599489844395553141374)">
<circle cx="0" cy="0" r="0.92600" fill="#FFFFFF" stroke="#FFFFFF" />
</g>
<g stroke="#FFFFFF" fill="#FFFFFF" transform="translate(46.690199,68.9699996157511813372716254553580831068599489844395553141374)">
<circle cx="0" cy="0" r="0.92600" fill="#FFFFFF" stroke="#FFFFFF" />
</g>
<g stroke="#FFFFFF" fill="#FFFFFF" transform="translate(41.610199,68.9699996157511813372716254553580831068599489844395553141374)">
<circle cx="0" cy="0" r="2.04490" fill="#FFFFFF" stroke="#FFFFFF" />
</g>
<g stroke="#FFFFFF" fill="#FFFFFF" transform="translate(20.178949,68.9699996157511813372716254553580831068599489844395553141374)">
<circle cx="0" cy="0" r="2.04490" fill="#FFFFFF" stroke="#FFFFFF" />
</g>
<g stroke="#FFFFFF" fill="#FFFFFF" transform="translate(25.258949,68.9699996157511813372716254553580831068599489844395553141374)">
<circle cx="0" cy="0" r="0.92600" fill="#FFFFFF" stroke="#FFFFFF" />
</g>
<g stroke="#FFFFFF" fill="#FFFFFF" transform="translate(15.098949,68.9699996157511813372716254553580831068599489844395553141374)">
<circle cx="0" cy="0" r="0.92600" fill="#FFFFFF" stroke="#FFFFFF" />
</g>
<g stroke="#FFFFFF" fill="#FFFFFF" transform="translate(110.348949,68.9699996157511813372716254553580831068599489844395553141374)">
<circle cx="0" cy="0" r="0.92600" fill="#FFFFFF" stroke="#FFFFFF" />
</g>
<g stroke="#FFFFFF" fill="#FFFFFF" transform="translate(127.335199,75.9549996157511813372716254553580831068599489844395553141374)">
<circle cx="0" cy="0" r="1.57500" fill="#FFFFFF" stroke="#FFFFFF" />
</g>
<g stroke="#FFFFFF" fill="#FFFFFF" transform="translate(120.508949,68.9699996157511813372716254553580831068599489844395553141374)">
<circle cx="0" cy="0" r="0.92600" fill="#FFFFFF" stroke="#FFFFFF" />
</g>
<g stroke="#FFFFFF" fill="#FFFFFF" transform="translate(127.335199,60.7149996157511813372716254553580831068599489844395553141374)">
<circle cx="0" cy="0" r="2.04490" fill="#FFFFFF" stroke="#FFFFFF" />
</g>
<g stroke="#FFFFFF" fill="#FFFFFF" transform="translate(115.428949,68.9699996157511813372716254553580831068599489844395553141374)">
<circle cx="0" cy="0" r="2.04490" fill="#FFFFFF" stroke="#FFFFFF" />
</g>
<g stroke="#FFFFFF" fill="#FFFFFF" transform="translate(103.522699,75.9549996157511813372716254553580831068599489844395553141374)">
<circle cx="0" cy="0" r="1.57500" fill="#FFFFFF" stroke="#FFFFFF" />
</g>
<g stroke="#FFFFFF" fill="#FFFFFF" transform="translate(103.522699,60.7149996157511813372716254553580831068599489844395553141374)">
<circle cx="0" cy="0" r="2.04490" fill="#FFFFFF" stroke="#FFFFFF" />
</g>
<g stroke="#FFFFFF" fill="#FFFFFF" transform="translate(167.816449,68.9699996157511813372716254553580831068599489844395553141374)">
<circle cx="0" cy="0" r="2.04490" fill="#FFFFFF" stroke="#FFFFFF" />
</g>
<g stroke="#FFFFFF" fill="#FFFFFF" transform="translate(172.896449,68.9699996157511813372716254553580831068599489844395553141374)">
<circle cx="0" cy="0" r="0.92600" fill="#FFFFFF" stroke="#FFFFFF" />
</g>
<g stroke="#FFFFFF" fill="#FFFFFF" transform="translate(162.736449,68.9699996157511813372716254553580831068599489844395553141374)">
<circle cx="0" cy="0" r="0.92600" fill="#FFFFFF" stroke="#FFFFFF" />
</g>
<g stroke="#FFFFFF" fill="#FFFFFF" transform="translate(128.880199,6.3999996157511813372716254553580831068599489844395553141374)">
<circle cx="0" cy="0" r="0.37600" fill="#FFFFFF" stroke="#FFFFFF" />
</g>
<g stroke="#FFFFFF" fill="#FFFFFF" transform="translate(134.660199,6.3999996157511813372716254553580831068599489844395553141374)">
<circle cx="0" cy="0" r="0.37600" fill="#FFFFFF" stroke="#FFFFFF" />
</g>
<g stroke="#FFFFFF" fill="#FFFFFF" transform="translate(127.450199,6.9299996157511813372716254553580831068599489844395553141374)">
<rect x="-0.5510000" y="-1.1010000" width="1.1020000" height="2.2020000" fill="#FFFFFF" rx="0.551000" ry="0.551000" transform="rotate(-0.0)" stroke="#FFFFFF" />
</g>
<g stroke="#FFFFFF" fill="#FFFFFF" transform="translate(136.090199,2.7499996157511813372716254553580831068599489844395553141374)">
<rect x="-0.5510000" y="-0.8510000" width="1.1020000" height="1.7020000" fill="#FFFFFF" rx="0.551000" ry="0.551000" transform="rotate(-0.0)" stroke="#FFFFFF" />
</g>
<g stroke="#FFFFFF" fill="#FFFFFF" transform="translate(127.450199,2.7499996157511813372716254553580831068599489844395553141374)">
<rect x="-0.5510000" y="-0.8510000" width="1.1020000" height="1.7020000" fill="#FFFFFF" rx="0.551000" ry="0.551000" transform="rotate(-0.0)" stroke="#FFFFFF" />
</g>
<g stroke="#FFFFFF" fill="#FFFFFF" transform="translate(136.090199,6.9299996157511813372716254553580831068599489844395553141374)">
<rect x="-0.5510000" y="-1.1010000" width="1.1020000" height="2.2020000" fill="#FFFFFF" rx="0.551000" ry="0.551000" transform="rotate(-0.0)" stroke="#FFFFFF" />
</g>
<path d="M174.70713900,44.48099962 L173.01325900,44.48099962 A0.05406000,0.05406000,0,0,1,172.95919900,44.42693962 L172.95919900,42.73305962 A0.05406000,0.05406000,0,0,1,173.01325900,42.67899962 L174.70713900,42.67899962 A0.05406000,0.05406000,0,0,1,174.76119900,42.73305962 L174.76119900,44.42693962 A0.05406000,0.05406000,0,0,1,174.70713900,44.48099962 Z" fill="#FFFFFF" stroke="#FFFFFF" />
<g stroke="#FFFFFF" fill="#FFFFFF" transform="translate(171.320199,43.5799996157511813372716254553580831068599489844395553141374)">
<rect x="-0.9010000" y="-0.9010000" width="1.8020000" height="1.8020000" fill="#FFFFFF" rx="0.901000" ry="0.901000" transform="rotate(-0.0)" stroke="#FFFFFF" />
</g>
<g stroke="#FFFFFF" fill="#FFFFFF" transform="translate(168.780199,43.5799996157511813372716254553580831068599489844395553141374)">
<rect x="-0.9010000" y="-0.9010000" width="1.8020000" height="1.8020000" fill="#FFFFFF" rx="0.901000" ry="0.901000" transform="rotate(-0.0)" stroke="#FFFFFF" />
</g>
<path d="M24.52498900,69.52316262 L24.57229300,69.58827162 L24.68745600,69.69196462 L24.68807400,69.69386662 L24.68673600,69.69535262 L24.68497700,69.69509262 L24.64961600,69.67051562 L24.64891700,69.67152162 L24.64624500,69.67209362 L24.60959600,69.65007562 L24.54597100,69.64896662 L24.49024900,69.67985762 L24.46380200,69.71721162 L24.42295000,69.80644062 L24.42132000,69.80759862 L24.41950200,69.80676662 L24.41930500,69.80479462 L24.47989000,69.66871562 L24.52144800,69.52378762 L24.52288700,69.52239762 L24.52498900,69.52316262 Z" fill="#FFFFFF" stroke="#FFFFFF" />
<path d="M18.21425800,69.52870562 L18.21519200,69.53309862 L18.28101000,69.71393262 L18.28066300,69.71590262 L18.27878400,69.71658662 L18.27755100,69.71584262 L18.23833400,69.66528462 L18.17941700,69.64124062 L18.11629200,69.64988762 L18.07905300,69.67425562 L18.05131300,69.70067262 L18.05100600,69.70091362 L18.03976900,69.70804462 L18.03777000,69.70812762 L18.03669900,69.70643962 L18.03735900,69.70486962 L18.16685500,69.58827162 L18.21068400,69.52794562 L18.21251100,69.52713262 L18.21425800,69.52870562 Z" fill="#FFFFFF" stroke="#FFFFFF" />
<path d="M24.46437000,68.22674762 L24.50197900,68.27419862 L24.56114500,68.29762462 L24.62417900,68.28831562 L24.66146200,68.26326262 L24.67768700,68.24737362 L24.67799100,68.24712862 L24.69456700,68.23628162 L24.69656400,68.23617062 L24.69765900,68.23784362 L24.69700000,68.23944162 L24.57229300,68.35172762 L24.52498900,68.41683662 L24.52316200,68.41764962 L24.52144800,68.41621162 L24.47989000,68.27128362 L24.46097600,68.22880262 L24.46118500,68.22681362 L24.46301200,68.22600062 L24.46437000,68.22674762 Z" fill="#FFFFFF" stroke="#FFFFFF" />
<path d="M18.28782300,68.20477062 L18.28808400,68.20663062 L18.21519200,68.40690062 L18.21425800,68.41129362 L18.21292000,68.41277962 L18.21068400,68.41205362 L18.16685500,68.35172762 L18.04692400,68.24374162 L18.04630600,68.24183962 L18.04764400,68.24035362 L18.04938000,68.24059762 L18.07119100,68.25530962 L18.07149200,68.25555862 L18.07621200,68.26031062 L18.13144600,68.29245862 L18.19507600,68.29268062 L18.25036600,68.26101562 L18.27611700,68.22368862 L18.28437800,68.20513362 L18.28599600,68.20395762 L18.28782300,68.20477062 Z" fill="#FFFFFF" stroke="#FFFFFF" />
</g>
</svg></g></svg>