G04 #@! TF.GenerationSoftware,KiCad,Pcbnew,(5.99.0-2555-g9cc6a77cc-dirty)*
G04 #@! TF.CreationDate,2020-09-08T07:39:35-05:00*
G04 #@! TF.ProjectId,_33,5f33332e-6b69-4636-9164-5f7063625858,rev?*
G04 #@! TF.SameCoordinates,Original*
G04 #@! TF.FileFunction,AssemblyDrawing,Bot*
%FSLAX46Y46*%
G04 Gerber Fmt 4.6, Leading zero omitted, Abs format (unit mm)*
G04 Created by KiCad (PCBNEW (5.99.0-2555-g9cc6a77cc-dirty)) date 2020-09-08 07:39:35*
%MOMM*%
%LPD*%
G01*
G04 APERTURE LIST*
G04 #@! TA.AperFunction,Profile*
%ADD10C,0.050000*%
G04 #@! TD*
G04 #@! TA.AperFunction,Profile*
%ADD11C,0.100000*%
G04 #@! TD*
%ADD12C,0.060000*%
%ADD13C,0.150000*%
%ADD14C,0.075000*%
%ADD15C,0.080000*%
%ADD16C,0.100000*%
G04 APERTURE END LIST*
D11*
X56290000Y-98880000D02*
X56289801Y-50410000D01*
D11*
X244000199Y-50390199D02*
X243990000Y-98880000D01*
D11*
X207910222Y-121897009D02*
X92589778Y-121930000D01*
D16*
X230400000Y-58000000D02*
X232000000Y-58000000D01*
X232000000Y-58000000D02*
X232000000Y-57200000D01*
X230400000Y-57200000D02*
X230400000Y-58000000D01*
X232000000Y-57200000D02*
X230400000Y-57200000D01*
X238187500Y-58600000D02*
X236587500Y-58600000D01*
X236587500Y-58600000D02*
X236587500Y-59400000D01*
X236587500Y-59400000D02*
X238187500Y-59400000D01*
X238187500Y-59400000D02*
X238187500Y-58600000D01*
X227600000Y-57600000D02*
X228400000Y-57600000D01*
X228400000Y-57600000D02*
X228400000Y-56000000D01*
X227600000Y-56000000D02*
X227600000Y-57600000D01*
X228400000Y-56000000D02*
X227600000Y-56000000D01*
X237987500Y-64400000D02*
X236387500Y-64400000D01*
X236387500Y-65200000D02*
X237987500Y-65200000D01*
X236387500Y-64400000D02*
X236387500Y-65200000D01*
X237987500Y-65200000D02*
X237987500Y-64400000D01*
X222400000Y-68200000D02*
X222400000Y-69800000D01*
X222400000Y-69800000D02*
X223200000Y-69800000D01*
X223200000Y-68200000D02*
X222400000Y-68200000D01*
X223200000Y-69800000D02*
X223200000Y-68200000D01*
X224200000Y-72200000D02*
X224200000Y-71400000D01*
X222600000Y-71400000D02*
X222600000Y-72200000D01*
X222600000Y-72200000D02*
X224200000Y-72200000D01*
X224200000Y-71400000D02*
X222600000Y-71400000D01*
X170250000Y-81290000D02*
X170250000Y-78490000D01*
X169750000Y-80140000D02*
X169350000Y-79540000D01*
X168950000Y-80140000D02*
X169750000Y-80140000D01*
X170250000Y-78490000D02*
X168450000Y-78490000D01*
X169350000Y-80140000D02*
X169350000Y-80640000D01*
X168450000Y-81290000D02*
X170250000Y-81290000D01*
X168450000Y-78490000D02*
X168450000Y-81290000D01*
X169350000Y-79540000D02*
X168800000Y-79540000D01*
X169350000Y-79140000D02*
X169350000Y-79540000D01*
X169350000Y-79540000D02*
X168950000Y-80140000D01*
X169350000Y-79540000D02*
X169900000Y-79540000D01*
X189000000Y-100230000D02*
X189000000Y-97430000D01*
X188500000Y-99080000D02*
X188100000Y-98480000D01*
X187700000Y-99080000D02*
X188500000Y-99080000D01*
X189000000Y-97430000D02*
X187200000Y-97430000D01*
X188100000Y-99080000D02*
X188100000Y-99580000D01*
X187200000Y-100230000D02*
X189000000Y-100230000D01*
X187200000Y-97430000D02*
X187200000Y-100230000D01*
X188100000Y-98480000D02*
X187550000Y-98480000D01*
X188100000Y-98080000D02*
X188100000Y-98480000D01*
X188100000Y-98480000D02*
X187700000Y-99080000D01*
X188100000Y-98480000D02*
X188650000Y-98480000D01*
X151010000Y-81310000D02*
X151010000Y-78510000D01*
X150510000Y-80160000D02*
X150110000Y-79560000D01*
X149710000Y-80160000D02*
X150510000Y-80160000D01*
X151010000Y-78510000D02*
X149210000Y-78510000D01*
X150110000Y-80160000D02*
X150110000Y-80660000D01*
X149210000Y-81310000D02*
X151010000Y-81310000D01*
X149210000Y-78510000D02*
X149210000Y-81310000D01*
X150110000Y-79560000D02*
X149560000Y-79560000D01*
X150110000Y-79160000D02*
X150110000Y-79560000D01*
X150110000Y-79560000D02*
X149710000Y-80160000D01*
X150110000Y-79560000D02*
X150660000Y-79560000D01*
X170900000Y-59900000D02*
X170900000Y-57100000D01*
X170400000Y-58750000D02*
X170000000Y-58150000D01*
X169600000Y-58750000D02*
X170400000Y-58750000D01*
X170900000Y-57100000D02*
X169100000Y-57100000D01*
X170000000Y-58750000D02*
X170000000Y-59250000D01*
X169100000Y-59900000D02*
X170900000Y-59900000D01*
X169100000Y-57100000D02*
X169100000Y-59900000D01*
X170000000Y-58150000D02*
X169450000Y-58150000D01*
X170000000Y-57750000D02*
X170000000Y-58150000D01*
X170000000Y-58150000D02*
X169600000Y-58750000D01*
X170000000Y-58150000D02*
X170550000Y-58150000D01*
X112750000Y-100400000D02*
X112750000Y-97600000D01*
X112250000Y-99250000D02*
X111850000Y-98650000D01*
X111450000Y-99250000D02*
X112250000Y-99250000D01*
X112750000Y-97600000D02*
X110950000Y-97600000D01*
X111850000Y-99250000D02*
X111850000Y-99750000D01*
X110950000Y-100400000D02*
X112750000Y-100400000D01*
X110950000Y-97600000D02*
X110950000Y-100400000D01*
X111850000Y-98650000D02*
X111300000Y-98650000D01*
X111850000Y-98250000D02*
X111850000Y-98650000D01*
X111850000Y-98650000D02*
X111450000Y-99250000D01*
X111850000Y-98650000D02*
X112400000Y-98650000D01*
X214260000Y-114300000D02*
X214260000Y-111500000D01*
X213760000Y-113150000D02*
X213360000Y-112550000D01*
X212960000Y-113150000D02*
X213760000Y-113150000D01*
X214260000Y-111500000D02*
X212460000Y-111500000D01*
X213360000Y-113150000D02*
X213360000Y-113650000D01*
X212460000Y-114300000D02*
X214260000Y-114300000D01*
X212460000Y-111500000D02*
X212460000Y-114300000D01*
X213360000Y-112550000D02*
X212810000Y-112550000D01*
X213360000Y-112150000D02*
X213360000Y-112550000D01*
X213360000Y-112550000D02*
X212960000Y-113150000D01*
X213360000Y-112550000D02*
X213910000Y-112550000D01*
X188980000Y-81260000D02*
X188980000Y-78460000D01*
X188480000Y-80110000D02*
X188080000Y-79510000D01*
X187680000Y-80110000D02*
X188480000Y-80110000D01*
X188980000Y-78460000D02*
X187180000Y-78460000D01*
X188080000Y-80110000D02*
X188080000Y-80610000D01*
X187180000Y-81260000D02*
X188980000Y-81260000D01*
X187180000Y-78460000D02*
X187180000Y-81260000D01*
X188080000Y-79510000D02*
X187530000Y-79510000D01*
X188080000Y-79110000D02*
X188080000Y-79510000D01*
X188080000Y-79510000D02*
X187680000Y-80110000D01*
X188080000Y-79510000D02*
X188630000Y-79510000D01*
X150980000Y-59900000D02*
X150980000Y-57100000D01*
X150480000Y-58750000D02*
X150080000Y-58150000D01*
X149680000Y-58750000D02*
X150480000Y-58750000D01*
X150980000Y-57100000D02*
X149180000Y-57100000D01*
X150080000Y-58750000D02*
X150080000Y-59250000D01*
X149180000Y-59900000D02*
X150980000Y-59900000D01*
X149180000Y-57100000D02*
X149180000Y-59900000D01*
X150080000Y-58150000D02*
X149530000Y-58150000D01*
X150080000Y-57750000D02*
X150080000Y-58150000D01*
X150080000Y-58150000D02*
X149680000Y-58750000D01*
X150080000Y-58150000D02*
X150630000Y-58150000D01*
X152800000Y-100180000D02*
X152800000Y-97380000D01*
X152300000Y-99030000D02*
X151900000Y-98430000D01*
X151500000Y-99030000D02*
X152300000Y-99030000D01*
X152800000Y-97380000D02*
X151000000Y-97380000D01*
X151900000Y-99030000D02*
X151900000Y-99530000D01*
X151000000Y-100180000D02*
X152800000Y-100180000D01*
X151000000Y-97380000D02*
X151000000Y-100180000D01*
X151900000Y-98430000D02*
X151350000Y-98430000D01*
X151900000Y-98030000D02*
X151900000Y-98430000D01*
X151900000Y-98430000D02*
X151500000Y-99030000D01*
X151900000Y-98430000D02*
X152450000Y-98430000D01*
X227020000Y-81200000D02*
X227020000Y-78400000D01*
X226520000Y-80050000D02*
X226120000Y-79450000D01*
X225720000Y-80050000D02*
X226520000Y-80050000D01*
X227020000Y-78400000D02*
X225220000Y-78400000D01*
X226120000Y-80050000D02*
X226120000Y-80550000D01*
X225220000Y-81200000D02*
X227020000Y-81200000D01*
X225220000Y-78400000D02*
X225220000Y-81200000D01*
X226120000Y-79450000D02*
X225570000Y-79450000D01*
X226120000Y-79050000D02*
X226120000Y-79450000D01*
X226120000Y-79450000D02*
X225720000Y-80050000D01*
X226120000Y-79450000D02*
X226670000Y-79450000D01*
X93900000Y-59900000D02*
X93900000Y-57100000D01*
X93400000Y-58750000D02*
X93000000Y-58150000D01*
X92600000Y-58750000D02*
X93400000Y-58750000D01*
X93900000Y-57100000D02*
X92100000Y-57100000D01*
X93000000Y-58750000D02*
X93000000Y-59250000D01*
X92100000Y-59900000D02*
X93900000Y-59900000D01*
X92100000Y-57100000D02*
X92100000Y-59900000D01*
X93000000Y-58150000D02*
X92450000Y-58150000D01*
X93000000Y-57750000D02*
X93000000Y-58150000D01*
X93000000Y-58150000D02*
X92600000Y-58750000D01*
X93000000Y-58150000D02*
X93550000Y-58150000D01*
X226930000Y-100280000D02*
X226930000Y-97480000D01*
X226430000Y-99130000D02*
X226030000Y-98530000D01*
X225630000Y-99130000D02*
X226430000Y-99130000D01*
X226930000Y-97480000D02*
X225130000Y-97480000D01*
X226030000Y-99130000D02*
X226030000Y-99630000D01*
X225130000Y-100280000D02*
X226930000Y-100280000D01*
X225130000Y-97480000D02*
X225130000Y-100280000D01*
X226030000Y-98530000D02*
X225480000Y-98530000D01*
X226030000Y-98130000D02*
X226030000Y-98530000D01*
X226030000Y-98530000D02*
X225630000Y-99130000D01*
X226030000Y-98530000D02*
X226580000Y-98530000D01*
X208180000Y-81250000D02*
X208180000Y-78450000D01*
X207680000Y-80100000D02*
X207280000Y-79500000D01*
X206880000Y-80100000D02*
X207680000Y-80100000D01*
X208180000Y-78450000D02*
X206380000Y-78450000D01*
X207280000Y-80100000D02*
X207280000Y-80600000D01*
X206380000Y-81250000D02*
X208180000Y-81250000D01*
X206380000Y-78450000D02*
X206380000Y-81250000D01*
X207280000Y-79500000D02*
X206730000Y-79500000D01*
X207280000Y-79100000D02*
X207280000Y-79500000D01*
X207280000Y-79500000D02*
X206880000Y-80100000D01*
X207280000Y-79500000D02*
X207830000Y-79500000D01*
X196400000Y-59600000D02*
X193600000Y-59600000D01*
X195250000Y-60100000D02*
X194650000Y-60500000D01*
X195250000Y-60900000D02*
X195250000Y-60100000D01*
X193600000Y-59600000D02*
X193600000Y-61400000D01*
X195250000Y-60500000D02*
X195750000Y-60500000D01*
X196400000Y-61400000D02*
X196400000Y-59600000D01*
X193600000Y-61400000D02*
X196400000Y-61400000D01*
X194650000Y-60500000D02*
X194650000Y-61050000D01*
X194250000Y-60500000D02*
X194650000Y-60500000D01*
X194650000Y-60500000D02*
X195250000Y-60900000D01*
X194650000Y-60500000D02*
X194650000Y-59950000D01*
X76070000Y-100430000D02*
X76070000Y-97630000D01*
X75570000Y-99280000D02*
X75170000Y-98680000D01*
X74770000Y-99280000D02*
X75570000Y-99280000D01*
X76070000Y-97630000D02*
X74270000Y-97630000D01*
X75170000Y-99280000D02*
X75170000Y-99780000D01*
X74270000Y-100430000D02*
X76070000Y-100430000D01*
X74270000Y-97630000D02*
X74270000Y-100430000D01*
X75170000Y-98680000D02*
X74620000Y-98680000D01*
X75170000Y-98280000D02*
X75170000Y-98680000D01*
X75170000Y-98680000D02*
X74770000Y-99280000D01*
X75170000Y-98680000D02*
X75720000Y-98680000D01*
X140600000Y-114340000D02*
X140600000Y-111540000D01*
X140100000Y-113190000D02*
X139700000Y-112590000D01*
X139300000Y-113190000D02*
X140100000Y-113190000D01*
X140600000Y-111540000D02*
X138800000Y-111540000D01*
X139700000Y-113190000D02*
X139700000Y-113690000D01*
X138800000Y-114340000D02*
X140600000Y-114340000D01*
X138800000Y-111540000D02*
X138800000Y-114340000D01*
X139700000Y-112590000D02*
X139150000Y-112590000D01*
X139700000Y-112190000D02*
X139700000Y-112590000D01*
X139700000Y-112590000D02*
X139300000Y-113190000D01*
X139700000Y-112590000D02*
X140250000Y-112590000D01*
X112930000Y-81240000D02*
X112930000Y-78440000D01*
X112430000Y-80090000D02*
X112030000Y-79490000D01*
X111630000Y-80090000D02*
X112430000Y-80090000D01*
X112930000Y-78440000D02*
X111130000Y-78440000D01*
X112030000Y-80090000D02*
X112030000Y-80590000D01*
X111130000Y-81240000D02*
X112930000Y-81240000D01*
X111130000Y-78440000D02*
X111130000Y-81240000D01*
X112030000Y-79490000D02*
X111480000Y-79490000D01*
X112030000Y-79090000D02*
X112030000Y-79490000D01*
X112030000Y-79490000D02*
X111630000Y-80090000D01*
X112030000Y-79490000D02*
X112580000Y-79490000D01*
X131900000Y-59900000D02*
X131900000Y-57100000D01*
X131400000Y-58750000D02*
X131000000Y-58150000D01*
X130600000Y-58750000D02*
X131400000Y-58750000D01*
X131900000Y-57100000D02*
X130100000Y-57100000D01*
X131000000Y-58750000D02*
X131000000Y-59250000D01*
X130100000Y-59900000D02*
X131900000Y-59900000D01*
X130100000Y-57100000D02*
X130100000Y-59900000D01*
X131000000Y-58150000D02*
X130450000Y-58150000D01*
X131000000Y-57750000D02*
X131000000Y-58150000D01*
X131000000Y-58150000D02*
X130600000Y-58750000D01*
X131000000Y-58150000D02*
X131550000Y-58150000D01*
X131160000Y-100200000D02*
X131160000Y-97400000D01*
X130660000Y-99050000D02*
X130260000Y-98450000D01*
X129860000Y-99050000D02*
X130660000Y-99050000D01*
X131160000Y-97400000D02*
X129360000Y-97400000D01*
X130260000Y-99050000D02*
X130260000Y-99550000D01*
X129360000Y-100200000D02*
X131160000Y-100200000D01*
X129360000Y-97400000D02*
X129360000Y-100200000D01*
X130260000Y-98450000D02*
X129710000Y-98450000D01*
X130260000Y-98050000D02*
X130260000Y-98450000D01*
X130260000Y-98450000D02*
X129860000Y-99050000D01*
X130260000Y-98450000D02*
X130810000Y-98450000D01*
X132060000Y-81280000D02*
X132060000Y-78480000D01*
X131560000Y-80130000D02*
X131160000Y-79530000D01*
X130760000Y-80130000D02*
X131560000Y-80130000D01*
X132060000Y-78480000D02*
X130260000Y-78480000D01*
X131160000Y-80130000D02*
X131160000Y-80630000D01*
X130260000Y-81280000D02*
X132060000Y-81280000D01*
X130260000Y-78480000D02*
X130260000Y-81280000D01*
X131160000Y-79530000D02*
X130610000Y-79530000D01*
X131160000Y-79130000D02*
X131160000Y-79530000D01*
X131160000Y-79530000D02*
X130760000Y-80130000D01*
X131160000Y-79530000D02*
X131710000Y-79530000D01*
X215770000Y-62400000D02*
X218570000Y-62400000D01*
X216920000Y-61900000D02*
X217520000Y-61500000D01*
X216920000Y-61100000D02*
X216920000Y-61900000D01*
X218570000Y-62400000D02*
X218570000Y-60600000D01*
X216920000Y-61500000D02*
X216420000Y-61500000D01*
X215770000Y-60600000D02*
X215770000Y-62400000D01*
X218570000Y-60600000D02*
X215770000Y-60600000D01*
X217520000Y-61500000D02*
X217520000Y-60950000D01*
X217920000Y-61500000D02*
X217520000Y-61500000D01*
X217520000Y-61500000D02*
X216920000Y-61100000D01*
X217520000Y-61500000D02*
X217520000Y-62050000D01*
X93990000Y-100400000D02*
X93990000Y-97600000D01*
X93490000Y-99250000D02*
X93090000Y-98650000D01*
X92690000Y-99250000D02*
X93490000Y-99250000D01*
X93990000Y-97600000D02*
X92190000Y-97600000D01*
X93090000Y-99250000D02*
X93090000Y-99750000D01*
X92190000Y-100400000D02*
X93990000Y-100400000D01*
X92190000Y-97600000D02*
X92190000Y-100400000D01*
X93090000Y-98650000D02*
X92540000Y-98650000D01*
X93090000Y-98250000D02*
X93090000Y-98650000D01*
X93090000Y-98650000D02*
X92690000Y-99250000D01*
X93090000Y-98650000D02*
X93640000Y-98650000D01*
X73540000Y-81330000D02*
X73540000Y-78530000D01*
X73040000Y-80180000D02*
X72640000Y-79580000D01*
X72240000Y-80180000D02*
X73040000Y-80180000D01*
X73540000Y-78530000D02*
X71740000Y-78530000D01*
X72640000Y-80180000D02*
X72640000Y-80680000D01*
X71740000Y-81330000D02*
X73540000Y-81330000D01*
X71740000Y-78530000D02*
X71740000Y-81330000D01*
X72640000Y-79580000D02*
X72090000Y-79580000D01*
X72640000Y-79180000D02*
X72640000Y-79580000D01*
X72640000Y-79580000D02*
X72240000Y-80180000D01*
X72640000Y-79580000D02*
X73190000Y-79580000D01*
X113280000Y-59900000D02*
X113280000Y-57100000D01*
X112780000Y-58750000D02*
X112380000Y-58150000D01*
X111980000Y-58750000D02*
X112780000Y-58750000D01*
X113280000Y-57100000D02*
X111480000Y-57100000D01*
X112380000Y-58750000D02*
X112380000Y-59250000D01*
X111480000Y-59900000D02*
X113280000Y-59900000D01*
X111480000Y-57100000D02*
X111480000Y-59900000D01*
X112380000Y-58150000D02*
X111830000Y-58150000D01*
X112380000Y-57750000D02*
X112380000Y-58150000D01*
X112380000Y-58150000D02*
X111980000Y-58750000D01*
X112380000Y-58150000D02*
X112930000Y-58150000D01*
X208140000Y-100230000D02*
X208140000Y-97430000D01*
X207640000Y-99080000D02*
X207240000Y-98480000D01*
X206840000Y-99080000D02*
X207640000Y-99080000D01*
X208140000Y-97430000D02*
X206340000Y-97430000D01*
X207240000Y-99080000D02*
X207240000Y-99580000D01*
X206340000Y-100230000D02*
X208140000Y-100230000D01*
X206340000Y-97430000D02*
X206340000Y-100230000D01*
X207240000Y-98480000D02*
X206690000Y-98480000D01*
X207240000Y-98080000D02*
X207240000Y-98480000D01*
X207240000Y-98480000D02*
X206840000Y-99080000D01*
X207240000Y-98480000D02*
X207790000Y-98480000D01*
X93730000Y-81240000D02*
X93730000Y-78440000D01*
X93230000Y-80090000D02*
X92830000Y-79490000D01*
X92430000Y-80090000D02*
X93230000Y-80090000D01*
X93730000Y-78440000D02*
X91930000Y-78440000D01*
X92830000Y-80090000D02*
X92830000Y-80590000D01*
X91930000Y-81240000D02*
X93730000Y-81240000D01*
X91930000Y-78440000D02*
X91930000Y-81240000D01*
X92830000Y-79490000D02*
X92280000Y-79490000D01*
X92830000Y-79090000D02*
X92830000Y-79490000D01*
X92830000Y-79490000D02*
X92430000Y-80090000D01*
X92830000Y-79490000D02*
X93380000Y-79490000D01*
X73650000Y-59900000D02*
X73650000Y-57100000D01*
X73150000Y-58750000D02*
X72750000Y-58150000D01*
X72350000Y-58750000D02*
X73150000Y-58750000D01*
X73650000Y-57100000D02*
X71850000Y-57100000D01*
X72750000Y-58750000D02*
X72750000Y-59250000D01*
X71850000Y-59900000D02*
X73650000Y-59900000D01*
X71850000Y-57100000D02*
X71850000Y-59900000D01*
X72750000Y-58150000D02*
X72200000Y-58150000D01*
X72750000Y-57750000D02*
X72750000Y-58150000D01*
X72750000Y-58150000D02*
X72350000Y-58750000D01*
X72750000Y-58150000D02*
X73300000Y-58150000D01*
X73590000Y-100430000D02*
X73590000Y-97630000D01*
X73090000Y-99280000D02*
X72690000Y-98680000D01*
X72290000Y-99280000D02*
X73090000Y-99280000D01*
X73590000Y-97630000D02*
X71790000Y-97630000D01*
X72690000Y-99280000D02*
X72690000Y-99780000D01*
X71790000Y-100430000D02*
X73590000Y-100430000D01*
X71790000Y-97630000D02*
X71790000Y-100430000D01*
X72690000Y-98680000D02*
X72140000Y-98680000D01*
X72690000Y-98280000D02*
X72690000Y-98680000D01*
X72690000Y-98680000D02*
X72290000Y-99280000D01*
X72690000Y-98680000D02*
X73240000Y-98680000D01*
X88530000Y-114150000D02*
X88530000Y-111350000D01*
X88030000Y-113000000D02*
X87630000Y-112400000D01*
X87230000Y-113000000D02*
X88030000Y-113000000D01*
X88530000Y-111350000D02*
X86730000Y-111350000D01*
X87630000Y-113000000D02*
X87630000Y-113500000D01*
X86730000Y-114150000D02*
X88530000Y-114150000D01*
X86730000Y-111350000D02*
X86730000Y-114150000D01*
X87630000Y-112400000D02*
X87080000Y-112400000D01*
X87630000Y-112000000D02*
X87630000Y-112400000D01*
X87630000Y-112400000D02*
X87230000Y-113000000D01*
X87630000Y-112400000D02*
X88180000Y-112400000D01*
X75920000Y-81330000D02*
X75920000Y-78530000D01*
X75420000Y-80180000D02*
X75020000Y-79580000D01*
X74620000Y-80180000D02*
X75420000Y-80180000D01*
X75920000Y-78530000D02*
X74120000Y-78530000D01*
X75020000Y-80180000D02*
X75020000Y-80680000D01*
X74120000Y-81330000D02*
X75920000Y-81330000D01*
X74120000Y-78530000D02*
X74120000Y-81330000D01*
X75020000Y-79580000D02*
X74470000Y-79580000D01*
X75020000Y-79180000D02*
X75020000Y-79580000D01*
X75020000Y-79580000D02*
X74620000Y-80180000D01*
X75020000Y-79580000D02*
X75570000Y-79580000D01*
X76280000Y-59900000D02*
X76280000Y-57100000D01*
X75780000Y-58750000D02*
X75380000Y-58150000D01*
X74980000Y-58750000D02*
X75780000Y-58750000D01*
X76280000Y-57100000D02*
X74480000Y-57100000D01*
X75380000Y-58750000D02*
X75380000Y-59250000D01*
X74480000Y-59900000D02*
X76280000Y-59900000D01*
X74480000Y-57100000D02*
X74480000Y-59900000D01*
X75380000Y-58150000D02*
X74830000Y-58150000D01*
X75380000Y-57750000D02*
X75380000Y-58150000D01*
X75380000Y-58150000D02*
X74980000Y-58750000D01*
X75380000Y-58150000D02*
X75930000Y-58150000D01*
X170130000Y-100310000D02*
X170130000Y-97510000D01*
X169630000Y-99160000D02*
X169230000Y-98560000D01*
X168830000Y-99160000D02*
X169630000Y-99160000D01*
X170130000Y-97510000D02*
X168330000Y-97510000D01*
X169230000Y-99160000D02*
X169230000Y-99660000D01*
X168330000Y-100310000D02*
X170130000Y-100310000D01*
X168330000Y-97510000D02*
X168330000Y-100310000D01*
X169230000Y-98560000D02*
X168680000Y-98560000D01*
X169230000Y-98160000D02*
X169230000Y-98560000D01*
X169230000Y-98560000D02*
X168830000Y-99160000D01*
X169230000Y-98560000D02*
X169780000Y-98560000D01*
X185390000Y-60160000D02*
X185390000Y-58560000D01*
X184590000Y-58560000D02*
X184590000Y-60160000D01*
X185390000Y-58560000D02*
X184590000Y-58560000D01*
X184590000Y-60160000D02*
X185390000Y-60160000D01*
X187230000Y-58520000D02*
X186430000Y-58520000D01*
X186430000Y-60120000D02*
X187230000Y-60120000D01*
X186430000Y-58520000D02*
X186430000Y-60120000D01*
X187230000Y-60120000D02*
X187230000Y-58520000D01*
X231700000Y-83900000D02*
X232500000Y-83900000D01*
X232500000Y-83900000D02*
X232500000Y-82300000D01*
X232500000Y-82300000D02*
X231700000Y-82300000D01*
X231700000Y-82300000D02*
X231700000Y-83900000D01*
X196102500Y-51770000D02*
X197702500Y-51770000D01*
X197702500Y-50970000D02*
X196102500Y-50970000D01*
X197702500Y-51770000D02*
X197702500Y-50970000D01*
X196102500Y-50970000D02*
X196102500Y-51770000D01*
X196062500Y-50010000D02*
X197662500Y-50010000D01*
X197662500Y-50010000D02*
X197662500Y-49210000D01*
X196062500Y-49210000D02*
X196062500Y-50010000D01*
X197662500Y-49210000D02*
X196062500Y-49210000D01*
X228787500Y-70800000D02*
X230387500Y-70800000D01*
X230387500Y-70000000D02*
X228787500Y-70000000D01*
X230387500Y-70800000D02*
X230387500Y-70000000D01*
X228787500Y-70000000D02*
X228787500Y-70800000D01*
X236000000Y-83800000D02*
X236000000Y-85300000D01*
X235500000Y-83300000D02*
X235500000Y-80900000D01*
X239300000Y-79500000D02*
X240700000Y-80900000D01*
X240200000Y-78900000D02*
X239700000Y-78900000D01*
X240200000Y-79400000D02*
X239700000Y-79400000D01*
X236100000Y-81100000D02*
X236100000Y-83100000D01*
X236000000Y-80400000D02*
X236000000Y-78900000D01*
X240700000Y-80900000D02*
X240700000Y-83300000D01*
X236000000Y-85300000D02*
X236500000Y-85300000D01*
X236000000Y-78900000D02*
X236500000Y-78900000D01*
X236900000Y-79500000D02*
X239300000Y-79500000D01*
X236500000Y-78900000D02*
X236500000Y-79900000D01*
X240200000Y-80400000D02*
X240200000Y-78900000D01*
X235500000Y-80900000D02*
X236900000Y-79500000D01*
X236000000Y-84800000D02*
X236500000Y-84800000D01*
X240100000Y-81100000D02*
X239100000Y-80100000D01*
X240200000Y-85300000D02*
X239700000Y-85300000D01*
X240700000Y-83300000D02*
X239300000Y-84700000D01*
X240100000Y-83100000D02*
X240100000Y-81100000D01*
X239700000Y-78900000D02*
X239700000Y-79900000D01*
X236100000Y-83100000D02*
X237100000Y-84100000D01*
X237100000Y-80100000D02*
X236100000Y-81100000D01*
X239100000Y-84100000D02*
X240100000Y-83100000D01*
X236000000Y-79400000D02*
X236500000Y-79400000D01*
X236500000Y-85300000D02*
X236500000Y-84300000D01*
X240200000Y-83800000D02*
X240200000Y-85300000D01*
X237100000Y-84100000D02*
X239100000Y-84100000D01*
X239100000Y-80100000D02*
X237100000Y-80100000D01*
X236900000Y-84700000D02*
X235500000Y-83300000D01*
X239700000Y-85300000D02*
X239700000Y-84300000D01*
X240200000Y-84800000D02*
X239700000Y-84800000D01*
X239300000Y-84700000D02*
X236900000Y-84700000D01*
X239100000Y-82100000D02*
G75*
G03*
X239100000Y-82100000I-1000000J0D01*
G01*
X208200000Y-60200000D02*
X208200000Y-57400000D01*
X207700000Y-59050000D02*
X207300000Y-58450000D01*
X206900000Y-59050000D02*
X207700000Y-59050000D01*
X208200000Y-57400000D02*
X206400000Y-57400000D01*
X207300000Y-59050000D02*
X207300000Y-59550000D01*
X206400000Y-60200000D02*
X208200000Y-60200000D01*
X206400000Y-57400000D02*
X206400000Y-60200000D01*
X207300000Y-58450000D02*
X206750000Y-58450000D01*
X207300000Y-58050000D02*
X207300000Y-58450000D01*
X207300000Y-58450000D02*
X206900000Y-59050000D01*
X207300000Y-58450000D02*
X207850000Y-58450000D01*
X238000000Y-60800000D02*
X237500000Y-60300000D01*
X238000000Y-63300000D02*
X236400000Y-63300000D01*
X238000000Y-60800000D02*
X238000000Y-63300000D01*
X236400000Y-63300000D02*
X236400000Y-60300000D01*
X237500000Y-60300000D02*
X236400000Y-60300000D01*
X188900000Y-56200000D02*
X188900000Y-57800000D01*
X189700000Y-57800000D02*
X189700000Y-56200000D01*
X188900000Y-57800000D02*
X189700000Y-57800000D01*
X189700000Y-56200000D02*
X188900000Y-56200000D01*
X124090000Y-114300000D02*
X124090000Y-111500000D01*
X123590000Y-113150000D02*
X123190000Y-112550000D01*
X122790000Y-113150000D02*
X123590000Y-113150000D01*
X124090000Y-111500000D02*
X122290000Y-111500000D01*
X123190000Y-113150000D02*
X123190000Y-113650000D01*
X122290000Y-114300000D02*
X124090000Y-114300000D01*
X122290000Y-111500000D02*
X122290000Y-114300000D01*
X123190000Y-112550000D02*
X122640000Y-112550000D01*
X123190000Y-112150000D02*
X123190000Y-112550000D01*
X123190000Y-112550000D02*
X122790000Y-113150000D01*
X123190000Y-112550000D02*
X123740000Y-112550000D01*
X211720000Y-114300000D02*
X211720000Y-111500000D01*
X211220000Y-113150000D02*
X210820000Y-112550000D01*
X210420000Y-113150000D02*
X211220000Y-113150000D01*
X211720000Y-111500000D02*
X209920000Y-111500000D01*
X210820000Y-113150000D02*
X210820000Y-113650000D01*
X209920000Y-114300000D02*
X211720000Y-114300000D01*
X209920000Y-111500000D02*
X209920000Y-114300000D01*
X210820000Y-112550000D02*
X210270000Y-112550000D01*
X210820000Y-112150000D02*
X210820000Y-112550000D01*
X210820000Y-112550000D02*
X210420000Y-113150000D01*
X210820000Y-112550000D02*
X211370000Y-112550000D01*
X230420000Y-87820000D02*
X229780000Y-87820000D01*
X225340000Y-87820000D02*
X224700000Y-87820000D01*
X227880000Y-87820000D02*
X227240000Y-87820000D01*
X107950000Y-112280000D02*
X107950000Y-112680000D01*
X108850000Y-111630000D02*
X107050000Y-111630000D01*
X107050000Y-114430000D02*
X108850000Y-114430000D01*
X107950000Y-113280000D02*
X107950000Y-113780000D01*
X107550000Y-113280000D02*
X108350000Y-113280000D01*
X107950000Y-112680000D02*
X107400000Y-112680000D01*
X107950000Y-112680000D02*
X107550000Y-113280000D01*
X108350000Y-113280000D02*
X107950000Y-112680000D01*
X107050000Y-111630000D02*
X107050000Y-114430000D01*
X107950000Y-112680000D02*
X108500000Y-112680000D01*
X108850000Y-114430000D02*
X108850000Y-111630000D01*
D16*
X163843206Y-112131308D02*
X163843206Y-112531308D01*
X164743206Y-111481308D02*
X162943206Y-111481308D01*
X162943206Y-114281308D02*
X164743206Y-114281308D01*
X163843206Y-113131308D02*
X163843206Y-113631308D01*
X163443206Y-113131308D02*
X164243206Y-113131308D01*
X163843206Y-112531308D02*
X163293206Y-112531308D01*
X163843206Y-112531308D02*
X163443206Y-113131308D01*
X164243206Y-113131308D02*
X163843206Y-112531308D01*
X162943206Y-111481308D02*
X162943206Y-114281308D01*
X163843206Y-112531308D02*
X164393206Y-112531308D01*
X164743206Y-114281308D02*
X164743206Y-111481308D01*
M02*
