G04 #@! TF.GenerationSoftware,KiCad,Pcbnew,(5.99.0-2555-g9cc6a77cc-dirty)*
G04 #@! TF.CreationDate,2020-09-08T07:39:34-05:00*
G04 #@! TF.ProjectId,_33,5f33332e-6b69-4636-9164-5f7063625858,rev?*
G04 #@! TF.SameCoordinates,Original*
G04 #@! TF.FileFunction,Glue,Bot*
G04 #@! TF.FilePolarity,Positive*
%FSLAX46Y46*%
G04 Gerber Fmt 4.6, Leading zero omitted, Abs format (unit mm)*
G04 Created by KiCad (PCBNEW (5.99.0-2555-g9cc6a77cc-dirty)) date 2020-09-08 07:39:34*
%MOMM*%
%LPD*%
G01*
G04 APERTURE LIST*
G04 #@! TA.AperFunction,Profile*
%ADD10C,0.050000*%
G04 #@! TD*
G04 #@! TA.AperFunction,Profile*
%ADD11C,0.100000*%
G04 #@! TD*
G04 APERTURE END LIST*
G36*
D10*
X241750000Y-48140000D02*
G75*
G02*
X244000199Y-50390199I0J-2250199D01*
G01*
X182420000Y-48160000D02*
X97178803Y-48212991D01*
X227600000Y-121950000D02*
X216250000Y-121940000D01*
X84250000Y-121887009D02*
X72680000Y-121910000D01*
X207910222Y-121897009D02*
G75*
G02*
X216250000Y-121940000I4169778J-42991D01*
G01*
X72680000Y-121910000D02*
G75*
G02*
X70670000Y-119900000I0J2010000D01*
G01*
X231620000Y-100890000D02*
X241980000Y-100890000D01*
X241980000Y-100890000D02*
G75*
G03*
X243990000Y-98880000I0J2010000D01*
G01*
X229610000Y-119940000D02*
X229610000Y-102900000D01*
X231620000Y-100890000D02*
G75*
G03*
X229610000Y-102900000I0J-2010000D01*
G01*
X227600000Y-121950000D02*
G75*
G03*
X229610000Y-119940000I0J2010000D01*
G01*
X56289801Y-50410000D02*
G75*
G02*
X58540000Y-48159801I2250199J0D01*
G01*
D11*
X56290000Y-98880000D02*
X56289801Y-50410000D01*
D10*
X68660000Y-100890000D02*
G75*
G02*
X70670000Y-102900000I0J-2010000D01*
G01*
X211489778Y-48182991D02*
G75*
G02*
X203150000Y-48140000I-4169778J42991D01*
G01*
X58540000Y-48159801D02*
X88839025Y-48170000D01*
X84250000Y-121887009D02*
G75*
G02*
X92589778Y-121930000I4169778J-42991D01*
G01*
D11*
X244000199Y-50390199D02*
X243990000Y-98880000D01*
D10*
X58300000Y-100890000D02*
G75*
G02*
X56290000Y-98880000I0J2010000D01*
G01*
X182420000Y-48160000D02*
X182420000Y-45500000D01*
X241750000Y-48140000D02*
X211489778Y-48182991D01*
D11*
X207910222Y-121897009D02*
X92589778Y-121930000D01*
D10*
X68660000Y-100890000D02*
X58300000Y-100890000D01*
X182420000Y-45500000D02*
X193510000Y-45500000D01*
X97178803Y-48212991D02*
G75*
G02*
X88839025Y-48170000I-4169778J42991D01*
G01*
X70670000Y-119900000D02*
X70670000Y-102900000D01*
X193510000Y-45500000D02*
X193510000Y-48160000D01*
X193510000Y-48160000D02*
X203150000Y-48140000D01*
G37*
M02*
