<?xml version='1.0' encoding='utf-8'?>
<svg xmlns="http://www.w3.org/2000/svg" width="187.810398" height="82.239999" viewBox="0 0 187.810398 82.239999"><g id="all"><rect x="112.5102" y="33.87" width="1.2" height="0.9" stroke="#ff0000" fill="none" stroke-width="0.5" /><rect x="112.5102" y="37.17" width="1.2" height="0.9" stroke="#ff0000" fill="none" stroke-width="0.5" /><rect x="131.2602" y="52.81" width="1.2" height="0.9" stroke="#ff0000" fill="none" stroke-width="0.5" /><rect x="131.2602" y="56.11" width="1.2" height="0.9" stroke="#ff0000" fill="none" stroke-width="0.5" /><rect x="93.2702" y="33.89" width="1.2" height="0.9" stroke="#ff0000" fill="none" stroke-width="0.5" /><rect x="93.2702" y="37.19" width="1.2" height="0.9" stroke="#ff0000" fill="none" stroke-width="0.5" /><rect x="113.1602" y="12.48" width="1.2" height="0.9" stroke="#ff0000" fill="none" stroke-width="0.5" /><rect x="113.1602" y="15.78" width="1.2" height="0.9" stroke="#ff0000" fill="none" stroke-width="0.5" /><rect x="55.0102" y="52.98" width="1.2" height="0.9" stroke="#ff0000" fill="none" stroke-width="0.5" /><rect x="55.0102" y="56.28" width="1.2" height="0.9" stroke="#ff0000" fill="none" stroke-width="0.5" /><rect x="156.5202" y="66.88" width="1.2" height="0.9" stroke="#ff0000" fill="none" stroke-width="0.5" /><rect x="156.5202" y="70.18" width="1.2" height="0.9" stroke="#ff0000" fill="none" stroke-width="0.5" /><rect x="131.2402" y="33.84" width="1.2" height="0.9" stroke="#ff0000" fill="none" stroke-width="0.5" /><rect x="131.2402" y="37.14" width="1.2" height="0.9" stroke="#ff0000" fill="none" stroke-width="0.5" /><rect x="93.2402" y="12.48" width="1.2" height="0.9" stroke="#ff0000" fill="none" stroke-width="0.5" /><rect x="93.2402" y="15.78" width="1.2" height="0.9" stroke="#ff0000" fill="none" stroke-width="0.5" /><rect x="95.0602" y="52.76" width="1.2" height="0.9" stroke="#ff0000" fill="none" stroke-width="0.5" /><rect x="95.0602" y="56.06" width="1.2" height="0.9" stroke="#ff0000" fill="none" stroke-width="0.5" /><rect x="169.2802" y="33.78" width="1.2" height="0.9" stroke="#ff0000" fill="none" stroke-width="0.5" /><rect x="169.2802" y="37.08" width="1.2" height="0.9" stroke="#ff0000" fill="none" stroke-width="0.5" /><rect x="36.1602" y="12.48" width="1.2" height="0.9" stroke="#ff0000" fill="none" stroke-width="0.5" /><rect x="36.1602" y="15.78" width="1.2" height="0.9" stroke="#ff0000" fill="none" stroke-width="0.5" /><rect x="169.1902" y="52.86" width="1.2" height="0.9" stroke="#ff0000" fill="none" stroke-width="0.5" /><rect x="169.1902" y="56.16" width="1.2" height="0.9" stroke="#ff0000" fill="none" stroke-width="0.5" /><rect x="150.4402" y="33.83" width="1.2" height="0.9" stroke="#ff0000" fill="none" stroke-width="0.5" /><rect x="150.4402" y="37.13" width="1.2" height="0.9" stroke="#ff0000" fill="none" stroke-width="0.5" /><rect x="136.6602" y="15.98" width="0.9" height="1.2" stroke="#ff0000" fill="none" stroke-width="0.5" /><rect x="139.9602" y="15.98" width="0.9" height="1.2" stroke="#ff0000" fill="none" stroke-width="0.5" /><rect x="18.3302" y="53.01" width="1.2" height="0.9" stroke="#ff0000" fill="none" stroke-width="0.5" /><rect x="18.3302" y="56.31" width="1.2" height="0.9" stroke="#ff0000" fill="none" stroke-width="0.5" /><rect x="82.8602" y="66.92" width="1.2" height="0.9" stroke="#ff0000" fill="none" stroke-width="0.5" /><rect x="82.8602" y="70.22" width="1.2" height="0.9" stroke="#ff0000" fill="none" stroke-width="0.5" /><rect x="55.1902" y="33.82" width="1.2" height="0.9" stroke="#ff0000" fill="none" stroke-width="0.5" /><rect x="55.1902" y="37.12" width="1.2" height="0.9" stroke="#ff0000" fill="none" stroke-width="0.5" /><rect x="74.1602" y="12.48" width="1.2" height="0.9" stroke="#ff0000" fill="none" stroke-width="0.5" /><rect x="74.1602" y="15.78" width="1.2" height="0.9" stroke="#ff0000" fill="none" stroke-width="0.5" /><rect x="73.4202" y="52.78" width="1.2" height="0.9" stroke="#ff0000" fill="none" stroke-width="0.5" /><rect x="73.4202" y="56.08" width="1.2" height="0.9" stroke="#ff0000" fill="none" stroke-width="0.5" /><rect x="74.3202" y="33.86" width="1.2" height="0.9" stroke="#ff0000" fill="none" stroke-width="0.5" /><rect x="74.3202" y="37.16" width="1.2" height="0.9" stroke="#ff0000" fill="none" stroke-width="0.5" /><rect x="162.1302" y="16.98" width="0.9" height="1.2" stroke="#ff0000" fill="none" stroke-width="0.5" /><rect x="158.8302" y="16.98" width="0.9" height="1.2" stroke="#ff0000" fill="none" stroke-width="0.5" /><rect x="36.2502" y="52.98" width="1.2" height="0.9" stroke="#ff0000" fill="none" stroke-width="0.5" /><rect x="36.2502" y="56.28" width="1.2" height="0.9" stroke="#ff0000" fill="none" stroke-width="0.5" /><rect x="15.8002" y="33.91" width="1.2" height="0.9" stroke="#ff0000" fill="none" stroke-width="0.5" /><rect x="15.8002" y="37.21" width="1.2" height="0.9" stroke="#ff0000" fill="none" stroke-width="0.5" /><rect x="55.5402" y="12.48" width="1.2" height="0.9" stroke="#ff0000" fill="none" stroke-width="0.5" /><rect x="55.5402" y="15.78" width="1.2" height="0.9" stroke="#ff0000" fill="none" stroke-width="0.5" /><rect x="150.4002" y="52.81" width="1.2" height="0.9" stroke="#ff0000" fill="none" stroke-width="0.5" /><rect x="150.4002" y="56.11" width="1.2" height="0.9" stroke="#ff0000" fill="none" stroke-width="0.5" /><rect x="35.9902" y="33.82" width="1.2" height="0.9" stroke="#ff0000" fill="none" stroke-width="0.5" /><rect x="35.9902" y="37.12" width="1.2" height="0.9" stroke="#ff0000" fill="none" stroke-width="0.5" /><rect x="15.9102" y="12.48" width="1.2" height="0.9" stroke="#ff0000" fill="none" stroke-width="0.5" /><rect x="15.9102" y="15.78" width="1.2" height="0.9" stroke="#ff0000" fill="none" stroke-width="0.5" /><rect x="15.8502" y="53.01" width="1.2" height="0.9" stroke="#ff0000" fill="none" stroke-width="0.5" /><rect x="15.8502" y="56.31" width="1.2" height="0.9" stroke="#ff0000" fill="none" stroke-width="0.5" /><rect x="30.7902" y="66.73" width="1.2" height="0.9" stroke="#ff0000" fill="none" stroke-width="0.5" /><rect x="30.7902" y="70.03" width="1.2" height="0.9" stroke="#ff0000" fill="none" stroke-width="0.5" /><rect x="18.1802" y="33.91" width="1.2" height="0.9" stroke="#ff0000" fill="none" stroke-width="0.5" /><rect x="18.1802" y="37.21" width="1.2" height="0.9" stroke="#ff0000" fill="none" stroke-width="0.5" /><rect x="18.5402" y="12.48" width="1.2" height="0.9" stroke="#ff0000" fill="none" stroke-width="0.5" /><rect x="18.5402" y="15.78" width="1.2" height="0.9" stroke="#ff0000" fill="none" stroke-width="0.5" /><rect x="112.3902" y="52.89" width="1.2" height="0.9" stroke="#ff0000" fill="none" stroke-width="0.5" /><rect x="112.3902" y="56.19" width="1.2" height="0.9" stroke="#ff0000" fill="none" stroke-width="0.5" /><rect x="183.2602" y="34.18" width="1" height="1.7" stroke="#ff0000" fill="none" stroke-width="0.5" /><rect x="183.2602" y="40.48" width="1" height="1.7" stroke="#ff0000" fill="none" stroke-width="0.5" /><rect x="179.4602" y="34.18" width="1" height="1.7" stroke="#ff0000" fill="none" stroke-width="0.5" /><rect x="179.4602" y="40.48" width="1" height="1.7" stroke="#ff0000" fill="none" stroke-width="0.5" /><rect x="150.4602" y="12.78" width="1.2" height="0.9" stroke="#ff0000" fill="none" stroke-width="0.5" /><rect x="150.4602" y="16.08" width="1.2" height="0.9" stroke="#ff0000" fill="none" stroke-width="0.5" /><rect x="179.3602" y="16.48" width="3.2" height="0.4" stroke="#ff0000" fill="none" stroke-width="0.5" /><rect x="179.3602" y="17.68" width="3.2" height="0.4" stroke="#ff0000" fill="none" stroke-width="0.5" /><rect x="179.3602" y="18.88" width="3.2" height="0.4" stroke="#ff0000" fill="none" stroke-width="0.5" /><rect x="66.3502" y="66.88" width="1.2" height="0.9" stroke="#ff0000" fill="none" stroke-width="0.5" /><rect x="66.3502" y="70.18" width="1.2" height="0.9" stroke="#ff0000" fill="none" stroke-width="0.5" /><rect x="153.9802" y="66.88" width="1.2" height="0.9" stroke="#ff0000" fill="none" stroke-width="0.5" /><rect x="153.9802" y="70.18" width="1.2" height="0.9" stroke="#ff0000" fill="none" stroke-width="0.5" /><rect x="128.2452" y="7.12" width="0.6" height="2.45" stroke="#ff0000" fill="none" stroke-width="0.5" /><rect x="129.0202" y="7.12" width="0.6" height="2.45" stroke="#ff0000" fill="none" stroke-width="0.5" /><rect x="129.8702" y="7.12" width="0.3" height="2.45" stroke="#ff0000" fill="none" stroke-width="0.5" /><rect x="130.3702" y="7.12" width="0.3" height="2.45" stroke="#ff0000" fill="none" stroke-width="0.5" /><rect x="130.8702" y="7.12" width="0.3" height="2.45" stroke="#ff0000" fill="none" stroke-width="0.5" /><rect x="131.3702" y="7.12" width="0.3" height="2.45" stroke="#ff0000" fill="none" stroke-width="0.5" /><rect x="131.8702" y="7.12" width="0.3" height="2.45" stroke="#ff0000" fill="none" stroke-width="0.5" /><rect x="132.3702" y="7.12" width="0.3" height="2.45" stroke="#ff0000" fill="none" stroke-width="0.5" /><rect x="132.8702" y="7.12" width="0.3" height="2.45" stroke="#ff0000" fill="none" stroke-width="0.5" /><rect x="133.3702" y="7.12" width="0.3" height="2.45" stroke="#ff0000" fill="none" stroke-width="0.5" /><rect x="133.9202" y="7.12" width="0.6" height="2.45" stroke="#ff0000" fill="none" stroke-width="0.5" /><rect x="134.6952" y="7.12" width="0.6" height="2.45" stroke="#ff0000" fill="none" stroke-width="0.5" /><rect x="51.1102" y="67.01" width="1.2" height="0.9" stroke="#ff0000" fill="none" stroke-width="0.5" /><rect x="51.1102" y="70.31" width="1.2" height="0.9" stroke="#ff0000" fill="none" stroke-width="0.5" /><rect x="176.4102" y="17.005" width="1.6" height="0.55" stroke="#ff0000" fill="none" stroke-width="0.5" /><rect x="176.4102" y="17.805" width="1.6" height="0.55" stroke="#ff0000" fill="none" stroke-width="0.5" /><rect x="176.4102" y="18.605" width="1.6" height="0.55" stroke="#ff0000" fill="none" stroke-width="0.5" /><rect x="176.4102" y="19.405" width="1.6" height="0.55" stroke="#ff0000" fill="none" stroke-width="0.5" /><rect x="176.4102" y="20.205" width="1.6" height="0.55" stroke="#ff0000" fill="none" stroke-width="0.5" /><rect x="176.4102" y="21.005" width="1.6" height="0.55" stroke="#ff0000" fill="none" stroke-width="0.5" /><rect x="176.4102" y="21.805" width="1.6" height="0.55" stroke="#ff0000" fill="none" stroke-width="0.5" /><rect x="176.4102" y="22.605" width="1.6" height="0.55" stroke="#ff0000" fill="none" stroke-width="0.5" /><rect x="175.4852" y="23.53" width="0.55" height="1.6" stroke="#ff0000" fill="none" stroke-width="0.5" /><rect x="174.6852" y="23.53" width="0.55" height="1.6" stroke="#ff0000" fill="none" stroke-width="0.5" /><rect x="173.8852" y="23.53" width="0.55" height="1.6" stroke="#ff0000" fill="none" stroke-width="0.5" /><rect x="173.0852" y="23.53" width="0.55" height="1.6" stroke="#ff0000" fill="none" stroke-width="0.5" /><rect x="172.2852" y="23.53" width="0.55" height="1.6" stroke="#ff0000" fill="none" stroke-width="0.5" /><rect x="171.4852" y="23.53" width="0.55" height="1.6" stroke="#ff0000" fill="none" stroke-width="0.5" /><rect x="170.6852" y="23.53" width="0.55" height="1.6" stroke="#ff0000" fill="none" stroke-width="0.5" /><rect x="169.8852" y="23.53" width="0.55" height="1.6" stroke="#ff0000" fill="none" stroke-width="0.5" /><rect x="167.9102" y="22.605" width="1.6" height="0.55" stroke="#ff0000" fill="none" stroke-width="0.5" /><rect x="167.9102" y="21.805" width="1.6" height="0.55" stroke="#ff0000" fill="none" stroke-width="0.5" /><rect x="167.9102" y="21.005" width="1.6" height="0.55" stroke="#ff0000" fill="none" stroke-width="0.5" /><rect x="167.9102" y="20.205" width="1.6" height="0.55" stroke="#ff0000" fill="none" stroke-width="0.5" /><rect x="167.9102" y="19.405" width="1.6" height="0.55" stroke="#ff0000" fill="none" stroke-width="0.5" /><rect x="167.9102" y="18.605" width="1.6" height="0.55" stroke="#ff0000" fill="none" stroke-width="0.5" /><rect x="167.9102" y="17.805" width="1.6" height="0.55" stroke="#ff0000" fill="none" stroke-width="0.5" /><rect x="167.9102" y="17.005" width="1.6" height="0.55" stroke="#ff0000" fill="none" stroke-width="0.5" /><rect x="169.8852" y="15.03" width="0.55" height="1.6" stroke="#ff0000" fill="none" stroke-width="0.5" /><rect x="170.6852" y="15.03" width="0.55" height="1.6" stroke="#ff0000" fill="none" stroke-width="0.5" /><rect x="171.4852" y="15.03" width="0.55" height="1.6" stroke="#ff0000" fill="none" stroke-width="0.5" /><rect x="172.2852" y="15.03" width="0.55" height="1.6" stroke="#ff0000" fill="none" stroke-width="0.5" /><rect x="173.0852" y="15.03" width="0.55" height="1.6" stroke="#ff0000" fill="none" stroke-width="0.5" /><rect x="173.8852" y="15.03" width="0.55" height="1.6" stroke="#ff0000" fill="none" stroke-width="0.5" /><rect x="174.6852" y="15.03" width="0.55" height="1.6" stroke="#ff0000" fill="none" stroke-width="0.5" /><rect x="175.4852" y="15.03" width="0.55" height="1.6" stroke="#ff0000" fill="none" stroke-width="0.5" /><rect x="107.0034" y="66.8613" width="1.2" height="0.9" stroke="#ff0000" fill="none" stroke-width="0.5" /><rect x="107.0034" y="70.1613" width="1.2" height="0.9" stroke="#ff0000" fill="none" stroke-width="0.5" /></g><g id="small_circles" /></svg>