<?xml version='1.0' encoding='utf-8'?>
<svg xmlns="http://www.w3.org/2000/svg" width="187.810398" height="76.55" viewBox="0 0 187.810398 76.55"><g id="all"><rect x="40.939" y="2.2365" width="85.2412" height="1" transform="rotate(-0.0356,83.5596,2.7365)" stroke="#ff0000" fill="none" stroke-width="0.5" /><rect x="124.8502" y="0.88" width="2.66" height="1" transform="rotate(-90,126.1802,1.38)" stroke="#ff0000" fill="none" stroke-width="0.5" /><rect x="126.1802" y="-0.45" width="11.09" height="1" transform="rotate(0,131.7252,0.05)" stroke="#ff0000" fill="none" stroke-width="0.5" /><rect x="135.9402" y="0.88" width="2.66" height="1" transform="rotate(90,137.2702,1.38)" stroke="#ff0000" fill="none" stroke-width="0.5" /><rect x="137.2702" y="2.2" width="9.64" height="1" transform="rotate(-0.1189,142.0902,2.7)" stroke="#ff0000" fill="none" stroke-width="0.5" /><rect x="155.25" y="2.2115" width="30.2603" height="1" transform="rotate(-0.0814,170.3801,2.7115)" stroke="#ff0000" fill="none" stroke-width="0.5" /><rect x="163.5104" y="28.6851" width="48.4898" height="1" transform="rotate(90.0121,187.7553,29.1851)" stroke="#ff0000" fill="none" stroke-width="0.5" /><rect x="175.3802" y="54.94" width="10.36" height="1" transform="rotate(180,180.5602,55.44)" stroke="#ff0000" fill="none" stroke-width="0.5" /><rect x="164.8502" y="65.47" width="17.04" height="1" transform="rotate(90,173.3702,65.97)" stroke="#ff0000" fill="none" stroke-width="0.5" /><rect x="160.0102" y="75.995" width="11.35" height="1" transform="rotate(-179.9495,165.6852,76.495)" stroke="#ff0000" fill="none" stroke-width="0.5" /><rect x="36.35" y="75.9635" width="115.3204" height="1" transform="rotate(179.9836,94.0102,76.4635)" stroke="#ff0000" fill="none" stroke-width="0.5" /><rect x="16.4402" y="75.9485" width="11.57" height="1" transform="rotate(179.8861,22.2252,76.4485)" stroke="#ff0000" fill="none" stroke-width="0.5" /><rect x="5.9302" y="65.45" width="17" height="1" transform="rotate(-90,14.4302,65.95)" stroke="#ff0000" fill="none" stroke-width="0.5" /><rect x="2.0602" y="54.94" width="10.36" height="1" transform="rotate(180,7.2402,55.44)" stroke="#ff0000" fill="none" stroke-width="0.5" /><rect x="-24.1849" y="28.695" width="48.47" height="1" transform="rotate(-90.0002,0.0501,29.195)" stroke="#ff0000" fill="none" stroke-width="0.5" /><rect x="2.3002" y="2.2149" width="30.299" height="1" transform="rotate(0.0193,17.4497,2.7149)" stroke="#ff0000" fill="none" stroke-width="0.5" /></g><g id="small_circles" /></svg>