<?xml version='1.0' encoding='utf-8'?>
<svg xmlns="http://www.w3.org/2000/svg" width="187.810398" height="82.239999" viewBox="0 0 187.810398 82.239999"><g id="all"><rect x="185.4439" y="4.0282" width="1.7414" height="1" transform="rotate(22.5,186.3146,4.5282)" stroke="#ff0000" fill="none" stroke-width="0.5" /><rect x="186.5815" y="5.1658" width="1.7414" height="1" transform="rotate(67.5,187.4522,5.6658)" stroke="#ff0000" fill="none" stroke-width="0.5" /><rect x="186.558" y="5.1835" width="1.7031" height="1" transform="rotate(-112.5,187.4095,5.6835)" stroke="#ff0000" fill="none" stroke-width="0.5" /><rect x="185.4454" y="4.0709" width="1.7031" height="1" transform="rotate(-157.5,186.2969,4.5709)" stroke="#ff0000" fill="none" stroke-width="0.5" /><rect x="40.939" y="3.7915" width="85.2412" height="1" transform="rotate(179.9644,83.5596,4.2915)" stroke="#ff0000" fill="none" stroke-width="0.5" /><rect x="40.939" y="3.7415" width="85.2412" height="1" transform="rotate(-0.0356,83.5596,4.2415)" stroke="#ff0000" fill="none" stroke-width="0.5" /><rect x="160.0102" y="77.55" width="11.35" height="1" transform="rotate(-179.9495,165.6852,78.05)" stroke="#ff0000" fill="none" stroke-width="0.5" /><rect x="160.0102" y="77.5" width="11.35" height="1" transform="rotate(0.0505,165.6852,78)" stroke="#ff0000" fill="none" stroke-width="0.5" /><rect x="16.4402" y="77.5035" width="11.57" height="1" transform="rotate(179.8861,22.2252,78.0035)" stroke="#ff0000" fill="none" stroke-width="0.5" /><rect x="16.4401" y="77.4535" width="11.57" height="1" transform="rotate(-0.1139,22.2251,77.9535)" stroke="#ff0000" fill="none" stroke-width="0.5" /><rect x="150.9965" y="76.6782" width="1.6315" height="1" transform="rotate(-78.1966,151.8123,77.1782)" stroke="#ff0000" fill="none" stroke-width="0.5" /><rect x="151.6223" y="75.2053" width="1.6315" height="1" transform="rotate(-55.7704,152.438,75.7053)" stroke="#ff0000" fill="none" stroke-width="0.5" /><rect x="152.7626" y="74.0824" width="1.6315" height="1" transform="rotate(-33.3441,153.5784,74.5824)" stroke="#ff0000" fill="none" stroke-width="0.5" /><rect x="154.2451" y="73.4795" width="1.6315" height="1" transform="rotate(-10.9178,155.0608,73.9795)" stroke="#ff0000" fill="none" stroke-width="0.5" /><rect x="155.8454" y="73.4878" width="1.6315" height="1" transform="rotate(11.5085,156.6612,73.9878)" stroke="#ff0000" fill="none" stroke-width="0.5" /><rect x="157.3216" y="74.1059" width="1.6315" height="1" transform="rotate(33.9348,158.1373,74.6059)" stroke="#ff0000" fill="none" stroke-width="0.5" /><rect x="158.4503" y="75.2405" width="1.6315" height="1" transform="rotate(56.3611,159.2661,75.7405)" stroke="#ff0000" fill="none" stroke-width="0.5" /><rect x="159.0608" y="76.7198" width="1.6315" height="1" transform="rotate(78.7874,159.8766,77.2198)" stroke="#ff0000" fill="none" stroke-width="0.5" /><rect x="159.0224" y="76.7294" width="1.6121" height="1" transform="rotate(-101.2135,159.8285,77.2294)" stroke="#ff0000" fill="none" stroke-width="0.5" /><rect x="158.4192" y="75.2677" width="1.6121" height="1" transform="rotate(-123.6396,159.2252,75.7677)" stroke="#ff0000" fill="none" stroke-width="0.5" /><rect x="157.3039" y="74.1467" width="1.6121" height="1" transform="rotate(-146.0656,158.1099,74.6467)" stroke="#ff0000" fill="none" stroke-width="0.5" /><rect x="155.8454" y="73.5359" width="1.6121" height="1" transform="rotate(-168.4916,156.6514,74.0359)" stroke="#ff0000" fill="none" stroke-width="0.5" /><rect x="154.2641" y="73.5278" width="1.6121" height="1" transform="rotate(169.0823,155.0701,74.0278)" stroke="#ff0000" fill="none" stroke-width="0.5" /><rect x="152.7993" y="74.1235" width="1.6121" height="1" transform="rotate(146.6563,153.6053,74.6235)" stroke="#ff0000" fill="none" stroke-width="0.5" /><rect x="151.6726" y="75.2329" width="1.6121" height="1" transform="rotate(124.2303,152.4786,75.7329)" stroke="#ff0000" fill="none" stroke-width="0.5" /><rect x="151.0543" y="76.6883" width="1.6121" height="1" transform="rotate(101.8042,151.8603,77.1883)" stroke="#ff0000" fill="none" stroke-width="0.5" /><rect x="14.942" y="77.217" width="1.5575" height="1" transform="rotate(-157.5,15.7207,77.717)" stroke="#ff0000" fill="none" stroke-width="0.5" /><rect x="13.9245" y="76.1995" width="1.5575" height="1" transform="rotate(-112.5,14.7032,76.6995)" stroke="#ff0000" fill="none" stroke-width="0.5" /><rect x="13.9863" y="76.1818" width="1.5193" height="1" transform="rotate(67.5,14.7459,76.6818)" stroke="#ff0000" fill="none" stroke-width="0.5" /><rect x="14.9788" y="77.1743" width="1.5193" height="1" transform="rotate(22.5,15.7384,77.6743)" stroke="#ff0000" fill="none" stroke-width="0.5" /><rect x="175.3802" y="56.445" width="10.36" height="1" transform="rotate(0,180.5602,56.945)" stroke="#ff0000" fill="none" stroke-width="0.5" /><rect x="175.3802" y="56.495" width="10.36" height="1" transform="rotate(180,180.5602,56.995)" stroke="#ff0000" fill="none" stroke-width="0.5" /><rect x="186.6984" y="55.1795" width="1.5575" height="1" transform="rotate(112.5,187.4772,55.6795)" stroke="#ff0000" fill="none" stroke-width="0.5" /><rect x="185.6809" y="56.197" width="1.5575" height="1" transform="rotate(157.5,186.4597,56.697)" stroke="#ff0000" fill="none" stroke-width="0.5" /><rect x="185.6824" y="56.1543" width="1.5193" height="1" transform="rotate(-22.5,186.442,56.6543)" stroke="#ff0000" fill="none" stroke-width="0.5" /><rect x="186.6749" y="55.1618" width="1.5193" height="1" transform="rotate(-67.5,187.4345,55.6618)" stroke="#ff0000" fill="none" stroke-width="0.5" /><rect x="164.8252" y="67" width="17.04" height="1" transform="rotate(-90,173.3452,67.5)" stroke="#ff0000" fill="none" stroke-width="0.5" /><rect x="164.8752" y="67" width="17.04" height="1" transform="rotate(90,173.3952,67.5)" stroke="#ff0000" fill="none" stroke-width="0.5" /><rect x="172.8645" y="57.7605" width="1.5575" height="1" transform="rotate(-67.5,173.6432,58.2605)" stroke="#ff0000" fill="none" stroke-width="0.5" /><rect x="173.882" y="56.743" width="1.5575" height="1" transform="rotate(-22.5,174.6607,57.243)" stroke="#ff0000" fill="none" stroke-width="0.5" /><rect x="173.9188" y="56.7857" width="1.5193" height="1" transform="rotate(157.5,174.6784,57.2857)" stroke="#ff0000" fill="none" stroke-width="0.5" /><rect x="172.9263" y="57.7782" width="1.5193" height="1" transform="rotate(112.5,173.6859,58.2782)" stroke="#ff0000" fill="none" stroke-width="0.5" /><rect x="172.3184" y="76.2395" width="1.5575" height="1" transform="rotate(112.5,173.0972,76.7395)" stroke="#ff0000" fill="none" stroke-width="0.5" /><rect x="171.3009" y="77.257" width="1.5575" height="1" transform="rotate(157.5,172.0797,77.757)" stroke="#ff0000" fill="none" stroke-width="0.5" /><rect x="171.3024" y="77.2143" width="1.5193" height="1" transform="rotate(-22.5,172.062,77.7143)" stroke="#ff0000" fill="none" stroke-width="0.5" /><rect x="172.2949" y="76.2218" width="1.5193" height="1" transform="rotate(-67.5,173.0545,76.7218)" stroke="#ff0000" fill="none" stroke-width="0.5" /><rect x="-0.5125" y="5.1856" width="1.7414" height="1" transform="rotate(-67.5,0.3582,5.6856)" stroke="#ff0000" fill="none" stroke-width="0.5" /><rect x="0.6251" y="4.048" width="1.7414" height="1" transform="rotate(-22.5,1.4958,4.548)" stroke="#ff0000" fill="none" stroke-width="0.5" /><rect x="0.6619" y="4.0907" width="1.7031" height="1" transform="rotate(157.5,1.5135,4.5907)" stroke="#ff0000" fill="none" stroke-width="0.5" /><rect x="-0.4507" y="5.2033" width="1.7031" height="1" transform="rotate(112.5,0.4009,5.7033)" stroke="#ff0000" fill="none" stroke-width="0.5" /><rect x="-24.2349" y="30.225" width="48.47" height="1" transform="rotate(-90.0002,0.0001,30.725)" stroke="#ff0000" fill="none" stroke-width="0.5" /><rect x="-24.1349" y="30.225" width="48.47" height="1" transform="rotate(89.9998,0.1001,30.725)" stroke="#ff0000" fill="none" stroke-width="0.5" /><rect x="12.3609" y="56.743" width="1.5575" height="1" transform="rotate(22.5,13.1397,57.243)" stroke="#ff0000" fill="none" stroke-width="0.5" /><rect x="13.3784" y="57.7605" width="1.5575" height="1" transform="rotate(67.5,14.1572,58.2605)" stroke="#ff0000" fill="none" stroke-width="0.5" /><rect x="13.3549" y="57.7782" width="1.5193" height="1" transform="rotate(-112.5,14.1145,58.2782)" stroke="#ff0000" fill="none" stroke-width="0.5" /><rect x="12.3624" y="56.7857" width="1.5193" height="1" transform="rotate(-157.5,13.122,57.2857)" stroke="#ff0000" fill="none" stroke-width="0.5" /><rect x="154.2924" y="4.5618" width="1.6315" height="1" transform="rotate(101.8034,155.1081,5.0618)" stroke="#ff0000" fill="none" stroke-width="0.5" /><rect x="153.6666" y="6.0347" width="1.6315" height="1" transform="rotate(124.2296,154.4824,6.5347)" stroke="#ff0000" fill="none" stroke-width="0.5" /><rect x="152.5263" y="7.1576" width="1.6315" height="1" transform="rotate(146.6559,153.342,7.6576)" stroke="#ff0000" fill="none" stroke-width="0.5" /><rect x="151.0438" y="7.7605" width="1.6315" height="1" transform="rotate(169.0822,151.8596,8.2605)" stroke="#ff0000" fill="none" stroke-width="0.5" /><rect x="149.4435" y="7.7522" width="1.6315" height="1" transform="rotate(-168.4915,150.2592,8.2522)" stroke="#ff0000" fill="none" stroke-width="0.5" /><rect x="147.9673" y="7.1341" width="1.6315" height="1" transform="rotate(-146.0652,148.783,7.6341)" stroke="#ff0000" fill="none" stroke-width="0.5" /><rect x="146.8386" y="5.9995" width="1.6315" height="1" transform="rotate(-123.6389,147.6543,6.4995)" stroke="#ff0000" fill="none" stroke-width="0.5" /><rect x="146.2281" y="4.5202" width="1.6315" height="1" transform="rotate(-101.2126,147.0438,5.0202)" stroke="#ff0000" fill="none" stroke-width="0.5" /><rect x="146.2859" y="4.5106" width="1.6121" height="1" transform="rotate(78.7865,147.0919,5.0106)" stroke="#ff0000" fill="none" stroke-width="0.5" /><rect x="146.8892" y="5.9723" width="1.6121" height="1" transform="rotate(56.3604,147.6952,6.4723)" stroke="#ff0000" fill="none" stroke-width="0.5" /><rect x="148.0044" y="7.0933" width="1.6121" height="1" transform="rotate(33.9344,148.8105,7.5933)" stroke="#ff0000" fill="none" stroke-width="0.5" /><rect x="149.463" y="7.7041" width="1.6121" height="1" transform="rotate(11.5084,150.269,8.2041)" stroke="#ff0000" fill="none" stroke-width="0.5" /><rect x="151.0442" y="7.7122" width="1.6121" height="1" transform="rotate(-10.9177,151.8503,8.2122)" stroke="#ff0000" fill="none" stroke-width="0.5" /><rect x="152.509" y="7.1165" width="1.6121" height="1" transform="rotate(-33.3437,153.315,7.6165)" stroke="#ff0000" fill="none" stroke-width="0.5" /><rect x="153.6358" y="6.0071" width="1.6121" height="1" transform="rotate(-55.7697,154.4418,6.5071)" stroke="#ff0000" fill="none" stroke-width="0.5" /><rect x="154.2541" y="4.5517" width="1.6121" height="1" transform="rotate(-78.1958,155.0601,5.0517)" stroke="#ff0000" fill="none" stroke-width="0.5" /><rect x="2.3002" y="3.7199" width="30.299" height="1" transform="rotate(0.0193,17.4497,4.2199)" stroke="#ff0000" fill="none" stroke-width="0.5" /><rect x="2.3002" y="3.7699" width="30.299" height="1" transform="rotate(-179.9807,17.4497,4.2699)" stroke="#ff0000" fill="none" stroke-width="0.5" /><rect x="27.3363" y="76.6682" width="1.6315" height="1" transform="rotate(-78.1966,28.1521,77.1682)" stroke="#ff0000" fill="none" stroke-width="0.5" /><rect x="27.962" y="75.1953" width="1.6315" height="1" transform="rotate(-55.7704,28.7778,75.6953)" stroke="#ff0000" fill="none" stroke-width="0.5" /><rect x="29.1024" y="74.0724" width="1.6315" height="1" transform="rotate(-33.3441,29.9181,74.5724)" stroke="#ff0000" fill="none" stroke-width="0.5" /><rect x="30.5849" y="73.4695" width="1.6315" height="1" transform="rotate(-10.9178,31.4006,73.9695)" stroke="#ff0000" fill="none" stroke-width="0.5" /><rect x="32.1852" y="73.4778" width="1.6315" height="1" transform="rotate(11.5085,33.001,73.9778)" stroke="#ff0000" fill="none" stroke-width="0.5" /><rect x="33.6614" y="74.0959" width="1.6315" height="1" transform="rotate(33.9348,34.4771,74.5959)" stroke="#ff0000" fill="none" stroke-width="0.5" /><rect x="34.7901" y="75.2305" width="1.6315" height="1" transform="rotate(56.3611,35.6058,75.7305)" stroke="#ff0000" fill="none" stroke-width="0.5" /><rect x="35.4006" y="76.7098" width="1.6315" height="1" transform="rotate(78.7874,36.2164,77.2098)" stroke="#ff0000" fill="none" stroke-width="0.5" /><rect x="35.3622" y="76.7194" width="1.6121" height="1" transform="rotate(-101.2135,36.1682,77.2194)" stroke="#ff0000" fill="none" stroke-width="0.5" /><rect x="34.759" y="75.2577" width="1.6121" height="1" transform="rotate(-123.6396,35.565,75.7577)" stroke="#ff0000" fill="none" stroke-width="0.5" /><rect x="33.6437" y="74.1367" width="1.6121" height="1" transform="rotate(-146.0656,34.4497,74.6367)" stroke="#ff0000" fill="none" stroke-width="0.5" /><rect x="32.1851" y="73.5259" width="1.6121" height="1" transform="rotate(-168.4916,32.9912,74.0259)" stroke="#ff0000" fill="none" stroke-width="0.5" /><rect x="30.6039" y="73.5178" width="1.6121" height="1" transform="rotate(169.0823,31.4099,74.0178)" stroke="#ff0000" fill="none" stroke-width="0.5" /><rect x="29.1391" y="74.1135" width="1.6121" height="1" transform="rotate(146.6563,29.9451,74.6135)" stroke="#ff0000" fill="none" stroke-width="0.5" /><rect x="28.0124" y="75.2229" width="1.6121" height="1" transform="rotate(124.2303,28.8184,75.7229)" stroke="#ff0000" fill="none" stroke-width="0.5" /><rect x="27.3941" y="76.6783" width="1.6121" height="1" transform="rotate(101.8042,28.2001,77.1783)" stroke="#ff0000" fill="none" stroke-width="0.5" /><rect x="163.5604" y="30.2151" width="48.4898" height="1" transform="rotate(90.0121,187.8053,30.7151)" stroke="#ff0000" fill="none" stroke-width="0.5" /><rect x="163.4604" y="30.2151" width="48.4898" height="1" transform="rotate(-89.9879,187.7053,30.7151)" stroke="#ff0000" fill="none" stroke-width="0.5" /><rect x="0.562" y="56.197" width="1.5575" height="1" transform="rotate(-157.5,1.3407,56.697)" stroke="#ff0000" fill="none" stroke-width="0.5" /><rect x="-0.4555" y="55.1795" width="1.5575" height="1" transform="rotate(-112.5,0.3232,55.6795)" stroke="#ff0000" fill="none" stroke-width="0.5" /><rect x="-0.3937" y="55.1618" width="1.5193" height="1" transform="rotate(67.5,0.3659,55.6618)" stroke="#ff0000" fill="none" stroke-width="0.5" /><rect x="0.5988" y="56.1543" width="1.5193" height="1" transform="rotate(22.5,1.3584,56.6543)" stroke="#ff0000" fill="none" stroke-width="0.5" /><rect x="124.8252" y="2.41" width="2.66" height="1" transform="rotate(-90,126.1552,2.91)" stroke="#ff0000" fill="none" stroke-width="0.5" /><rect x="124.8752" y="2.41" width="2.66" height="1" transform="rotate(90,126.2052,2.91)" stroke="#ff0000" fill="none" stroke-width="0.5" /><rect x="155.25" y="3.7665" width="30.2603" height="1" transform="rotate(179.9186,170.3801,4.2665)" stroke="#ff0000" fill="none" stroke-width="0.5" /><rect x="155.2499" y="3.7165" width="30.2603" height="1" transform="rotate(-0.0814,170.3801,4.2165)" stroke="#ff0000" fill="none" stroke-width="0.5" /><rect x="36.35" y="77.5435" width="115.3204" height="1" transform="rotate(179.9836,94.0102,78.0435)" stroke="#ff0000" fill="none" stroke-width="0.5" /><rect x="36.35" y="77.4435" width="115.3204" height="1" transform="rotate(-0.0164,94.0102,77.9435)" stroke="#ff0000" fill="none" stroke-width="0.5" /><rect x="2.0602" y="56.495" width="10.36" height="1" transform="rotate(180,7.2402,56.995)" stroke="#ff0000" fill="none" stroke-width="0.5" /><rect x="2.0602" y="56.445" width="10.36" height="1" transform="rotate(0,7.2402,56.945)" stroke="#ff0000" fill="none" stroke-width="0.5" /><rect x="126.1802" y="1.055" width="11.09" height="1" transform="rotate(0,131.7252,1.555)" stroke="#ff0000" fill="none" stroke-width="0.5" /><rect x="126.1802" y="1.105" width="11.09" height="1" transform="rotate(180,131.7252,1.605)" stroke="#ff0000" fill="none" stroke-width="0.5" /><rect x="39.9814" y="4.5918" width="1.6315" height="1" transform="rotate(101.8034,40.7971,5.0918)" stroke="#ff0000" fill="none" stroke-width="0.5" /><rect x="39.3556" y="6.0647" width="1.6315" height="1" transform="rotate(124.2296,40.1714,6.5647)" stroke="#ff0000" fill="none" stroke-width="0.5" /><rect x="38.2153" y="7.1876" width="1.6315" height="1" transform="rotate(146.6559,39.0311,7.6876)" stroke="#ff0000" fill="none" stroke-width="0.5" /><rect x="36.7328" y="7.7905" width="1.6315" height="1" transform="rotate(169.0822,37.5486,8.2905)" stroke="#ff0000" fill="none" stroke-width="0.5" /><rect x="35.1325" y="7.7822" width="1.6315" height="1" transform="rotate(-168.4915,35.9482,8.2822)" stroke="#ff0000" fill="none" stroke-width="0.5" /><rect x="33.6563" y="7.1641" width="1.6315" height="1" transform="rotate(-146.0652,34.4721,7.6641)" stroke="#ff0000" fill="none" stroke-width="0.5" /><rect x="32.5276" y="6.0295" width="1.6315" height="1" transform="rotate(-123.6389,33.3434,6.5295)" stroke="#ff0000" fill="none" stroke-width="0.5" /><rect x="31.9171" y="4.5502" width="1.6315" height="1" transform="rotate(-101.2126,32.7328,5.0502)" stroke="#ff0000" fill="none" stroke-width="0.5" /><rect x="31.9749" y="4.5406" width="1.6121" height="1" transform="rotate(78.7865,32.781,5.0406)" stroke="#ff0000" fill="none" stroke-width="0.5" /><rect x="32.5782" y="6.0023" width="1.6121" height="1" transform="rotate(56.3604,33.3842,6.5023)" stroke="#ff0000" fill="none" stroke-width="0.5" /><rect x="33.6935" y="7.1233" width="1.6121" height="1" transform="rotate(33.9344,34.4995,7.6233)" stroke="#ff0000" fill="none" stroke-width="0.5" /><rect x="35.152" y="7.7341" width="1.6121" height="1" transform="rotate(11.5084,35.958,8.2341)" stroke="#ff0000" fill="none" stroke-width="0.5" /><rect x="36.7333" y="7.7422" width="1.6121" height="1" transform="rotate(-10.9177,37.5393,8.2422)" stroke="#ff0000" fill="none" stroke-width="0.5" /><rect x="38.198" y="7.1465" width="1.6121" height="1" transform="rotate(-33.3437,39.0041,7.6465)" stroke="#ff0000" fill="none" stroke-width="0.5" /><rect x="39.3248" y="6.0371" width="1.6121" height="1" transform="rotate(-55.7697,40.1308,6.5371)" stroke="#ff0000" fill="none" stroke-width="0.5" /><rect x="39.9431" y="4.5817" width="1.6121" height="1" transform="rotate(-78.1958,40.7491,5.0817)" stroke="#ff0000" fill="none" stroke-width="0.5" /><rect x="5.9052" y="66.98" width="17" height="1" transform="rotate(-90,14.4052,67.48)" stroke="#ff0000" fill="none" stroke-width="0.5" /><rect x="5.9552" y="66.98" width="17" height="1" transform="rotate(90,14.4552,67.48)" stroke="#ff0000" fill="none" stroke-width="0.5" /><rect x="135.9652" y="2.41" width="2.66" height="1" transform="rotate(90,137.2952,2.91)" stroke="#ff0000" fill="none" stroke-width="0.5" /><rect x="135.9152" y="2.41" width="2.66" height="1" transform="rotate(-90,137.2452,2.91)" stroke="#ff0000" fill="none" stroke-width="0.5" /><rect x="137.2701" y="3.705" width="9.64" height="1" transform="rotate(-0.1189,142.0901,4.205)" stroke="#ff0000" fill="none" stroke-width="0.5" /><rect x="137.2702" y="3.755" width="9.64" height="1" transform="rotate(179.8811,142.0903,4.255)" stroke="#ff0000" fill="none" stroke-width="0.5" /><rect x="112.5102" y="33.87" width="1.2" height="0.9" stroke="#ff0000" fill="none" stroke-width="0.5" /><rect x="112.5102" y="37.17" width="1.2" height="0.9" stroke="#ff0000" fill="none" stroke-width="0.5" /><rect x="131.2602" y="52.81" width="1.2" height="0.9" stroke="#ff0000" fill="none" stroke-width="0.5" /><rect x="131.2602" y="56.11" width="1.2" height="0.9" stroke="#ff0000" fill="none" stroke-width="0.5" /><rect x="93.2702" y="33.89" width="1.2" height="0.9" stroke="#ff0000" fill="none" stroke-width="0.5" /><rect x="93.2702" y="37.19" width="1.2" height="0.9" stroke="#ff0000" fill="none" stroke-width="0.5" /><rect x="113.1602" y="12.48" width="1.2" height="0.9" stroke="#ff0000" fill="none" stroke-width="0.5" /><rect x="113.1602" y="15.78" width="1.2" height="0.9" stroke="#ff0000" fill="none" stroke-width="0.5" /><rect x="55.0102" y="52.98" width="1.2" height="0.9" stroke="#ff0000" fill="none" stroke-width="0.5" /><rect x="55.0102" y="56.28" width="1.2" height="0.9" stroke="#ff0000" fill="none" stroke-width="0.5" /><rect x="156.5202" y="66.88" width="1.2" height="0.9" stroke="#ff0000" fill="none" stroke-width="0.5" /><rect x="156.5202" y="70.18" width="1.2" height="0.9" stroke="#ff0000" fill="none" stroke-width="0.5" /><rect x="131.2402" y="33.84" width="1.2" height="0.9" stroke="#ff0000" fill="none" stroke-width="0.5" /><rect x="131.2402" y="37.14" width="1.2" height="0.9" stroke="#ff0000" fill="none" stroke-width="0.5" /><rect x="93.2402" y="12.48" width="1.2" height="0.9" stroke="#ff0000" fill="none" stroke-width="0.5" /><rect x="93.2402" y="15.78" width="1.2" height="0.9" stroke="#ff0000" fill="none" stroke-width="0.5" /><rect x="95.0602" y="52.76" width="1.2" height="0.9" stroke="#ff0000" fill="none" stroke-width="0.5" /><rect x="95.0602" y="56.06" width="1.2" height="0.9" stroke="#ff0000" fill="none" stroke-width="0.5" /><rect x="169.2802" y="33.78" width="1.2" height="0.9" stroke="#ff0000" fill="none" stroke-width="0.5" /><rect x="169.2802" y="37.08" width="1.2" height="0.9" stroke="#ff0000" fill="none" stroke-width="0.5" /><rect x="36.1602" y="12.48" width="1.2" height="0.9" stroke="#ff0000" fill="none" stroke-width="0.5" /><rect x="36.1602" y="15.78" width="1.2" height="0.9" stroke="#ff0000" fill="none" stroke-width="0.5" /><rect x="169.1902" y="52.86" width="1.2" height="0.9" stroke="#ff0000" fill="none" stroke-width="0.5" /><rect x="169.1902" y="56.16" width="1.2" height="0.9" stroke="#ff0000" fill="none" stroke-width="0.5" /><rect x="150.4402" y="33.83" width="1.2" height="0.9" stroke="#ff0000" fill="none" stroke-width="0.5" /><rect x="150.4402" y="37.13" width="1.2" height="0.9" stroke="#ff0000" fill="none" stroke-width="0.5" /><rect x="136.6602" y="15.98" width="0.9" height="1.2" stroke="#ff0000" fill="none" stroke-width="0.5" /><rect x="139.9602" y="15.98" width="0.9" height="1.2" stroke="#ff0000" fill="none" stroke-width="0.5" /><rect x="18.3302" y="53.01" width="1.2" height="0.9" stroke="#ff0000" fill="none" stroke-width="0.5" /><rect x="18.3302" y="56.31" width="1.2" height="0.9" stroke="#ff0000" fill="none" stroke-width="0.5" /><rect x="82.8602" y="66.92" width="1.2" height="0.9" stroke="#ff0000" fill="none" stroke-width="0.5" /><rect x="82.8602" y="70.22" width="1.2" height="0.9" stroke="#ff0000" fill="none" stroke-width="0.5" /><rect x="55.1902" y="33.82" width="1.2" height="0.9" stroke="#ff0000" fill="none" stroke-width="0.5" /><rect x="55.1902" y="37.12" width="1.2" height="0.9" stroke="#ff0000" fill="none" stroke-width="0.5" /><rect x="74.1602" y="12.48" width="1.2" height="0.9" stroke="#ff0000" fill="none" stroke-width="0.5" /><rect x="74.1602" y="15.78" width="1.2" height="0.9" stroke="#ff0000" fill="none" stroke-width="0.5" /><rect x="73.4202" y="52.78" width="1.2" height="0.9" stroke="#ff0000" fill="none" stroke-width="0.5" /><rect x="73.4202" y="56.08" width="1.2" height="0.9" stroke="#ff0000" fill="none" stroke-width="0.5" /><rect x="74.3202" y="33.86" width="1.2" height="0.9" stroke="#ff0000" fill="none" stroke-width="0.5" /><rect x="74.3202" y="37.16" width="1.2" height="0.9" stroke="#ff0000" fill="none" stroke-width="0.5" /><rect x="162.1302" y="16.98" width="0.9" height="1.2" stroke="#ff0000" fill="none" stroke-width="0.5" /><rect x="158.8302" y="16.98" width="0.9" height="1.2" stroke="#ff0000" fill="none" stroke-width="0.5" /><rect x="36.2502" y="52.98" width="1.2" height="0.9" stroke="#ff0000" fill="none" stroke-width="0.5" /><rect x="36.2502" y="56.28" width="1.2" height="0.9" stroke="#ff0000" fill="none" stroke-width="0.5" /><rect x="15.8002" y="33.91" width="1.2" height="0.9" stroke="#ff0000" fill="none" stroke-width="0.5" /><rect x="15.8002" y="37.21" width="1.2" height="0.9" stroke="#ff0000" fill="none" stroke-width="0.5" /><rect x="55.5402" y="12.48" width="1.2" height="0.9" stroke="#ff0000" fill="none" stroke-width="0.5" /><rect x="55.5402" y="15.78" width="1.2" height="0.9" stroke="#ff0000" fill="none" stroke-width="0.5" /><rect x="150.4002" y="52.81" width="1.2" height="0.9" stroke="#ff0000" fill="none" stroke-width="0.5" /><rect x="150.4002" y="56.11" width="1.2" height="0.9" stroke="#ff0000" fill="none" stroke-width="0.5" /><rect x="35.9902" y="33.82" width="1.2" height="0.9" stroke="#ff0000" fill="none" stroke-width="0.5" /><rect x="35.9902" y="37.12" width="1.2" height="0.9" stroke="#ff0000" fill="none" stroke-width="0.5" /><rect x="15.9102" y="12.48" width="1.2" height="0.9" stroke="#ff0000" fill="none" stroke-width="0.5" /><rect x="15.9102" y="15.78" width="1.2" height="0.9" stroke="#ff0000" fill="none" stroke-width="0.5" /><rect x="15.8502" y="53.01" width="1.2" height="0.9" stroke="#ff0000" fill="none" stroke-width="0.5" /><rect x="15.8502" y="56.31" width="1.2" height="0.9" stroke="#ff0000" fill="none" stroke-width="0.5" /><rect x="30.7902" y="66.73" width="1.2" height="0.9" stroke="#ff0000" fill="none" stroke-width="0.5" /><rect x="30.7902" y="70.03" width="1.2" height="0.9" stroke="#ff0000" fill="none" stroke-width="0.5" /><rect x="18.1802" y="33.91" width="1.2" height="0.9" stroke="#ff0000" fill="none" stroke-width="0.5" /><rect x="18.1802" y="37.21" width="1.2" height="0.9" stroke="#ff0000" fill="none" stroke-width="0.5" /><rect x="18.5402" y="12.48" width="1.2" height="0.9" stroke="#ff0000" fill="none" stroke-width="0.5" /><rect x="18.5402" y="15.78" width="1.2" height="0.9" stroke="#ff0000" fill="none" stroke-width="0.5" /><rect x="112.3902" y="52.89" width="1.2" height="0.9" stroke="#ff0000" fill="none" stroke-width="0.5" /><rect x="112.3902" y="56.19" width="1.2" height="0.9" stroke="#ff0000" fill="none" stroke-width="0.5" /><rect x="183.2602" y="34.18" width="1" height="1.7" stroke="#ff0000" fill="none" stroke-width="0.5" /><rect x="183.2602" y="40.48" width="1" height="1.7" stroke="#ff0000" fill="none" stroke-width="0.5" /><rect x="179.4602" y="34.18" width="1" height="1.7" stroke="#ff0000" fill="none" stroke-width="0.5" /><rect x="179.4602" y="40.48" width="1" height="1.7" stroke="#ff0000" fill="none" stroke-width="0.5" /><rect x="150.4602" y="12.78" width="1.2" height="0.9" stroke="#ff0000" fill="none" stroke-width="0.5" /><rect x="150.4602" y="16.08" width="1.2" height="0.9" stroke="#ff0000" fill="none" stroke-width="0.5" /><rect x="179.3602" y="16.48" width="3.2" height="0.4" stroke="#ff0000" fill="none" stroke-width="0.5" /><rect x="179.3602" y="17.68" width="3.2" height="0.4" stroke="#ff0000" fill="none" stroke-width="0.5" /><rect x="179.3602" y="18.88" width="3.2" height="0.4" stroke="#ff0000" fill="none" stroke-width="0.5" /><rect x="66.3502" y="66.88" width="1.2" height="0.9" stroke="#ff0000" fill="none" stroke-width="0.5" /><rect x="66.3502" y="70.18" width="1.2" height="0.9" stroke="#ff0000" fill="none" stroke-width="0.5" /><rect x="153.9802" y="66.88" width="1.2" height="0.9" stroke="#ff0000" fill="none" stroke-width="0.5" /><rect x="153.9802" y="70.18" width="1.2" height="0.9" stroke="#ff0000" fill="none" stroke-width="0.5" /><rect x="128.2452" y="7.12" width="0.6" height="2.45" stroke="#ff0000" fill="none" stroke-width="0.5" /><rect x="129.0202" y="7.12" width="0.6" height="2.45" stroke="#ff0000" fill="none" stroke-width="0.5" /><rect x="129.8702" y="7.12" width="0.3" height="2.45" stroke="#ff0000" fill="none" stroke-width="0.5" /><rect x="130.3702" y="7.12" width="0.3" height="2.45" stroke="#ff0000" fill="none" stroke-width="0.5" /><rect x="130.8702" y="7.12" width="0.3" height="2.45" stroke="#ff0000" fill="none" stroke-width="0.5" /><rect x="131.3702" y="7.12" width="0.3" height="2.45" stroke="#ff0000" fill="none" stroke-width="0.5" /><rect x="131.8702" y="7.12" width="0.3" height="2.45" stroke="#ff0000" fill="none" stroke-width="0.5" /><rect x="132.3702" y="7.12" width="0.3" height="2.45" stroke="#ff0000" fill="none" stroke-width="0.5" /><rect x="132.8702" y="7.12" width="0.3" height="2.45" stroke="#ff0000" fill="none" stroke-width="0.5" /><rect x="133.3702" y="7.12" width="0.3" height="2.45" stroke="#ff0000" fill="none" stroke-width="0.5" /><rect x="133.9202" y="7.12" width="0.6" height="2.45" stroke="#ff0000" fill="none" stroke-width="0.5" /><rect x="134.6952" y="7.12" width="0.6" height="2.45" stroke="#ff0000" fill="none" stroke-width="0.5" /><rect x="51.1102" y="67.01" width="1.2" height="0.9" stroke="#ff0000" fill="none" stroke-width="0.5" /><rect x="51.1102" y="70.31" width="1.2" height="0.9" stroke="#ff0000" fill="none" stroke-width="0.5" /><rect x="176.4102" y="17.005" width="1.6" height="0.55" stroke="#ff0000" fill="none" stroke-width="0.5" /><rect x="176.4102" y="17.805" width="1.6" height="0.55" stroke="#ff0000" fill="none" stroke-width="0.5" /><rect x="176.4102" y="18.605" width="1.6" height="0.55" stroke="#ff0000" fill="none" stroke-width="0.5" /><rect x="176.4102" y="19.405" width="1.6" height="0.55" stroke="#ff0000" fill="none" stroke-width="0.5" /><rect x="176.4102" y="20.205" width="1.6" height="0.55" stroke="#ff0000" fill="none" stroke-width="0.5" /><rect x="176.4102" y="21.005" width="1.6" height="0.55" stroke="#ff0000" fill="none" stroke-width="0.5" /><rect x="176.4102" y="21.805" width="1.6" height="0.55" stroke="#ff0000" fill="none" stroke-width="0.5" /><rect x="176.4102" y="22.605" width="1.6" height="0.55" stroke="#ff0000" fill="none" stroke-width="0.5" /><rect x="175.4852" y="23.53" width="0.55" height="1.6" stroke="#ff0000" fill="none" stroke-width="0.5" /><rect x="174.6852" y="23.53" width="0.55" height="1.6" stroke="#ff0000" fill="none" stroke-width="0.5" /><rect x="173.8852" y="23.53" width="0.55" height="1.6" stroke="#ff0000" fill="none" stroke-width="0.5" /><rect x="173.0852" y="23.53" width="0.55" height="1.6" stroke="#ff0000" fill="none" stroke-width="0.5" /><rect x="172.2852" y="23.53" width="0.55" height="1.6" stroke="#ff0000" fill="none" stroke-width="0.5" /><rect x="171.4852" y="23.53" width="0.55" height="1.6" stroke="#ff0000" fill="none" stroke-width="0.5" /><rect x="170.6852" y="23.53" width="0.55" height="1.6" stroke="#ff0000" fill="none" stroke-width="0.5" /><rect x="169.8852" y="23.53" width="0.55" height="1.6" stroke="#ff0000" fill="none" stroke-width="0.5" /><rect x="167.9102" y="22.605" width="1.6" height="0.55" stroke="#ff0000" fill="none" stroke-width="0.5" /><rect x="167.9102" y="21.805" width="1.6" height="0.55" stroke="#ff0000" fill="none" stroke-width="0.5" /><rect x="167.9102" y="21.005" width="1.6" height="0.55" stroke="#ff0000" fill="none" stroke-width="0.5" /><rect x="167.9102" y="20.205" width="1.6" height="0.55" stroke="#ff0000" fill="none" stroke-width="0.5" /><rect x="167.9102" y="19.405" width="1.6" height="0.55" stroke="#ff0000" fill="none" stroke-width="0.5" /><rect x="167.9102" y="18.605" width="1.6" height="0.55" stroke="#ff0000" fill="none" stroke-width="0.5" /><rect x="167.9102" y="17.805" width="1.6" height="0.55" stroke="#ff0000" fill="none" stroke-width="0.5" /><rect x="167.9102" y="17.005" width="1.6" height="0.55" stroke="#ff0000" fill="none" stroke-width="0.5" /><rect x="169.8852" y="15.03" width="0.55" height="1.6" stroke="#ff0000" fill="none" stroke-width="0.5" /><rect x="170.6852" y="15.03" width="0.55" height="1.6" stroke="#ff0000" fill="none" stroke-width="0.5" /><rect x="171.4852" y="15.03" width="0.55" height="1.6" stroke="#ff0000" fill="none" stroke-width="0.5" /><rect x="172.2852" y="15.03" width="0.55" height="1.6" stroke="#ff0000" fill="none" stroke-width="0.5" /><rect x="173.0852" y="15.03" width="0.55" height="1.6" stroke="#ff0000" fill="none" stroke-width="0.5" /><rect x="173.8852" y="15.03" width="0.55" height="1.6" stroke="#ff0000" fill="none" stroke-width="0.5" /><rect x="174.6852" y="15.03" width="0.55" height="1.6" stroke="#ff0000" fill="none" stroke-width="0.5" /><rect x="175.4852" y="15.03" width="0.55" height="1.6" stroke="#ff0000" fill="none" stroke-width="0.5" /><rect x="107.0034" y="66.8613" width="1.2" height="0.9" stroke="#ff0000" fill="none" stroke-width="0.5" /><rect x="107.0034" y="70.1613" width="1.2" height="0.9" stroke="#ff0000" fill="none" stroke-width="0.5" /></g><g id="small_circles" /></svg>