M48
; DRILL file {KiCad (5.99.0-2555-g9cc6a77cc-dirty)} date 09/08/20 07:01:27
; FORMAT={-:-/ absolute / inch / decimal}
; #@! TF.CreationDate,2020-09-08T07:01:27-05:00
; #@! TF.GenerationSoftware,Kicad,Pcbnew,(5.99.0-2555-g9cc6a77cc-dirty)
; #@! TF.FileFunction,NonPlated,1,2,NPTH
FMAT,2
INCH
T1C0.0256
T2C0.0689
T3C0.1200
T4C0.1570
%
G90
G05
T1
X7.2882Y-1.9811
X7.5157Y-1.9811
T2
X3.837Y-3.6945
X4.237Y-3.6945
X3.087Y-2.9445
X3.487Y-2.9445
X3.837Y-2.1945
X4.237Y-2.1945
X8.337Y-2.1945
X8.737Y-2.1945
X3.837Y-2.9445
X4.237Y-2.9445
X5.337Y-2.9445
X5.737Y-2.9445
X2.337Y-3.6945
X2.737Y-3.6945
X4.587Y-2.9445
X4.987Y-2.9445
X5.337Y-2.1945
X5.737Y-2.1945
X3.087Y-3.6945
X3.487Y-3.6945
X2.8086Y-4.4445
X3.2086Y-4.4445
X4.587Y-3.6945
X4.987Y-3.6945
X6.087Y-2.9445
X6.487Y-2.9445
X5.712Y-4.4445
X6.112Y-4.4445
X7.587Y-2.9445
X7.987Y-2.9445
X8.5249Y-4.4445
X8.9249Y-4.4445
X6.837Y-3.6945
X7.237Y-3.6945
X5.337Y-3.6945
X5.737Y-3.6945
X9.087Y-2.1945
X9.487Y-2.1945
X2.337Y-2.1945
X2.737Y-2.1945
X6.837Y-2.9445
X7.237Y-2.9445
X6.5586Y-4.4445
X6.9586Y-4.4445
X9.087Y-3.6945
X9.487Y-3.6945
X3.087Y-2.1945
X3.487Y-2.1945
X6.087Y-2.1945
X6.487Y-2.1945
X6.087Y-3.6945
X6.487Y-3.6945
X7.7774Y-4.4445
X8.1774Y-4.4445
X2.9024Y-4.4445
X3.3024Y-4.4445
X4.587Y-2.1945
X4.987Y-2.1945
X2.337Y-2.9445
X2.737Y-2.9445
X8.337Y-3.6945
X8.737Y-3.6945
X9.087Y-2.9445
X9.487Y-2.9445
X3.6524Y-4.4445
X4.0524Y-4.4445
X7.587Y-2.1945
X7.987Y-2.1945
X7.587Y-3.6945
X7.987Y-3.6945
X4.9649Y-4.4445
X5.3649Y-4.4445
X6.837Y-2.1945
X7.237Y-2.1945
X8.6211Y-4.4445
X9.0211Y-4.4445
X8.337Y-2.9445
X8.737Y-2.9445
T3
X6.2899Y-4.7195
X7.2274Y-4.7195
X4.6961Y-4.7195
X5.6336Y-4.7195
X3.9435Y-4.7195
X7.8805Y-4.7195
T4
X3.287Y-2.1945
X6.287Y-2.1945
X6.287Y-3.6945
X7.9774Y-4.4445
X3.1024Y-4.4445
X4.787Y-2.1945
X2.537Y-2.9445
X8.537Y-3.6945
X9.287Y-2.9445
X3.8524Y-4.4445
X7.787Y-2.1945
X7.787Y-3.6945
X4.6961Y-4.1195
X5.1649Y-4.4445
X5.6336Y-4.1195
X7.037Y-2.1945
X8.8211Y-4.4445
X8.537Y-2.9445
X4.037Y-3.6945
X3.287Y-2.9445
X4.037Y-2.1945
X8.537Y-2.1945
X4.037Y-2.9445
X5.537Y-2.9445
X2.537Y-3.6945
X4.787Y-2.9445
X5.537Y-2.1945
X3.287Y-3.6945
X3.0086Y-4.4445
X4.787Y-3.6945
X6.287Y-2.9445
X3.9435Y-4.1195
X5.912Y-4.4445
X7.8805Y-4.1195
X7.787Y-2.9445
X8.7249Y-4.4445
X7.037Y-3.6945
X5.537Y-3.6945
X9.287Y-2.1945
X2.537Y-2.1945
X7.037Y-2.9445
X6.2899Y-4.1195
X6.7586Y-4.4445
X7.2274Y-4.1195
X9.287Y-3.6945
T0
M30
