G04 #@! TF.GenerationSoftware,KiCad,Pcbnew,(5.99.0-2555-g9cc6a77cc-dirty)*
G04 #@! TF.CreationDate,2020-09-08T07:39:34-05:00*
G04 #@! TF.ProjectId,_33,5f33332e-6b69-4636-9164-5f7063625858,rev?*
G04 #@! TF.SameCoordinates,Original*
G04 #@! TF.FileFunction,Paste,Bot*
G04 #@! TF.FilePolarity,Positive*
%FSLAX46Y46*%
G04 Gerber Fmt 4.6, Leading zero omitted, Abs format (unit mm)*
G04 Created by KiCad (PCBNEW (5.99.0-2555-g9cc6a77cc-dirty)) date 2020-09-08 07:39:34*
%MOMM*%
%LPD*%
G01*
G04 APERTURE LIST*
G04 #@! TA.AperFunction,Profile*
%ADD10C,0.050000*%
G04 #@! TD*
G04 #@! TA.AperFunction,Profile*
%ADD11C,0.100000*%
G04 #@! TD*
%ADD12R,1.200000X0.900000*%
%ADD13R,0.900000X1.200000*%
%ADD14R,1.000000X1.700000*%
%ADD15R,3.200000X0.400000*%
%ADD16R,0.600000X2.450000*%
%ADD17R,0.300000X2.450000*%
%ADD18R,1.600000X0.550000*%
%ADD19R,0.550000X1.600000*%
G04 APERTURE END LIST*
D10*
X241750000Y-48140000D02*
G75*
G02*
X244000199Y-50390199I0J-2250199D01*
G01*
X182420000Y-48160000D02*
X97178803Y-48212991D01*
X227600000Y-121950000D02*
X216250000Y-121940000D01*
X84250000Y-121887009D02*
X72680000Y-121910000D01*
X207910222Y-121897009D02*
G75*
G02*
X216250000Y-121940000I4169778J-42991D01*
G01*
X72680000Y-121910000D02*
G75*
G02*
X70670000Y-119900000I0J2010000D01*
G01*
X231620000Y-100890000D02*
X241980000Y-100890000D01*
X241980000Y-100890000D02*
G75*
G03*
X243990000Y-98880000I0J2010000D01*
G01*
X229610000Y-119940000D02*
X229610000Y-102900000D01*
X231620000Y-100890000D02*
G75*
G03*
X229610000Y-102900000I0J-2010000D01*
G01*
X227600000Y-121950000D02*
G75*
G03*
X229610000Y-119940000I0J2010000D01*
G01*
X56289801Y-50410000D02*
G75*
G02*
X58540000Y-48159801I2250199J0D01*
G01*
D11*
X56290000Y-98880000D02*
X56289801Y-50410000D01*
D10*
X68660000Y-100890000D02*
G75*
G02*
X70670000Y-102900000I0J-2010000D01*
G01*
X211489778Y-48182991D02*
G75*
G02*
X203150000Y-48140000I-4169778J42991D01*
G01*
X58540000Y-48159801D02*
X88839025Y-48170000D01*
X84250000Y-121887009D02*
G75*
G02*
X92589778Y-121930000I4169778J-42991D01*
G01*
D11*
X244000199Y-50390199D02*
X243990000Y-98880000D01*
D10*
X58300000Y-100890000D02*
G75*
G02*
X56290000Y-98880000I0J2010000D01*
G01*
X182420000Y-48160000D02*
X182420000Y-45500000D01*
X241750000Y-48140000D02*
X211489778Y-48182991D01*
D11*
X207910222Y-121897009D02*
X92589778Y-121930000D01*
D10*
X68660000Y-100890000D02*
X58300000Y-100890000D01*
X182420000Y-45500000D02*
X193510000Y-45500000D01*
X97178803Y-48212991D02*
G75*
G02*
X88839025Y-48170000I-4169778J42991D01*
G01*
X70670000Y-119900000D02*
X70670000Y-102900000D01*
X193510000Y-45500000D02*
X193510000Y-48160000D01*
X193510000Y-48160000D02*
X203150000Y-48140000D01*
G36*
G01*
X232425000Y-57343750D02*
X232425000Y-57856250D01*
G75*
G02*
X232206250Y-58075000I-218750J0D01*
G01*
X231768750Y-58075000D01*
G75*
G02*
X231550000Y-57856250I0J218750D01*
G01*
X231550000Y-57343750D01*
G75*
G02*
X231768750Y-57125000I218750J0D01*
G01*
X232206250Y-57125000D01*
G75*
G02*
X232425000Y-57343750I0J-218750D01*
G01*
G37*
G36*
G01*
X230850000Y-57343750D02*
X230850000Y-57856250D01*
G75*
G02*
X230631250Y-58075000I-218750J0D01*
G01*
X230193750Y-58075000D01*
G75*
G02*
X229975000Y-57856250I0J218750D01*
G01*
X229975000Y-57343750D01*
G75*
G02*
X230193750Y-57125000I218750J0D01*
G01*
X230631250Y-57125000D01*
G75*
G02*
X230850000Y-57343750I0J-218750D01*
G01*
G37*
G36*
G01*
X236162500Y-59256250D02*
X236162500Y-58743750D01*
G75*
G02*
X236381250Y-58525000I218750J0D01*
G01*
X236818750Y-58525000D01*
G75*
G02*
X237037500Y-58743750I0J-218750D01*
G01*
X237037500Y-59256250D01*
G75*
G02*
X236818750Y-59475000I-218750J0D01*
G01*
X236381250Y-59475000D01*
G75*
G02*
X236162500Y-59256250I0J218750D01*
G01*
G37*
G36*
G01*
X237737500Y-59256250D02*
X237737500Y-58743750D01*
G75*
G02*
X237956250Y-58525000I218750J0D01*
G01*
X238393750Y-58525000D01*
G75*
G02*
X238612500Y-58743750I0J-218750D01*
G01*
X238612500Y-59256250D01*
G75*
G02*
X238393750Y-59475000I-218750J0D01*
G01*
X237956250Y-59475000D01*
G75*
G02*
X237737500Y-59256250I0J218750D01*
G01*
G37*
G36*
G01*
X228256250Y-58025000D02*
X227743750Y-58025000D01*
G75*
G02*
X227525000Y-57806250I0J218750D01*
G01*
X227525000Y-57368750D01*
G75*
G02*
X227743750Y-57150000I218750J0D01*
G01*
X228256250Y-57150000D01*
G75*
G02*
X228475000Y-57368750I0J-218750D01*
G01*
X228475000Y-57806250D01*
G75*
G02*
X228256250Y-58025000I-218750J0D01*
G01*
G37*
G36*
G01*
X228256250Y-56450000D02*
X227743750Y-56450000D01*
G75*
G02*
X227525000Y-56231250I0J218750D01*
G01*
X227525000Y-55793750D01*
G75*
G02*
X227743750Y-55575000I218750J0D01*
G01*
X228256250Y-55575000D01*
G75*
G02*
X228475000Y-55793750I0J-218750D01*
G01*
X228475000Y-56231250D01*
G75*
G02*
X228256250Y-56450000I-218750J0D01*
G01*
G37*
G36*
G01*
X235962500Y-65056250D02*
X235962500Y-64543750D01*
G75*
G02*
X236181250Y-64325000I218750J0D01*
G01*
X236618750Y-64325000D01*
G75*
G02*
X236837500Y-64543750I0J-218750D01*
G01*
X236837500Y-65056250D01*
G75*
G02*
X236618750Y-65275000I-218750J0D01*
G01*
X236181250Y-65275000D01*
G75*
G02*
X235962500Y-65056250I0J218750D01*
G01*
G37*
G36*
G01*
X237537500Y-65056250D02*
X237537500Y-64543750D01*
G75*
G02*
X237756250Y-64325000I218750J0D01*
G01*
X238193750Y-64325000D01*
G75*
G02*
X238412500Y-64543750I0J-218750D01*
G01*
X238412500Y-65056250D01*
G75*
G02*
X238193750Y-65275000I-218750J0D01*
G01*
X237756250Y-65275000D01*
G75*
G02*
X237537500Y-65056250I0J218750D01*
G01*
G37*
G36*
G01*
X223056250Y-70225000D02*
X222543750Y-70225000D01*
G75*
G02*
X222325000Y-70006250I0J218750D01*
G01*
X222325000Y-69568750D01*
G75*
G02*
X222543750Y-69350000I218750J0D01*
G01*
X223056250Y-69350000D01*
G75*
G02*
X223275000Y-69568750I0J-218750D01*
G01*
X223275000Y-70006250D01*
G75*
G02*
X223056250Y-70225000I-218750J0D01*
G01*
G37*
G36*
G01*
X223056250Y-68650000D02*
X222543750Y-68650000D01*
G75*
G02*
X222325000Y-68431250I0J218750D01*
G01*
X222325000Y-67993750D01*
G75*
G02*
X222543750Y-67775000I218750J0D01*
G01*
X223056250Y-67775000D01*
G75*
G02*
X223275000Y-67993750I0J-218750D01*
G01*
X223275000Y-68431250D01*
G75*
G02*
X223056250Y-68650000I-218750J0D01*
G01*
G37*
G36*
G01*
X224625000Y-71543750D02*
X224625000Y-72056250D01*
G75*
G02*
X224406250Y-72275000I-218750J0D01*
G01*
X223968750Y-72275000D01*
G75*
G02*
X223750000Y-72056250I0J218750D01*
G01*
X223750000Y-71543750D01*
G75*
G02*
X223968750Y-71325000I218750J0D01*
G01*
X224406250Y-71325000D01*
G75*
G02*
X224625000Y-71543750I0J-218750D01*
G01*
G37*
G36*
G01*
X223050000Y-71543750D02*
X223050000Y-72056250D01*
G75*
G02*
X222831250Y-72275000I-218750J0D01*
G01*
X222393750Y-72275000D01*
G75*
G02*
X222175000Y-72056250I0J218750D01*
G01*
X222175000Y-71543750D01*
G75*
G02*
X222393750Y-71325000I218750J0D01*
G01*
X222831250Y-71325000D01*
G75*
G02*
X223050000Y-71543750I0J-218750D01*
G01*
G37*
D12*
X169350000Y-78240000D03*
X169350000Y-81540000D03*
X188100000Y-97180000D03*
X188100000Y-100480000D03*
X150110000Y-78260000D03*
X150110000Y-81560000D03*
X170000000Y-56850000D03*
X170000000Y-60150000D03*
X111850000Y-97350000D03*
X111850000Y-100650000D03*
X213360000Y-111250000D03*
X213360000Y-114550000D03*
X188080000Y-78210000D03*
X188080000Y-81510000D03*
X150080000Y-56850000D03*
X150080000Y-60150000D03*
X151900000Y-97130000D03*
X151900000Y-100430000D03*
X226120000Y-78150000D03*
X226120000Y-81450000D03*
X93000000Y-56850000D03*
X93000000Y-60150000D03*
X226030000Y-97230000D03*
X226030000Y-100530000D03*
X207280000Y-78200000D03*
X207280000Y-81500000D03*
D13*
X193350000Y-60500000D03*
X196650000Y-60500000D03*
D12*
X75170000Y-97380000D03*
X75170000Y-100680000D03*
X139700000Y-111290000D03*
X139700000Y-114590000D03*
X112030000Y-78190000D03*
X112030000Y-81490000D03*
X131000000Y-56850000D03*
X131000000Y-60150000D03*
X130260000Y-97150000D03*
X130260000Y-100450000D03*
X131160000Y-78230000D03*
X131160000Y-81530000D03*
D13*
X218820000Y-61500000D03*
X215520000Y-61500000D03*
D12*
X93090000Y-97350000D03*
X93090000Y-100650000D03*
X72640000Y-78280000D03*
X72640000Y-81580000D03*
X112380000Y-56850000D03*
X112380000Y-60150000D03*
X207240000Y-97180000D03*
X207240000Y-100480000D03*
X92830000Y-78190000D03*
X92830000Y-81490000D03*
X72750000Y-56850000D03*
X72750000Y-60150000D03*
X72690000Y-97380000D03*
X72690000Y-100680000D03*
X87630000Y-111100000D03*
X87630000Y-114400000D03*
X75020000Y-78280000D03*
X75020000Y-81580000D03*
X75380000Y-56850000D03*
X75380000Y-60150000D03*
X169230000Y-97260000D03*
X169230000Y-100560000D03*
G36*
G01*
X184733750Y-58135000D02*
X185246250Y-58135000D01*
G75*
G02*
X185465000Y-58353750I0J-218750D01*
G01*
X185465000Y-58791250D01*
G75*
G02*
X185246250Y-59010000I-218750J0D01*
G01*
X184733750Y-59010000D01*
G75*
G02*
X184515000Y-58791250I0J218750D01*
G01*
X184515000Y-58353750D01*
G75*
G02*
X184733750Y-58135000I218750J0D01*
G01*
G37*
G36*
G01*
X184733750Y-59710000D02*
X185246250Y-59710000D01*
G75*
G02*
X185465000Y-59928750I0J-218750D01*
G01*
X185465000Y-60366250D01*
G75*
G02*
X185246250Y-60585000I-218750J0D01*
G01*
X184733750Y-60585000D01*
G75*
G02*
X184515000Y-60366250I0J218750D01*
G01*
X184515000Y-59928750D01*
G75*
G02*
X184733750Y-59710000I218750J0D01*
G01*
G37*
G36*
G01*
X187086250Y-60545000D02*
X186573750Y-60545000D01*
G75*
G02*
X186355000Y-60326250I0J218750D01*
G01*
X186355000Y-59888750D01*
G75*
G02*
X186573750Y-59670000I218750J0D01*
G01*
X187086250Y-59670000D01*
G75*
G02*
X187305000Y-59888750I0J-218750D01*
G01*
X187305000Y-60326250D01*
G75*
G02*
X187086250Y-60545000I-218750J0D01*
G01*
G37*
G36*
G01*
X187086250Y-58970000D02*
X186573750Y-58970000D01*
G75*
G02*
X186355000Y-58751250I0J218750D01*
G01*
X186355000Y-58313750D01*
G75*
G02*
X186573750Y-58095000I218750J0D01*
G01*
X187086250Y-58095000D01*
G75*
G02*
X187305000Y-58313750I0J-218750D01*
G01*
X187305000Y-58751250D01*
G75*
G02*
X187086250Y-58970000I-218750J0D01*
G01*
G37*
G36*
G01*
X232356250Y-84325000D02*
X231843750Y-84325000D01*
G75*
G02*
X231625000Y-84106250I0J218750D01*
G01*
X231625000Y-83668750D01*
G75*
G02*
X231843750Y-83450000I218750J0D01*
G01*
X232356250Y-83450000D01*
G75*
G02*
X232575000Y-83668750I0J-218750D01*
G01*
X232575000Y-84106250D01*
G75*
G02*
X232356250Y-84325000I-218750J0D01*
G01*
G37*
G36*
G01*
X232356250Y-82750000D02*
X231843750Y-82750000D01*
G75*
G02*
X231625000Y-82531250I0J218750D01*
G01*
X231625000Y-82093750D01*
G75*
G02*
X231843750Y-81875000I218750J0D01*
G01*
X232356250Y-81875000D01*
G75*
G02*
X232575000Y-82093750I0J-218750D01*
G01*
X232575000Y-82531250D01*
G75*
G02*
X232356250Y-82750000I-218750J0D01*
G01*
G37*
G36*
G01*
X198127500Y-51113750D02*
X198127500Y-51626250D01*
G75*
G02*
X197908750Y-51845000I-218750J0D01*
G01*
X197471250Y-51845000D01*
G75*
G02*
X197252500Y-51626250I0J218750D01*
G01*
X197252500Y-51113750D01*
G75*
G02*
X197471250Y-50895000I218750J0D01*
G01*
X197908750Y-50895000D01*
G75*
G02*
X198127500Y-51113750I0J-218750D01*
G01*
G37*
G36*
G01*
X196552500Y-51113750D02*
X196552500Y-51626250D01*
G75*
G02*
X196333750Y-51845000I-218750J0D01*
G01*
X195896250Y-51845000D01*
G75*
G02*
X195677500Y-51626250I0J218750D01*
G01*
X195677500Y-51113750D01*
G75*
G02*
X195896250Y-50895000I218750J0D01*
G01*
X196333750Y-50895000D01*
G75*
G02*
X196552500Y-51113750I0J-218750D01*
G01*
G37*
G36*
G01*
X198087500Y-49353750D02*
X198087500Y-49866250D01*
G75*
G02*
X197868750Y-50085000I-218750J0D01*
G01*
X197431250Y-50085000D01*
G75*
G02*
X197212500Y-49866250I0J218750D01*
G01*
X197212500Y-49353750D01*
G75*
G02*
X197431250Y-49135000I218750J0D01*
G01*
X197868750Y-49135000D01*
G75*
G02*
X198087500Y-49353750I0J-218750D01*
G01*
G37*
G36*
G01*
X196512500Y-49353750D02*
X196512500Y-49866250D01*
G75*
G02*
X196293750Y-50085000I-218750J0D01*
G01*
X195856250Y-50085000D01*
G75*
G02*
X195637500Y-49866250I0J218750D01*
G01*
X195637500Y-49353750D01*
G75*
G02*
X195856250Y-49135000I218750J0D01*
G01*
X196293750Y-49135000D01*
G75*
G02*
X196512500Y-49353750I0J-218750D01*
G01*
G37*
G36*
G01*
X230812500Y-70143750D02*
X230812500Y-70656250D01*
G75*
G02*
X230593750Y-70875000I-218750J0D01*
G01*
X230156250Y-70875000D01*
G75*
G02*
X229937500Y-70656250I0J218750D01*
G01*
X229937500Y-70143750D01*
G75*
G02*
X230156250Y-69925000I218750J0D01*
G01*
X230593750Y-69925000D01*
G75*
G02*
X230812500Y-70143750I0J-218750D01*
G01*
G37*
G36*
G01*
X229237500Y-70143750D02*
X229237500Y-70656250D01*
G75*
G02*
X229018750Y-70875000I-218750J0D01*
G01*
X228581250Y-70875000D01*
G75*
G02*
X228362500Y-70656250I0J218750D01*
G01*
X228362500Y-70143750D01*
G75*
G02*
X228581250Y-69925000I218750J0D01*
G01*
X229018750Y-69925000D01*
G75*
G02*
X229237500Y-70143750I0J-218750D01*
G01*
G37*
D14*
X240000000Y-78950000D03*
X240000000Y-85250000D03*
X236200000Y-78950000D03*
X236200000Y-85250000D03*
D12*
X207300000Y-57150000D03*
X207300000Y-60450000D03*
D15*
X237200000Y-60600000D03*
X237200000Y-61800000D03*
X237200000Y-63000000D03*
G36*
G01*
X189537500Y-58400000D02*
X189062500Y-58400000D01*
G75*
G02*
X188825000Y-58162500I0J237500D01*
G01*
X188825000Y-57587500D01*
G75*
G02*
X189062500Y-57350000I237500J0D01*
G01*
X189537500Y-57350000D01*
G75*
G02*
X189775000Y-57587500I0J-237500D01*
G01*
X189775000Y-58162500D01*
G75*
G02*
X189537500Y-58400000I-237500J0D01*
G01*
G37*
G36*
G01*
X189537500Y-56650000D02*
X189062500Y-56650000D01*
G75*
G02*
X188825000Y-56412500I0J237500D01*
G01*
X188825000Y-55837500D01*
G75*
G02*
X189062500Y-55600000I237500J0D01*
G01*
X189537500Y-55600000D01*
G75*
G02*
X189775000Y-55837500I0J-237500D01*
G01*
X189775000Y-56412500D01*
G75*
G02*
X189537500Y-56650000I-237500J0D01*
G01*
G37*
D12*
X123190000Y-111250000D03*
X123190000Y-114550000D03*
X210820000Y-111250000D03*
X210820000Y-114550000D03*
D16*
X184785000Y-52265000D03*
X185560000Y-52265000D03*
D17*
X186260000Y-52265000D03*
X186760000Y-52265000D03*
X187260000Y-52265000D03*
X187760000Y-52265000D03*
X188260000Y-52265000D03*
X188760000Y-52265000D03*
X189260000Y-52265000D03*
X189760000Y-52265000D03*
D16*
X190460000Y-52265000D03*
X191235000Y-52265000D03*
D12*
X107950000Y-111380000D03*
X107950000Y-114680000D03*
D18*
X233450000Y-61200000D03*
X233450000Y-62000000D03*
X233450000Y-62800000D03*
X233450000Y-63600000D03*
X233450000Y-64400000D03*
X233450000Y-65200000D03*
X233450000Y-66000000D03*
X233450000Y-66800000D03*
D19*
X232000000Y-68250000D03*
X231200000Y-68250000D03*
X230400000Y-68250000D03*
X229600000Y-68250000D03*
X228800000Y-68250000D03*
X228000000Y-68250000D03*
X227200000Y-68250000D03*
X226400000Y-68250000D03*
D18*
X224950000Y-66800000D03*
X224950000Y-66000000D03*
X224950000Y-65200000D03*
X224950000Y-64400000D03*
X224950000Y-63600000D03*
X224950000Y-62800000D03*
X224950000Y-62000000D03*
X224950000Y-61200000D03*
D19*
X226400000Y-59750000D03*
X227200000Y-59750000D03*
X228000000Y-59750000D03*
X228800000Y-59750000D03*
X229600000Y-59750000D03*
X230400000Y-59750000D03*
X231200000Y-59750000D03*
X232000000Y-59750000D03*
D12*
X163843206Y-111231308D03*
X163843206Y-114531308D03*
M02*
