M48
; DRILL file {KiCad (5.99.0-2555-g9cc6a77cc-dirty)} date 09/08/20 07:01:27
; FORMAT={-:-/ absolute / inch / decimal}
; #@! TF.CreationDate,2020-09-08T07:01:27-05:00
; #@! TF.GenerationSoftware,Kicad,Pcbnew,(5.99.0-2555-g9cc6a77cc-dirty)
; #@! TF.FileFunction,Plated,1,2,PTH
FMAT,2
INCH
T1C0.0118
T2C0.0157
T3C0.0236
T4C0.0394
T5C0.0579
%
G90
G05
T1
X3.2717Y-4.6378
X4.1417Y-4.4803
X4.4567Y-4.6457
X7.4409Y-4.3622
X8.2913Y-2.4803
X8.311Y-2.3583
X8.7035Y-2.4213
X8.8425Y-4.6693
X8.8583Y-3.563
T2
X7.189Y-2.4252
X7.3094Y-2.1433
X7.4173Y-2.3465
X7.4961Y-2.4961
X7.4984Y-2.1433
X7.8305Y-2.3821
X7.9449Y-2.4094
X8.5118Y-2.4961
X8.5906Y-2.4961
X8.6063Y-2.3465
X8.6378Y-2.5197
X8.7756Y-4.0551
X8.8189Y-2.8976
X8.8315Y-3.9913
X8.8661Y-2.8976
X8.8701Y-2.7835
X8.937Y-3.3701
X8.9449Y-2.5906
X9.0236Y-2.4409
X9.0354Y-2.815
X9.0787Y-2.4409
X9.1102Y-2.5984
X9.2283Y-2.3543
X9.2717Y-2.5315
X9.2835Y-2.6929
X9.3465Y-2.5984
X9.4016Y-2.8898
X9.4646Y-2.4173
T4
X8.8591Y-3.4449
X8.9591Y-3.4449
X9.0591Y-3.4449
T5
X3.887Y-3.5945
X4.137Y-3.4945
X3.137Y-2.8445
X3.387Y-2.7445
X3.887Y-2.0945
X4.137Y-1.9945
X8.387Y-2.0945
X8.637Y-1.9945
X3.887Y-2.8445
X4.137Y-2.7445
X5.387Y-2.8445
X5.637Y-2.7445
X2.387Y-3.5945
X2.637Y-3.4945
X4.637Y-2.8445
X4.887Y-2.7445
X5.387Y-2.0945
X5.637Y-1.9945
X3.137Y-3.5945
X3.387Y-3.4945
X2.8586Y-4.3445
X3.1086Y-4.2445
X4.637Y-3.5945
X4.887Y-3.4945
X6.137Y-2.8445
X6.387Y-2.7445
X5.762Y-4.3445
X6.012Y-4.2445
X7.637Y-2.8445
X7.887Y-2.7445
X8.5749Y-4.3445
X8.8249Y-4.2445
X6.887Y-3.5945
X7.137Y-3.4945
X5.387Y-3.5945
X5.637Y-3.4945
X9.137Y-2.0945
X9.387Y-1.9945
X2.387Y-2.0945
X2.637Y-1.9945
X6.887Y-2.8445
X7.137Y-2.7445
X6.6086Y-4.3445
X6.8586Y-4.2445
X9.137Y-3.5945
X9.387Y-3.4945
X3.137Y-2.0945
X3.387Y-1.9945
X6.137Y-2.0945
X6.387Y-1.9945
X6.137Y-3.5945
X6.387Y-3.4945
X7.8274Y-4.3445
X8.0774Y-4.2445
X2.9524Y-4.3445
X3.2024Y-4.2445
X4.637Y-2.0945
X4.887Y-1.9945
X2.387Y-2.8445
X2.637Y-2.7445
X8.387Y-3.5945
X8.637Y-3.4945
X9.137Y-2.8445
X9.387Y-2.7445
X3.7024Y-4.3445
X3.9524Y-4.2445
X7.637Y-2.0945
X7.887Y-1.9945
X7.637Y-3.5945
X7.887Y-3.4945
X5.0149Y-4.3445
X5.2649Y-4.2445
X6.887Y-2.0945
X7.137Y-1.9945
X8.6711Y-4.3445
X8.9211Y-4.2445
X8.387Y-2.8445
X8.637Y-2.7445
T3
G00X7.2319Y-1.8256
M15
G01X7.2319Y-1.8492
M16
G05
G00X7.2319Y-1.9803
M15
G01X7.2319Y-2.0236
M16
G05
G00X7.572Y-1.8256
M15
G01X7.572Y-1.8492
M16
G05
G00X7.572Y-1.9803
M15
G01X7.572Y-2.0236
M16
G05
T0
M30
